<svg viewBox="0 0 937.2000122070312 400" xmlns="http://www.w3.org/2000/svg"><g><g><g><g><g><line x1="40" y1="362.36948614172667" x2="35" y2="362.36948614172667" style="visibility: inherit;" fill="rgb(0, 0, 0)" stroke="rgb(204, 204, 204)" stroke-width="1px"></line><line x1="40" y1="326.6103630573868" x2="35" y2="326.6103630573868" style="visibility: inherit;" fill="rgb(0, 0, 0)" stroke="rgb(204, 204, 204)" stroke-width="1px"></line><line x1="40" y1="290.85123997304686" x2="35" y2="290.85123997304686" style="visibility: inherit;" fill="rgb(0, 0, 0)" stroke="rgb(204, 204, 204)" stroke-width="1px"></line><line x1="40" y1="255.09211688870698" x2="35" y2="255.09211688870698" style="visibility: inherit;" fill="rgb(0, 0, 0)" stroke="rgb(204, 204, 204)" stroke-width="1px"></line><line x1="40" y1="219.33299380436708" x2="35" y2="219.33299380436708" style="visibility: inherit;" fill="rgb(0, 0, 0)" stroke="rgb(204, 204, 204)" stroke-width="1px"></line><line x1="40" y1="183.5738707200272" x2="35" y2="183.5738707200272" style="visibility: inherit;" fill="rgb(0, 0, 0)" stroke="rgb(204, 204, 204)" stroke-width="1px"></line><line x1="40" y1="147.8147476356873" x2="35" y2="147.8147476356873" style="visibility: inherit;" fill="rgb(0, 0, 0)" stroke="rgb(204, 204, 204)" stroke-width="1px"></line><line x1="40" y1="112.05562455134736" x2="35" y2="112.05562455134736" style="visibility: inherit;" fill="rgb(0, 0, 0)" stroke="rgb(204, 204, 204)" stroke-width="1px"></line><line x1="40" y1="76.29650146700749" x2="35" y2="76.29650146700749" style="visibility: inherit;" fill="rgb(0, 0, 0)" stroke="rgb(204, 204, 204)" stroke-width="1px"></line><line x1="40" y1="40.53737838266761" x2="35" y2="40.53737838266761" style="visibility: inherit;" fill="rgb(0, 0, 0)" stroke="rgb(204, 204, 204)" stroke-width="1px"></line><line x1="40" y1="4.7782552983277355" x2="35" y2="4.7782552983277355" style="visibility: inherit;" fill="rgb(0, 0, 0)" stroke="rgb(204, 204, 204)" stroke-width="1px"></line></g><g transform="translate(30, 0)"><text x="0" y="362.36948614172667" dx="0em" dy="0.3em" style="text-anchor: end; visibility: inherit; font-family: &quot;Helvetica Neue&quot;, sans-serif; font-size: 12px; font-weight: 200;" fill="rgb(50, 49, 63)" stroke="none" stroke-width="1px">0</text><text x="0" y="326.6103630573868" dx="0em" dy="0.3em" style="text-anchor: end; visibility: inherit; font-family: &quot;Helvetica Neue&quot;, sans-serif; font-size: 12px; font-weight: 200;" fill="rgb(50, 49, 63)" stroke="none" stroke-width="1px">10</text><text x="0" y="290.85123997304686" dx="0em" dy="0.3em" style="text-anchor: end; visibility: inherit; font-family: &quot;Helvetica Neue&quot;, sans-serif; font-size: 12px; font-weight: 200;" fill="rgb(50, 49, 63)" stroke="none" stroke-width="1px">20</text><text x="0" y="255.09211688870698" dx="0em" dy="0.3em" style="text-anchor: end; visibility: inherit; font-family: &quot;Helvetica Neue&quot;, sans-serif; font-size: 12px; font-weight: 200;" fill="rgb(50, 49, 63)" stroke="none" stroke-width="1px">30</text><text x="0" y="219.33299380436708" dx="0em" dy="0.3em" style="text-anchor: end; visibility: inherit; font-family: &quot;Helvetica Neue&quot;, sans-serif; font-size: 12px; font-weight: 200;" fill="rgb(50, 49, 63)" stroke="none" stroke-width="1px">40</text><text x="0" y="183.5738707200272" dx="0em" dy="0.3em" style="text-anchor: end; visibility: inherit; font-family: &quot;Helvetica Neue&quot;, sans-serif; font-size: 12px; font-weight: 200;" fill="rgb(50, 49, 63)" stroke="none" stroke-width="1px">50</text><text x="0" y="147.8147476356873" dx="0em" dy="0.3em" style="text-anchor: end; visibility: inherit; font-family: &quot;Helvetica Neue&quot;, sans-serif; font-size: 12px; font-weight: 200;" fill="rgb(50, 49, 63)" stroke="none" stroke-width="1px">60</text><text x="0" y="112.05562455134736" dx="0em" dy="0.3em" style="text-anchor: end; visibility: inherit; font-family: &quot;Helvetica Neue&quot;, sans-serif; font-size: 12px; font-weight: 200;" fill="rgb(50, 49, 63)" stroke="none" stroke-width="1px">70</text><text x="0" y="76.29650146700749" dx="0em" dy="0.3em" style="text-anchor: end; visibility: inherit; font-family: &quot;Helvetica Neue&quot;, sans-serif; font-size: 12px; font-weight: 200;" fill="rgb(50, 49, 63)" stroke="none" stroke-width="1px">80</text><text x="0" y="40.53737838266761" dx="0em" dy="0.3em" style="text-anchor: end; visibility: inherit; font-family: &quot;Helvetica Neue&quot;, sans-serif; font-size: 12px; font-weight: 200;" fill="rgb(50, 49, 63)" stroke="none" stroke-width="1px">90</text><text x="0" y="4.7782552983277355" dx="0em" dy="0.3em" style="text-anchor: end; visibility: hidden; font-family: &quot;Helvetica Neue&quot;, sans-serif; font-size: 12px; font-weight: 200;" fill="rgb(50, 49, 63)" stroke="none" stroke-width="1px">100</text></g><line x1="40" y1="0" x2="40" y2="378" fill="rgb(0, 0, 0)" stroke="rgb(204, 204, 204)" stroke-width="1px"></line></g></g><g transform="translate(40, 0)" clip-path="url(#clip_0)"><clipPath id="clip_0"><rect width="897" height="378"></rect></clipPath><g><g><g><line x1="26.786517047830927" y1="0" x2="26.786517047830927" y2="378" fill="rgb(0, 0, 0)" stroke="rgb(60, 60, 60)" stroke-width="1px" opacity="0.25"></line><line x1="105.13080273352553" y1="0" x2="105.13080273352553" y2="378" fill="rgb(0, 0, 0)" stroke="rgb(60, 60, 60)" stroke-width="1px" opacity="0.25"></line><line x1="183.47508841922016" y1="0" x2="183.47508841922016" y2="378" fill="rgb(0, 0, 0)" stroke="rgb(60, 60, 60)" stroke-width="1px" opacity="0.25"></line><line x1="261.81937410491474" y1="0" x2="261.81937410491474" y2="378" fill="rgb(0, 0, 0)" stroke="rgb(60, 60, 60)" stroke-width="1px" opacity="0.25"></line><line x1="340.16365979060936" y1="0" x2="340.16365979060936" y2="378" fill="rgb(0, 0, 0)" stroke="rgb(60, 60, 60)" stroke-width="1px" opacity="0.25"></line><line x1="418.5079454763039" y1="0" x2="418.5079454763039" y2="378" fill="rgb(0, 0, 0)" stroke="rgb(60, 60, 60)" stroke-width="1px" opacity="0.25"></line><line x1="496.8522311619986" y1="0" x2="496.8522311619986" y2="378" fill="rgb(0, 0, 0)" stroke="rgb(60, 60, 60)" stroke-width="1px" opacity="0.25"></line><line x1="575.1965168476931" y1="0" x2="575.1965168476931" y2="378" fill="rgb(0, 0, 0)" stroke="rgb(60, 60, 60)" stroke-width="1px" opacity="0.25"></line><line x1="653.5408025333877" y1="0" x2="653.5408025333877" y2="378" fill="rgb(0, 0, 0)" stroke="rgb(60, 60, 60)" stroke-width="1px" opacity="0.25"></line><line x1="731.8850882190824" y1="0" x2="731.8850882190824" y2="378" fill="rgb(0, 0, 0)" stroke="rgb(60, 60, 60)" stroke-width="1px" opacity="0.25"></line><line x1="810.2293739047769" y1="0" x2="810.2293739047769" y2="378" fill="rgb(0, 0, 0)" stroke="rgb(60, 60, 60)" stroke-width="1px" opacity="0.25"></line><line x1="888.5736595904715" y1="0" x2="888.5736595904715" y2="378" fill="rgb(0, 0, 0)" stroke="rgb(60, 60, 60)" stroke-width="1px" opacity="0.25"></line></g><g><line x1="0" y1="362.36948614172667" x2="897.2" y2="362.36948614172667" fill="rgb(0, 0, 0)" stroke="rgb(60, 60, 60)" stroke-width="1px" opacity="0.25"></line><line x1="0" y1="326.6103630573868" x2="897.2" y2="326.6103630573868" fill="rgb(0, 0, 0)" stroke="rgb(60, 60, 60)" stroke-width="1px" opacity="0.25"></line><line x1="0" y1="290.85123997304686" x2="897.2" y2="290.85123997304686" fill="rgb(0, 0, 0)" stroke="rgb(60, 60, 60)" stroke-width="1px" opacity="0.25"></line><line x1="0" y1="255.09211688870698" x2="897.2" y2="255.09211688870698" fill="rgb(0, 0, 0)" stroke="rgb(60, 60, 60)" stroke-width="1px" opacity="0.25"></line><line x1="0" y1="219.33299380436708" x2="897.2" y2="219.33299380436708" fill="rgb(0, 0, 0)" stroke="rgb(60, 60, 60)" stroke-width="1px" opacity="0.25"></line><line x1="0" y1="183.5738707200272" x2="897.2" y2="183.5738707200272" fill="rgb(0, 0, 0)" stroke="rgb(60, 60, 60)" stroke-width="1px" opacity="0.25"></line><line x1="0" y1="147.8147476356873" x2="897.2" y2="147.8147476356873" fill="rgb(0, 0, 0)" stroke="rgb(60, 60, 60)" stroke-width="1px" opacity="0.25"></line><line x1="0" y1="112.05562455134736" x2="897.2" y2="112.05562455134736" fill="rgb(0, 0, 0)" stroke="rgb(60, 60, 60)" stroke-width="1px" opacity="0.25"></line><line x1="0" y1="76.29650146700749" x2="897.2" y2="76.29650146700749" fill="rgb(0, 0, 0)" stroke="rgb(60, 60, 60)" stroke-width="1px" opacity="0.25"></line><line x1="0" y1="40.53737838266761" x2="897.2" y2="40.53737838266761" fill="rgb(0, 0, 0)" stroke="rgb(60, 60, 60)" stroke-width="1px" opacity="0.25"></line><line x1="0" y1="4.7782552983277355" x2="897.2" y2="4.7782552983277355" fill="rgb(0, 0, 0)" stroke="rgb(60, 60, 60)" stroke-width="1px" opacity="0.25"></line></g></g></g><g><g><line x1="0" y1="362.36948614172667" x2="897.2" y2="362.36948614172667" fill="rgb(0, 0, 0)" stroke="rgb(153, 153, 153)" stroke-width="1.5px"></line></g></g><g><g><line x1="26.786517047830927" y1="0" x2="26.786517047830927" y2="378" fill="rgb(0, 0, 0)" stroke="rgb(153, 153, 153)" stroke-width="1.5px"></line></g></g><g><g><g><g><g><path style="fill: none;" stroke="rgb(255, 112, 67)" stroke-width="2px" d="M28.745124189973293,170.25579903220745L33.83750275954344,-45.449485726083196L206.97837412492854,-75.33230952194413L208.15353841021394,7.32936688337503L208.5452598386424,79.15168306942218L212.46247412292715,167.9461110143074L219.12173840621116,257.16954390581645L219.90518126306813,331.0742028125882L228.13133126006608,373.3543496387743L229.30649554535145,402.4342570431319L279.0551169557676,381.4386192521531L280.230281241053,376.115131310485L281.0137240979099,370.9188099742034L285.7143812390516,365.91321216938405L286.889545524337,361.5537514616024L288.4564312380509,358.8555531057787L289.63159552333633,358.66148845844896L290.80675980862173,360.5669596669338L292.37364552233566,362.73760809548645L294.332252664478,366.0401097667262L296.29085980662035,368.74837370744484L306.47561694576063,362.93981240383937L308.04250265947456,357.2303901070752L309.60938837318844,351.55463239231403L310.0011098016169,347.6287833646807L312.74315980061624,342.47748763165026L316.26865265647245,336.1611438875071L317.8355383701864,329.66825950704936L319.40242408390026,323.0302415456597L321.36103122604266,316.2173330853078L322.9279169397565,309.5354938898737L326.4534097956128,302.905714258549L328.02029550932673,296.05853316192474L328.41201693775514,290.31742635497983L328.8037383661836,285.9104785842767L329.58718122304055,281.00340535564925L332.3292312220399,277.9288872388246L334.2878383641823,278.31561851254855L335.07128122103916,278.89313791085635L337.02988836318156,282.2572261048813L337.8133312200385,285.37428510121015L339.3802169337524,289.7831088609654L340.9471026474663,293.58825963958594L343.29743121803716,298.87071431081506L343.68915264646563,303.1894943014466L352.6987455003205,320.8158938075668L354.2656312140344,334.8987579467536L367.19243835217395,341.42691875812477L369.15104549431635,345.2455799073309L369.9344883511733,349.26931184301355L372.28481692174415,351.8024554277922L375.41858834917196,352.2994308169339L377.76891691974276,352.1496010389539L379.33580263345664,351.52920502454737L382.077852632456,348.5988278305902L382.8612954893129,346.60003783723L385.2116240598838,343.22817995443665L385.99506691674065,340.6372798704949L391.4791669147393,337.67822708795416L391.8708883431678,335.23918973658095L395.7881026274525,332.4981617699992L396.96326691273794,330.6665970323042L400.4887597685942,328.1681911768905L402.0556454823081,326.06644585236256L403.62253119602195,323.93427637836965L407.1480240518782,322.81221056384385L407.53974548030675,321.7456415578163L409.89007405087756,320.0773967530261L410.281795479306,319.01053251558517L412.24040262144837,318.748342435651L416.94105976259004,318.0521277004889L419.2913883331609,318.45202652744973L420.4665526184463,319.5081761621426L423.99204547430253,321.548163416879L425.167209759588,322.97839859762996L428.3009811870158,324.5419724388482L433.00163832815747,325.5646637146513L435.74368832715675,325.10818598097586L440.8360668967269,325.3980902996279L443.1863954672977,325.1999472517146L444.36155975258316,324.63149657287823L445.1450026094401,324.2358925638722L446.71188832315397,323.49115642302996L448.2787740368679,323.5739968739955L449.06221689372484,323.5179083333744L451.02082403586724,323.37830035711335L451.4125454642957,323.64158572775705L454.938038320152,323.28333946190014L457.28836689072284,323.5035829245453L458.85525260443666,323.98796814942546L459.2469740328652,323.6815508510303L463.16418831714986,323.76483232681665L465.1227954592922,324.04350276948344L470.6068954572908,322.35581619417337L479.61648831114576,318.4900245657967L481.1833740248596,314.50319669151287L481.57509545328816,311.47074740510106L481.96681688171657,308.84260527194954L489.0178025934291,306.29723079280876L493.71845973457073,303.6631169194244L494.11018116299925,301.35614568909944L496.46050973357006,299.1825073001139L499.20255973256934,296.978501813167L509.3873168717097,295.01291081244585L510.1707597285667,293.8095146894845L514.0879740128513,291.5962410072392L518.3969097255646,289.3024983888305L519.57207401085,286.6655989600439L520.7472382961355,284.53602696141513L528.5816668647049,283.4232501299229L530.9319954352757,282.288981810677L533.6740454342751,281.96593580192587L536.0243740048459,281.1189824444224L539.9415882891306,279.2774098851239L542.2919168597015,278.11179717384687L543.4670811449869,277.433297926374L547.7760168577,276.11595361914374L548.9511811429854,274.91737889098914L550.1263454282708,274.07880794186264L550.5180668566993,273.13154524329065L557.5690525684118,272.4452133547172L569.320695421266,272.793059222293L570.4958597065514,273.05095936232107L571.6710239918369,273.3477058254936L572.0627454202654,273.11071953850444L580.6806168456918,273.0390953689535L585.3812739868334,273.4939175163013L586.1647168436904,273.2438122791034L587.7316025574044,273.22680539280276L589.2984882711181,273.66462056756916L590.8653739848321,274.1419413210917L600.6584096955439,274.6134791032769L601.0501311239724,274.90612563465396L605.3590668366855,274.8853325017843L608.4928382641134,275.4387702615317L610.0597239778273,275.2516933814052L610.8431668346841,275.69801414580024L614.7603811189689,276.09368392545736L617.5024311179683,276.0252470376141L623.3782525443954,276.53245092623536L624.9451382581092,276.8551886497935L634.3464525403926,277.2246232493064L634.738173968821,277.55480943181703L641.0057168236766,277.6712971114289L641.3974382521051,276.9901362452024L644.9229311079614,277.0124655880211L647.2732596785322,276.98236502800296L648.8401453922461,276.6488687794533L652.3656382481023,276.512063695964L655.1076882471017,275.98607306784857L655.49940967553,276.1190495591822L660.5917882451002,275.4415418572408L664.1172811009565,275.1700542459146L666.0758882430988,275.0303719119627L668.0344953852413,275.42016603749755L669.2096596705267,275.04811345737676L671.168266812669,275.6141611061295L672.3434310979544,275.54895313982735L673.9103168116684,275.49847860470436L677.0440882390961,275.5064458579613L680.1778596665239,274.8615679805215L682.9199096655232,275.25867730175906L685.6619596645226,275.2423119116338L689.1874525203788,275.67134290867546L690.7543382340926,276.16161756357474L691.1460596625211,276.21334996118543L691.5377810909497,276.44735133368476L692.3212239478066,276.23714487729757L693.496388233092,275.93802322379554L696.2384382320913,275.99443137213683L699.7639310879475,275.64233430851533L703.6811453722322,274.9603489457645L705.2480310859462,274.83159914356975L706.0314739428031,273.9925975848312L707.2066382280885,273.51686358196173L709.165245370231,273.6991586122199L710.3404096555164,273.35897796349695L710.7321310839448,272.61200876104937L711.1238525123733,272.2269576649001L718.5665596525142,271.8713150535171L722.0920525083706,272.28861262161547L724.4423810789414,271.6177186518735L727.1844310779408,271.58486901473907L727.5761525063691,271.6294788056448L731.1016453622254,271.6000218397151L733.8436953612247,271.4614106544424L738.5443525023663,272.06517216494984L742.0698453582227,272.4704048757368L743.6367310719365,272.850704738839L747.5539453562213,273.2675521527492L749.1208310699351,273.6981181278932L751.0794382120775,274.71835340031487L752.6463239257914,274.63654306077245L757.7387024953616,275.62638088624715L758.9138667806469,275.5662672614558L761.2641953512178,275.6905644830076L761.6559167796463,275.7313396925068L762.0476382080748,276.21717721798416L775.3661667746429,276.6201175726682L777.7164953452136,276.8770168932551L784.3757596284978,277.2921910654361L785.1592024853547,277.4746531962636L785.9426453422117,278.20180307815394L788.2929739127825,279.0070590284792L789.4681381980679,279.75035219951747L790.2515810549248,280.0634515159496L791.4267453402102,280.6557045350817L797.3025667666374,281.1263065386109L798.0860096234943,281.63298949371205L802.7866667646359,281.73653522904664L803.1783881930645,281.4116455154319L803.5701096214929,281.64938903266113L810.6210953332054,281.93957003499247L812.1879810469193,282.1957136941061L815.321752474347,282.32953153208314L816.888638188061,282.14921940114994L820.8058524723458,282.5404860326443L821.9810167576312,282.95420734444457L823.1561810429165,283.28374373817235L824.331345328202,282.63286004013884L833.7326596104854,282.62212302969294L838.433316751627,282.750150902849L838.8250381800555,282.68145741443277L840.0002024653409,282.4313678315864L840.3919238937694,282.9218738082051L841.1753667506263,282.54267736563855L841.9588096074832,282.4234415058519L843.5256953211972,282.6144972866749L845.0925810349111,282.6270394834271L847.0511881770534,282.267187106466L847.8346310339103,282.41389141740706L853.7104524603374,282.51975486485395L865.4620953131916,283.00020559546556L866.637259598477,283.25766183806866L867.0289810269055,283.88725115339486L868.5958667406194,283.7972197850745L869.3793095974764,284.00454809795264L871.3379167396188,284.39494291623083L874.863409595475,283.7856123699224L877.9971810229029,283.74349756378217L879.5640667366166,284.1424881485877L883.4812810209014,284.02191255204303L884.2647238777583,283.9388556367825L885.0481667346154,283.97140500074016L885.4398881630437,284.44451591638597L887.0067738767577,284.40938618009545L888.1819381620431,284.1795521987066L891.3157095894709,284.65278698677537L892.8825953031848,284.46958566443317L898.3666953011833,284.3516675132488" fill="none"></path></g></g></g></g><g opacity="0.2"><g><g><g><path style="fill: none;" stroke="rgb(255, 112, 67)" stroke-width="2px" d="M28.745124189973293,170.25579903220745L33.83750275954344,-221.24929280409015L192.09295984464654,-15.443388030510107L198.7522241279306,21.795404090391514L199.53566698478755,21.61245069118837L199.927388413216,28.3188959102049L201.10255269850143,44.46222805701399L206.97837412492854,310.4217324837656L208.15353841021394,371.4828318780004L208.5452598386424,395.5547528192182L270.43724553034116,390.315299011101L275.13790267148283,367.4174724209381L277.8799526704821,363.5777911125226L278.2716740989106,359.14124961772734L279.0551169557676,357.780430764059L280.230281241053,352.66300997313283L281.0137240979099,348.02690883887533L285.7143812390516,343.8615253025155L286.889545524337,342.3485602341702L288.4564312380509,346.96889575620514L289.63159552333633,357.8065550280502L290.80675980862173,368.96133270103553L292.37364552233566,372.3001942973985L294.332252664478,380.5889683336688L296.29085980662035,380.67937421297233L306.47561694576063,337.3507452109218L308.04250265947456,332.0780703966471L309.60938837318844,326.5506187873182L310.0011098016169,330.3338269003295L312.74315980061624,319.7839416316642L316.26865265647245,308.3350890817629L317.8355383701864,301.06447161692586L319.40242408390026,293.78708138421644L321.36103122604266,286.20370936672276L322.9279169397565,280.09928341157695L326.4534097956128,273.69884725939045L328.02029550932673,265.8939245683836L328.41201693775514,265.0255234092222L328.8037383661836,266.49608706299483L329.58718122304055,259.38575843780416L332.3292312220399,264.38438851217114L334.2878383641823,280.0193265558187L335.07128122103916,281.4373449893609L337.02988836318156,297.0773984165978L337.8133312200385,299.1061936507158L339.3802169337524,309.20576488149374L340.9471026474663,310.3514914465715L343.29743121803716,322.1420686715242L343.68915264646563,322.21547101577653L352.6987455003205,398.46732946582307L354.2656312140344,396.9394837466162L367.19243835217395,370.18611368295L369.15104549431635,362.06833037500496L369.9344883511733,366.9954822619853L372.28481692174415,362.9619798686457L375.41858834917196,354.4888088825804L377.76891691974276,351.4895401251579L379.33580263345664,348.79610906921516L382.077852632456,335.6893283005561L382.8612954893129,337.794557596267L385.2116240598838,328.3737790113975L385.99506691674065,329.2233146358812L391.4791669147393,324.64239996491415L391.8708883431678,324.4942414048861L395.7881026274525,320.4228223496802L396.96326691273794,322.5978118365278L400.4887597685942,317.1617005165714L402.0556454823081,316.807405638913L403.62253119602195,314.5412054524105L407.1480240518782,317.86905575931524L407.53974548030675,317.0469726934281L409.89007405087756,312.72810207246795L410.281795479306,314.3105630371311L412.24040262144837,317.5932888402658L416.94105976259004,314.9850195428836L419.2913883331609,320.213742981358L420.4665526184463,324.1609434717344L423.99204547430253,330.5351342958515L425.167209759588,329.2791643939104L428.3009811870158,331.43014909070075L433.00163832815747,330.070033389135L435.74368832715675,323.0972165055949L440.8360668967269,326.6752363520677L443.1863954672977,324.3270467973941L444.36155975258316,322.12724087962636L445.1450026094401,322.4930965241968L446.71188832315397,320.210291802563L448.2787740368679,323.9389426444654L449.06221689372484,323.2708155733409L451.02082403586724,322.7632706238552L451.4125454642957,324.80146452275477L454.938038320152,321.7051194258281L457.28836689072284,324.4738446653873L458.85525260443666,326.12188143741093L459.2469740328652,322.3316584283707L463.16418831714986,324.13172099041594L465.1227954592922,325.2711590439345L470.6068954572908,314.92087263267234L479.61648831114576,301.4596452299751L481.1833740248596,296.939603623722L481.57509545328816,298.1115789271249L481.96681688171657,297.26457371239013L489.0178025934291,295.0838243036209L493.71845973457073,292.0587774231634L494.11018116299925,291.1930021609112L496.46050973357006,289.60674899188047L499.20255973256934,287.2689641274277L509.3873168717097,286.3536855930529L510.1707597285667,288.5080669045466L514.0879740128513,281.8458731638342L518.3969097255646,279.1976322590843L519.57207401085,275.04898796295686L520.7472382961355,275.154398967456L528.5816668647049,278.5210170614571L530.9319954352757,277.292070025891L533.6740454342751,280.5427871687789L536.0243740048459,277.38780954515045L539.9415882891306,271.1645361779439L542.2919168597015,272.97680063497785L543.4670811449869,274.4442336739937L547.7760168577,270.3125178872915L548.9511811429854,269.6371713047945L550.1263454282708,270.3845629497648L550.5180668566993,268.95846903066274L557.5690525684118,269.4216431428939L569.320695421266,274.32546128755905L570.4958597065514,274.1871140332555L571.6710239918369,274.65499429838894L572.0627454202654,272.06669886879547L580.6806168456918,272.7235618652561L585.3812739868334,275.4975934627254L586.1647168436904,272.1419973152316L587.7316025574044,273.1518831639647L589.2984882711181,275.5933739050535L590.8653739848321,276.244732748772L600.6584096955439,276.69079419776864L601.0501311239724,276.1953522458555L605.3590668366855,274.79373032184526L608.4928382641134,277.87688795987833L610.0597239778273,274.4275438824693L610.8431668346841,277.6642380538108L614.7603811189689,277.8367697115145L617.5024311179683,275.7237548019805L623.3782525443954,278.76688967881L624.9451382581092,278.2769791616849L634.3464525403926,278.852132430944L634.738173968821,279.0094134250398L641.0057168236766,278.184472564854L641.3974382521051,273.9893464831774L644.9229311079614,277.1108353955739L647.2732596785322,276.84975985819324L648.8401453922461,275.1796826034106L652.3656382481023,275.909381841673L655.1076882471017,273.6688711115565L655.49940967553,276.70486491289523L660.5917882451002,272.4568457649042L664.1172811009565,273.9740412554779L666.0758882430988,274.415014602931L668.0344953852413,277.1373671851243L669.2096596705267,273.40907100981747L671.168266812669,278.10783047766165L672.3434310979544,275.26168561260465L673.9103168116684,275.27611781483824L677.0440882390961,275.5415448385256L680.1778596665239,272.0206194934221L682.9199096655232,277.0081048520756L685.6619596645226,275.1702157335145L689.1874525203788,277.56139838212925L690.7543382340926,278.3214761784013L691.1460596625211,276.4412521452542L691.5377810909497,277.4782222449654L692.3212239478066,275.3111002180783L693.496388233092,274.620271074584L696.2384382320913,276.24293213374847L699.7639310879475,274.0912040012098L703.6811453722322,271.95592694229464L705.2480310859462,274.2644040690358L706.0314739428031,270.2964555828208L707.2066382280885,271.4210624341857L709.165245370231,274.50224212389764L710.3404096555164,271.8603442947986L710.7321310839448,269.3213065989155L711.1238525123733,270.53065148456693L718.5665596525142,270.30456517093785L722.0920525083706,274.1269775837784L724.4423810789414,268.6621587311182L727.1844310779408,271.44015304574145L727.5761525063691,271.82600301963504L731.1016453622254,271.4702519627815L733.8436953612247,270.8507721895923L738.5443525023663,274.724986386915L742.0698453582227,274.2556192502849L743.6367310719365,274.5260798114243L747.5539453562213,275.1039340032186L749.1208310699351,275.59493580217617L751.0794382120775,279.2129033842266L752.6463239257914,274.2761353487342L757.7387024953616,279.98701779306793L758.9138667806469,275.3014423738615L761.2641953512178,276.23814413470876L761.6559167796463,275.91097102084143L762.0476382080748,278.3574884788708L775.3661667746429,278.3952331892492L777.7164953452136,278.0087625488134L784.3757596284978,279.121201607747L785.1592024853547,278.278472853693L785.9426453422117,281.40519309837356L788.2929739127825,282.55453794477694L789.4681381980679,283.0248599530104L790.2515810549248,281.4427809369886L791.4267453402102,283.26481918693395L797.3025667666374,283.1994991487529L798.0860096234943,283.86513332294146L802.7866667646359,282.1926961711963L803.1783881930645,279.9803746149132L803.5701096214929,282.6967456085626L810.6210953332054,283.2179349912091L812.1879810469193,283.3241303545253L815.321752474347,282.919053358847L816.888638188061,281.35487136487666L820.8058524723458,284.26417416598434L821.9810167576312,284.7768174477808L823.1561810429165,284.73548514837836L824.331345328202,279.7654534785319L833.7326596104854,282.57482214583683L838.433316751627,283.31416558729313L838.8250381800555,282.37883474924786L840.0002024653409,281.32962183147936L840.3919238937694,285.0827514889849L841.1753667506263,280.8721633078454L841.9588096074832,281.89815920462945L843.5256953211972,283.4561754562467L845.0925810349111,282.68229294479465L847.0511881770534,280.68189149985363L847.8346310339103,283.0601833818231L853.7104524603374,282.98612626847137L865.4620953131916,285.11678584113315L866.637259598477,284.39186096088747L867.0289810269055,286.6608473263184L868.5958667406194,283.40059510841985L869.3793095974764,284.9179133681997L871.3379167396188,286.1147903589159L874.863409595475,281.10126428753654L877.9971810229029,283.5579647691645L879.5640667366166,285.9002034275958L883.4812810209014,283.4907281672653L884.2647238777583,283.5729562533372L885.0481667346154,284.114798144662L885.4398881630437,286.52876130152833L887.0067738767577,284.25462544995077L888.1819381620431,283.1670403347502L891.3157095894709,286.73757808015955L892.8825953031848,283.6625095687092L898.3666953011833,283.83219025262565" fill="none"></path></g></g></g></g></g></g><g transform="translate(40, 378)" clip-path="url(#clip_1)"><clipPath id="clip_1"><rect width="897" height="22"></rect></clipPath><g><g><line x1="26.786517047830927" y1="0" x2="26.786517047830927" y2="5" style="visibility: inherit;" fill="rgb(0, 0, 0)" stroke="rgb(204, 204, 204)" stroke-width="1px"></line><line x1="105.13080273352553" y1="0" x2="105.13080273352553" y2="5" style="visibility: inherit;" fill="rgb(0, 0, 0)" stroke="rgb(204, 204, 204)" stroke-width="1px"></line><line x1="183.47508841922016" y1="0" x2="183.47508841922016" y2="5" style="visibility: inherit;" fill="rgb(0, 0, 0)" stroke="rgb(204, 204, 204)" stroke-width="1px"></line><line x1="261.81937410491474" y1="0" x2="261.81937410491474" y2="5" style="visibility: inherit;" fill="rgb(0, 0, 0)" stroke="rgb(204, 204, 204)" stroke-width="1px"></line><line x1="340.16365979060936" y1="0" x2="340.16365979060936" y2="5" style="visibility: inherit;" fill="rgb(0, 0, 0)" stroke="rgb(204, 204, 204)" stroke-width="1px"></line><line x1="418.5079454763039" y1="0" x2="418.5079454763039" y2="5" style="visibility: inherit;" fill="rgb(0, 0, 0)" stroke="rgb(204, 204, 204)" stroke-width="1px"></line><line x1="496.8522311619986" y1="0" x2="496.8522311619986" y2="5" style="visibility: inherit;" fill="rgb(0, 0, 0)" stroke="rgb(204, 204, 204)" stroke-width="1px"></line><line x1="575.1965168476931" y1="0" x2="575.1965168476931" y2="5" style="visibility: inherit;" fill="rgb(0, 0, 0)" stroke="rgb(204, 204, 204)" stroke-width="1px"></line><line x1="653.5408025333877" y1="0" x2="653.5408025333877" y2="5" style="visibility: inherit;" fill="rgb(0, 0, 0)" stroke="rgb(204, 204, 204)" stroke-width="1px"></line><line x1="731.8850882190824" y1="0" x2="731.8850882190824" y2="5" style="visibility: inherit;" fill="rgb(0, 0, 0)" stroke="rgb(204, 204, 204)" stroke-width="1px"></line><line x1="810.2293739047769" y1="0" x2="810.2293739047769" y2="5" style="visibility: inherit;" fill="rgb(0, 0, 0)" stroke="rgb(204, 204, 204)" stroke-width="1px"></line><line x1="888.5736595904715" y1="0" x2="888.5736595904715" y2="5" style="visibility: inherit;" fill="rgb(0, 0, 0)" stroke="rgb(204, 204, 204)" stroke-width="1px"></line></g><g transform="translate(0, 8)"><text x="26.786517047830927" y="0" dx="0em" dy="0.95em" style="text-anchor: middle; visibility: inherit; font-family: &quot;Helvetica Neue&quot;, sans-serif; font-size: 12px; font-weight: 200;" fill="rgb(50, 49, 63)" stroke="none" stroke-width="1px">0</text><text x="105.13080273352553" y="0" dx="0em" dy="0.95em" style="text-anchor: middle; visibility: inherit; font-family: &quot;Helvetica Neue&quot;, sans-serif; font-size: 12px; font-weight: 200;" fill="rgb(50, 49, 63)" stroke="none" stroke-width="1px">200</text><text x="183.47508841922016" y="0" dx="0em" dy="0.95em" style="text-anchor: middle; visibility: inherit; font-family: &quot;Helvetica Neue&quot;, sans-serif; font-size: 12px; font-weight: 200;" fill="rgb(50, 49, 63)" stroke="none" stroke-width="1px">400</text><text x="261.81937410491474" y="0" dx="0em" dy="0.95em" style="text-anchor: middle; visibility: inherit; font-family: &quot;Helvetica Neue&quot;, sans-serif; font-size: 12px; font-weight: 200;" fill="rgb(50, 49, 63)" stroke="none" stroke-width="1px">600</text><text x="340.16365979060936" y="0" dx="0em" dy="0.95em" style="text-anchor: middle; visibility: inherit; font-family: &quot;Helvetica Neue&quot;, sans-serif; font-size: 12px; font-weight: 200;" fill="rgb(50, 49, 63)" stroke="none" stroke-width="1px">800</text><text x="418.5079454763039" y="0" dx="0em" dy="0.95em" style="text-anchor: middle; visibility: inherit; font-family: &quot;Helvetica Neue&quot;, sans-serif; font-size: 12px; font-weight: 200;" fill="rgb(50, 49, 63)" stroke="none" stroke-width="1px">1k</text><text x="496.8522311619986" y="0" dx="0em" dy="0.95em" style="text-anchor: middle; visibility: inherit; font-family: &quot;Helvetica Neue&quot;, sans-serif; font-size: 12px; font-weight: 200;" fill="rgb(50, 49, 63)" stroke="none" stroke-width="1px">1.2k</text><text x="575.1965168476931" y="0" dx="0em" dy="0.95em" style="text-anchor: middle; visibility: inherit; font-family: &quot;Helvetica Neue&quot;, sans-serif; font-size: 12px; font-weight: 200;" fill="rgb(50, 49, 63)" stroke="none" stroke-width="1px">1.4k</text><text x="653.5408025333877" y="0" dx="0em" dy="0.95em" style="text-anchor: middle; visibility: inherit; font-family: &quot;Helvetica Neue&quot;, sans-serif; font-size: 12px; font-weight: 200;" fill="rgb(50, 49, 63)" stroke="none" stroke-width="1px">1.6k</text><text x="731.8850882190824" y="0" dx="0em" dy="0.95em" style="text-anchor: middle; visibility: inherit; font-family: &quot;Helvetica Neue&quot;, sans-serif; font-size: 12px; font-weight: 200;" fill="rgb(50, 49, 63)" stroke="none" stroke-width="1px">1.8k</text><text x="810.2293739047769" y="0" dx="0em" dy="0.95em" style="text-anchor: middle; visibility: inherit; font-family: &quot;Helvetica Neue&quot;, sans-serif; font-size: 12px; font-weight: 200;" fill="rgb(50, 49, 63)" stroke="none" stroke-width="1px">2k</text><text x="888.5736595904715" y="0" dx="0em" dy="0.95em" style="text-anchor: middle; visibility: hidden; font-family: &quot;Helvetica Neue&quot;, sans-serif; font-size: 12px; font-weight: 200;" fill="rgb(50, 49, 63)" stroke="none" stroke-width="1px">2.2k</text></g><line x1="0" y1="0" x2="897.2" y2="0" fill="rgb(0, 0, 0)" stroke="rgb(204, 204, 204)" stroke-width="1px"></line></g></g></g></g></svg>