<svg viewBox="0 0 330 200" xmlns="http://www.w3.org/2000/svg"><g><g><g><g><g><line x1="90" y1="178" x2="85" y2="178" style="visibility: inherit;" fill="rgb(0, 0, 0)" stroke="rgb(204, 204, 204)" stroke-width="1px"></line><line x1="90" y1="165.28571428571428" x2="85" y2="165.28571428571428" style="visibility: inherit;" fill="rgb(0, 0, 0)" stroke="rgb(204, 204, 204)" stroke-width="1px"></line><line x1="90" y1="152.57142857142858" x2="85" y2="152.57142857142858" style="visibility: inherit;" fill="rgb(0, 0, 0)" stroke="rgb(204, 204, 204)" stroke-width="1px"></line><line x1="90" y1="139.85714285714286" x2="85" y2="139.85714285714286" style="visibility: inherit;" fill="rgb(0, 0, 0)" stroke="rgb(204, 204, 204)" stroke-width="1px"></line><line x1="90" y1="127.14285714285714" x2="85" y2="127.14285714285714" style="visibility: inherit;" fill="rgb(0, 0, 0)" stroke="rgb(204, 204, 204)" stroke-width="1px"></line><line x1="90" y1="114.42857142857143" x2="85" y2="114.42857142857143" style="visibility: inherit;" fill="rgb(0, 0, 0)" stroke="rgb(204, 204, 204)" stroke-width="1px"></line><line x1="90" y1="101.71428571428572" x2="85" y2="101.71428571428572" style="visibility: inherit;" fill="rgb(0, 0, 0)" stroke="rgb(204, 204, 204)" stroke-width="1px"></line><line x1="90" y1="89" x2="85" y2="89" style="visibility: inherit;" fill="rgb(0, 0, 0)" stroke="rgb(204, 204, 204)" stroke-width="1px"></line><line x1="90" y1="76.28571428571429" x2="85" y2="76.28571428571429" style="visibility: inherit;" fill="rgb(0, 0, 0)" stroke="rgb(204, 204, 204)" stroke-width="1px"></line><line x1="90" y1="63.57142857142857" x2="85" y2="63.57142857142857" style="visibility: inherit;" fill="rgb(0, 0, 0)" stroke="rgb(204, 204, 204)" stroke-width="1px"></line><line x1="90" y1="50.85714285714286" x2="85" y2="50.85714285714286" style="visibility: inherit;" fill="rgb(0, 0, 0)" stroke="rgb(204, 204, 204)" stroke-width="1px"></line><line x1="90" y1="38.14285714285714" x2="85" y2="38.14285714285714" style="visibility: inherit;" fill="rgb(0, 0, 0)" stroke="rgb(204, 204, 204)" stroke-width="1px"></line><line x1="90" y1="25.428571428571445" x2="85" y2="25.428571428571445" style="visibility: inherit;" fill="rgb(0, 0, 0)" stroke="rgb(204, 204, 204)" stroke-width="1px"></line><line x1="90" y1="12.714285714285722" x2="85" y2="12.714285714285722" style="visibility: inherit;" fill="rgb(0, 0, 0)" stroke="rgb(204, 204, 204)" stroke-width="1px"></line><line x1="90" y1="0" x2="85" y2="0" style="visibility: inherit;" fill="rgb(0, 0, 0)" stroke="rgb(204, 204, 204)" stroke-width="1px"></line></g><g transform="translate(80, 0)"><text x="0" y="178" dx="0em" dy="0.3em" style="text-anchor: end; visibility: hidden; font-family: &quot;Helvetica Neue&quot;, sans-serif; font-size: 12px; font-weight: 200;" fill="rgb(50, 49, 63)" stroke="none" stroke-width="1px">-2.4e+18</text><text x="0" y="165.28571428571428" dx="0em" dy="0.3em" style="text-anchor: end; visibility: inherit; font-family: &quot;Helvetica Neue&quot;, sans-serif; font-size: 12px; font-weight: 200;" fill="rgb(50, 49, 63)" stroke="none" stroke-width="1px">-2.2e+18</text><text x="0" y="152.57142857142858" dx="0em" dy="0.3em" style="text-anchor: end; visibility: hidden; font-family: &quot;Helvetica Neue&quot;, sans-serif; font-size: 12px; font-weight: 200;" fill="rgb(50, 49, 63)" stroke="none" stroke-width="1px">-2e+18</text><text x="0" y="139.85714285714286" dx="0em" dy="0.3em" style="text-anchor: end; visibility: inherit; font-family: &quot;Helvetica Neue&quot;, sans-serif; font-size: 12px; font-weight: 200;" fill="rgb(50, 49, 63)" stroke="none" stroke-width="1px">-1.8e+18</text><text x="0" y="127.14285714285714" dx="0em" dy="0.3em" style="text-anchor: end; visibility: hidden; font-family: &quot;Helvetica Neue&quot;, sans-serif; font-size: 12px; font-weight: 200;" fill="rgb(50, 49, 63)" stroke="none" stroke-width="1px">-1.6e+18</text><text x="0" y="114.42857142857143" dx="0em" dy="0.3em" style="text-anchor: end; visibility: inherit; font-family: &quot;Helvetica Neue&quot;, sans-serif; font-size: 12px; font-weight: 200;" fill="rgb(50, 49, 63)" stroke="none" stroke-width="1px">-1.4e+18</text><text x="0" y="101.71428571428572" dx="0em" dy="0.3em" style="text-anchor: end; visibility: hidden; font-family: &quot;Helvetica Neue&quot;, sans-serif; font-size: 12px; font-weight: 200;" fill="rgb(50, 49, 63)" stroke="none" stroke-width="1px">-1.2e+18</text><text x="0" y="89" dx="0em" dy="0.3em" style="text-anchor: end; visibility: inherit; font-family: &quot;Helvetica Neue&quot;, sans-serif; font-size: 12px; font-weight: 200;" fill="rgb(50, 49, 63)" stroke="none" stroke-width="1px">-1e+18</text><text x="0" y="76.28571428571429" dx="0em" dy="0.3em" style="text-anchor: end; visibility: hidden; font-family: &quot;Helvetica Neue&quot;, sans-serif; font-size: 12px; font-weight: 200;" fill="rgb(50, 49, 63)" stroke="none" stroke-width="1px">-8e+17</text><text x="0" y="63.57142857142857" dx="0em" dy="0.3em" style="text-anchor: end; visibility: inherit; font-family: &quot;Helvetica Neue&quot;, sans-serif; font-size: 12px; font-weight: 200;" fill="rgb(50, 49, 63)" stroke="none" stroke-width="1px">-6e+17</text><text x="0" y="50.85714285714286" dx="0em" dy="0.3em" style="text-anchor: end; visibility: hidden; font-family: &quot;Helvetica Neue&quot;, sans-serif; font-size: 12px; font-weight: 200;" fill="rgb(50, 49, 63)" stroke="none" stroke-width="1px">-4e+17</text><text x="0" y="38.14285714285714" dx="0em" dy="0.3em" style="text-anchor: end; visibility: inherit; font-family: &quot;Helvetica Neue&quot;, sans-serif; font-size: 12px; font-weight: 200;" fill="rgb(50, 49, 63)" stroke="none" stroke-width="1px">-2e+17</text><text x="0" y="25.428571428571445" dx="0em" dy="0.3em" style="text-anchor: end; visibility: hidden; font-family: &quot;Helvetica Neue&quot;, sans-serif; font-size: 12px; font-weight: 200;" fill="rgb(50, 49, 63)" stroke="none" stroke-width="1px">0</text><text x="0" y="12.714285714285722" dx="0em" dy="0.3em" style="text-anchor: end; visibility: inherit; font-family: &quot;Helvetica Neue&quot;, sans-serif; font-size: 12px; font-weight: 200;" fill="rgb(50, 49, 63)" stroke="none" stroke-width="1px">2e+17</text><text x="0" y="0" dx="0em" dy="0.3em" style="text-anchor: end; visibility: hidden; font-family: &quot;Helvetica Neue&quot;, sans-serif; font-size: 12px; font-weight: 200;" fill="rgb(50, 49, 63)" stroke="none" stroke-width="1px">4e+17</text></g><line x1="90" y1="0" x2="90" y2="178" fill="rgb(0, 0, 0)" stroke="rgb(204, 204, 204)" stroke-width="1px"></line></g></g><g transform="translate(90, 0)" clip-path="url(#clip_0)"><clipPath id="clip_0"><rect width="240" height="178"></rect></clipPath><g><g><g><line x1="0" y1="0" x2="0" y2="178" fill="rgb(0, 0, 0)" stroke="rgb(60, 60, 60)" stroke-width="1px" opacity="0.25"></line><line x1="21.81818181818182" y1="0" x2="21.81818181818182" y2="178" fill="rgb(0, 0, 0)" stroke="rgb(60, 60, 60)" stroke-width="1px" opacity="0.25"></line><line x1="43.63636363636364" y1="0" x2="43.63636363636364" y2="178" fill="rgb(0, 0, 0)" stroke="rgb(60, 60, 60)" stroke-width="1px" opacity="0.25"></line><line x1="65.45454545454545" y1="0" x2="65.45454545454545" y2="178" fill="rgb(0, 0, 0)" stroke="rgb(60, 60, 60)" stroke-width="1px" opacity="0.25"></line><line x1="87.27272727272728" y1="0" x2="87.27272727272728" y2="178" fill="rgb(0, 0, 0)" stroke="rgb(60, 60, 60)" stroke-width="1px" opacity="0.25"></line><line x1="109.0909090909091" y1="0" x2="109.0909090909091" y2="178" fill="rgb(0, 0, 0)" stroke="rgb(60, 60, 60)" stroke-width="1px" opacity="0.25"></line><line x1="130.9090909090909" y1="0" x2="130.9090909090909" y2="178" fill="rgb(0, 0, 0)" stroke="rgb(60, 60, 60)" stroke-width="1px" opacity="0.25"></line><line x1="152.72727272727272" y1="0" x2="152.72727272727272" y2="178" fill="rgb(0, 0, 0)" stroke="rgb(60, 60, 60)" stroke-width="1px" opacity="0.25"></line><line x1="174.54545454545456" y1="0" x2="174.54545454545456" y2="178" fill="rgb(0, 0, 0)" stroke="rgb(60, 60, 60)" stroke-width="1px" opacity="0.25"></line><line x1="196.36363636363637" y1="0" x2="196.36363636363637" y2="178" fill="rgb(0, 0, 0)" stroke="rgb(60, 60, 60)" stroke-width="1px" opacity="0.25"></line><line x1="218.1818181818182" y1="0" x2="218.1818181818182" y2="178" fill="rgb(0, 0, 0)" stroke="rgb(60, 60, 60)" stroke-width="1px" opacity="0.25"></line><line x1="240" y1="0" x2="240" y2="178" fill="rgb(0, 0, 0)" stroke="rgb(60, 60, 60)" stroke-width="1px" opacity="0.25"></line></g><g><line x1="0" y1="178" x2="240" y2="178" fill="rgb(0, 0, 0)" stroke="rgb(60, 60, 60)" stroke-width="1px" opacity="0.25"></line><line x1="0" y1="165.28571428571428" x2="240" y2="165.28571428571428" fill="rgb(0, 0, 0)" stroke="rgb(60, 60, 60)" stroke-width="1px" opacity="0.25"></line><line x1="0" y1="152.57142857142858" x2="240" y2="152.57142857142858" fill="rgb(0, 0, 0)" stroke="rgb(60, 60, 60)" stroke-width="1px" opacity="0.25"></line><line x1="0" y1="139.85714285714286" x2="240" y2="139.85714285714286" fill="rgb(0, 0, 0)" stroke="rgb(60, 60, 60)" stroke-width="1px" opacity="0.25"></line><line x1="0" y1="127.14285714285714" x2="240" y2="127.14285714285714" fill="rgb(0, 0, 0)" stroke="rgb(60, 60, 60)" stroke-width="1px" opacity="0.25"></line><line x1="0" y1="114.42857142857143" x2="240" y2="114.42857142857143" fill="rgb(0, 0, 0)" stroke="rgb(60, 60, 60)" stroke-width="1px" opacity="0.25"></line><line x1="0" y1="101.71428571428572" x2="240" y2="101.71428571428572" fill="rgb(0, 0, 0)" stroke="rgb(60, 60, 60)" stroke-width="1px" opacity="0.25"></line><line x1="0" y1="89" x2="240" y2="89" fill="rgb(0, 0, 0)" stroke="rgb(60, 60, 60)" stroke-width="1px" opacity="0.25"></line><line x1="0" y1="76.28571428571429" x2="240" y2="76.28571428571429" fill="rgb(0, 0, 0)" stroke="rgb(60, 60, 60)" stroke-width="1px" opacity="0.25"></line><line x1="0" y1="63.57142857142857" x2="240" y2="63.57142857142857" fill="rgb(0, 0, 0)" stroke="rgb(60, 60, 60)" stroke-width="1px" opacity="0.25"></line><line x1="0" y1="50.85714285714286" x2="240" y2="50.85714285714286" fill="rgb(0, 0, 0)" stroke="rgb(60, 60, 60)" stroke-width="1px" opacity="0.25"></line><line x1="0" y1="38.14285714285714" x2="240" y2="38.14285714285714" fill="rgb(0, 0, 0)" stroke="rgb(60, 60, 60)" stroke-width="1px" opacity="0.25"></line><line x1="0" y1="25.428571428571445" x2="240" y2="25.428571428571445" fill="rgb(0, 0, 0)" stroke="rgb(60, 60, 60)" stroke-width="1px" opacity="0.25"></line><line x1="0" y1="12.714285714285722" x2="240" y2="12.714285714285722" fill="rgb(0, 0, 0)" stroke="rgb(60, 60, 60)" stroke-width="1px" opacity="0.25"></line><line x1="0" y1="0" x2="240" y2="0" fill="rgb(0, 0, 0)" stroke="rgb(60, 60, 60)" stroke-width="1px" opacity="0.25"></line></g></g></g><g><g><line x1="0" y1="25.428571428571445" x2="240" y2="25.428571428571445" fill="rgb(0, 0, 0)" stroke="rgb(153, 153, 153)" stroke-width="1.5px"></line></g></g><g><g><line x1="21.81818181818182" y1="0" x2="21.81818181818182" y2="178" fill="rgb(0, 0, 0)" stroke="rgb(153, 153, 153)" stroke-width="1.5px"></line></g></g><g><g><g><g><g><path stroke="rgb(255, 112, 67)" stroke-width="2px" d="M22.036363636363635,25.428571428571445L22.603636363636365,25.428571428571445L22.865454545454547,25.428571428571445L23.563636363636363,25.428571428571445L23.650909090909092,25.428571428571388L23.78181818181818,25.428571428571388L23.869090909090907,25.428571428571388L24.130909090909093,25.428571428571388L24.26181818181818,25.428571428571388L24.916363636363638,25.428571428571388L25.047272727272727,25.428571428571388L25.265454545454546,25.428571428571388L25.614545454545453,25.428571428571388L25.919999999999998,25.428571428571388L26.26909090909091,25.428571428571388L26.4,25.428571428571388L26.443636363636365,25.428571428571388L26.74909090909091,25.428571428571388L26.967272727272725,25.428571428571388L27.316363636363636,25.428571428571388L27.883636363636363,25.428571428571388L28.363636363636363,25.428571428571388L28.581818181818182,25.428571428571388L28.712727272727275,25.428571428571388L29.105454545454545,25.428571428571388L29.14909090909091,25.428571428571388L29.585454545454546,25.428571428571388L29.803636363636365,25.428571428571388L29.89090909090909,25.428571428571388L29.934545454545454,25.428571428571388L30.10909090909091,25.428571428571388L30.45818181818182,25.428571428571388L30.80727272727273,25.428571428571388L30.85090909090909,25.428571428571388L31.06909090909091,25.428571428571388L31.54909090909091,25.428571428571388L31.810909090909092,25.428571428571388L32.02909090909091,25.428571428571388L32.160000000000004,25.428571428571388L32.68363636363637,25.428571428571388L32.945454545454545,25.428571428571388L33.163636363636364,25.428571428571388L33.29454545454546,25.428571428571388L33.46909090909091,25.428571428571388L33.64363636363636,25.428571428571388L33.730909090909094,25.428571428571388L34.559999999999995,25.428571428571388L34.778181818181814,25.428571428571388L34.82181818181819,25.428571428571388L35.04,25.428571428571388L35.25818181818182,25.428571428571388L35.345454545454544,25.428571428571388L35.694545454545455,25.428571428571388L35.738181818181815,25.428571428571388L36.04363636363637,25.428571428571388L36.21818181818182,25.428571428571388L36.61090909090909,25.428571428571388L36.96,25.428571428571388L37.658181818181816,25.428571428571388L37.83272727272727,25.428571428571388L38.094545454545454,25.428571428571388L38.26909090909091,25.428571428571388L38.35636363636364,25.428571428571388L38.92363636363636,25.428571428571388L40.189090909090915,25.428571428571388L40.232727272727274,25.428571428571388L40.32,25.428571428571388L40.581818181818186,25.428571428571388L40.974545454545456,25.428571428571388L41.06181818181818,25.428571428571388L41.10545454545454,25.428571428571388L41.236363636363635,25.428571428571388L41.49818181818182,25.428571428571388L41.89090909090909,25.428571428571388L42.02181818181818,25.428571428571388L42.06545454545454,25.428571428571388L42.50181818181819,25.428571428571388L43.24363636363637,25.428571428571388L43.33090909090909,25.428571428571388L43.94181818181818,25.428571428571388L44.16,25.428571428571388L44.24727272727273,25.428571428571388L44.378181818181815,25.428571428571388L44.72727272727273,25.428571428571388L44.98909090909091,25.428571428571388L45.07636363636364,25.428571428571388L45.20727272727273,25.428571428571388L45.46909090909091,25.428571428571388L45.68727272727273,25.428571428571388L46.123636363636365,25.428571428571388L46.38545454545454,25.428571428571388L46.64727272727273,25.428571428571388L46.82181818181818,25.428571428571388L47.083636363636366,25.428571428571388L47.17090909090909,25.428571428571388L47.21454545454545,25.428571428571388L47.301818181818184,25.428571428571388L47.38909090909091,25.428571428571388L47.43272727272727,25.428571428571388L47.650909090909096,25.428571428571388L47.694545454545455,25.428571428571388L48.087272727272726,25.428571428571388L48.349090909090904,25.428571428571388L48.43636363636364,25.428571428571388L48.654545454545456,25.428571428571388L48.872727272727275,25.428571428571388L48.959999999999994,25.428571428571388L49.483636363636364,25.428571428571388L49.78909090909091,25.428571428571388L49.832727272727276,25.428571428571388L49.919999999999995,25.428571428571388L50.00727272727273,25.428571428571388L50.05090909090909,25.428571428571388L50.13818181818182,25.428571428571388L50.66181818181818,25.428571428571388L50.79272727272728,25.428571428571388L50.96727272727273,25.428571428571388L51.09818181818182,25.428571428571388L51.22909090909091,25.428571428571388L51.403636363636366,25.428571428571388L51.447272727272725,25.428571428571388L51.62181818181818,25.428571428571388L51.839999999999996,25.428571428571388L51.88363636363636,25.428571428571388L52.32,25.428571428571388L52.49454545454545,25.428571428571388L52.625454545454545,25.428571428571388L52.97454545454545,25.428571428571388L53.14909090909091,25.428571428571388L53.28,25.428571428571388L53.32363636363636,25.428571428571388L53.36727272727273,25.428571428571388L53.67272727272727,25.428571428571388L53.93454545454545,25.428571428571388L54.02181818181818,25.428571428571388L54.06545454545454,25.428571428571388L54.24,25.428571428571388L54.414545454545454,25.428571428571388L54.54545454545455,25.428571428571388L54.58909090909091,25.428571428571388L54.63272727272727,25.428571428571388L54.807272727272725,25.428571428571388L55.2,25.428571428571388L55.374545454545455,25.428571428571388L55.418181818181814,25.428571428571388L55.46181818181818,25.428571428571388L55.549090909090914,25.428571428571388L55.592727272727274,25.428571428571388L55.85454545454545,25.428571428571388L56.029090909090904,25.428571428571388L56.07272727272728,25.428571428571388L56.160000000000004,25.428571428571388L56.24727272727272,25.428571428571388L56.378181818181815,25.428571428571388L56.42181818181818,25.428571428571388L56.46545454545455,25.428571428571388L56.50909090909091,25.428571428571388L56.64,25.428571428571388L56.81454545454545,25.428571428571388L57.03272727272727,25.428571428571388L57.07636363636364,25.428571428571388L57.12,25.428571428571388L57.38181818181818,25.428571428571388L58.123636363636365,25.428571428571388L58.29818181818182,25.428571428571388L58.38545454545455,25.428571428571388L58.60363636363637,25.428571428571388L59.65090909090909,25.428571428571388L59.73818181818182,25.428571428571388L59.95636363636364,25.428571428571388L60.04363636363636,25.428571428571388L60.21818181818182,25.428571428571388L60.305454545454545,25.428571428571388L60.654545454545456,25.428571428571388L60.91636363636364,25.428571428571388L61.090909090909086,25.428571428571388L61.39636363636364,25.428571428571388L61.483636363636364,25.428571428571388L61.74545454545454,25.428571428571388L61.83272727272728,25.428571428571388L61.96363636363636,25.428571428571388L62.00727272727272,25.428571428571388L62.09454545454546,25.428571428571388L62.443636363636365,25.428571428571388L62.487272727272725,25.428571428571388L62.618181818181824,25.428571428571388L62.92363636363636,25.428571428571388L63.05454545454546,25.428571428571388L63.447272727272725,25.428571428571388L63.621818181818185,25.428571428571388L63.75272727272727,25.428571428571388L63.796363636363644,25.428571428571388L64.18909090909091,25.428571428571388L64.23272727272727,25.428571428571388L64.40727272727273,25.428571428571388L64.4509090909091,25.428571428571388L64.49454545454545,25.428571428571388L64.53818181818183,25.428571428571388L64.71272727272726,25.428571428571388L64.75636363636364,25.428571428571388L64.88727272727273,25.428571428571388L64.93090909090908,25.428571428571388L65.28,25.428571428571388L65.45454545454545,25.428571428571388L65.54181818181819,25.428571428571388L65.6290909090909,25.428571428571388L65.67272727272727,25.428571428571388L66.06545454545454,25.428571428571388L66.19636363636363,25.428571428571388L66.54545454545455,25.428571428571388L66.63272727272727,25.428571428571388L66.80727272727273,25.428571428571388L66.85090909090908,25.428571428571388L67.0690909090909,25.428571428571388L67.37454545454545,25.428571428571388L67.85454545454544,25.428571428571388L67.94181818181819,25.428571428571388L68.20363636363636,25.428571428571388L68.33454545454545,25.428571428571388L68.42181818181818,25.428571428571388L68.59636363636363,25.428571428571388L68.77090909090909,25.428571428571388L68.85818181818182,25.428571428571388L69.07636363636364,25.428571428571388L69.11999999999999,25.428571428571388L69.16363636363637,25.428571428571388L69.51272727272728,25.428571428571388L69.77454545454546,25.428571428571388L69.94909090909091,25.428571428571388L69.99272727272728,25.428571428571388L70.03636363636363,25.428571428571388L70.42909090909092,25.428571428571388L70.64727272727274,25.428571428571388L71.25818181818181,25.428571428571388L71.34545454545456,25.428571428571388L72.21818181818182,25.428571428571388L72.26181818181817,25.428571428571388L72.43636363636364,25.428571428571388L72.48,25.428571428571388L72.52363636363636,25.428571428571388L73.30909090909091,25.428571428571388L73.52727272727272,25.428571428571388L73.83272727272728,25.428571428571388L73.87636363636364,25.428571428571388L74.13818181818182,25.428571428571388L74.22545454545454,25.428571428571388L74.44363636363636,25.428571428571388L74.53090909090909,25.428571428571388L74.61818181818182,25.428571428571388L74.79272727272728,25.428571428571388L75.57818181818182,25.428571428571388L75.66545454545454,25.428571428571388L75.75272727272728,25.428571428571388L76.10181818181817,25.428571428571388L76.23272727272727,25.428571428571388L76.58181818181818,25.428571428571388L76.71272727272728,25.428571428571388L76.84363636363636,25.428571428571388L77.41090909090909,25.428571428571388L77.71636363636364,25.428571428571388L77.97818181818182,25.428571428571388L78.15272727272726,25.428571428571388L78.24000000000001,25.428571428571388L78.28363636363636,25.428571428571388L78.54545454545455,25.428571428571388L78.98181818181818,25.428571428571388L79.2,25.428571428571388L79.24363636363637,25.428571428571388L79.37454545454545,25.428571428571388L79.63636363636364,25.428571428571388L79.72363636363636,25.428571428571388L79.85454545454544,25.428571428571388L79.98545454545454,25.428571428571388L80.11636363636363,25.428571428571388L80.16000000000001,25.428571428571388L80.94545454545455,25.428571428571388L81.42545454545454,25.428571428571388L81.60000000000001,25.428571428571388L82.25454545454545,25.428571428571388L82.38545454545455,25.428571428571388L82.42909090909092,25.428571428571388L82.51636363636364,25.428571428571388L82.55999999999999,25.428571428571388L83.47636363636363,25.428571428571388L83.52,25.428571428571388L83.73818181818181,25.428571428571388L83.86909090909091,25.428571428571388L84.04363636363637,25.428571428571388L84.13090909090909,25.428571428571388L84.30545454545455,25.428571428571445L84.47999999999999,25.428571428571445L84.65454545454546,25.428571428571445L85.74545454545455,25.428571428571445L85.78909090909092,25.428571428571445L86.26909090909092,25.428571428571445L86.61818181818181,25.428571428571445L86.66181818181818,25.428571428571445L86.79272727272728,25.428571428571445L86.88,25.428571428571445L86.92363636363636,25.428571428571445L87.31636363636363,25.428571428571445L87.62181818181818,25.428571428571445L88.27636363636364,25.428571428571445L88.32,25.428571428571445L88.4509090909091,25.428571428571445L88.75636363636363,25.428571428571445L89.28,25.428571428571445L89.49818181818182,25.428571428571445L89.54181818181819,25.428571428571445L89.6290909090909,25.428571428571445L89.93454545454546,25.428571428571445L90.24,25.428571428571445L90.28363636363636,25.428571428571445L90.67636363636365,25.428571428571445L90.85090909090908,25.428571428571445L90.93818181818182,25.428571428571445L91.11272727272728,25.428571428571445L91.50545454545454,25.428571428571445L91.81090909090909,25.428571428571445L91.85454545454546,25.428571428571445L92.07272727272726,25.428571428571445L92.42181818181818,25.428571428571445L92.81454545454547,25.428571428571445L92.85818181818182,25.428571428571445L93.03272727272727,25.428571428571445L93.25090909090909,25.428571428571445L93.38181818181819,25.428571428571445L93.46909090909091,25.428571428571445L93.60000000000001,25.428571428571445L93.73090909090908,25.42857142905342L93.90545454545455,25.428571433008102L94.25454545454545,25.428571436763633L94.60363636363637,25.42857143506359L94.77818181818182,25.428571433471348L94.9090909090909,25.42857143214212L94.95272727272727,25.4285714311809L95.21454545454544,25.428571430445004L95.25818181818182,25.428571429944355L95.60727272727273,25.4285714296131L95.78181818181818,25.428571429376888L95.82545454545455,25.428571429273205L95.86909090909091,25.42857142916128L95.95636363636363,25.428571429166425L96.08727272727273,25.42857142920826L96.39272727272727,25.42857142961327L96.43636363636364,25.428571429738753L96.78545454545454,25.428571430693694L96.82909090909091,25.428571430712537L97.2218181818182,25.42857143354169L97.39636363636363,25.428571432124272L97.48363636363636,25.42857143703563L97.52727272727273,25.428571444905884L97.61454545454545,25.428571469143776L97.83272727272727,25.4285715347078L97.87636363636364,25.428571593953052L97.96363636363637,25.428571662518323L98.00727272727273,25.428571727290972L98.05090909090909,25.428571803820432L98.2690909090909,25.428572574235602L98.88,25.428591484761796L99.27272727272727,25.428645772747586L99.53454545454545,25.428742033097876L99.83999999999999,25.428967337113733L99.88363636363637,25.429161977421273L100.27636363636364,25.429687701963275L100.58181818181818,25.430470317795084L100.97454545454545,25.431721579220067L101.10545454545455,25.432869483614724L101.41090909090909,25.434436937680488L101.49818181818182,25.435810458893542L101.67272727272727,25.43728999212493L102.10909090909091,25.44001229836377L102.15272727272728,25.442067706908205L102.28363636363636,25.44407122198541L102.50181818181818,25.44660077146324L102.67636363636363,25.449413037636845L103.24363636363636,25.455405402543505L103.3309090909091,25.460166496381476L103.37454545454545,25.46357430041951L103.63636363636364,25.46717649185345L103.67999999999999,25.46992429528032L103.72363636363636,25.47209033282084L103.81090909090909,25.474067751136005L103.89818181818183,25.47605609590974L104.42181818181818,25.48034551318983L105.20727272727272,25.48870793325915L105.46909090909091,25.49652752826961L105.77454545454546,25.50443881635684L106.03636363636365,25.512380550337497L106.21090909090908,25.519864210943894L106.29818181818182,25.52574843708382L106.38545454545454,25.53038497249119L106.64727272727272,25.53622212609531L106.77818181818182,25.541919219678107L106.86545454545454,25.546497772184125L106.99636363636364,25.550932559983067L107.12727272727273,25.555611871579572L107.25818181818182,25.560771393625203L107.65090909090908,25.56888694144834L107.73818181818183,25.575450882752136L108.26181818181819,25.58678834995328L108.30545454545455,25.595066124568064L108.3490909090909,25.601561012648887L108.96000000000001,25.613963155581615L109.13454545454545,25.62448387032373L109.30909090909091,25.634116455685074L109.48363636363636,25.642437823687402L109.52727272727273,25.649210971236386L109.65818181818182,25.655372194973154L109.74545454545455,25.660256779039372L109.83272727272727,25.665042587301343L110.18181818181819,25.67366721386489L110.2690909090909,25.680369333649054L110.4,25.685516047759677L110.53090909090909,25.69255275652651L110.66181818181819,25.698562902813904L110.74909090909091,25.703881146098865L110.88000000000001,25.71016934040597L111.0109090909091,25.71688147362974L111.7090909090909,25.73125687196017L112.01454545454546,25.74603088166117L112.23272727272727,25.760801965518908L112.27636363636363,25.77149092269562L112.32000000000001,25.779563439718913L112.40727272727273,25.785742506495097L112.4509090909091,25.79120814172225L112.53818181818181,25.79651859566954L112.62545454545455,25.803103079020815L112.8,25.80887782274482L112.97454545454545,25.815703391367293L113.19272727272727,25.82588674747163L113.28,25.832311681439137L113.58545454545455,25.844818800815432L113.67272727272727,25.85506856251618L113.71636363636364,25.862319870239787L113.93454545454546,25.871317845526846L114.10909090909091,25.881815174323663L114.32727272727273,25.89306490071877L114.41454545454545,25.90229327990363L114.45818181818181,25.910446356771587L114.89454545454545,25.926045710001915L114.93818181818182,25.934863050820383L115.11272727272727,25.946868822977336L115.24363636363636,25.958057643616712L115.37454545454545,25.96847692034575L115.41818181818182,25.976965301098545L115.5490909090909,25.984757933058944L115.59272727272727,25.99270533149155L115.67999999999999,25.998890098337682L115.89818181818181,26.00709944583383L115.94181818181818,26.01412133705142L116.24727272727273,26.0267495931422L116.2909090909091,26.039689508758812L116.46545454545455,26.051911533444724L116.55272727272728,26.062963531656237L116.64,26.069113407058154L116.81454545454545,26.081695542350303L117.25090909090909,26.101992755126048L117.33818181818182,26.116374010855054L117.42545454545454,26.128332504385412L117.46909090909091,26.138672878693143L117.64363636363636,26.151029159026223L117.77454545454546,26.16191412655516L118.12363636363636,26.180750422269057L118.29818181818182,26.200537867355877L118.90909090909092,26.228036983761626L119.08363636363636,26.253132544555683L119.17090909090909,26.275064930725677L119.3890909090909,26.29838873485764L119.43272727272728,26.312158052629826L119.52,26.32923560273872L119.60727272727271,26.342640377235654L119.6509090909091,26.35037755112714L119.73818181818181,26.36159453224397L119.82545454545455,26.37381121149366L119.8690909090909,26.38117022946011L120.17454545454544,26.39580084092185L120.30545454545455,26.412329559221632L120.52363636363636,26.429127159332864L121.04727272727273,26.461077220295948L121.2218181818182,26.491114499155742L121.35272727272728,26.51680705909476L121.78909090909092,26.545880088156338L122.05090909090909,26.577014060650413L122.09454545454545,26.60365804746769L122.18181818181817,26.62530657076789L122.31272727272727,26.642863812919785L122.44363636363636,26.656015888819553L122.48727272727272,26.671539740995485L122.53090909090909,26.680050348267798L122.96727272727273,26.712287354692307L123.01090909090908,26.731492868638355L123.05454545454545,26.74599882376546L123.14181818181817,26.759111467139917L123.66545454545457,26.795401815985173L123.70909090909092,26.81857597734259L123.75272727272728,26.831940578973132L123.79636363636364,26.844407556342134L124.14545454545453,26.87399050383212L124.53818181818181,26.910218010776447L125.28,26.964208258745458L125.89090909090909,27.03732989004567L126.06545454545453,27.095829101246608L126.10909090909092,27.134610497763248L126.19636363636364,27.16965227337687L126.54545454545453,27.205605984362478L126.63272727272728,27.23752754348888L126.80727272727273,27.271352745812976L127.24363636363637,27.31272941756916L127.59272727272729,27.366191045241408L127.63636363636364,27.403700467828116L128.11636363636364,27.455448074998316L128.46545454545455,27.51339651271755L128.72727272727272,27.568692014699337L128.7709090909091,27.609587170737598L128.8581818181818,27.644478037455514L128.94545454545454,27.667885224004777L129.16363636363636,27.696727246504622L129.99272727272725,27.77203383551543L130.25454545454545,27.837303091731314L130.2981818181818,27.885001148614776L130.73454545454547,27.95478202900847L130.82181818181817,28.00454411254111L130.95272727272726,28.03710443088343L130.99636363636364,28.07151468382844L131.04000000000002,28.08881294749915L131.47636363636366,28.14196684045146L131.52,28.171589977659522L131.6509090909091,28.206095830418292L131.91272727272727,28.245066878460392L132.13090909090909,28.293213862057314L132.21818181818182,28.315733286488097L132.30545454545455,28.34916030788554L132.39272727272726,28.384446497073668L132.78545454545454,28.429810781257515L132.96,28.47239610282233L133.13454545454545,28.51474429083646L133.22181818181818,28.54381675270227L133.35272727272726,28.590265629745147L133.74545454545455,28.64335790515105L133.7890909090909,28.674799536575875L133.96363636363637,28.719091865450054L134.22545454545454,28.770832149065L134.31272727272727,28.814044758563313L134.83636363636361,28.89027732076886L134.88000000000002,28.933777954315758L134.92363636363638,28.967515384680723L134.96727272727273,29.00518666301039L135.0981818181818,29.047975965575176L135.27272727272725,29.075144932894432L135.53454545454545,29.125327438559083L135.57818181818183,29.157353037394415L135.7090909090909,29.190526018675257L136.05818181818182,29.251158453198286L136.2763636363636,29.298354227855185L136.40727272727273,29.354184264231208L136.5381818181818,29.42123583148316L136.5818181818182,29.43941536999617L136.84363636363636,29.490608579964373L136.9309090909091,29.528998462140805L137.19272727272727,29.585161441196448L137.32363636363638,29.628714438917825L137.45454545454547,29.665183429564138L137.49818181818182,29.697353060974677L137.67272727272726,29.745236182976925L138.50181818181818,29.838587293494186L138.67636363636362,29.942900753120853L138.76363636363635,30.016499047806093L138.9818181818182,30.082260762100702L139.2,30.163861039145104L139.76727272727274,30.269336313680583L139.94181818181818,30.370963546026218L140.07272727272726,30.420662041263313L140.72727272727272,30.548606328455662L141.2072727272727,30.68696841308318L141.2509090909091,30.77818916700275L141.38181818181818,30.8582559325676L141.64363636363635,30.946979837683585L141.9490909090909,31.036062478046716L141.99272727272728,31.109478524841904L142.03636363636363,31.163245903089035L142.07999999999998,31.20939041965613L142.12363636363636,31.24051023690521L142.16727272727272,31.23775869327602L142.51636363636362,31.32769791008556L143.51999999999998,31.492554409424343L143.56363636363636,31.62581721741509L143.60727272727271,31.696614838286706L143.91272727272727,31.78089677235792L144.39272727272729,31.884767398637166L144.48,31.95700018371707L145.00363636363636,32.109274886714985L145.0472727272727,32.20513710191395L145.17818181818183,32.31487790325755L145.26545454545456,32.388244288101276L145.3090909090909,32.39666700390461L145.39636363636365,32.46128144150657L146.22545454545454,32.62553893736751L146.44363636363636,32.73863727403119L146.57454545454544,32.84266540133066L146.70545454545456,32.94107064344968L147.09818181818184,33.02097698796999L147.1418181818182,33.117238631698484L147.40363636363637,33.212416884253514L147.49090909090907,33.318429749936485L147.53454545454545,33.369816662393845L147.79636363636365,33.473031746781515L147.9272727272727,33.54669325511608L147.9709090909091,33.58262340336489L148.1890909090909,33.639620861228536L148.27636363636364,33.71150379152127L148.36363636363637,33.768477158007755L148.49454545454543,33.8387415420172L148.88727272727272,33.93704978894874L149.10545454545456,34.02005162446298L149.19272727272727,34.08147646991486L149.23636363636365,34.13184674799598L149.28,34.188117615039204L149.76,34.29394663993668L150.19636363636363,34.40574296230366L150.54545454545456,34.56171797710735L151.28727272727272,34.80902138106046L151.59272727272727,35.01829076571204L151.63636363636363,35.15627584539061L151.7672727272727,35.28006317202022L152.20363636363635,35.43897836273018L152.46545454545455,35.58661000607236L152.64000000000001,35.73992085783655L152.8581818181818,35.85672033302532L152.94545454545457,35.98261112760821L153.03272727272727,36.08535523362397L153.12,36.12922252583266L153.20727272727274,36.18400884657015L153.38181818181818,36.27081505635911L153.42545454545456,36.315113122891375L153.55636363636364,36.35769429797918L153.8181818181818,36.470859178663005L153.90545454545455,36.5370002586304L154.03636363636363,36.58844607064964L154.38545454545454,36.74227328766645L154.47272727272727,36.85976443719437L154.51636363636365,36.91857706520784L154.56,36.95575861219146L154.90909090909093,37.06970459135013L155.56363636363636,37.25983320715491L155.6509090909091,37.3746743681771L155.7381818181818,37.52250359816884L155.82545454545453,37.665582391569444L155.9127272727273,37.73368410211788L156.30545454545452,37.8629390638167L156.48000000000002,38.018154795140475L157.04727272727274,38.20628520348376L157.22181818181818,38.40050540662901L157.65818181818182,38.62587811205992L158.0509090909091,38.785595573094525L158.70545454545453,39.09599564702535L158.7490909090909,39.28615443047852L159.01090909090908,39.46401442550351L159.05454545454546,39.633652471743375L159.14181818181817,39.754983007682654L159.27272727272728,39.867383383062275L159.4909090909091,39.96994128461188L159.62181818181818,40.088549322351724L159.66545454545454,40.158812610175744L159.75272727272727,40.249473689413946L160.45090909090908,40.50548841310632L160.75636363636366,40.65084915175814L160.9309090909091,40.8851976500718L161.23636363636365,41.073667102749L161.28,41.204970517094694L161.58545454545452,41.40546038366776L161.71636363636364,41.54125089435314L162.76363636363638,41.87017424199388L162.89454545454547,42.127541922233064L163.20000000000002,42.343124523874394L163.3309090909091,42.56205894813823L163.37454545454545,42.727712947838626L163.4618181818182,42.82659305252474L163.50545454545454,42.935555710175976L163.8109090909091,43.12874517624519L163.89818181818183,43.23670736340645L164.37818181818182,43.47895284660089L164.59636363636363,43.649924732141955L164.9890909090909,43.84871262806166L165.07636363636362,44.033733960901685L165.16363636363639,44.12864220868937L165.33818181818182,44.274195581875915L165.4690909090909,44.3715424582108L166.03636363636363,44.641845262267964L166.07999999999998,44.85262134947084L166.12363636363636,45.025459907393554L166.38545454545454,45.14592290132478L166.73454545454547,45.33258908011777L166.99636363636364,45.49442800852532L167.04,45.61100642780346L167.08363636363637,45.71088452698825L167.2581818181818,45.817074340901826L167.47636363636363,46.00008010533398L167.78181818181818,46.10388479883832L168.13090909090909,46.297069158042234L168.30545454545455,46.53156664263122L168.48,46.75638101406591L168.56727272727275,46.86253382567469L168.8290909090909,47.11994201719065L168.95999999999998,47.27143630334692L169.04727272727274,47.37614601831598L169.13454545454547,47.53928256919926L169.22181818181818,47.68293491012156L169.35272727272726,47.840205931169436L169.5709090909091,48.01924937906443L170.09454545454545,48.266723100556135L170.31272727272727,48.45257439828015L170.5309090909091,48.67738915012529L171.31636363636363,49.11448864193184L171.4909090909091,49.426658480608495L171.62181818181818,49.62228782856576L171.84,49.89677387191304L172.10181818181817,50.19124389054737L172.14545454545456,50.318058454083626L172.32,50.53305569084124L172.40727272727273,50.664961526923264L172.6690909090909,50.78640702043445L172.71272727272728,50.98653454421063L172.97454545454548,51.18000982368254L173.28,51.33952872771778L173.5418181818182,51.55073555139458L173.6727272727273,51.74030919970102L173.93454545454546,52.01256832627939L174.41454545454548,52.30371575962508L174.50181818181818,52.457932716541336L174.80727272727273,52.7314734446786L174.93818181818182,53.03277095422733L175.0690909090909,53.137687619616415L175.15636363636364,53.23650195351435L175.37454545454545,53.42024853670577L176.07272727272726,53.803951043569015L176.16,54.068939134753265L176.20363636363635,54.31977155937932L176.37818181818182,54.48752436853272L176.4218181818182,54.65532489537604L176.59636363636363,54.85215808919621L176.68363636363637,55.03489679762305L176.94545454545454,55.25958248139008L176.98909090909092,55.398453521420976L177.29454545454544,55.6045624188244L177.81818181818184,55.97015219017116L178.03636363636363,56.303116678480166L178.16727272727272,56.42020890250208L178.56,56.727413613771205L178.60363636363635,57.02888148655046L178.86545454545455,57.19684285849172L178.9090909090909,57.405654677239696L179.52,57.79840517821128L179.69454545454545,58.1293668583741L179.78181818181818,58.3617522375617L179.86909090909091,58.59298805678087L180,58.766741993905896L180.13090909090909,58.947879437731075L180.52363636363637,59.1371690656063L180.78545454545457,59.45452817351628L180.87272727272727,59.80876569688033L181.3527272727273,60.11528826541398L181.39636363636365,60.367666902032894L181.65818181818182,60.6027669527505L181.96363636363637,60.976243997273784L183.01090909090908,61.502637236789L183.14181818181817,62.0153009461111L183.27272727272728,62.3985190416667L183.36,62.753941419710344L184.27636363636364,63.318734362420614L184.40727272727273,63.75437013786296L184.58181818181816,64.16496224797217L184.62545454545455,64.4355022610756L184.66909090909093,64.5976469483357L184.9309090909091,64.84077776025754L185.06181818181818,65.1101701971866L185.14909090909092,65.29801592585854L185.54181818181817,65.64602985007609L185.71636363636364,65.82761664320157L185.84727272727272,66.12032608218075L186.06545454545454,66.28863512085029L186.41454545454545,66.60654458255918L186.5890909090909,66.94014598001678L186.67636363636365,67.13086356825963L186.76363636363638,67.4045871342723L187.3309090909091,67.88233476393317L187.4181818181818,68.26679104248434L187.5490909090909,68.52358705060321L188.0727272727273,68.8999832149883L188.24727272727273,69.32550883929576L188.46545454545455,69.63417109333908L188.55272727272728,69.83471863823496L188.9890909090909,70.31819880039197L189.07636363636365,70.58437388833289L189.16363636363636,70.78322784841524L189.73090909090908,71.33896853742206L189.99272727272725,71.67599961970183L190.4290909090909,72.05676638076157L190.64727272727274,72.626262472108L190.95272727272726,73.09107242104524L191.08363636363637,73.5096259159652L191.1709090909091,73.67998845259308L192.04363636363638,74.31049244803434L192.08727272727273,74.89770095719594L192.13090909090909,75.31691415943365L192.3490909090909,75.60123927969653L192.43636363636364,75.77839883659752L192.6981818181818,76.11299426962512L192.87272727272727,76.44215339142367L193.22181818181818,76.8592921813779L193.26545454545453,77.27482769160133L193.48363636363638,77.57519914498818L193.52727272727273,77.84212350512857L193.70181818181817,78.20620576099691L194.1818181818182,78.60726899209695L194.4436363636364,79.09208238091064L194.70545454545453,79.54566408458962L194.83636363636361,79.86566610591036L195.31636363636363,80.21077842167563L195.4909090909091,80.66378559898247L195.66545454545454,80.82113872804976L195.75272727272727,81.0527095735866L195.9709090909091,81.49396295117202L196.14545454545456,81.87645682154032L196.36363636363637,82.0399370095909L196.5818181818182,82.51088879781521L196.75636363636363,82.9478448619401L196.79999999999998,83.16834039024415L196.88727272727274,83.40133675832514L197.28,83.78818820044195L197.32363636363638,84.23901230344592L197.80363636363634,84.48304047824818L197.8909090909091,84.72198547812643L197.93454545454546,85.06380668461564L198.23999999999998,85.39162914881483L198.32727272727274,85.68452206000619L198.3709090909091,85.94718856615768L198.41454545454548,86.16633929010219L198.45818181818183,86.36898932242272L198.63272727272727,86.65288756651587L198.72,86.77430036852856L199.67999999999998,87.29978468274042L199.8109090909091,87.93379577941708L200.4218181818182,88.71292412313237L200.64,89.24391783483142L200.68363636363637,89.51609057171554L200.7709090909091,90.06339145252176L201.12,90.62683393313073L201.33818181818182,90.90032967425446L201.64363636363635,91.50006888047564L202.86545454545455,92.48153529112541L203.1709090909091,93.51940339241051L203.65090909090907,94.5401991226382L203.86909090909091,95.10042691006305L204.2618181818182,95.66106923730501L204.30545454545455,96.37529187909584L204.7418181818182,97.17641249767452L204.78545454545454,97.62781000227871L204.82909090909092,97.9352972277168L204.91636363636363,98.17116070413662L205.00363636363636,98.70277014611037L205.09090909090907,99.02466419923637L205.13454545454547,99.0166472885123L205.17818181818183,99.22841192934155L205.26545454545456,99.42144642236528L206.05090909090907,100.11544428363047L206.26909090909092,100.72693665283228L206.4872727272727,101.11965230469629L206.61818181818182,101.5412606496629L206.7490909090909,102.01523525986404L206.96727272727273,102.10797634660722L207.44727272727272,102.77856925919195L207.84,103.47233482331629L207.9709090909091,104.31363986767896L208.01454545454544,104.73437494268714L208.40727272727273,105.37511361262065L208.66909090909093,105.93086308812245L209.32363636363635,106.83213071181116L209.36727272727273,107.48203534478067L209.6290909090909,108.04271464938809L209.80363636363637,108.6761823240189L209.93454545454546,108.94117775665391L210.19636363636363,109.53061799756877L210.28363636363636,109.83321017884752L210.67636363636365,110.29334201240952L210.85090909090908,111.02859641388646L211.11272727272728,111.2423259156771L211.33090909090907,111.84327526021792L211.59272727272727,112.23230022707227L211.7672727272727,112.66271281260947L211.98545454545456,113.25166515041559L212.29090909090908,113.80617444480272L212.46545454545455,114.3280215388356L212.8581818181818,115.0594673115138L212.98909090909092,115.43691292572191L213.5127272727273,116.1159082284792L213.8181818181818,116.78071912003645L213.94909090909093,117.46079807570393L214.03636363636363,117.85969727979014L214.08,118.35917700019093L214.25454545454545,118.70003408430378L214.2981818181818,119.3580640765397L214.34181818181818,119.49907008000753L214.86545454545453,119.87030710536823L215.12727272727273,120.78094674629314L215.17090909090908,121.2144717727605L215.2581818181818,121.80934524448139L215.47636363636366,122.12499793374786L215.52,122.56594667997679L215.6509090909091,122.35752512634406L215.9127272727273,122.75922980298623L216.08727272727273,123.03309276793837L216.39272727272729,123.69338690464632L216.8290909090909,124.28232641871736L217.0909090909091,124.88218757883817L217.26545454545453,125.2283838443984L217.39636363636365,125.92116834961143L217.74545454545455,126.57887351477895L217.83272727272728,127.2789969514788L218.4,127.72251079539566L218.57454545454544,128.61263098775888L218.61818181818182,129.39711586167687L219.44727272727272,130.30615502565257L219.4909090909091,131.09050997691674L219.62181818181818,131.53984242581737L219.92727272727274,132.40164149905078L220.01454545454544,132.63751138572337L220.36363636363637,133.35773109706756L220.45090909090908,133.87801574993188L220.49454545454546,134.0990493072322L221.06181818181818,134.91804303258985L221.1490909090909,135.6208792593785L221.19272727272727,136.1234747948693L221.54181818181817,136.71887203405677L221.58545454545452,136.8533234069939L221.71636363636364,137.3383270556053L221.80363636363637,137.59866112584376L222.19636363636366,138.4344449306771L222.32727272727274,139.3669138717064L222.41454545454545,139.64957056185187L222.50181818181818,139.87950040245283L223.02545454545455,140.480531654972L223.76727272727274,141.73947910300984L223.98545454545453,142.5719072483119L224.42181818181817,143.97302784552446L224.68363636363637,144.7200928201126L224.9890909090909,145.80414185111465L225.2509090909091,146.4843126653936L225.33818181818182,147.29977871816715L225.51272727272726,147.9019619935707L225.8181818181818,148.22035760850142L225.8618181818182,149.21918671031247L225.90545454545455,149.22446187097364L226.34181818181818,149.89781844457934L227.04,151.03187118015254L227.2581818181818,152.30289468339208L227.47636363636363,153.07162911762003L227.69454545454545,154.06589892220086L227.73818181818183,154.18878412177992L227.82545454545453,154.67824292145033L227.95636363636362,155.45961556128734L228.39272727272726,156.03230651719423L228.56727272727275,156.4596607730322L228.6109090909091,157.3342016712506L228.87272727272727,158.31194106251868L229.04727272727274,158.78831682689022L229.0909090909091,159.2227427243648L229.44,159.19802438587857L229.52727272727273,159.7331074757121L229.5709090909091,159.94836412836077L229.61454545454546,160.337272430096L229.7018181818182,160.88778303069736L229.83272727272725,161.65483431868338L229.87636363636364,161.71056620267782L229.92,161.65249397203598L229.96363636363634,161.43887356071656L230.13818181818183,161.9643860107291L230.22545454545454,161.92152497667203L230.35636363636362,162.2310405873155L230.39999999999998,162.52218567144607L230.44363636363636,162.5825809329343L230.4872727272727,163.3958786022506L230.57454545454547,163.07147363468442L230.70545454545456,163.59447742035096L230.7490909090909,163.96868184980588L231.0109090909091,164.45285058065411L231.27272727272728,164.82581876741932L231.35999999999999,165.1252441153184L231.4909090909091,166.03270862995154L232.01454545454547,166.81816992361527L232.36363636363635,168.22220972494083L232.40727272727273,168.90397976182464L232.4509090909091,169.285720846003L232.71272727272728,170.0151579297452L233.01818181818183,170.4718426800437L233.23636363636362,171.07033763283349L233.5418181818182,171.851867271773L233.71636363636364,172.71420160772283L233.93454545454546,173.47861852776936L233.97818181818184,174.2324401007838" style="fill: none;" fill="none"></path></g></g></g></g><g opacity="0.2"><g><g><g><path stroke="rgb(255, 112, 67)" stroke-width="2px" d="M22.036363636363635,25.428571428571445L22.603636363636365,25.428571428571445L22.865454545454547,25.428571428571445L23.563636363636363,25.428571428571388L23.650909090909092,25.428571428571388L23.78181818181818,25.428571428571388L23.869090909090907,25.428571428571388L24.130909090909093,25.428571428571388L24.26181818181818,25.428571428571388L24.916363636363638,25.428571428571388L25.047272727272727,25.428571428571388L25.265454545454546,25.428571428571388L25.614545454545453,25.428571428571388L25.919999999999998,25.428571428571388L26.26909090909091,25.428571428571388L26.4,25.428571428571388L26.443636363636365,25.428571428571388L26.74909090909091,25.428571428571388L26.967272727272725,25.428571428571388L27.316363636363636,25.428571428571388L27.883636363636363,25.428571428571388L28.363636363636363,25.428571428571388L28.581818181818182,25.428571428571388L28.712727272727275,25.428571428571388L29.105454545454545,25.428571428571388L29.14909090909091,25.428571428571388L29.585454545454546,25.428571428571388L29.803636363636365,25.428571428571388L29.89090909090909,25.428571428571388L29.934545454545454,25.428571428571388L30.10909090909091,25.428571428571388L30.45818181818182,25.428571428571388L30.80727272727273,25.428571428571388L30.85090909090909,25.428571428571388L31.06909090909091,25.428571428571388L31.54909090909091,25.428571428571388L31.810909090909092,25.428571428571388L32.02909090909091,25.428571428571388L32.160000000000004,25.428571428571388L32.68363636363637,25.428571428571388L32.945454545454545,25.428571428571388L33.163636363636364,25.428571428571388L33.29454545454546,25.428571428571388L33.46909090909091,25.428571428571388L33.64363636363636,25.428571428571388L33.730909090909094,25.428571428571388L34.559999999999995,25.428571428571388L34.778181818181814,25.428571428571388L34.82181818181819,25.428571428571388L35.04,25.428571428571388L35.25818181818182,25.428571428571388L35.345454545454544,25.428571428571388L35.694545454545455,25.428571428571388L35.738181818181815,25.428571428571388L36.04363636363637,25.428571428571388L36.21818181818182,25.428571428571388L36.61090909090909,25.428571428571388L36.96,25.428571428571388L37.658181818181816,25.428571428571388L37.83272727272727,25.428571428571388L38.094545454545454,25.428571428571388L38.26909090909091,25.428571428571388L38.35636363636364,25.428571428571388L38.92363636363636,25.428571428571388L40.189090909090915,25.428571428571388L40.232727272727274,25.428571428571388L40.32,25.428571428571388L40.581818181818186,25.428571428571388L40.974545454545456,25.428571428571388L41.06181818181818,25.428571428571388L41.10545454545454,25.428571428571388L41.236363636363635,25.428571428571388L41.49818181818182,25.428571428571388L41.89090909090909,25.428571428571388L42.02181818181818,25.428571428571388L42.06545454545454,25.428571428571388L42.50181818181819,25.428571428571388L43.24363636363637,25.428571428571388L43.33090909090909,25.428571428571388L43.94181818181818,25.428571428571388L44.16,25.428571428571388L44.24727272727273,25.428571428571388L44.378181818181815,25.428571428571388L44.72727272727273,25.428571428571388L44.98909090909091,25.428571428571388L45.07636363636364,25.428571428571388L45.20727272727273,25.428571428571388L45.46909090909091,25.428571428571388L45.68727272727273,25.428571428571388L46.123636363636365,25.428571428571388L46.38545454545454,25.428571428571388L46.64727272727273,25.428571428571388L46.82181818181818,25.428571428571388L47.083636363636366,25.428571428571388L47.17090909090909,25.428571428571388L47.21454545454545,25.428571428571388L47.301818181818184,25.428571428571388L47.38909090909091,25.428571428571388L47.43272727272727,25.428571428571388L47.650909090909096,25.428571428571388L47.694545454545455,25.428571428571388L48.087272727272726,25.428571428571388L48.349090909090904,25.428571428571388L48.43636363636364,25.428571428571388L48.654545454545456,25.428571428571388L48.872727272727275,25.428571428571388L48.959999999999994,25.428571428571388L49.483636363636364,25.428571428571388L49.78909090909091,25.428571428571388L49.832727272727276,25.428571428571388L49.919999999999995,25.428571428571388L50.00727272727273,25.428571428571388L50.05090909090909,25.428571428571388L50.13818181818182,25.428571428571388L50.66181818181818,25.428571428571388L50.79272727272728,25.428571428571388L50.96727272727273,25.428571428571388L51.09818181818182,25.428571428571388L51.22909090909091,25.428571428571388L51.403636363636366,25.428571428571388L51.447272727272725,25.428571428571388L51.62181818181818,25.428571428571388L51.839999999999996,25.428571428571388L51.88363636363636,25.428571428571388L52.32,25.428571428571388L52.49454545454545,25.428571428571388L52.625454545454545,25.428571428571388L52.97454545454545,25.428571428571388L53.14909090909091,25.428571428571388L53.28,25.428571428571388L53.32363636363636,25.428571428571388L53.36727272727273,25.428571428571388L53.67272727272727,25.428571428571388L53.93454545454545,25.428571428571388L54.02181818181818,25.428571428571388L54.06545454545454,25.428571428571388L54.24,25.428571428571388L54.414545454545454,25.428571428571388L54.54545454545455,25.428571428571388L54.58909090909091,25.428571428571388L54.63272727272727,25.428571428571388L54.807272727272725,25.428571428571388L55.2,25.428571428571388L55.374545454545455,25.428571428571388L55.418181818181814,25.428571428571388L55.46181818181818,25.428571428571388L55.549090909090914,25.428571428571388L55.592727272727274,25.428571428571388L55.85454545454545,25.428571428571388L56.029090909090904,25.428571428571388L56.07272727272728,25.428571428571388L56.160000000000004,25.428571428571388L56.24727272727272,25.428571428571388L56.378181818181815,25.428571428571388L56.42181818181818,25.428571428571388L56.46545454545455,25.428571428571388L56.50909090909091,25.428571428571388L56.64,25.428571428571388L56.81454545454545,25.428571428571388L57.03272727272727,25.428571428571388L57.07636363636364,25.428571428571388L57.12,25.428571428571388L57.38181818181818,25.428571428571388L58.123636363636365,25.428571428571388L58.29818181818182,25.428571428571388L58.38545454545455,25.428571428571388L58.60363636363637,25.428571428571388L59.65090909090909,25.428571428571388L59.73818181818182,25.428571428571388L59.95636363636364,25.428571428571388L60.04363636363636,25.428571428571388L60.21818181818182,25.428571428571388L60.305454545454545,25.428571428571388L60.654545454545456,25.428571428571388L60.91636363636364,25.428571428571388L61.090909090909086,25.428571428571388L61.39636363636364,25.428571428571388L61.483636363636364,25.428571428571388L61.74545454545454,25.428571428571388L61.83272727272728,25.428571428571388L61.96363636363636,25.428571428571388L62.00727272727272,25.428571428571388L62.09454545454546,25.428571428571388L62.443636363636365,25.428571428571388L62.487272727272725,25.428571428571388L62.618181818181824,25.428571428571388L62.92363636363636,25.428571428571388L63.05454545454546,25.428571428571388L63.447272727272725,25.428571428571388L63.621818181818185,25.428571428571388L63.75272727272727,25.428571428571388L63.796363636363644,25.428571428571388L64.18909090909091,25.428571428571388L64.23272727272727,25.428571428571388L64.40727272727273,25.428571428571388L64.4509090909091,25.428571428571388L64.49454545454545,25.428571428571388L64.53818181818183,25.428571428571388L64.71272727272726,25.428571428571388L64.75636363636364,25.428571428571388L64.88727272727273,25.428571428571388L64.93090909090908,25.428571428571388L65.28,25.428571428571388L65.45454545454545,25.428571428571388L65.54181818181819,25.428571428571388L65.6290909090909,25.428571428571388L65.67272727272727,25.428571428571388L66.06545454545454,25.428571428571388L66.19636363636363,25.428571428571388L66.54545454545455,25.428571428571388L66.63272727272727,25.428571428571388L66.80727272727273,25.428571428571388L66.85090909090908,25.428571428571388L67.0690909090909,25.428571428571388L67.37454545454545,25.428571428571388L67.85454545454544,25.428571428571388L67.94181818181819,25.428571428571388L68.20363636363636,25.428571428571388L68.33454545454545,25.428571428571388L68.42181818181818,25.428571428571388L68.59636363636363,25.428571428571388L68.77090909090909,25.428571428571388L68.85818181818182,25.428571428571388L69.07636363636364,25.428571428571388L69.11999999999999,25.428571428571388L69.16363636363637,25.428571428571388L69.51272727272728,25.428571428571388L69.77454545454546,25.428571428571388L69.94909090909091,25.428571428571388L69.99272727272728,25.428571428571388L70.03636363636363,25.428571428571388L70.42909090909092,25.428571428571388L70.64727272727274,25.428571428571388L71.25818181818181,25.428571428571388L71.34545454545456,25.428571428571388L72.21818181818182,25.428571428571388L72.26181818181817,25.428571428571388L72.43636363636364,25.428571428571388L72.48,25.428571428571388L72.52363636363636,25.428571428571388L73.30909090909091,25.428571428571388L73.52727272727272,25.428571428571388L73.83272727272728,25.428571428571388L73.87636363636364,25.428571428571388L74.13818181818182,25.428571428571388L74.22545454545454,25.428571428571388L74.44363636363636,25.428571428571388L74.53090909090909,25.428571428571388L74.61818181818182,25.428571428571388L74.79272727272728,25.428571428571388L75.57818181818182,25.428571428571388L75.66545454545454,25.428571428571388L75.75272727272728,25.428571428571388L76.10181818181817,25.428571428571388L76.23272727272727,25.428571428571388L76.58181818181818,25.428571428571388L76.71272727272728,25.428571428571388L76.84363636363636,25.428571428571388L77.41090909090909,25.428571428571388L77.71636363636364,25.428571428571388L77.97818181818182,25.428571428571388L78.15272727272726,25.428571428571388L78.24000000000001,25.428571428571388L78.28363636363636,25.428571428571388L78.54545454545455,25.428571428571388L78.98181818181818,25.428571428571388L79.2,25.428571428571388L79.24363636363637,25.428571428571388L79.37454545454545,25.428571428571388L79.63636363636364,25.428571428571388L79.72363636363636,25.428571428571388L79.85454545454544,25.428571428571388L79.98545454545454,25.428571428571388L80.11636363636363,25.428571428571388L80.16000000000001,25.428571428571388L80.94545454545455,25.428571428571388L81.42545454545454,25.428571428571388L81.60000000000001,25.428571428571388L82.25454545454545,25.428571428571388L82.38545454545455,25.428571428571388L82.42909090909092,25.428571428571388L82.51636363636364,25.428571428571388L82.55999999999999,25.428571428571388L83.47636363636363,25.428571428571388L83.52,25.428571428571388L83.73818181818181,25.428571428571445L83.86909090909091,25.428571428571445L84.04363636363637,25.428571428571445L84.13090909090909,25.428571428571445L84.30545454545455,25.428571428571445L84.47999999999999,25.428571428571445L84.65454545454546,25.428571428571445L85.74545454545455,25.428571428571445L85.78909090909092,25.428571428571445L86.26909090909092,25.428571428571445L86.61818181818181,25.428571428571445L86.66181818181818,25.428571428571445L86.79272727272728,25.428571428571445L86.88,25.428571428571445L86.92363636363636,25.428571428571445L87.31636363636363,25.428571428571445L87.62181818181818,25.428571428571445L88.27636363636364,25.428571428571445L88.32,25.428571428571445L88.4509090909091,25.428571428571445L88.75636363636363,25.428571428571445L89.28,25.428571428571445L89.49818181818182,25.428571428571445L89.54181818181819,25.428571428571445L89.6290909090909,25.428571428571445L89.93454545454546,25.428571428571445L90.24,25.428571428571445L90.28363636363636,25.428571428571445L90.67636363636365,25.428571428571445L90.85090909090908,25.428571428571445L90.93818181818182,25.428571428571445L91.11272727272728,25.428571428571445L91.50545454545454,25.428571428571445L91.81090909090909,25.428571428571445L91.85454545454546,25.428571428571445L92.07272727272726,25.428571428571445L92.42181818181818,25.428571428571445L92.81454545454547,25.428571428571445L92.85818181818182,25.428571428571445L93.03272727272727,25.428571428571445L93.25090909090909,25.428571428571445L93.38181818181819,25.428571428571445L93.46909090909091,25.428571428571445L93.60000000000001,25.428571428571445L93.73090909090908,25.428571430106388L93.90545454545455,25.428571441647904L94.25454545454545,25.42857144496847L94.60363636363637,25.428571431349553L94.77818181818182,25.4285714299927L94.9090909090909,25.428571429238133L94.95272727272727,25.42857142908099L95.21454545454544,25.428571428837216L95.25818181818182,25.428571428850603L95.60727272727273,25.428571428889455L95.78181818181818,25.42857142886075L95.82545454545455,25.428571429046684L95.86909090909091,25.42857142891677L95.95636363636363,25.42857142917765L96.08727272727273,25.42857142929975L96.39272727272727,25.42857143049804L96.43636363636364,25.428571430012937L96.78545454545454,25.428571432779933L96.82909090909091,25.42857143075375L97.2218181818182,25.42857143972259L97.39636363636363,25.428571429027613L97.48363636363636,25.428571447765506L97.52727272727273,25.428571462100138L97.61454545454545,25.42857152209666L97.83272727272727,25.42857167794631L97.87636363636364,25.428571723386995L97.96363636363637,25.428571812313805L98.00727272727273,25.428571868800617L98.05090909090909,25.428571971015344L98.2690909090909,25.428574257371935L98.88,25.42863279884139L99.27272727272727,25.42876437643619L99.53454545454545,25.428952334372696L99.83999999999999,25.42945956181086L99.88363636363637,25.42958721070454L100.27636363636364,25.430836259402156L100.58181818181818,25.432180109071027L100.97454545454545,25.43445522679184L101.10545454545455,25.435377325699818L101.41090909090909,25.43786137554406L101.49818181818182,25.438811209059537L101.67272727272727,25.440522348165473L102.10909090909091,25.44595975721677L102.15272727272728,25.44655818544794L102.28363636363636,25.448448328173214L102.50181818181818,25.45212711204215L102.67636363636363,25.455557033162734L103.24363636363636,25.46849700230763L103.3309090909091,25.470568121772658L103.37454545454545,25.471019375483593L103.63636363636364,25.475046247661396L103.67999999999999,25.475927458181104L103.72363636363636,25.476822504008027L103.81090909090909,25.478387843378727L103.89818181818183,25.480400059332595L104.42181818181818,25.489716660495958L105.20727272727272,25.506977424238556L105.46909090909091,25.51361110208228L105.77454545454546,25.521722713260885L106.03636363636365,25.529730962791916L106.21090909090908,25.536213864370666L106.29818181818182,25.538603784637928L106.38545454545454,25.540514473412998L106.64727272727272,25.548974633650744L106.77818181818182,25.554365736231688L106.86545454545454,25.556500597085886L106.99636363636364,25.560621300206236L107.12727272727273,25.565834826213887L107.25818181818182,25.57204347045095L107.65090909090908,25.586617087329557L107.73818181818183,25.589791213116456L108.26181818181819,25.611557466195336L108.30545454545455,25.613150689490766L108.3490909090909,25.615750481513402L108.96000000000001,25.64105828313521L109.13454545454545,25.647468616543847L109.30909090909091,25.655160893767487L109.48363636363636,25.660617627666994L109.52727272727273,25.66400835728291L109.65818181818182,25.668832702882128L109.74545454545455,25.670928195184047L109.83272727272727,25.675498206625235L110.18181818181819,25.69250955087952L110.2690909090909,25.69501154438771L110.4,25.69676014291855L110.53090909090909,25.707925948291006L110.66181818181819,25.711693349798367L110.74909090909091,25.715499983339328L110.88000000000001,25.72390724261828L111.0109090909091,25.731545560863964L111.7090909090909,25.76266299697491L112.01454545454546,25.778307858269102L112.23272727272727,25.793072549997902L112.27636363636363,25.79484323041285L112.32000000000001,25.797199575636085L112.40727272727273,25.799241996330977L112.4509090909091,25.803148988110223L112.53818181818181,25.808120415439703L112.62545454545455,25.817488287871043L112.8,25.821493982600515L112.97454545454545,25.83061530243424L113.19272727272727,25.848134461763266L113.28,25.846348320616528L113.58545454545455,25.872143271809534L113.67272727272727,25.87746135400252L113.71636363636364,25.87816189921554L113.93454545454546,25.890975842491628L114.10909090909091,25.904748828956144L114.32727272727273,25.917642328448323L114.41454545454545,25.922454643345617L114.45818181818181,25.92825849285893L114.89454545454545,25.960125825657997L114.93818181818182,25.954126413245433L115.11272727272727,25.973097993995367L115.24363636363636,25.982502009726943L115.37454545454545,25.991240053581777L115.41818181818182,25.99550998006802L115.5490909090909,26.00178260033553L115.59272727272727,26.01006811914999L115.67999999999999,26.012402041192644L115.89818181818181,26.025034517115245L115.94181818181818,26.029462156717955L116.24727272727273,26.054338713136673L116.2909090909091,26.067959515488127L116.46545454545455,26.078613154255322L116.55272727272728,26.08710897997821L116.64,26.082549122108162L116.81454545454545,26.109183901619247L117.25090909090909,26.146336347368617L117.33818181818182,26.147792932606933L117.42545454545454,26.15445838515555L117.46909090909091,26.161263632754014L117.64363636363636,26.178024089945012L117.77454545454546,26.18569466071071L118.12363636363636,26.221902329465678L118.29818181818182,26.243767763309876L118.90909090909092,26.288114671195814L119.08363636363636,26.307959151895517L119.17090909090909,26.32298090815442L119.3890909090909,26.349344561719278L119.43272727272728,26.34224006534228L119.52,26.366545154887433L119.60727272727271,26.371925967378672L119.6509090909091,26.367281058418712L119.73818181818181,26.386100420925942L119.82545454545455,26.400501154058276L119.8690909090909,26.397247574444236L120.17454545454544,26.42776453347841L120.30545454545455,26.448440071175895L120.52363636363636,26.465825100977185L121.04727272727273,26.53087894583939L121.2218181818182,26.55673734405329L121.35272727272728,26.572937938452014L121.78909090909092,26.609396323622036L122.05090909090909,26.645032866799937L122.09454545454545,26.66186752185186L122.18181818181817,26.672602389188057L122.31272727272727,26.68122135469116L122.44363636363636,26.684749404957188L122.48727272727272,26.70545490848815L122.53090909090909,26.698643585811823L122.96727272727273,26.782715973823542L123.01090909090908,26.773451411845286L123.05454545454545,26.777690177960295L123.14181818181817,26.787758834512204L123.66545454545457,26.874685826519737L123.70909090909092,26.86920487763294L123.75272727272728,26.86113840291756L123.79636363636364,26.87164432855596L124.14545454545453,26.93862076490899L124.53818181818181,26.98936472976939L125.28,27.08216147564599L125.89090909090909,27.197079696007307L126.06545454545453,27.223633110430796L126.10909090909092,27.219336733465184L126.19636363636364,27.24620850927164L126.54545454545453,27.284154537662232L126.63272727272728,27.307267000688597L126.80727272727273,27.345251117769493L127.24363636363637,27.403125585800808L127.59272727272729,27.482989378308844L127.63636363636364,27.485647805071636L128.11636363636364,27.568501764548586L128.46545454545455,27.63999723970926L128.72727272727272,27.689496837500258L128.7709090909091,27.698931365139686L128.8581818181818,27.720704580667302L128.94545454545454,27.719023217548596L129.16363636363636,27.759738798845092L129.99272727272725,27.936557147812948L130.25454545454545,27.979897708814377L130.2981818181818,27.989207731487568L130.73454545454547,28.107233251779462L130.82181818181817,28.11326000204238L130.95272727272726,28.108239393886038L130.99636363636364,28.146691223701964L131.04000000000002,28.12660469551858L131.47636363636366,28.258092861359955L131.52,28.236308041751016L131.6509090909091,28.28148122848367L131.91272727272727,28.330207448386773L132.13090909090909,28.398401221125738L132.21818181818182,28.364931774257172L132.30545454545455,28.42218876864561L132.39272727272726,28.461536706573867L132.78545454545454,28.52891873969739L132.96,28.56543282445756L133.13454545454545,28.607262943631667L133.22181818181818,28.607331749007756L133.35272727272726,28.69174311271155L133.74545454545455,28.759349309381776L133.7890909090909,28.74349048930651L133.96363636363637,28.815857908786683L134.22545454545454,28.883869838746023L134.31272727272727,28.908451924537303L134.83636363636361,29.056823619090608L134.88000000000002,29.02881437028114L134.92363636363638,29.04122200006404L134.96727272727273,29.08748760866058L135.0981818181818,29.141458327229458L135.27272727272725,29.13450133920341L135.53454545454545,29.234961829915534L135.57818181818183,29.227319791537923L135.7090909090909,29.262999474594494L136.05818181818182,29.38362294390788L136.2763636363636,29.401463468029192L136.40727272727273,29.47615689147304L136.5381818181818,29.56772428732657L136.5818181818182,29.47913245095137L136.84363636363636,29.602451070531856L136.9309090909091,29.61286935122692L137.19272727272727,29.70786145276375L137.32363636363638,29.72386525559577L137.45454545454547,29.744857721230943L137.49818181818182,29.767634485011712L137.67272727272726,29.849847080090143L138.50181818181818,30.042532713286676L138.67636363636362,30.170795763642815L138.76363636363635,30.177290226640764L138.9818181818182,30.22593125893539L139.2,30.342134255872708L139.76727272727274,30.499769556774027L139.94181818181818,30.59298991987677L140.07272727272726,30.529239008564815L140.72727272727272,30.82812792404144L141.2072727272727,30.989249910072004L141.2509090909091,30.97748036824109L141.38181818181818,31.03317886625382L141.64363636363635,31.140816139943382L141.9490909090909,31.230682513999312L141.99272727272728,31.269871544273286L142.03636363636363,31.280712213527067L142.07999999999998,31.31020296221996L142.12363636363636,31.30849811790148L142.16727272727272,31.231747359105356L142.51636363636362,31.524189320057985L143.51999999999998,31.852718608616726L143.56363636363636,31.91695825652866L143.60727272727271,31.85128734757936L143.91272727272727,31.96502864106131L144.39272727272729,32.11169494522173L144.48,32.114808115452206L145.00363636363636,32.44195146714992L145.0472727272727,32.41456856569255L145.17818181818183,32.5546300998235L145.26545454545456,32.548528810403155L145.3090909090909,32.415068223780764L145.39636363636365,32.60244546760512L146.22545454545454,32.984394485649716L146.44363636363636,32.98572472292062L146.57454545454544,33.069937042500754L146.70545454545456,33.15605789215556L147.09818181818184,33.195549447654514L147.1418181818182,33.327542732328254L147.40363636363637,33.42035408569538L147.49090909090907,33.55003747560062L147.53454545454545,33.48208233738029L147.79636363636365,33.698527122227205L147.9272727272727,33.707622537655936L147.9709090909091,33.66112047883843L148.1890909090909,33.76414396980957L148.27636363636364,33.86854739082327L148.36363636363637,33.89294763383492L148.49454545454543,33.99224908160471L148.88727272727272,34.151825130971105L149.10545454545456,34.20138684472661L149.19272727272727,34.215672151379806L149.23636363636365,34.241891368262316L149.28,34.311053330936176L149.76,34.52515272617774L150.19636363636363,34.649985883143614L150.54545454545456,34.90247867823891L151.28727272727272,35.34930843555668L151.59272727272727,35.475484389505L151.63636363636363,35.45773369462469L151.7672727272727,35.55050300026201L152.20363636363635,35.78616250549143L152.46545454545455,35.909142831972815L152.64000000000001,36.07486112634055L152.8581818181818,36.111893708756185L152.94545454545457,36.25764643042305L153.03272727272727,36.30982165632085L153.12,36.225059985880904L153.20727272727274,36.303701254296044L153.38181818181818,36.460461743987196L153.42545454545456,36.41189170136633L153.55636363636364,36.45072196075071L153.8181818181818,36.71809200716325L153.90545454545455,36.681499560724774L154.03636363636363,36.70084042429676L154.38545454545454,37.078341666244626L154.47272727272727,37.116448923105736L154.51636363636365,37.04706580029449L154.56,37.036989635219385L154.90909090909093,37.31864389613631L155.56363636363636,37.67520973722523L155.6509090909091,37.62556938875417L155.7381818181818,37.84546809426553L155.82545454545453,37.97816854530453L155.9127272727273,37.88246682006755L156.30545454545452,38.14532410752818L156.48000000000002,38.357256679497596L157.04727272727274,38.617296222985345L157.22181818181818,38.8248208822902L157.65818181818182,39.11825287615423L158.0509090909091,39.134532446564975L158.70545454545453,39.774130840390114L158.7490909090909,39.70159686821384L159.01090909090908,39.852587535653555L159.05454545454546,40.00426298040759L159.14181818181817,40.020055452441625L159.27272727272728,40.1129459865987L159.4909090909091,40.19400090392088L159.62181818181818,40.347673888878944L159.66545454545454,40.31231775491227L159.75272727272727,40.44754216188977L160.45090909090908,41.06480720435778L160.75636363636366,40.96842070180645L160.9309090909091,41.39718194893533L161.23636363636365,41.48541883694185L161.28,41.49183084270342L161.58545454545452,41.843473276881554L161.71636363636364,41.837914239353665L162.76363636363638,42.58877747919624L162.89454545454547,42.68981653574929L163.20000000000002,42.814110717269216L163.3309090909091,43.04036791324958L163.37454545454545,43.08961945673832L163.4618181818182,43.042617739832565L163.50545454545454,43.17360788580896L163.8109090909091,43.55080878682949L163.89818181818183,43.47257379777787L164.37818181818182,44.008189793961975L164.59636363636363,44.023449297368614L164.9890909090909,44.283007203223804L165.07636363636362,44.43795254156498L165.16363636363639,44.335989527104545L165.33818181818182,44.5921879831688L165.4690909090909,44.58421748103157L166.03636363636363,45.232379413806825L166.07999999999998,45.31310668648098L166.12363636363636,45.4030626167407L166.38545454545454,45.40910001545467L166.73454545454547,45.740401177735606L166.99636363636364,45.84799968014181L167.04,45.86569685972961L167.08363636363637,45.92908954622641L167.2581818181818,46.04906864773207L167.47636363636363,46.39989524673669L167.78181818181818,46.33066830120765L168.13090909090909,46.71912161158966L168.30545454545455,47.04387643380335L168.48,47.247535978410525L168.56727272727275,47.09444729307472L168.8290909090909,47.68230513623507L168.95999999999998,47.602407896669234L169.04727272727274,47.60490673318472L169.13454545454547,47.89568917399518L169.22181818181818,47.996774100798945L169.35272727272726,48.18379803447789L169.5709090909091,48.410407994529265L170.09454545454545,48.807382250057145L170.31272727272727,48.8586062143269L170.5309090909091,49.16854494555761L171.31636363636363,50.06942574823529L171.4909090909091,50.10866010268556L171.62181818181818,50.04968188174625L171.84,50.496447202283264L172.10181818181817,50.83457647902871L172.14545454545456,50.59511192728708L172.32,51.00276302974474L172.40727272727273,50.95313797135728L172.6690909090909,51.05173061453854L172.71272727272728,51.42375582226934L172.97454545454548,51.60269785463072L173.28,51.688031811055865L173.5418181818182,52.01216192414071L173.6727272727273,52.154473284854646L173.93454545454546,52.6073764817977L174.41454545454548,52.93978945158419L174.50181818181818,52.79485256509088L174.80727272727273,53.32908153226508L174.93818181818182,53.69101965343252L175.0690909090909,53.366900461835954L175.15636363636364,53.45238295050153L175.37454545454545,53.82168215476091L176.07272727272726,54.64223104263969L176.16,54.64786216199015L176.20363636363635,54.86776851254328L176.37818181818182,54.8540161745175L176.4218181818182,55.02192095083626L176.59636363636363,55.28218220053586L176.68363636363637,55.434128498198916L176.94545454545454,55.75045630006582L176.98909090909092,55.70184694008718L177.29454545454544,56.05485128385223L177.81818181818184,56.76886105368672L178.03636363636363,57.03054864975397L178.16727272727272,56.676021850524506L178.56,57.39856785558845L178.60363636363635,57.687502380584135L178.86545454545455,57.563790314388854L178.9090909090909,57.86184865068276L179.52,58.65645245103454L179.69454545454545,58.85242326790177L179.78181818181818,58.869447683812325L179.86909090909091,59.09817204399219L180,59.146344544440154L180.13090909090909,59.3436128341135L180.52363636363637,59.550712647524776L180.78545454545457,60.147866861497974L180.87272727272727,60.582673152382625L181.3527272727273,60.78495222087287L181.39636363636365,60.91904188521943L181.65818181818182,61.11639317820361L181.96363636363637,61.79218429199666L183.01090909090908,62.65265558808653L183.14181818181817,63.13532420915237L183.27272727272728,63.23574074087422L183.36,63.53043744307956L184.27636363636364,64.55264505891502L184.40727272727273,64.70610944344719L184.58181818181816,65.06198832292411L184.62545454545455,65.02655464639075L184.66909090909093,64.95188661540712L184.9309090909091,65.37194889713138L185.06181818181818,65.69871545748386L185.14909090909092,65.70840500187431L185.54181818181817,66.40634052527746L185.71636363636364,66.22433173901072L185.84727272727272,66.75981230874035L186.06545454545454,66.65634212889904L186.41454545454545,67.30108563584675L186.5890909090909,67.66896941522673L186.67636363636365,67.54752683429331L186.76363636363638,68.00259467021085L187.3309090909091,68.92607640070821L187.4181818181818,69.10671781664391L187.5490909090909,69.08461272439158L188.0727272727273,69.72230094991879L188.24727272727273,70.25516036246434L188.46545454545455,70.30850964835084L188.55272727272728,70.27285754205214L188.9890909090909,71.37446437758848L189.07636363636365,71.16589016326117L189.16363636363636,71.21766675483723L189.73090909090908,72.55310265416941L189.99272727272725,72.41231593321754L190.4290909090909,72.88863261670733L190.64727272727274,73.87044820033621L190.95272727272726,74.10654893369158L191.08363636363637,74.42404533480307L191.1709090909091,74.05218176509861L192.04363636363638,75.68796296036783L192.08727272727273,76.18058324154252L192.13090909090909,76.23277484967274L192.3490909090909,76.22240817300974L192.43636363636364,76.1654416902092L192.6981818181818,76.84398938764085L192.87272727272727,77.16127172758227L193.22181818181818,77.77062087535437L193.26545454545453,78.18265367890476L193.48363636363638,78.23142467690974L193.52727272727273,78.42527672505317L193.70181818181817,79.00162113528248L194.1818181818182,79.48347719762126L194.4436363636364,80.15126067621696L194.70545454545453,80.53661009963346L194.83636363636361,80.56477880217165L195.31636363636363,80.96474991407999L195.4909090909091,81.65347643857642L195.66545454545454,81.16491021384643L195.75272727272727,81.55862549727544L195.9709090909091,82.45797510729808L196.14545454545456,82.71209629629398L196.36363636363637,82.39709436310267L196.5818181818182,83.53978346890403L196.75636363636363,83.90246861986896L196.79999999999998,83.65005992023332L196.88727272727274,83.91036704018363L197.28,84.63334772048059L197.32363636363638,85.22393375141004L197.80363636363634,85.0161720958098L197.8909090909091,85.24401181544003L197.93454545454546,85.81058804656335L198.23999999999998,86.10782727123726L198.32727272727274,86.32440912076193L198.3709090909091,86.52103959552048L198.41454545454548,86.64512080801919L198.45818181818183,86.81172155863887L198.63272727272727,87.27312385775126L198.72,87.0395525410785L199.67999999999998,88.44781729277018L199.8109090909091,89.31892830272974L200.4218181818182,90.41509623710913L200.64,90.40398689924398L200.68363636363637,90.11070999051333L200.7709090909091,91.25908700740415L201.12,91.8577942570089L201.33818181818182,91.49783947811076L201.64363636363635,92.81032714629639L202.86545454545455,94.62575808636667L203.1709090909091,95.78684771560026L203.65090909090907,96.77034520842227L203.86909090909091,96.32436405074283L204.2618181818182,96.88591202866805L204.30545454545455,97.93566363791281L204.7418181818182,98.92663142870941L204.78545454545454,98.61398416838848L204.82909090909092,98.60706868201783L204.91636363636363,98.68645479593279L205.00363636363636,99.86418440468992L205.09090909090907,99.72791044268996L205.13454545454547,98.99913263642088L205.17818181818183,99.69105697268189L205.26545454545456,99.84317146126428L206.05090909090907,101.63163069391045L206.26909090909092,102.06287221102477L206.4872727272727,101.9776234422081L206.61818181818182,102.46235404025875L206.7490909090909,103.05073393055825L206.96727272727273,102.31058903930091L207.44727272727272,104.24362256502995L207.84,104.98801373092549L207.9709090909091,106.15165025122292L208.01454545454544,105.65356048872412L208.40727272727273,106.77494395521428L208.66909090909093,107.14501640084296L209.32363636363635,108.8011421444559L209.36727272727273,108.90189068942105L209.6290909090909,109.267638225696L209.80363636363637,110.06012762591929L209.93454545454546,109.52011682285655L210.19636363636363,110.81837597612797L210.28363636363636,110.49428736469855L210.67636363636365,111.29859818382201L210.85090909090908,112.63491653940618L211.11272727272728,111.70926361704137L211.33090909090907,113.1561773314122L211.59272727272727,113.08220827567766L211.7672727272727,113.6030409453436L211.98545454545456,114.53835720052703L212.29090909090908,115.01761831725358L212.46545454545455,115.46810786528962L212.8581818181818,116.65746667475341L212.98909090909092,116.26152340771795L213.5127272727273,117.59931834851581L213.8181818181818,118.23314036719654L213.94909090909093,118.94657566674817L214.03636363636363,118.73117770655166L214.08,119.4503970262895L214.25454545454545,119.44470911520006L214.2981818181818,120.79567100225258L214.34181818181818,119.80712778185122L214.86545454545453,120.68135360026453L215.12727272727273,122.77043335035205L215.17090909090908,122.16159969682616L215.2581818181818,123.10897327505633L215.47636363636366,122.8146085860943L215.52,123.52929330390367L215.6509090909091,121.90218377031843L215.9127272727273,123.6368393831662L216.08727272727273,123.63140485060455L216.39272727272729,125.13594033707193L216.8290909090909,125.56899045264328L217.0909090909091,126.1927122789747L217.26545454545453,125.9847234564185L217.39636363636365,127.4347039246947L217.74545454545455,128.01577078645064L217.83272727272728,128.80856598834538L218.4,128.6914614225516L218.57454545454544,130.55728847808103L218.61818181818182,131.11099045883526L219.44727272727272,132.2921450463129L219.4909090909091,132.80410073031544L219.62181818181818,132.5215050371099L219.92727272727274,134.2844254615926L220.01454545454544,133.15281948208454L220.36363636363637,134.93120473395328L220.45090909090908,135.014688590266L220.49454545454546,134.58194427636613L221.06181818181818,136.70730957907185L221.1490909090909,137.15637496503786L221.19272727272727,137.22150198387146L221.54181818181817,138.01964434642173L221.58545454545452,137.14706111984378L221.71636363636364,138.39792101403657L221.80363636363637,138.16741645126916L222.19636363636366,140.26039298837034L222.32727272727274,141.4040912396876L222.41454545454545,140.26709441357096L222.50181818181818,140.38183120070846L223.02545454545455,141.7936126716221L223.76727272727274,144.4899184321626L223.98545454545453,144.39052415174257L224.42181818181817,147.0340747553583L224.68363636363637,146.35221566268413L224.9890909090909,148.17247826916372L225.2509090909091,147.97029094117494L225.33818181818182,149.08133831116925L225.51272727272726,149.2175598500255L225.8181818181818,148.91596076723545L225.8618181818182,151.40134200917362L225.90545454545455,149.23598658502956L226.34181818181818,151.368909557616L227.04,153.5094513604175L227.2581818181818,155.0797167318708L227.47636363636363,154.75109351851296L227.69454545454545,156.23809346341886L227.73818181818183,154.45725306098774L227.82545454545453,155.7475701079914L227.95636363636362,157.16669081902046L228.39272727272726,157.28347210876154L228.56727272727275,157.39330733196482L228.6109090909091,159.24482286926917L228.87272727272727,160.44802138866487L229.04727272727274,159.82906133121784L229.0909090909091,160.17183879336972L229.44,159.14402190116033L229.52727272727273,160.9021106592337L229.5709090909091,160.41863821663142L229.61454545454546,161.1869255988551L229.7018181818182,162.09049090334878L229.83272727272725,163.33062152746808L229.87636363636364,161.83232439509882L229.92,161.52562279299042L229.96363636363634,160.97217419076398L230.13818181818183,163.1124800894189L230.22545454545454,161.82788590226713L230.35636363636362,162.907243481906L230.39999999999998,163.15825423104343L230.44363636363636,162.7145272685423L230.4872727272727,165.1727008989098L230.57454545454547,162.36274176286787L230.70545454545456,164.73709078648866L230.7490909090909,164.7862112721182L231.0109090909091,165.5106204830805L231.27272727272728,165.64064735379176L231.35999999999999,165.77940267792596L231.4909090909091,168.01525849313097L232.01454545454547,168.53417771805255L232.36363636363635,171.28963425904698L232.40727272727273,170.39345188062177L232.4509090909091,170.1197156986984L232.71272727272728,171.6087688833985L233.01818181818183,171.46956796254298L233.23636363636362,172.37787756153986L233.5418181818182,173.5592855275453L233.71636363636364,174.59815496588087L233.93454545454546,175.1486503976799L233.97818181818184,175.87932417431213" style="fill: none;" fill="none"></path></g></g></g></g></g></g><g transform="translate(90, 178)" clip-path="url(#clip_1)"><clipPath id="clip_1"><rect width="240" height="22"></rect></clipPath><g><g><line x1="0" y1="0" x2="0" y2="5" style="visibility: inherit;" fill="rgb(0, 0, 0)" stroke="rgb(204, 204, 204)" stroke-width="1px"></line><line x1="21.81818181818182" y1="0" x2="21.81818181818182" y2="5" style="visibility: inherit;" fill="rgb(0, 0, 0)" stroke="rgb(204, 204, 204)" stroke-width="1px"></line><line x1="43.63636363636364" y1="0" x2="43.63636363636364" y2="5" style="visibility: inherit;" fill="rgb(0, 0, 0)" stroke="rgb(204, 204, 204)" stroke-width="1px"></line><line x1="65.45454545454545" y1="0" x2="65.45454545454545" y2="5" style="visibility: inherit;" fill="rgb(0, 0, 0)" stroke="rgb(204, 204, 204)" stroke-width="1px"></line><line x1="87.27272727272728" y1="0" x2="87.27272727272728" y2="5" style="visibility: inherit;" fill="rgb(0, 0, 0)" stroke="rgb(204, 204, 204)" stroke-width="1px"></line><line x1="109.0909090909091" y1="0" x2="109.0909090909091" y2="5" style="visibility: inherit;" fill="rgb(0, 0, 0)" stroke="rgb(204, 204, 204)" stroke-width="1px"></line><line x1="130.9090909090909" y1="0" x2="130.9090909090909" y2="5" style="visibility: inherit;" fill="rgb(0, 0, 0)" stroke="rgb(204, 204, 204)" stroke-width="1px"></line><line x1="152.72727272727272" y1="0" x2="152.72727272727272" y2="5" style="visibility: inherit;" fill="rgb(0, 0, 0)" stroke="rgb(204, 204, 204)" stroke-width="1px"></line><line x1="174.54545454545456" y1="0" x2="174.54545454545456" y2="5" style="visibility: inherit;" fill="rgb(0, 0, 0)" stroke="rgb(204, 204, 204)" stroke-width="1px"></line><line x1="196.36363636363637" y1="0" x2="196.36363636363637" y2="5" style="visibility: inherit;" fill="rgb(0, 0, 0)" stroke="rgb(204, 204, 204)" stroke-width="1px"></line><line x1="218.1818181818182" y1="0" x2="218.1818181818182" y2="5" style="visibility: inherit;" fill="rgb(0, 0, 0)" stroke="rgb(204, 204, 204)" stroke-width="1px"></line><line x1="240" y1="0" x2="240" y2="5" style="visibility: inherit;" fill="rgb(0, 0, 0)" stroke="rgb(204, 204, 204)" stroke-width="1px"></line></g><g transform="translate(0, 8)"><text x="0" y="0" dx="0em" dy="0.95em" style="text-anchor: middle; visibility: hidden; font-family: &quot;Helvetica Neue&quot;, sans-serif; font-size: 12px; font-weight: 200;" fill="rgb(50, 49, 63)" stroke="none" stroke-width="1px">-500</text><text x="21.81818181818182" y="0" dx="0em" dy="0.95em" style="text-anchor: middle; visibility: inherit; font-family: &quot;Helvetica Neue&quot;, sans-serif; font-size: 12px; font-weight: 200;" fill="rgb(50, 49, 63)" stroke="none" stroke-width="1px">0</text><text x="43.63636363636364" y="0" dx="0em" dy="0.95em" style="text-anchor: middle; visibility: hidden; font-family: &quot;Helvetica Neue&quot;, sans-serif; font-size: 12px; font-weight: 200;" fill="rgb(50, 49, 63)" stroke="none" stroke-width="1px">500</text><text x="65.45454545454545" y="0" dx="0em" dy="0.95em" style="text-anchor: middle; visibility: inherit; font-family: &quot;Helvetica Neue&quot;, sans-serif; font-size: 12px; font-weight: 200;" fill="rgb(50, 49, 63)" stroke="none" stroke-width="1px">1k</text><text x="87.27272727272728" y="0" dx="0em" dy="0.95em" style="text-anchor: middle; visibility: hidden; font-family: &quot;Helvetica Neue&quot;, sans-serif; font-size: 12px; font-weight: 200;" fill="rgb(50, 49, 63)" stroke="none" stroke-width="1px">1.5k</text><text x="109.0909090909091" y="0" dx="0em" dy="0.95em" style="text-anchor: middle; visibility: inherit; font-family: &quot;Helvetica Neue&quot;, sans-serif; font-size: 12px; font-weight: 200;" fill="rgb(50, 49, 63)" stroke="none" stroke-width="1px">2k</text><text x="130.9090909090909" y="0" dx="0em" dy="0.95em" style="text-anchor: middle; visibility: hidden; font-family: &quot;Helvetica Neue&quot;, sans-serif; font-size: 12px; font-weight: 200;" fill="rgb(50, 49, 63)" stroke="none" stroke-width="1px">2.5k</text><text x="152.72727272727272" y="0" dx="0em" dy="0.95em" style="text-anchor: middle; visibility: inherit; font-family: &quot;Helvetica Neue&quot;, sans-serif; font-size: 12px; font-weight: 200;" fill="rgb(50, 49, 63)" stroke="none" stroke-width="1px">3k</text><text x="174.54545454545456" y="0" dx="0em" dy="0.95em" style="text-anchor: middle; visibility: hidden; font-family: &quot;Helvetica Neue&quot;, sans-serif; font-size: 12px; font-weight: 200;" fill="rgb(50, 49, 63)" stroke="none" stroke-width="1px">3.5k</text><text x="196.36363636363637" y="0" dx="0em" dy="0.95em" style="text-anchor: middle; visibility: inherit; font-family: &quot;Helvetica Neue&quot;, sans-serif; font-size: 12px; font-weight: 200;" fill="rgb(50, 49, 63)" stroke="none" stroke-width="1px">4k</text><text x="218.1818181818182" y="0" dx="0em" dy="0.95em" style="text-anchor: middle; visibility: hidden; font-family: &quot;Helvetica Neue&quot;, sans-serif; font-size: 12px; font-weight: 200;" fill="rgb(50, 49, 63)" stroke="none" stroke-width="1px">4.5k</text><text x="240" y="0" dx="0em" dy="0.95em" style="text-anchor: middle; visibility: hidden; font-family: &quot;Helvetica Neue&quot;, sans-serif; font-size: 12px; font-weight: 200;" fill="rgb(50, 49, 63)" stroke="none" stroke-width="1px">5k</text></g><line x1="0" y1="0" x2="240" y2="0" fill="rgb(0, 0, 0)" stroke="rgb(204, 204, 204)" stroke-width="1px"></line></g></g></g></g></svg>