<svg viewBox="0 0 330 200" xmlns="http://www.w3.org/2000/svg"><g><g><g><g><g><line x1="50" y1="165.21785313498003" x2="45" y2="165.21785313498003" style="visibility: inherit;" fill="rgb(0, 0, 0)" stroke="rgb(204, 204, 204)" stroke-width="1px"></line><line x1="50" y1="151.98792509999464" x2="45" y2="151.98792509999464" style="visibility: inherit;" fill="rgb(0, 0, 0)" stroke="rgb(204, 204, 204)" stroke-width="1px"></line><line x1="50" y1="138.75799706500922" x2="45" y2="138.75799706500922" style="visibility: inherit;" fill="rgb(0, 0, 0)" stroke="rgb(204, 204, 204)" stroke-width="1px"></line><line x1="50" y1="125.52806903002383" x2="45" y2="125.52806903002383" style="visibility: inherit;" fill="rgb(0, 0, 0)" stroke="rgb(204, 204, 204)" stroke-width="1px"></line><line x1="50" y1="112.29814099503844" x2="45" y2="112.29814099503844" style="visibility: inherit;" fill="rgb(0, 0, 0)" stroke="rgb(204, 204, 204)" stroke-width="1px"></line><line x1="50" y1="99.06821296005305" x2="45" y2="99.06821296005305" style="visibility: inherit;" fill="rgb(0, 0, 0)" stroke="rgb(204, 204, 204)" stroke-width="1px"></line><line x1="50" y1="85.83828492506764" x2="45" y2="85.83828492506764" style="visibility: inherit;" fill="rgb(0, 0, 0)" stroke="rgb(204, 204, 204)" stroke-width="1px"></line><line x1="50" y1="72.60835689008225" x2="45" y2="72.60835689008225" style="visibility: inherit;" fill="rgb(0, 0, 0)" stroke="rgb(204, 204, 204)" stroke-width="1px"></line><line x1="50" y1="59.37842885509686" x2="45" y2="59.37842885509686" style="visibility: inherit;" fill="rgb(0, 0, 0)" stroke="rgb(204, 204, 204)" stroke-width="1px"></line><line x1="50" y1="46.14850082011145" x2="45" y2="46.14850082011145" style="visibility: inherit;" fill="rgb(0, 0, 0)" stroke="rgb(204, 204, 204)" stroke-width="1px"></line><line x1="50" y1="32.91857278512606" x2="45" y2="32.91857278512606" style="visibility: inherit;" fill="rgb(0, 0, 0)" stroke="rgb(204, 204, 204)" stroke-width="1px"></line><line x1="50" y1="19.688644750140668" x2="45" y2="19.688644750140668" style="visibility: inherit;" fill="rgb(0, 0, 0)" stroke="rgb(204, 204, 204)" stroke-width="1px"></line><line x1="50" y1="6.458716715155248" x2="45" y2="6.458716715155248" style="visibility: inherit;" fill="rgb(0, 0, 0)" stroke="rgb(204, 204, 204)" stroke-width="1px"></line></g><g transform="translate(40, 0)"><text x="0" y="165.21785313498003" dx="0em" dy="0.3em" style="text-anchor: end; visibility: inherit; font-family: &quot;Helvetica Neue&quot;, sans-serif; font-size: 12px; font-weight: 200;" fill="rgb(50, 49, 63)" stroke="none" stroke-width="1px">-700</text><text x="0" y="151.98792509999464" dx="0em" dy="0.3em" style="text-anchor: end; visibility: hidden; font-family: &quot;Helvetica Neue&quot;, sans-serif; font-size: 12px; font-weight: 200;" fill="rgb(50, 49, 63)" stroke="none" stroke-width="1px">-650</text><text x="0" y="138.75799706500922" dx="0em" dy="0.3em" style="text-anchor: end; visibility: inherit; font-family: &quot;Helvetica Neue&quot;, sans-serif; font-size: 12px; font-weight: 200;" fill="rgb(50, 49, 63)" stroke="none" stroke-width="1px">-600</text><text x="0" y="125.52806903002383" dx="0em" dy="0.3em" style="text-anchor: end; visibility: hidden; font-family: &quot;Helvetica Neue&quot;, sans-serif; font-size: 12px; font-weight: 200;" fill="rgb(50, 49, 63)" stroke="none" stroke-width="1px">-550</text><text x="0" y="112.29814099503844" dx="0em" dy="0.3em" style="text-anchor: end; visibility: inherit; font-family: &quot;Helvetica Neue&quot;, sans-serif; font-size: 12px; font-weight: 200;" fill="rgb(50, 49, 63)" stroke="none" stroke-width="1px">-500</text><text x="0" y="99.06821296005305" dx="0em" dy="0.3em" style="text-anchor: end; visibility: hidden; font-family: &quot;Helvetica Neue&quot;, sans-serif; font-size: 12px; font-weight: 200;" fill="rgb(50, 49, 63)" stroke="none" stroke-width="1px">-450</text><text x="0" y="85.83828492506764" dx="0em" dy="0.3em" style="text-anchor: end; visibility: inherit; font-family: &quot;Helvetica Neue&quot;, sans-serif; font-size: 12px; font-weight: 200;" fill="rgb(50, 49, 63)" stroke="none" stroke-width="1px">-400</text><text x="0" y="72.60835689008225" dx="0em" dy="0.3em" style="text-anchor: end; visibility: hidden; font-family: &quot;Helvetica Neue&quot;, sans-serif; font-size: 12px; font-weight: 200;" fill="rgb(50, 49, 63)" stroke="none" stroke-width="1px">-350</text><text x="0" y="59.37842885509686" dx="0em" dy="0.3em" style="text-anchor: end; visibility: inherit; font-family: &quot;Helvetica Neue&quot;, sans-serif; font-size: 12px; font-weight: 200;" fill="rgb(50, 49, 63)" stroke="none" stroke-width="1px">-300</text><text x="0" y="46.14850082011145" dx="0em" dy="0.3em" style="text-anchor: end; visibility: hidden; font-family: &quot;Helvetica Neue&quot;, sans-serif; font-size: 12px; font-weight: 200;" fill="rgb(50, 49, 63)" stroke="none" stroke-width="1px">-250</text><text x="0" y="32.91857278512606" dx="0em" dy="0.3em" style="text-anchor: end; visibility: inherit; font-family: &quot;Helvetica Neue&quot;, sans-serif; font-size: 12px; font-weight: 200;" fill="rgb(50, 49, 63)" stroke="none" stroke-width="1px">-200</text><text x="0" y="19.688644750140668" dx="0em" dy="0.3em" style="text-anchor: end; visibility: hidden; font-family: &quot;Helvetica Neue&quot;, sans-serif; font-size: 12px; font-weight: 200;" fill="rgb(50, 49, 63)" stroke="none" stroke-width="1px">-150</text><text x="0" y="6.458716715155248" dx="0em" dy="0.3em" style="text-anchor: end; visibility: inherit; font-family: &quot;Helvetica Neue&quot;, sans-serif; font-size: 12px; font-weight: 200;" fill="rgb(50, 49, 63)" stroke="none" stroke-width="1px">-100</text></g><line x1="50" y1="0" x2="50" y2="178" fill="rgb(0, 0, 0)" stroke="rgb(204, 204, 204)" stroke-width="1px"></line></g></g><g transform="translate(50, 0)" clip-path="url(#clip_0)"><clipPath id="clip_0"><rect width="280" height="178"></rect></clipPath><g><g><g><line x1="16.189610947988793" y1="0" x2="16.189610947988793" y2="178" fill="rgb(0, 0, 0)" stroke="rgb(60, 60, 60)" stroke-width="1px" opacity="0.25"></line><line x1="53.187162506499746" y1="0" x2="53.187162506499746" y2="178" fill="rgb(0, 0, 0)" stroke="rgb(60, 60, 60)" stroke-width="1px" opacity="0.25"></line><line x1="90.1847140650107" y1="0" x2="90.1847140650107" y2="178" fill="rgb(0, 0, 0)" stroke="rgb(60, 60, 60)" stroke-width="1px" opacity="0.25"></line><line x1="127.18226562352164" y1="0" x2="127.18226562352164" y2="178" fill="rgb(0, 0, 0)" stroke="rgb(60, 60, 60)" stroke-width="1px" opacity="0.25"></line><line x1="164.17981718203262" y1="0" x2="164.17981718203262" y2="178" fill="rgb(0, 0, 0)" stroke="rgb(60, 60, 60)" stroke-width="1px" opacity="0.25"></line><line x1="201.17736874054359" y1="0" x2="201.17736874054359" y2="178" fill="rgb(0, 0, 0)" stroke="rgb(60, 60, 60)" stroke-width="1px" opacity="0.25"></line><line x1="238.17492029905452" y1="0" x2="238.17492029905452" y2="178" fill="rgb(0, 0, 0)" stroke="rgb(60, 60, 60)" stroke-width="1px" opacity="0.25"></line><line x1="275.1724718575655" y1="0" x2="275.1724718575655" y2="178" fill="rgb(0, 0, 0)" stroke="rgb(60, 60, 60)" stroke-width="1px" opacity="0.25"></line></g><g><line x1="0" y1="165.21785313498003" x2="280" y2="165.21785313498003" fill="rgb(0, 0, 0)" stroke="rgb(60, 60, 60)" stroke-width="1px" opacity="0.25"></line><line x1="0" y1="151.98792509999464" x2="280" y2="151.98792509999464" fill="rgb(0, 0, 0)" stroke="rgb(60, 60, 60)" stroke-width="1px" opacity="0.25"></line><line x1="0" y1="138.75799706500922" x2="280" y2="138.75799706500922" fill="rgb(0, 0, 0)" stroke="rgb(60, 60, 60)" stroke-width="1px" opacity="0.25"></line><line x1="0" y1="125.52806903002383" x2="280" y2="125.52806903002383" fill="rgb(0, 0, 0)" stroke="rgb(60, 60, 60)" stroke-width="1px" opacity="0.25"></line><line x1="0" y1="112.29814099503844" x2="280" y2="112.29814099503844" fill="rgb(0, 0, 0)" stroke="rgb(60, 60, 60)" stroke-width="1px" opacity="0.25"></line><line x1="0" y1="99.06821296005305" x2="280" y2="99.06821296005305" fill="rgb(0, 0, 0)" stroke="rgb(60, 60, 60)" stroke-width="1px" opacity="0.25"></line><line x1="0" y1="85.83828492506764" x2="280" y2="85.83828492506764" fill="rgb(0, 0, 0)" stroke="rgb(60, 60, 60)" stroke-width="1px" opacity="0.25"></line><line x1="0" y1="72.60835689008225" x2="280" y2="72.60835689008225" fill="rgb(0, 0, 0)" stroke="rgb(60, 60, 60)" stroke-width="1px" opacity="0.25"></line><line x1="0" y1="59.37842885509686" x2="280" y2="59.37842885509686" fill="rgb(0, 0, 0)" stroke="rgb(60, 60, 60)" stroke-width="1px" opacity="0.25"></line><line x1="0" y1="46.14850082011145" x2="280" y2="46.14850082011145" fill="rgb(0, 0, 0)" stroke="rgb(60, 60, 60)" stroke-width="1px" opacity="0.25"></line><line x1="0" y1="32.91857278512606" x2="280" y2="32.91857278512606" fill="rgb(0, 0, 0)" stroke="rgb(60, 60, 60)" stroke-width="1px" opacity="0.25"></line><line x1="0" y1="19.688644750140668" x2="280" y2="19.688644750140668" fill="rgb(0, 0, 0)" stroke="rgb(60, 60, 60)" stroke-width="1px" opacity="0.25"></line><line x1="0" y1="6.458716715155248" x2="280" y2="6.458716715155248" fill="rgb(0, 0, 0)" stroke="rgb(60, 60, 60)" stroke-width="1px" opacity="0.25"></line></g></g></g><g><g><line x1="0" y1="-20.001139354815507" x2="280" y2="-20.001139354815507" fill="rgb(0, 0, 0)" stroke="rgb(153, 153, 153)" stroke-width="1.5px"></line></g></g><g><g><line x1="-242.7932499615879" y1="0" x2="-242.7932499615879" y2="178" fill="rgb(0, 0, 0)" stroke="rgb(153, 153, 153)" stroke-width="1.5px"></line></g></g><g><g><g><g><g><path stroke="rgb(255, 112, 67)" stroke-width="2px" d="M-0.015316634639003748,21.50733273323442L0.13267357159504006,20.421918623910926L0.28066377782908386,24.7418254271316L1.7605658401695221,23.022778859037288L2.3525266651056973,15.508974397655606L3.3884581087440035,15.44289087883348L3.4624532118610256,14.961358490519132L3.8324287274461355,14.602236815543733L4.2024042430312445,19.95355297867772L4.7203699648503985,24.438648496107874L5.608311202254661,22.51299027736343L6.8662279552440335,20.898684292859627L7.014218161478078,24.77405580189881L7.162208367712121,22.672396128946332L7.384193677063187,26.932347536470246L7.7541691926482965,24.72190359646561L9.012085945637669,22.637135798188638L9.38206146122278,31.591919623022193L11.00995372979726,33.89817067136127L11.231939039148324,29.984907615643408L11.601914554733437,26.781020040028835L12.119880276552589,24.594544993055848L12.415860689020676,28.591047481633183L12.56385089525472,26.31410801915527L13.007821513956852,23.690906748979472L13.081816617073873,21.939487120516787L13.525787235776006,20.211448328670457L14.043752957595158,27.866461079079045L14.487723576297288,24.94503114872873L14.709708885648356,22.86080231582241L15.967625638637728,20.87297444270476L16.115615844871773,19.635213281752755L16.85556687604199,23.761562312685697L17.077552185393056,27.195147698389093L17.225542391627098,24.68450326212721L17.59551790721221,22.530260503043337L18.77943955708456,26.047301672804082L18.927429763318603,29.056349168388124L19.371400382020735,31.671159750402296L19.66738079448882,33.81547417143199L19.81537100072287,35.67259244509333L20.851302444361174,37.32315002228654L21.739243681765434,33.29054614198154L22.109219197350544,29.797053754563393L22.997160434754807,27.168160880534515L23.515126156573963,24.97694404667456L23.589121259690984,28.12437065729847L24.92103311579738,31.079689882762892L25.069023322031423,21.882958589142646L25.21701352826547,19.856587823282382L25.43899883761653,24.206947382337518L25.6609841469676,16.28746560497561L26.91890089995697,21.79928041908886L27.732847034244212,20.371654210862403L27.806842137361233,13.112078980563894L28.25081275606336,18.76551263923679L28.768778477882517,22.64625068109484L30.544660952691043,20.76898272944345L30.988631571393174,29.118126533094085L31.13662177762722,26.435115880562904L32.690518943084676,29.68445103886671L32.912504252435745,26.319195702656003L33.208484664903835,24.17323934668002L33.282479768020856,22.494544785460022L33.35647487113788,26.822062915797204L33.80044548984001,29.76927848979372L34.02243079919107,26.568801173594068L34.17042100542512,23.847122837278135L34.83637693347831,21.66564824986139L35.35434265529747,19.946081983266936L36.31627899581875,12.797906582121698L36.61225940828684,12.496288826163635L36.90823982075492,18.266794956515923L37.87017616127621,17.27471274902061L38.018166367510254,10.559495169011313L38.240151676861316,11.142270139863655L39.128092914265586,11.394256278994163L39.42407332673367,17.091054995085784L39.79404884231878,16.013574752598487L39.94203904855282,15.399902067511363L40.68199007972304,9.090438318789666L40.82998028595709,20.60061217646748L40.97797049219113,24.85149753880421L41.93990683271242,22.435485856158436L43.12382848258476,20.423223135574943L43.493803998169874,18.791927379042335L44.01176971998903,23.506183999353908L45.86164729791458,21.4068581677231L45.9356424010316,19.705270368961607L46.00963750414862,23.48825259002095L46.52760322596777,21.697568444708594L47.26755425713799,19.84855975366591L47.85951508207417,24.590292438918652L48.37748080389333,22.699095800607637L48.67346121636141,20.569568870581747L49.48740735064865,13.260193215098411L49.93137796935078,19.28878158819154L50.375348588052915,12.33196420262908L51.70726044415931,6.464815549594476L52.00324085662739,13.46320448818662L52.817186990914635,18.84511300035919L53.187162506499746,23.763916807185268L53.55713802208486,21.688903897030457L53.85311843455295,14.115180229923169L53.92711353766997,25.141668003956028L54.74105967195721,22.45837253416545L54.81505477507422,14.71896490701161L55.629000909361466,20.12614439613074L55.77699111559551,18.655611061438975L55.850986218712535,23.073947845811915L56.36895194053169,15.184464827964575L56.59093724988276,19.772988243856247L56.66493235299978,18.345163946870855L56.7389274561168,17.624949301893338L58.81079034339341,16.65647967319694L60.06870709638279,21.905887360477237L60.4386826119679,20.512586644776405L60.51267771508491,19.062427402402534L60.66066792131896,17.879084759577154L61.252628746255134,17.00601663500362L65.54434472704241,10.272520008255299L66.65427127379773,10.597907945633636L67.46821740808497,16.938091995039287L67.542212511202,16.087160155086167L67.69020271743604,20.744943781495493L67.83819292367009,19.03939391826077L68.06017823302115,24.132061366664203L68.13417333613818,22.0671963356061L68.28216354237222,20.439427053251563L69.98405091406372,28.77778567718528L70.35402642964884,25.564451321104514L70.5760117389999,23.031190464862874L70.79799704835095,29.25534721010618L71.16797256393608,26.33100125710365L71.98191869822331,17.878181292952917L72.6478746262765,22.709514106480867L72.86985993562757,20.751919446961722L72.94385503874459,19.097960532789045L73.6098109667978,24.120156858639575L74.05378158549993,21.83545534831805L75.23770323537228,25.242458158298803L75.6816738540744,22.815311659781855L75.9776542665425,26.00299921529526L76.64361019459568,28.98316660776601L76.79160040082974,37.288147375481174L77.45755632888293,38.173916931712455L77.75353674135101,39.415751859980276L78.19750736005315,28.525444040835083L78.56748287563825,25.23954717918997L79.01145349434039,22.78233566661575L79.6774094223936,27.008333986238085L80.19537514421275,18.4096060004955L80.49135555668083,17.62916269459734L81.15731148473402,22.757360272434624L82.26723803148936,20.85889207326258L82.78520375330851,26.536584223267397L83.22917437201063,23.97141701596422L83.52515478447873,21.767627710808114L83.59914988759574,20.2046757367892L85.00505684681917,19.00117269527712L85.07905194993619,17.699249946532547L85.22704215617024,17.020538061461707L85.67101277487237,16.38697985645112L85.89299808422342,21.762854521482467L87.89086586838303,20.366196731563036L88.33483648708514,18.728656909925633L88.63081689955324,17.3734168399304L88.85280220890431,16.97895370408824L89.44476303384047,27.095885302100868L89.59275324007453,24.189858445721768L90.8506699930639,21.616879532367108L90.92466509618092,19.783084363884086L92.33057205540433,18.687386033038393L92.40456715852136,17.993640411426867L92.62655246787241,11.047927231151931L93.14451818969157,17.547266771502677L93.29250839592562,22.2356069107949L93.88446922086179,26.41015770030222L94.03245942709584,24.19820005621395L94.10645453021286,16.165546186881528L95.06839087073415,21.680306968394092L95.21638107696819,25.286623491879112L95.95633210813841,28.52052006752689L96.17831741748948,31.281282513364403L96.99226355177672,33.07295993784584L97.21424886112779,23.315571637922858L97.36223906736183,15.385282017351017L97.51022927359587,15.109381859155974L98.39817051100013,8.643179528280797L99.6560872639895,14.984434541070272L100.76601381074484,19.880954600872627L101.20998442944696,18.25621093391115L101.72795015126613,17.133654405682762L102.3199109762023,16.14942819499049L102.61589138867038,20.79465101510243L103.13385711048953,24.635285139731366L103.20785221360656,22.44130941236378L103.28184731672359,20.84085632905439L104.02179834789379,19.083991924192475L105.57569551335125,11.899723119810261L105.94567102893637,6.095857028209792L106.31564654452147,7.383153095741022L106.75961716322361,8.331308251840653L107.49956819439382,3.2416517759503165L107.86954370997894,5.347489710642549L108.31351432868107,12.995129604720972L108.60949474114916,13.25745075116734L108.68348984426618,19.99683330847023L109.27545066920236,24.14352766701151L109.49743597855341,21.833473146850878L109.57143108167044,25.677242608225868L109.71942128790448,29.42929656336787L109.94140659725555,26.387512898782518L110.01540170037258,23.835448777495543L110.60736252530874,21.708852134342663L110.82934783465981,19.58277333173166L110.90334293777683,28.81222468103192L111.05133314401088,26.039311448896797L111.19932335024491,23.58353567940904L111.42130865959598,27.21736508272977L111.49530376271301,24.145506399235728L111.93927438141513,16.03258755359414L112.38324500011727,14.989303307979696L112.53123520635131,8.602209586784312L112.75322051570238,8.90053474139117L114.23312257804282,9.68314513060929L114.38111278427685,16.554604217817143L115.34304912479814,15.900599876872718L116.2309903622024,15.12062698925368L117.63689732142583,14.750069638829302L117.78488752765986,14.48201667884723L118.96880917753222,25.318530276059022L119.19079448688328,22.91948241606849L119.33878469311733,15.044364182162099L119.41277979623435,20.555273295545646L120.81868675545778,19.020704238421587L122.59456923026629,22.829972330023736L122.81655453961736,20.94446923556808L123.77849088013865,25.348103195423903L124.37045170507483,22.807075242388237L124.962412530011,26.33216254434373L125.03640763312801,29.495918748247476L125.25839294247908,26.011480326672967L125.40638314871313,28.816045022007103L125.48037825183015,19.84658872792238L126.51630969546845,18.325089885441628L127.10827052040463,22.757529263178526L128.7361627889791,20.817804926277915L129.18013340768124,24.935741804911004L129.4021187170323,22.28309617407149L129.92008443885146,20.607693547578265L130.88202077937274,18.866945597450638L131.0300109856068,18.033091446335504L131.10400608872382,16.873659729970427L131.62197181054296,15.98493114971771L132.95388366664938,20.469107706736622L134.1378053165217,13.065980336477367L134.65577103834087,13.166362161256842L135.02574655392596,18.846795877452536L135.099741657043,17.755611791414623L135.54371227574512,16.77019950064212L136.5056486162664,21.105742473384822L136.65363882250045,19.505734464653187L137.0976094412026,17.96196450100709L139.02148212224517,17.27944823229032L139.39145763783026,16.345252186476387L140.35339397835156,15.621632943705606L140.64937439081964,14.924585801033885L141.98128624692603,14.111502308105969L142.5732470718622,13.455775616789253L144.27513444355372,7.397639722158232L144.49711975290478,8.35110400410366L144.57111485602178,9.218377650713933L144.71910506225586,3.888093823478499L144.8670952684899,5.707983596754929L144.94109037160692,7.180336403187795L145.237070784075,13.642150410857596L146.5689826401814,13.278401209708704L146.86496305264947,18.60642943324939L148.56685042434097,11.656079373075897L149.52878676486225,11.856259108948535L150.71270841473464,6.1889361177083515L151.52665454902188,6.988507088123669L151.60064965213888,2.0677928010743187L152.71057619889422,3.960423165312619L152.93256150824527,5.5558416812174585L153.74650764253252,7.00495800773038L153.82050274564952,7.872456183268866L154.0424880550006,14.242852944308169L155.30040480798996,13.955756186641082L155.59638522045807,13.515578492548059L157.0762872827985,13.105000912893303L157.22427748903254,25.608292710579803L158.26020893267085,22.884217528309506L158.63018444825596,21.010121534154308L159.66611589189426,19.652365338321516L159.74011099501126,18.17711328477256L159.88810120124535,26.11435451732291L160.25807671683043,29.510829781636176L162.32993960410707,32.15070345098192L162.99589553216026,34.74068511423846L163.5138612539794,30.492413454311844L163.8098416664475,27.28982517323459L164.25381228514965,31.340794971698642L164.69778290385176,33.13437176392003L165.06775841943687,29.423438213129344L165.28974372878793,26.503992170029903L165.43773393502198,23.777727279306674L166.54766048177729,27.585040975707642L167.2136164098305,34.99192110485862L167.80557723476667,31.292402551468797L168.54552826593692,27.71818763596235L169.06349398775606,24.68369170958428L169.43346950334114,28.194773356996194L169.58145970957523,19.433767769258196L169.80344501892625,23.720245064266663L170.46940094697945,15.745043689874763L170.61739115321353,15.014314175805765L171.06136177191564,20.0728583455423L171.94930300931992,24.61774055127941L172.319278524905,28.41298595833851L172.91123934984117,25.458013127751798L173.05922955607525,22.96649193208262L173.79918058724544,21.916316576998042L173.9471707934795,20.470888351214285L175.05709734023483,24.665872140746416L175.87104347452208,28.077712006196435L176.0190336807561,25.412644280697293L176.3150140932242,23.07243556869099L177.20295533062844,21.72968725064382L177.42494063997952,20.404305076980478L179.94077414595827,70.20791259718754L180.4587398677774,133.75312960632928L180.68072517712847,186.03791045855544L205.0251141026287,186.90674664593828L205.3950896182138,160.32615996648482L205.6170749275649,133.39406230889117L206.87499168055425,116.14696561866045L206.94898678367124,136.51907830488858L207.24496719613936,124.40095677962219L207.61494271172447,141.05219251283185L208.13290843354363,133.30754175531314L208.7988643615968,149.139678310622L208.94685456783088,128.93620500870333L209.68680559900108,155.76625479163275L210.13077621770321,146.88684000165023L210.27876642393724,116.27108703063334L210.72273704263938,97.22450883171953L210.8707272488734,93.10639706946621L211.0187174551075,84.76286170434702L211.90665869251174,76.64438501899167L212.05464889874577,70.85933841873795L212.20263910497982,65.86596950258978L212.794599929916,68.61421105600218L213.90452647667132,70.50701520260534L214.2005068891394,54.03523370097341L214.57048240472452,46.654055361531476L214.7924677140756,46.277999666428514L215.97638936394793,58.71509191816092L216.71634039511815,50.297128564884034L216.79033549823518,56.17723409420289L216.93832570446924,54.007376960025994L217.38229632317137,77.86523884223934L217.45629142628837,60.04057421246685L217.82626694187348,58.0071448283245L218.34423266369265,50.26023768927334L218.71420817927776,61.671061441484724L219.23217390109693,52.992961729112324L219.67614451979904,52.04343731092611L220.63808086032034,51.55907858423252L221.15604658213948,44.83483635858511L222.56195354136287,45.25936651777468L224.04185560370334,44.83426279186136L224.2638409130544,50.919697073625386L224.5598213255225,44.35725426555794L224.6338164286395,32.7387986883283L225.15178215045867,35.60009710107042L226.409698903448,25.640011438633564L227.22364503773525,29.13511022908338L228.03759117202253,26.31757503647691L228.55555689384167,24.225417287670012L228.9995275125438,27.717392347308902L230.7754099873523,19.115645893677822L232.47729735904383,18.115471732295447L233.14325328709702,17.317252959318978L234.25317983385236,16.54311182473711L234.32717493696939,15.914954171703073L234.84514065878852,9.589698370967255L235.1411210712566,4.344648425294878L235.88107210242683,5.942435270422578L236.10305741177788,1.3550135889698538L236.1770525148949,3.718613837323744L236.91700354606513,-0.48327187088750634L237.21298395853324,2.1923147092689987L237.8049447834694,3.92901268618121L237.87893988658644,5.875594810627632L238.17492029905452,7.401006765953156L238.8408762271077,2.6597298196576844L238.91487133022474,4.682295586409964L239.65482236139496,6.253274972999463L239.728817464512,7.202586142856632L239.802812567629,8.388471952604277L240.39477339256516,15.409437655115283L240.69075380503327,9.043602677938338L241.8746754549056,9.94704996554492L242.46663627984177,10.385430846058085L243.42857262036304,10.846859297696767L243.65055792971413,17.785995575423215L243.9465383421822,16.9297108761063L244.09452854841626,21.489112991203626L244.1685236515333,19.779269427636706L244.39050896088435,18.770435857897553L245.05646488893757,17.8731880683508L245.13045999205457,17.116075054896015L245.79641592010776,21.129615658472233L246.01840122945885,19.60947195562983L246.75835226062904,18.618300703715676L247.12832777621415,17.733418297319503L249.20019066349076,17.22345494929752L249.79215148842692,10.520100571389463L250.45810741648015,16.09639174773156L250.60609762271417,21.294156815035166L250.90207803518229,24.57957997907431L251.34604865388442,22.54455304316781L251.49403886011845,20.68453620576696L251.56803396323548,19.334470580778003L252.08599968505462,12.214606892236787L252.3079849944057,12.168838935139462L252.67796050999078,12.005620025769787L252.89994581934187,17.50563725482297L252.9739409224589,22.244421115243767L253.49190664427803,25.93302957720411L253.78788705674614,23.700228138798877L254.08386746921423,21.934181603048017L254.82381850038445,20.23579221082855L254.89781360350148,12.8999361376666L255.78575484090572,12.959667827807692L256.0817352533738,13.140317677328028L256.59970097519295,7.175060903250426L256.89568138766106,2.2577732244980098L257.7096275219483,3.8223542627578695L258.59756875935255,5.509941211873439L259.7814904092249,7.048372062908214L261.3353875746824,8.16391537585531L261.63136798715044,15.197233315925502L262.7412945339058,14.899765633518626L263.1112700494909,14.699109314985861L263.33325535884194,14.170611500137909L263.7772259775441,14.023905129566742L264.07320639001216,14.085965661559214L264.3691868024803,19.288412530922244L264.96114762741644,18.04084543509623L265.4051182461186,11.07664428785705L265.4791133492356,11.228721788003526L265.5531084523526,5.505024150633261L266.73703010222494,12.46746486612767L267.2549958240441,17.940558199056966L267.40298603027816,28.149549509780854L267.8469566489803,24.87412413003068L268.4389174739165,22.574993622469634L268.66090278326755,20.87061283378614L268.95688319573566,25.22447206090149L269.10487340196966,22.64026307599633L269.6968342269058,32.30256444029439L270.28879505184204,28.33379607256944L270.5107803611931,25.63210521006542L271.5467118048314,34.51416907332725L271.8426922172995,24.503133246059633L272.43465304223565,28.060352600388086L272.6566383515867,30.945205093207107L273.1006089702888,33.55761170949637L274.3585257232782,29.923266431288425L274.43252082639526,26.961570066472518L274.58051103262926,29.291008011781514L275.9124228887357,26.279251956316244L276.20840330120376,23.86075266647137" style="fill: none;" fill="none"></path></g></g></g></g><g opacity="0.2"><g><g><g><path stroke="rgb(255, 112, 67)" stroke-width="2px" d="M-0.015316634639003748,15.631258217641232L0.13267357159504006,15.640229439593668L0.28066377782908386,43.77276620888762L1.7605658401695221,15.449681815810976L2.3525266651056973,-17.59238039167451L3.3884581087440035,15.151766187806373L3.4624532118610256,12.840013104161415L3.8324287274461355,13.020160247408796L4.2024042430312445,43.52827012978159L4.7203699648503985,44.19731253235406L5.608311202254661,14.02968515154322L6.8662279552440335,13.787011982748425L7.014218161478078,41.846638395774136L7.162208367712121,13.413733245399015L7.384193677063187,45.6991604939403L7.7541691926482965,14.984001914823665L9.012085945637669,13.452888470644154L9.38206146122278,71.04137268918069L11.00995372979726,44.05814150593622L11.231939039148324,12.745397397210752L11.601914554733437,12.666596396105149L12.119880276552589,14.962236002336908L12.415860689020676,46.197261147527996L12.56385089525472,16.283266603374187L13.007821513956852,12.134641693880582L13.081816617073873,14.223773622154113L13.525787235776006,12.598736894320467L14.043752957595158,61.58989562817632L14.487723576297288,12.074947942050358L14.709708885648356,13.678929349235062L15.967625638637728,12.115786785456692L16.115615844871773,14.182373572694075L16.85556687604199,41.93980263814697L17.077552185393056,42.321483316487814L17.225542391627098,13.624096691568099L17.59551790721221,13.039947807619797L18.77943955708456,41.54129385310145L18.927429763318603,42.312423270555655L19.371400382020735,43.19046042251867L19.66738079448882,43.26204851272507L19.81537100072287,43.85395132635816L20.851302444361174,44.59452529478628L21.739243681765434,15.525291209826861L22.109219197350544,14.406803507289027L22.997160434754807,15.586822003055943L23.515126156573963,15.323745562372494L23.589121259690984,41.990060860857966L24.92103311579738,44.09906917332228L25.069023322031423,-18.6323711638328L25.21701352826547,10.92960309800597L25.43899883761653,43.37204489925617L25.6609841469676,-18.60106222502415L26.91890089995697,46.081059194776856L27.732847034244212,14.082381996243129L27.806842137361233,-18.86929297994027L28.25081275606336,43.67117983825523L28.768778477882517,39.74247502765857L30.544660952691043,12.498856347844196L30.988631571393174,65.89948977620352L31.13662177762722,14.6153662491418L32.690518943084676,43.99908970923221L32.912504252435745,11.493881653943959L33.208484664903835,14.719431616299346L33.282479768020856,15.099214691436941L33.35647487113788,45.88653467917459L33.80044548984001,42.75295791037297L34.02243079919107,12.469401104930625L34.17042100542512,11.857026382697228L34.83637693347831,12.05536831070097L35.35434265529747,12.370695457458908L36.31627899581875,-18.692703968869466L36.61225940828684,11.167540333699861L36.90823982075492,43.68821385509469L37.87017616127621,12.904188429514221L38.018166367510254,-19.02376065643503L38.240151676861316,13.709630146591621L39.128092914265586,12.504357378406837L39.42407332673367,42.18776285246233L39.79404884231878,11.266837468127505L39.94203904855282,12.696425103478958L40.68199007972304,-18.70530738503834L40.82998028595709,71.30759430623722L40.97797049219113,43.578370891801285L41.93990683271242,11.791974929908008L43.12382848258476,11.558390069220735L43.493803998169874,11.605408235398528L44.01176971998903,44.27439559694264L45.86164729791458,12.158476801349622L45.9356424010316,12.20908628252593L46.00963750414862,40.15382291522829L46.52760322596777,13.808878831575782L47.26755425713799,11.702926871504815L47.85951508207417,45.47954724151876L48.37748080389333,14.367607907507619L48.67346121636141,11.188139422089307L49.48740735064865,-18.940569807706368L49.93137796935078,45.8471573939801L50.375348588052915,-18.315636712146073L51.70726044415931,-19.382352840801218L52.00324085662739,44.29394494738986L52.817186990914635,42.55460185128152L53.187162506499746,45.43324168590556L53.55713802208486,12.547630806348423L53.85311843455295,-19.25014295219802L53.92711353766997,73.71781684631691L54.74105967195721,10.637368167250287L54.81505477507422,-19.376263288287703L55.629000909361466,43.9469621454933L55.77699111559551,12.177315559958998L55.850986218712535,42.538512598590046L56.36895194053169,-19.571906304714247L56.59093724988276,39.98729410305452L56.66493235299978,12.055019070962487L56.7389274561168,14.452111811857066L58.81079034339341,12.38997833596693L60.06870709638279,45.0316563611986L60.4386826119679,14.374532140472724L60.51267771508491,12.673888037350025L60.66066792131896,12.665980684427495L61.252628746255134,13.159797599720179L65.54434472704241,-19.39126242850071L66.65427127379773,12.0313737238138L67.46821740808497,44.86917307755601L67.542212511202,12.33846042772521L67.69020271743604,41.264368946487764L67.83819292367009,11.525755331578296L68.06017823302115,46.567326071792735L68.13417333613818,12.970628766350046L68.28216354237222,13.268443458014076L69.98405091406372,65.51163583127163L70.35402642964884,11.408410779451572L70.5760117389999,11.871149395473822L70.79799704835095,56.67528097969179L71.16797256393608,13.44807178847077L71.98191869822331,-19.359917468035462L72.6478746262765,43.993493798509405L72.86985993562757,12.127921352323483L72.94385503874459,11.811600991974075L73.6098109667978,46.24496769954868L74.05378158549993,11.770418965009725L75.23770323537228,40.251686753619396L75.6816738540744,12.122747355504401L75.9776542665425,40.04605520309761L76.64361019459568,42.11201214756963L76.79160040082974,73.87495454136135L77.45755632888293,42.07609092267728L77.75353674135101,44.88653816559267L78.19750736005315,-19.450776892155915L78.56748287563825,10.763839383293941L79.01145349434039,11.957322786896782L79.6774094223936,45.62556982673641L80.19537514421275,-19.4712767475055L80.49135555668083,14.190993536181224L81.15731148473402,45.349149601825786L82.26723803148936,12.495370006639916L82.78520375330851,51.549119911126326L83.22917437201063,12.670815535142196L83.52515478447873,12.059042393498771L83.59914988759574,13.319238662057074L85.00505684681917,13.699253890778067L85.07905194993619,11.963752431792955L85.22704215617024,14.030537054257877L85.67101277487237,13.595899115458366L85.89299808422342,45.445761829593465L87.89086586838303,14.213352954350682L88.33483648708514,11.514630128117489L88.63081689955324,11.403034909951288L88.85280220890431,15.24118367321617L89.44476303384047,71.66507045010246L89.59275324007453,11.387632024375876L90.8506699930639,10.281864319480349L90.92466509618092,11.704473216242803L92.33057205540433,13.860390683637036L92.40456715852136,14.937409700003201L92.62655246787241,-19.550755157626952L93.14451818969157,46.179492314128964L93.29250839592562,42.88964590281205L93.88446922086179,44.80074631353719L94.03245942709584,14.453629894419691L94.10645453021286,-19.22155058882612L95.06839087073415,45.975063924787094L95.21638107696819,41.17390979804301L95.95633210813841,42.76714552240756L96.17831741748948,43.44356031529733L96.99226355177672,40.96602534839903L97.21424886112779,-19.669679521197054L97.36223906736183,-19.550858743546485L97.51022927359587,13.893929810891251L98.39817051100013,-19.843063172601774L99.6560872639895,42.92023365146716L100.76601381074484,41.452110540001826L101.20998442944696,11.098556401080913L101.72795015126613,12.18833780835243L102.3199109762023,11.813512726265003L102.61589138867038,41.25874073613599L103.13385711048953,41.55483547255619L103.20785221360656,12.775956883690498L103.28184731672359,13.790211664745414L104.02179834789379,11.34429197844949L105.57569551335125,-19.749893504900626L105.94567102893637,-19.47252602397606L106.31564654452147,13.054214150000035L106.75961716322361,12.508316101685125L107.49956819439382,-19.18034837459365L107.86954370997894,14.624559531043559L108.31351432868107,46.68608373268782L108.60949474114916,14.413081747674283L108.68348984426618,49.68654565550756L109.27545066920236,42.41139740869335L109.49743597855341,11.656746476953998L109.57143108167044,42.61060537049946L109.71942128790448,45.95861533872309L109.94140659725555,12.987222700744525L110.01540170037258,12.59257170263669L110.60736252530874,12.340331787479926L110.82934783465981,10.21653428239108L110.90334293777683,69.47169954416556L111.05133314401088,13.823504507328579L111.19932335024491,12.764847830044175L111.42130865959598,43.22585677843989L111.49530376271301,10.612723550329633L111.93927438141513,-19.708108982610696L112.38324500011727,10.393213252975471L112.53123520635131,-19.535527617400703L112.75322051570238,10.214777990064647L114.23312257804282,13.130861169597267L114.38111278427685,46.82616722362468L115.34304912479814,13.019445618117345L116.2309903622024,11.684530214067252L117.63689732142583,13.117614284257058L117.78488752765986,13.30113472000724L118.96880917753222,73.057765852965L119.19079448688328,12.350704005839873L119.33878469311733,-19.64872425369572L119.41277979623435,44.83306209234334L120.81868675545778,12.260305419199454L122.59456923026629,39.611342571406055L122.81655453961736,12.638063711344643L123.77849088013865,44.74789604559959L124.37045170507483,11.612816962798519L124.962412530011,41.86160119890451L125.03640763312801,43.433547430309915L125.25839294247908,10.661116469466378L125.40638314871313,41.171289490641044L125.48037825183015,-19.667502513585987L126.51630969546845,11.622270660459009L127.10827052040463,42.284221656992315L128.7361627889791,12.272532847499605L129.18013340768124,43.076923189159345L129.4021187170323,10.597116773346215L129.92008443885146,13.226865760594535L130.88202077937274,11.198245168510084L131.0300109856068,14.359625861693047L131.10400608872382,11.765892979497266L131.62197181054296,12.069721458334158L132.95388366664938,40.22372334981989L134.1378053165217,-19.547796997367413L134.65577103834087,13.608584794744843L135.02574655392596,43.87140927582817L135.099741657043,12.948503520490789L135.54371227574512,12.429058868320027L136.5056486162664,40.20556692087294L136.65363882250045,12.457050534294922L137.0976094412026,11.16103195845804L139.02148212224517,14.272687372808377L139.39145763783026,12.229739876539298L140.35339397835156,12.433796820147734L140.64937439081964,11.853810550885726L141.98128624692603,10.529539893315217L142.5732470718622,10.567033706394113L144.27513444355372,-19.290904894729863L144.49711975290478,12.551500705646987L144.57111485602178,13.03906966145658L144.71910506225586,-19.593967361369437L144.8670952684899,13.725335841188837L144.94109037160692,13.66664741531099L145.237070784075,42.10906076897052L146.5689826401814,11.675938512755465L146.86496305264947,42.078553769387895L148.56685042434097,-18.96303035147207L149.52878676486225,12.738131999414435L150.71270841473464,-18.777919222079277L151.52665454902188,10.510941363196451L151.60064965213888,-19.609948517548645L152.71057619889422,12.298227202362483L152.93256150824527,12.584307035068463L153.74650764253252,13.388902905611673L153.82050274564952,11.694137334965461L154.0424880550006,42.30703326996769L155.30040480798996,12.69097857854024L155.59638522045807,11.576417299651723L157.0762872827985,11.296240224143958L157.22427748903254,80.69036198146907L158.26020893267085,10.883561995605163L158.63018444825596,12.753968911254418L159.66611589189426,13.670898853977008L159.74011099501126,11.678029913732672L159.88810120124535,61.0811199472069L160.25807671683043,44.473680270367595L162.32993960410707,43.78041718350502L162.99589553216026,46.150604333449536L163.5138612539794,11.777054520040679L163.8098416664475,13.181125448488729L164.25381228514965,49.18695921898623L164.69778290385176,41.03580465938191L165.06775841943687,13.075271489375808L165.28974372878793,13.642648790970185L165.43773393502198,11.767425193147545L166.54766048177729,44.35780131390638L167.2136164098305,67.62223086301015L167.80557723476667,14.994523518967696L168.54552826593692,11.972321927109789L169.06349398775606,11.315506952837495L169.43346950334114,43.662511425324595L169.58145970957523,-19.162013603749926L169.80344501892625,42.60391530984455L170.46940094697945,-19.388951554067887L170.61739115321353,11.795154424636905L171.06136177191564,42.35779617438169L171.94930300931992,44.63978918736447L172.319278524905,45.13258058943666L172.91123934984117,12.440159847059107L173.05922955607525,11.99033098899946L173.79918058724544,17.289868391084894L173.9471707934795,14.10319103222102L175.05709734023483,43.14647640273927L175.87104347452208,43.10824979182763L176.0190336807561,13.67194051701199L176.3150140932242,12.762867459041615L177.20295533062844,15.8143365522196L177.42494063997952,14.565459284896065L179.94077414595827,289.612994375397L188.4502110044158,287.6618706868976L188.96817672623493,80.56031560024137L189.8561179636392,378.37673529440235L203.54521204028825,294.0679853033302L203.76719734963933,44.38703247814382L203.9891826589904,40.00581794028125L205.0251141026287,72.85064448205596L205.3950896182138,43.227899729973615L205.6170749275649,14.747253709222008L206.87499168055425,40.166512631968374L206.94898678367124,226.26649365232606L207.24496719613936,71.01571870885405L207.61494271172447,214.40763641859328L208.13290843354363,99.18921544516306L208.7988643615968,218.88665827049627L208.94685456783088,39.93171451646711L209.68680559900108,273.9635011326461L210.13077621770321,107.76941808902454L210.27876642393724,-18.603716598441054L210.72273704263938,13.316610279747891L210.8707272488734,74.9644452519719L211.0187174551075,48.006205906659744L211.90665869251174,40.879203945669445L212.05464889874577,45.373862855458015L212.20263910497982,43.86815508820726L212.794599929916,80.72132925076481L213.90452647667132,78.84558482142468L214.2005068891394,-18.52964156297267L214.57048240472452,14.13697240669265L214.7924677140756,44.6213218744885L215.97638936394793,113.50552535146856L216.71634039511815,13.212587305853418L216.79033549823518,82.08148277741826L216.93832570446924,44.44827661216567L217.38229632317137,182.96879253955757L217.45629142628837,-18.48429969707138L217.82626694187348,49.04906402791357L218.34423266369265,16.13197110372363L218.71420817927776,111.94036607960503L219.23217390109693,14.762414347579977L219.67614451979904,47.86039730648412L220.63808086032034,49.42528203150121L221.15604658213948,15.211823310462734L222.56195354136287,47.129593975826L224.04185560370334,42.961508539864894L224.2638409130544,77.728502152748L224.5598213255225,15.447033246233673L224.6338164286395,-18.44520831406166L225.15178215045867,48.20527659504259L226.409698903448,-18.238203776966856L227.22364503773525,44.532437332957045L228.03759117202253,13.90519026904849L228.55555689384167,15.00861423211532L228.9995275125438,43.100958150582784L230.7754099873523,-18.778534429075194L232.47729735904383,13.709299075394483L233.14325328709702,13.800775662152489L234.25317983385236,13.132706285903424L234.32717493696939,13.14766505158019L234.84514065878852,-18.275617724166267L235.1411210712566,-18.761922956991526L235.88107210242683,12.981334074633992L236.10305741177788,-18.85443868337606L236.1770525148949,14.131231147639397L236.91700354606513,-18.994281882737027L237.21298395853324,13.979358292120594L237.8049447834694,11.579871341227005L237.87893988658644,14.451078223729326L238.17492029905452,14.12106483941426L238.8408762271077,-18.227517268076383L238.91487133022474,13.592517748048294L239.65482236139496,13.174076054461295L239.728817464512,11.384686701957207L239.802812567629,13.612779709060135L240.39477339256516,46.339637912123266L240.69075380503327,-19.000481140435795L241.8746754549056,13.927101529865695L242.46663627984177,12.316676346697164L243.42857262036304,12.87963869275373L243.65055792971413,48.355704042164035L243.9465383421822,13.157429633169727L244.09452854841626,41.5751277144702L244.1685236515333,12.24671535030123L244.39050896088435,14.326114996614223L245.05646488893757,13.920447806293424L245.13045999205457,13.780685292919685L245.79641592010776,38.81088912828102L246.01840122945885,12.912622670134681L246.75835226062904,14.251789512850763L247.12832777621415,13.83515256103368L249.20019066349076,14.976859659362901L249.79215148842692,-19.01089303939463L250.45810741648015,40.662215038103454L250.60609762271417,44.1924191385618L250.90207803518229,39.05320094497648L251.34604865388442,13.579434379579851L251.49403886011845,12.490407976136083L251.56803396323548,13.386884178799676L252.08599968505462,-19.151279087012398L252.3079849944057,11.967212529548647L252.67796050999078,11.28657456016822L252.89994581934187,41.735442885516704L252.9739409224589,43.12068514898942L253.49190664427803,42.18284523394834L253.78788705674614,13.863832612851468L254.08386746921423,14.154030648253894L254.82381850038445,12.753698401861612L254.89781360350148,-19.417483860317134L255.78575484090572,13.222810138429281L256.0817352533738,13.936153500890612L256.59970097519295,-19.104313533902143L256.89568138766106,-19.40487249541141L257.7096275219483,10.714968025902749L258.59756875935255,12.944445879598703L259.7814904092249,13.825783649899307L261.3353875746824,13.078335916676394L261.63136798715044,46.18185018704537L262.7412945339058,13.589299897510017L263.1112700494909,13.81513688469289L263.33325535884194,11.842364369861826L263.7772259775441,13.377604091645026L264.07320639001216,14.359367464661148L264.3691868024803,42.20730009054867L264.96114762741644,12.544806607538476L265.4051182461186,-19.60348509052102L265.4791133492356,11.89868482918925L265.5531084523526,-19.710184359943838L266.73703010222494,43.13983882898148L267.2549958240441,42.05175315223207L267.40298603027816,73.12429501378058L267.8469566489803,10.444547457077277L268.4389174739165,12.446391656727684L268.66090278326755,13.362124494450768L268.95688319573566,44.40498703440957L269.10487340196966,11.255774845197834L269.6968342269058,74.86891909922906L270.28879505184204,10.849762452592216L270.5107803611931,13.730061680655695L271.5467118048314,73.64326122769688L271.8426922172995,-19.59953810109232L272.43465304223565,43.73134597215943L272.6566383515867,43.654149858869374L273.1006089702888,45.066321938013886L274.3585257232782,13.912502097561458L274.43252082639526,13.914096891742929L274.58051103262926,39.55312652760222L275.9124228887357,13.011245549807086L276.20840330120376,13.20628282201963" style="fill: none;" fill="none"></path></g></g></g></g></g></g><g transform="translate(50, 178)" clip-path="url(#clip_1)"><clipPath id="clip_1"><rect width="280" height="22"></rect></clipPath><g><g><line x1="16.189610947988793" y1="0" x2="16.189610947988793" y2="5" style="visibility: inherit;" fill="rgb(0, 0, 0)" stroke="rgb(204, 204, 204)" stroke-width="1px"></line><line x1="53.187162506499746" y1="0" x2="53.187162506499746" y2="5" style="visibility: inherit;" fill="rgb(0, 0, 0)" stroke="rgb(204, 204, 204)" stroke-width="1px"></line><line x1="90.1847140650107" y1="0" x2="90.1847140650107" y2="5" style="visibility: inherit;" fill="rgb(0, 0, 0)" stroke="rgb(204, 204, 204)" stroke-width="1px"></line><line x1="127.18226562352164" y1="0" x2="127.18226562352164" y2="5" style="visibility: inherit;" fill="rgb(0, 0, 0)" stroke="rgb(204, 204, 204)" stroke-width="1px"></line><line x1="164.17981718203262" y1="0" x2="164.17981718203262" y2="5" style="visibility: inherit;" fill="rgb(0, 0, 0)" stroke="rgb(204, 204, 204)" stroke-width="1px"></line><line x1="201.17736874054359" y1="0" x2="201.17736874054359" y2="5" style="visibility: inherit;" fill="rgb(0, 0, 0)" stroke="rgb(204, 204, 204)" stroke-width="1px"></line><line x1="238.17492029905452" y1="0" x2="238.17492029905452" y2="5" style="visibility: inherit;" fill="rgb(0, 0, 0)" stroke="rgb(204, 204, 204)" stroke-width="1px"></line><line x1="275.1724718575655" y1="0" x2="275.1724718575655" y2="5" style="visibility: inherit;" fill="rgb(0, 0, 0)" stroke="rgb(204, 204, 204)" stroke-width="1px"></line></g><g transform="translate(0, 8)"><text x="16.189610947988793" y="0" dx="0em" dy="0.95em" style="text-anchor: middle; visibility: inherit; font-family: &quot;Helvetica Neue&quot;, sans-serif; font-size: 12px; font-weight: 200;" fill="rgb(50, 49, 63)" stroke="none" stroke-width="1px">3.5k</text><text x="53.187162506499746" y="0" dx="0em" dy="0.95em" style="text-anchor: middle; visibility: inherit; font-family: &quot;Helvetica Neue&quot;, sans-serif; font-size: 12px; font-weight: 200;" fill="rgb(50, 49, 63)" stroke="none" stroke-width="1px">4k</text><text x="90.1847140650107" y="0" dx="0em" dy="0.95em" style="text-anchor: middle; visibility: inherit; font-family: &quot;Helvetica Neue&quot;, sans-serif; font-size: 12px; font-weight: 200;" fill="rgb(50, 49, 63)" stroke="none" stroke-width="1px">4.5k</text><text x="127.18226562352164" y="0" dx="0em" dy="0.95em" style="text-anchor: middle; visibility: inherit; font-family: &quot;Helvetica Neue&quot;, sans-serif; font-size: 12px; font-weight: 200;" fill="rgb(50, 49, 63)" stroke="none" stroke-width="1px">5k</text><text x="164.17981718203262" y="0" dx="0em" dy="0.95em" style="text-anchor: middle; visibility: inherit; font-family: &quot;Helvetica Neue&quot;, sans-serif; font-size: 12px; font-weight: 200;" fill="rgb(50, 49, 63)" stroke="none" stroke-width="1px">5.5k</text><text x="201.17736874054359" y="0" dx="0em" dy="0.95em" style="text-anchor: middle; visibility: inherit; font-family: &quot;Helvetica Neue&quot;, sans-serif; font-size: 12px; font-weight: 200;" fill="rgb(50, 49, 63)" stroke="none" stroke-width="1px">6k</text><text x="238.17492029905452" y="0" dx="0em" dy="0.95em" style="text-anchor: middle; visibility: inherit; font-family: &quot;Helvetica Neue&quot;, sans-serif; font-size: 12px; font-weight: 200;" fill="rgb(50, 49, 63)" stroke="none" stroke-width="1px">6.5k</text><text x="275.1724718575655" y="0" dx="0em" dy="0.95em" style="text-anchor: middle; visibility: hidden; font-family: &quot;Helvetica Neue&quot;, sans-serif; font-size: 12px; font-weight: 200;" fill="rgb(50, 49, 63)" stroke="none" stroke-width="1px">7k</text></g><line x1="0" y1="0" x2="280" y2="0" fill="rgb(0, 0, 0)" stroke="rgb(204, 204, 204)" stroke-width="1px"></line></g></g></g></g></svg>