<svg viewBox="0 0 330 200" xmlns="http://www.w3.org/2000/svg"><g><g><g><g><g><line x1="80" y1="178" x2="75" y2="178" style="visibility: inherit;" fill="rgb(0, 0, 0)" stroke="rgb(204, 204, 204)" stroke-width="1px"></line><line x1="80" y1="165.28571428571428" x2="75" y2="165.28571428571428" style="visibility: inherit;" fill="rgb(0, 0, 0)" stroke="rgb(204, 204, 204)" stroke-width="1px"></line><line x1="80" y1="152.57142857142858" x2="75" y2="152.57142857142858" style="visibility: inherit;" fill="rgb(0, 0, 0)" stroke="rgb(204, 204, 204)" stroke-width="1px"></line><line x1="80" y1="139.85714285714286" x2="75" y2="139.85714285714286" style="visibility: inherit;" fill="rgb(0, 0, 0)" stroke="rgb(204, 204, 204)" stroke-width="1px"></line><line x1="80" y1="127.14285714285714" x2="75" y2="127.14285714285714" style="visibility: inherit;" fill="rgb(0, 0, 0)" stroke="rgb(204, 204, 204)" stroke-width="1px"></line><line x1="80" y1="114.42857142857143" x2="75" y2="114.42857142857143" style="visibility: inherit;" fill="rgb(0, 0, 0)" stroke="rgb(204, 204, 204)" stroke-width="1px"></line><line x1="80" y1="101.71428571428572" x2="75" y2="101.71428571428572" style="visibility: inherit;" fill="rgb(0, 0, 0)" stroke="rgb(204, 204, 204)" stroke-width="1px"></line><line x1="80" y1="89" x2="75" y2="89" style="visibility: inherit;" fill="rgb(0, 0, 0)" stroke="rgb(204, 204, 204)" stroke-width="1px"></line><line x1="80" y1="76.28571428571429" x2="75" y2="76.28571428571429" style="visibility: inherit;" fill="rgb(0, 0, 0)" stroke="rgb(204, 204, 204)" stroke-width="1px"></line><line x1="80" y1="63.57142857142857" x2="75" y2="63.57142857142857" style="visibility: inherit;" fill="rgb(0, 0, 0)" stroke="rgb(204, 204, 204)" stroke-width="1px"></line><line x1="80" y1="50.85714285714286" x2="75" y2="50.85714285714286" style="visibility: inherit;" fill="rgb(0, 0, 0)" stroke="rgb(204, 204, 204)" stroke-width="1px"></line><line x1="80" y1="38.14285714285714" x2="75" y2="38.14285714285714" style="visibility: inherit;" fill="rgb(0, 0, 0)" stroke="rgb(204, 204, 204)" stroke-width="1px"></line><line x1="80" y1="25.428571428571445" x2="75" y2="25.428571428571445" style="visibility: inherit;" fill="rgb(0, 0, 0)" stroke="rgb(204, 204, 204)" stroke-width="1px"></line><line x1="80" y1="12.714285714285722" x2="75" y2="12.714285714285722" style="visibility: inherit;" fill="rgb(0, 0, 0)" stroke="rgb(204, 204, 204)" stroke-width="1px"></line><line x1="80" y1="0" x2="75" y2="0" style="visibility: inherit;" fill="rgb(0, 0, 0)" stroke="rgb(204, 204, 204)" stroke-width="1px"></line></g><g transform="translate(70, 0)"><text x="0" y="178" dx="0em" dy="0.3em" style="text-anchor: end; visibility: hidden; font-family: &quot;Helvetica Neue&quot;, sans-serif; font-size: 12px; font-weight: 200;" fill="rgb(50, 49, 63)" stroke="none" stroke-width="1px">-1.8e+3</text><text x="0" y="165.28571428571428" dx="0em" dy="0.3em" style="text-anchor: end; visibility: inherit; font-family: &quot;Helvetica Neue&quot;, sans-serif; font-size: 12px; font-weight: 200;" fill="rgb(50, 49, 63)" stroke="none" stroke-width="1px">-1.7e+3</text><text x="0" y="152.57142857142858" dx="0em" dy="0.3em" style="text-anchor: end; visibility: hidden; font-family: &quot;Helvetica Neue&quot;, sans-serif; font-size: 12px; font-weight: 200;" fill="rgb(50, 49, 63)" stroke="none" stroke-width="1px">-1.6e+3</text><text x="0" y="139.85714285714286" dx="0em" dy="0.3em" style="text-anchor: end; visibility: inherit; font-family: &quot;Helvetica Neue&quot;, sans-serif; font-size: 12px; font-weight: 200;" fill="rgb(50, 49, 63)" stroke="none" stroke-width="1px">-1.5e+3</text><text x="0" y="127.14285714285714" dx="0em" dy="0.3em" style="text-anchor: end; visibility: hidden; font-family: &quot;Helvetica Neue&quot;, sans-serif; font-size: 12px; font-weight: 200;" fill="rgb(50, 49, 63)" stroke="none" stroke-width="1px">-1.4e+3</text><text x="0" y="114.42857142857143" dx="0em" dy="0.3em" style="text-anchor: end; visibility: inherit; font-family: &quot;Helvetica Neue&quot;, sans-serif; font-size: 12px; font-weight: 200;" fill="rgb(50, 49, 63)" stroke="none" stroke-width="1px">-1.3e+3</text><text x="0" y="101.71428571428572" dx="0em" dy="0.3em" style="text-anchor: end; visibility: hidden; font-family: &quot;Helvetica Neue&quot;, sans-serif; font-size: 12px; font-weight: 200;" fill="rgb(50, 49, 63)" stroke="none" stroke-width="1px">-1.2e+3</text><text x="0" y="89" dx="0em" dy="0.3em" style="text-anchor: end; visibility: inherit; font-family: &quot;Helvetica Neue&quot;, sans-serif; font-size: 12px; font-weight: 200;" fill="rgb(50, 49, 63)" stroke="none" stroke-width="1px">-1.1e+3</text><text x="0" y="76.28571428571429" dx="0em" dy="0.3em" style="text-anchor: end; visibility: hidden; font-family: &quot;Helvetica Neue&quot;, sans-serif; font-size: 12px; font-weight: 200;" fill="rgb(50, 49, 63)" stroke="none" stroke-width="1px">-1e+3</text><text x="0" y="63.57142857142857" dx="0em" dy="0.3em" style="text-anchor: end; visibility: inherit; font-family: &quot;Helvetica Neue&quot;, sans-serif; font-size: 12px; font-weight: 200;" fill="rgb(50, 49, 63)" stroke="none" stroke-width="1px">-900</text><text x="0" y="50.85714285714286" dx="0em" dy="0.3em" style="text-anchor: end; visibility: hidden; font-family: &quot;Helvetica Neue&quot;, sans-serif; font-size: 12px; font-weight: 200;" fill="rgb(50, 49, 63)" stroke="none" stroke-width="1px">-800</text><text x="0" y="38.14285714285714" dx="0em" dy="0.3em" style="text-anchor: end; visibility: inherit; font-family: &quot;Helvetica Neue&quot;, sans-serif; font-size: 12px; font-weight: 200;" fill="rgb(50, 49, 63)" stroke="none" stroke-width="1px">-700</text><text x="0" y="25.428571428571445" dx="0em" dy="0.3em" style="text-anchor: end; visibility: hidden; font-family: &quot;Helvetica Neue&quot;, sans-serif; font-size: 12px; font-weight: 200;" fill="rgb(50, 49, 63)" stroke="none" stroke-width="1px">-600</text><text x="0" y="12.714285714285722" dx="0em" dy="0.3em" style="text-anchor: end; visibility: inherit; font-family: &quot;Helvetica Neue&quot;, sans-serif; font-size: 12px; font-weight: 200;" fill="rgb(50, 49, 63)" stroke="none" stroke-width="1px">-500</text><text x="0" y="0" dx="0em" dy="0.3em" style="text-anchor: end; visibility: hidden; font-family: &quot;Helvetica Neue&quot;, sans-serif; font-size: 12px; font-weight: 200;" fill="rgb(50, 49, 63)" stroke="none" stroke-width="1px">-400</text></g><line x1="80" y1="0" x2="80" y2="178" fill="rgb(0, 0, 0)" stroke="rgb(204, 204, 204)" stroke-width="1px"></line></g></g><g transform="translate(80, 0)" clip-path="url(#clip_0)"><clipPath id="clip_0"><rect width="250" height="178"></rect></clipPath><g><g><g><line x1="0" y1="0" x2="0" y2="178" fill="rgb(0, 0, 0)" stroke="rgb(60, 60, 60)" stroke-width="1px" opacity="0.25"></line><line x1="22.727272727272727" y1="0" x2="22.727272727272727" y2="178" fill="rgb(0, 0, 0)" stroke="rgb(60, 60, 60)" stroke-width="1px" opacity="0.25"></line><line x1="45.45454545454545" y1="0" x2="45.45454545454545" y2="178" fill="rgb(0, 0, 0)" stroke="rgb(60, 60, 60)" stroke-width="1px" opacity="0.25"></line><line x1="68.18181818181817" y1="0" x2="68.18181818181817" y2="178" fill="rgb(0, 0, 0)" stroke="rgb(60, 60, 60)" stroke-width="1px" opacity="0.25"></line><line x1="90.9090909090909" y1="0" x2="90.9090909090909" y2="178" fill="rgb(0, 0, 0)" stroke="rgb(60, 60, 60)" stroke-width="1px" opacity="0.25"></line><line x1="113.63636363636363" y1="0" x2="113.63636363636363" y2="178" fill="rgb(0, 0, 0)" stroke="rgb(60, 60, 60)" stroke-width="1px" opacity="0.25"></line><line x1="136.36363636363635" y1="0" x2="136.36363636363635" y2="178" fill="rgb(0, 0, 0)" stroke="rgb(60, 60, 60)" stroke-width="1px" opacity="0.25"></line><line x1="159.0909090909091" y1="0" x2="159.0909090909091" y2="178" fill="rgb(0, 0, 0)" stroke="rgb(60, 60, 60)" stroke-width="1px" opacity="0.25"></line><line x1="181.8181818181818" y1="0" x2="181.8181818181818" y2="178" fill="rgb(0, 0, 0)" stroke="rgb(60, 60, 60)" stroke-width="1px" opacity="0.25"></line><line x1="204.54545454545456" y1="0" x2="204.54545454545456" y2="178" fill="rgb(0, 0, 0)" stroke="rgb(60, 60, 60)" stroke-width="1px" opacity="0.25"></line><line x1="227.27272727272725" y1="0" x2="227.27272727272725" y2="178" fill="rgb(0, 0, 0)" stroke="rgb(60, 60, 60)" stroke-width="1px" opacity="0.25"></line><line x1="250" y1="0" x2="250" y2="178" fill="rgb(0, 0, 0)" stroke="rgb(60, 60, 60)" stroke-width="1px" opacity="0.25"></line></g><g><line x1="0" y1="178" x2="250" y2="178" fill="rgb(0, 0, 0)" stroke="rgb(60, 60, 60)" stroke-width="1px" opacity="0.25"></line><line x1="0" y1="165.28571428571428" x2="250" y2="165.28571428571428" fill="rgb(0, 0, 0)" stroke="rgb(60, 60, 60)" stroke-width="1px" opacity="0.25"></line><line x1="0" y1="152.57142857142858" x2="250" y2="152.57142857142858" fill="rgb(0, 0, 0)" stroke="rgb(60, 60, 60)" stroke-width="1px" opacity="0.25"></line><line x1="0" y1="139.85714285714286" x2="250" y2="139.85714285714286" fill="rgb(0, 0, 0)" stroke="rgb(60, 60, 60)" stroke-width="1px" opacity="0.25"></line><line x1="0" y1="127.14285714285714" x2="250" y2="127.14285714285714" fill="rgb(0, 0, 0)" stroke="rgb(60, 60, 60)" stroke-width="1px" opacity="0.25"></line><line x1="0" y1="114.42857142857143" x2="250" y2="114.42857142857143" fill="rgb(0, 0, 0)" stroke="rgb(60, 60, 60)" stroke-width="1px" opacity="0.25"></line><line x1="0" y1="101.71428571428572" x2="250" y2="101.71428571428572" fill="rgb(0, 0, 0)" stroke="rgb(60, 60, 60)" stroke-width="1px" opacity="0.25"></line><line x1="0" y1="89" x2="250" y2="89" fill="rgb(0, 0, 0)" stroke="rgb(60, 60, 60)" stroke-width="1px" opacity="0.25"></line><line x1="0" y1="76.28571428571429" x2="250" y2="76.28571428571429" fill="rgb(0, 0, 0)" stroke="rgb(60, 60, 60)" stroke-width="1px" opacity="0.25"></line><line x1="0" y1="63.57142857142857" x2="250" y2="63.57142857142857" fill="rgb(0, 0, 0)" stroke="rgb(60, 60, 60)" stroke-width="1px" opacity="0.25"></line><line x1="0" y1="50.85714285714286" x2="250" y2="50.85714285714286" fill="rgb(0, 0, 0)" stroke="rgb(60, 60, 60)" stroke-width="1px" opacity="0.25"></line><line x1="0" y1="38.14285714285714" x2="250" y2="38.14285714285714" fill="rgb(0, 0, 0)" stroke="rgb(60, 60, 60)" stroke-width="1px" opacity="0.25"></line><line x1="0" y1="25.428571428571445" x2="250" y2="25.428571428571445" fill="rgb(0, 0, 0)" stroke="rgb(60, 60, 60)" stroke-width="1px" opacity="0.25"></line><line x1="0" y1="12.714285714285722" x2="250" y2="12.714285714285722" fill="rgb(0, 0, 0)" stroke="rgb(60, 60, 60)" stroke-width="1px" opacity="0.25"></line><line x1="0" y1="0" x2="250" y2="0" fill="rgb(0, 0, 0)" stroke="rgb(60, 60, 60)" stroke-width="1px" opacity="0.25"></line></g></g></g><g><g><line x1="0" y1="-50.85714285714286" x2="250" y2="-50.85714285714286" fill="rgb(0, 0, 0)" stroke="rgb(153, 153, 153)" stroke-width="1.5px"></line></g></g><g><g><line x1="22.727272727272727" y1="0" x2="22.727272727272727" y2="178" fill="rgb(0, 0, 0)" stroke="rgb(153, 153, 153)" stroke-width="1.5px"></line></g></g><g><g><g><g><g><path stroke="rgb(255, 112, 67)" stroke-width="2px" d="M22.954545454545453,119.12152727399554L23.545454545454547,102.92531413050023L23.818181818181817,112.63128131292767L24.545454545454543,122.2335696110419L24.636363636363637,105.24437558444433L24.772727272727273,110.78328049793525L24.863636363636363,114.75971110620384L25.136363636363637,109.81031248648165L25.272727272727273,106.39605018589175L25.954545454545457,98.46437385494508L26.09090909090909,105.98424123320473L26.318181818181817,86.78080221289794L26.68181818181818,109.84490288959515L27,114.74083540957022L27.363636363636363,122.2722894644223L27.5,127.83392495654974L27.545454545454547,140.67630610861445L27.863636363636363,148.52015846079152L28.09090909090909,120.0327122314726L28.454545454545453,114.32936562245837L29.045454545454543,128.04235166074884L29.545454545454543,127.52259679396337L29.772727272727273,135.4493528704709L29.90909090909091,129.94176286641692L30.318181818181817,115.73849274405075L30.363636363636363,110.65202693616928L30.818181818181817,127.89892081448247L31.045454545454547,139.53479178982246L31.136363636363637,131.30348657000346L31.181818181818183,111.9568600568806L31.363636363636363,116.79966225817358L31.72727272727273,112.69511924634517L32.09090909090909,117.48773231512537L32.13636363636363,111.63672632055265L32.36363636363637,108.89451828318596L32.86363636363637,104.44954264691411L33.13636363636364,95.56258549015931L33.36363636363637,96.58751497159074L33.5,121.8602940670616L34.04545454545455,136.74561381950684L34.31818181818182,134.08092029360094L34.54545454545455,137.4347889794576L34.68181818181818,130.84702862636675L34.86363636363636,125.59751284622382L35.04545454545455,118.3299432902848L35.13636363636364,117.58096528396955L36,119.23029618624696L36.22727272727273,107.39715950798816L36.27272727272727,100.96636856427776L36.5,102.38992347820717L36.72727272727273,100.11073219307549L36.81818181818182,106.7531329344567L37.18181818181819,110.64399215048272L37.22727272727273,113.47431400298595L37.54545454545455,116.41176882617256L37.72727272727273,116.38992965322997L38.13636363636363,117.86389218644433L38.5,116.22075991067601L39.22727272727273,130.77032003832772L39.40909090909091,127.60422726275061L39.68181818181818,124.82652453993322L39.86363636363637,123.62717550158007L39.95454545454546,120.25629891944956L40.54545454545455,126.12234680566033L41.86363636363637,124.56131519394289L41.90909090909091,121.56015884653272L42,126.1580390482912L42.27272727272727,121.74682293162633L42.68181818181818,114.76590475364662L42.77272727272727,128.0585549446696L42.81818181818182,131.75318950643558L42.95454545454545,122.7991610433923L43.22727272727273,127.83860148923542L43.63636363636364,127.93263451356587L43.77272727272727,130.74487372231775L43.81818181818182,132.93928975743935L44.27272727272727,135.00840381922336L45.04545454545455,118.6536503084191L45.13636363636363,116.27661257627946L45.77272727272727,124.24641278878207L46,128.58062149976487L46.09090909090909,121.30568832288975L46.22727272727273,119.73169027020825L46.59090909090909,119.30063992087068L46.86363636363637,118.9237681033233L46.95454545454546,122.60575941560137L47.09090909090909,120.68356952739214L47.36363636363637,125.04581096281112L47.59090909090909,124.78932779753919L48.04545454545455,128.57529505877432L48.31818181818181,118.89895324388499L48.59090909090909,125.29732586224708L48.77272727272727,129.8903807706449L49.04545454545455,125.51859905603965L49.13636363636364,123.19328912787569L49.18181818181818,125.79773622906922L49.27272727272727,121.45300705453658L49.36363636363637,128.815364536887L49.40909090909091,133.4746519598603L49.63636363636364,135.39748535579227L49.68181818181818,137.1034625660294L50.090909090909086,136.1238888094145L50.36363636363636,137.32554639652844L50.45454545454545,128.6658949403232L50.68181818181818,130.60117615248527L50.909090909090914,124.66323817605411L51,122.5838454010499L51.54545454545455,127.49766482116657L51.86363636363636,114.82062851898041L51.909090909090914,122.56539081559703L52,127.36118661233436L52.09090909090909,126.43576149583258L52.13636363636363,130.70467189472095L52.22727272727273,120.21716867745158L52.772727272727266,121.56609644389809L52.909090909090914,126.89685460819824L53.09090909090909,135.40874354086964L53.22727272727273,135.86692979790095L53.36363636363636,130.12053966795048L53.54545454545455,124.1010800688686L53.59090909090909,124.1510525497327L53.77272727272727,121.16525627519087L54,114.59914296298406L54.04545454545454,127.54140431974713L54.5,131.2232792115608L54.68181818181818,120.98763489941251L54.81818181818182,118.00283094536361L55.18181818181818,116.38248653570415L55.36363636363637,120.70807057969003L55.5,116.16990947082027L55.54545454545455,123.37183327819085L55.59090909090909,124.25258051283726L55.90909090909091,122.26835186545593L56.18181818181818,134.74929109984788L56.27272727272727,119.74588152164407L56.31818181818181,126.01420842501969L56.5,128.18765265513548L56.68181818181818,138.742512886183L56.81818181818181,132.86609559599015L56.86363636363637,125.09343591478675L56.90909090909091,136.08941595948846L57.090909090909086,141.66135023722975L57.5,134.5316517593914L57.68181818181818,141.80044403188668L57.72727272727273,141.81939309429504L57.77272727272727,140.6849803863192L57.86363636363637,140.05085033756518L57.90909090909091,122.26603203971706L58.18181818181818,134.80353419332235L58.36363636363636,135.53192354388196L58.409090909090914,140.73839238208797L58.5,140.17413994127196L58.590909090909086,133.45243791544917L58.72727272727273,134.4397610435082L58.77272727272727,131.23435729620098L58.81818181818182,126.39549291622902L58.86363636363636,123.8992995516659L59,126.1539329348256L59.18181818181818,130.03127879023512L59.409090909090914,117.62443110229158L59.45454545454545,118.73316317960118L59.5,125.26286453174768L59.77272727272727,124.41076431473314L60.54545454545455,128.89952102924008L60.72727272727273,129.63741443701014L60.81818181818182,132.061475690996L61.04545454545455,127.78049597601823L62.13636363636363,124.65802365681971L62.22727272727273,118.10551148408894L62.45454545454546,117.34315831495721L62.54545454545454,116.66559018420853L62.72727272727273,119.62339345000265L62.81818181818181,119.50960955081453L63.18181818181819,118.12111232659367L63.45454545454546,113.80339682801592L63.63636363636363,98.18916102009175L63.95454545454546,82.16064525777402L64.04545454545455,92.4556039707727L64.31818181818181,103.8601411696532L64.40909090909092,113.11986287893345L64.54545454545455,118.70716714483953L64.5909090909091,101.3197800334651L64.68181818181819,107.71830278843416L65.04545454545455,108.4192793962503L65.0909090909091,107.71307301725071L65.22727272727273,101.88652584095006L65.54545454545455,97.45488068720145L65.68181818181819,98.93015836800781L66.0909090909091,99.5966361184807L66.27272727272728,92.18102513571804L66.4090909090909,93.32995693241618L66.45454545454547,96.45222237004874L66.86363636363636,90.90033273345809L66.9090909090909,92.90666481904734L67.0909090909091,89.86248789315442L67.13636363636363,91.15918465787357L67.18181818181817,93.1178149352064L67.22727272727273,87.60005486530605L67.4090909090909,81.52839118112672L67.45454545454547,87.64218624631877L67.5909090909091,84.96029045781088L67.63636363636364,82.10742114963585L68,86.73110850281873L68.18181818181817,90.45438761799224L68.27272727272728,88.68408123581155L68.36363636363636,91.63317327478123L68.4090909090909,92.71034868534757L68.81818181818181,88.55980829064283L68.95454545454545,85.4167541411547L69.31818181818183,89.17243047636505L69.4090909090909,85.39462072388326L69.5909090909091,84.17781108890536L69.63636363636364,86.57775217965929L69.86363636363636,88.5661364212368L70.18181818181817,91.84849248640539L70.68181818181817,92.4570697972645L70.77272727272728,87.55609045430514L71.04545454545455,88.28239795469462L71.18181818181817,86.01005612031616L71.27272727272728,78.76619916992361L71.45454545454545,83.25416641439853L71.63636363636364,82.64352238949054L71.72727272727272,85.89190929376082L71.95454545454545,91.70504096657739L72,92.11623011479082L72.04545454545455,88.14352444642785L72.4090909090909,85.601946133461L72.68181818181819,85.31494978806765L72.86363636363636,78.77976115659543L72.9090909090909,78.56647902887786L72.95454545454545,82.75964609295364L73.36363636363637,106.9664558801317L73.5909090909091,111.67039383596064L74.22727272727272,125.31194158120672L74.31818181818183,134.7741098250984L75.22727272727272,127.87922110027142L75.27272727272727,140.13193677760427L75.45454545454545,124.89389891438353L75.5,116.4503981785651L75.54545454545455,106.59793582418428L76.36363636363637,130.30120772085638L76.59090909090908,123.02595834130378L76.9090909090909,129.51354350297981L76.95454545454545,126.37775324817808L77.22727272727273,114.08658529075016L77.31818181818181,103.49460423657516L77.54545454545455,95.61515915082181L77.63636363636364,88.99976400569341L77.72727272727273,80.53449645193469L77.90909090909092,84.44296345972138L78.72727272727273,77.42742299562472L78.81818181818181,77.1301777339062L78.90909090909092,72.70882601777969L79.27272727272727,82.50216377591728L79.40909090909092,84.14482988564477L79.77272727272727,81.3850122962161L79.90909090909092,78.37201243858733L80.04545454545455,67.90395743123865L80.63636363636363,86.41481412121142L80.95454545454545,100.56598206583408L81.22727272727273,77.93587658639208L81.4090909090909,83.26354889197592L81.5,46.5925706206537L81.54545454545455,37.320928668285205L81.81818181818181,14.931042830385849L82.27272727272728,13.486155832694521L82.5,18.892119961600912L82.54545454545455,17.469191337464025L82.68181818181817,44.955086672818396L82.95454545454547,69.61480540447027L83.04545454545455,52.07725715461366L83.18181818181817,76.06794225572122L83.31818181818181,90.48387236900957L83.45454545454545,100.96313471662494L83.5,107.86024083099254L84.31818181818181,83.76604182487674L84.81818181818183,71.62180581456354L85,58.52693778729086L85.68181818181817,49.75100443926905L85.81818181818183,43.1797183038486L85.86363636363636,42.134429413213326L85.95454545454545,39.83130974742107L86,31.790592085538066L86.95454545454545,21.123598750111995L87,18.368385182047405L87.22727272727272,6.484858378290966L87.36363636363636,2.9341052454917076L87.54545454545455,11.718987233912316L87.63636363636364,12.509260897196697L87.81818181818183,2.595855751530223L88,-4.092681318882455L88.18181818181819,11.406032341844025L89.31818181818183,-2.914661650967105L97.13636363636363,-22.82870767690818L97.27272727272728,25.70209633239935L97.36363636363636,16.425813799009234L97.5,0.39384226828272517L97.63636363636363,32.97862371805644L97.81818181818181,72.70566832489754L98.18181818181817,85.89439564128986L98.54545454545455,101.46122811395664L98.72727272727273,116.36778002802693L98.86363636363636,100.24925032973009L98.9090909090909,110.56416927076795L99.18181818181817,125.9020079510805L99.22727272727273,130.04738518044567L99.5909090909091,122.23424526838394L99.77272727272728,117.40090909388537L99.81818181818181,117.83518684711072L99.86363636363636,117.94804880630323L99.95454545454545,127.44931322219543L100.0909090909091,137.28785392483454L100.4090909090909,144.2867179186921L100.45454545454545,148.28131853791194L100.81818181818183,134.11049306088316L100.86363636363636,113.80879445523738L101.27272727272728,111.13994334436761L101.45454545454545,94.17509563357352L101.54545454545455,114.25224312695285L101.5909090909091,102.63555960156565L101.68181818181817,114.82777198970139L101.9090909090909,112.84463098539554L101.95454545454545,106.13925084628548L102.04545454545455,117.07166636235988L102.0909090909091,130.11127236355767L102.13636363636364,131.2638337063559L102.36363636363636,139.9498303417845L103,140.0025361643386L103.4090909090909,135.74149777225472L103.68181818181819,143.18185235457923L104,147.75132409554269L104.04545454545455,151.29987432877496L104.45454545454545,143.26924978493585L104.77272727272727,148.20611150132203L105.18181818181819,151.79169166192142L105.31818181818183,150.10533393815567L105.63636363636364,146.231998451692L105.72727272727272,144.5913003243702L105.9090909090909,140.37674059080757L106.36363636363637,140.1149445011394L106.4090909090909,145.17905299921023L106.54545454545455,134.76729932474336L106.77272727272727,137.91374900390565L106.95454545454545,116.60267836575156L107.54545454545455,129.94440361797365L107.63636363636364,137.91134440941318L107.68181818181819,127.37271227008901L107.95454545454545,131.66588678462202L108,137.9964208761034L108.04545454545455,144.63753862446674L108.13636363636364,148.4243966676314L108.22727272727273,146.63662716240478L108.77272727272727,137.23644114063623L109.59090909090908,135.6876986144547L109.86363636363636,143.20206720271068L110.18181818181819,148.14975600528663L110.45454545454545,148.78897407819247L110.63636363636363,132.41599274840175L110.72727272727273,137.1865264652055L110.81818181818181,144.16446739369124L111.0909090909091,148.86001718299295L111.22727272727273,148.76740150014476L111.31818181818181,131.13690354726333L111.45454545454545,139.6556856715923L111.5909090909091,145.58062939868387L111.72727272727273,134.1696436770256L112.13636363636363,125.23230819322919L112.22727272727273,122.68215995829237L112.77272727272728,129.16916729116812L112.81818181818181,110.44629213227705L112.86363636363636,122.35853327251047L113.5,102.62611031559507L113.68181818181817,112.38660954166285L113.86363636363636,119.0384270829412L114.04545454545455,120.45647442790715L114.0909090909091,127.20850759000804L114.22727272727273,109.12002265694083L114.31818181818181,121.75025864150348L114.4090909090909,127.54096379630522L114.77272727272728,131.2522515001331L114.86363636363636,130.28302433133743L115,139.30612339630582L115.13636363636364,135.78738060871066L115.27272727272728,141.70999263789358L115.36363636363636,137.606355594475L115.5,143.1635691157535L115.63636363636364,119.89652176685277L116.36363636363636,132.36864735665642L116.68181818181817,140.90124530025452L116.9090909090909,127.69682343264313L116.95454545454545,120.8852059312943L117,133.09632529230538L117.0909090909091,137.6111479455131L117.13636363636364,144.32473648720404L117.22727272727272,122.8719436638157L117.31818181818183,122.04057742494564L117.5,133.12660871640057L117.68181818181817,135.16537500244186L117.9090909090909,136.4498142550233L118,126.57671993943706L118.31818181818183,117.77315998099289L118.4090909090909,125.858534061484L118.45454545454545,136.06224914296374L118.68181818181819,124.83987915056363L118.86363636363636,116.71130003046187L119.0909090909091,124.5612997624426L119.18181818181819,135.57022992805125L119.22727272727272,133.17365019855612L119.68181818181819,128.38066652679262L119.72727272727272,112.96175261841348L119.9090909090909,103.92680983634047L120.04545454545453,107.5930207368339L120.18181818181819,105.93220900002163L120.22727272727272,116.82668029937756L120.36363636363637,119.73580189331105L120.4090909090909,104.70592753202149L120.5,115.4200495961185L120.72727272727272,129.0406524729931L120.77272727272727,133.9740702004074L121.0909090909091,122.30677097618765L121.13636363636364,133.161811894408L121.31818181818183,141.27297442231503L121.4090909090909,140.74663747868019L121.5,129.69379838431433L121.68181818181819,136.89267185200515L122.13636363636364,125.05914223513236L122.22727272727272,135.864828811024L122.31818181818181,142.92780031024697L122.36363636363637,137.3804240600532L122.54545454545455,116.18875115299922L122.68181818181819,101.05282273675823L123.04545454545455,113.02171200358244L123.22727272727273,125.39031709314895L123.86363636363637,130.0505539007607L124.04545454545455,116.27162640798096L124.13636363636364,129.27743415721142L124.36363636363636,133.52141167755013L124.4090909090909,141.12231243284182L124.5,146.16794010194843L124.59090909090908,132.93902045904377L124.63636363636364,135.8005454916563L124.72727272727273,106.14500212807002L124.81818181818181,108.92990635940961L124.86363636363636,124.42609602378548L125.18181818181817,135.08525953484474L125.31818181818183,136.59377730778405L125.54545454545455,130.41042952415546L126.0909090909091,139.06835090740714L126.27272727272728,133.5961368551543L126.40909090909092,141.8052878154623L126.86363636363637,141.0074260784049L127.13636363636363,135.85272132766247L127.18181818181817,143.27685093268775L127.27272727272727,127.41943658517812L127.40909090909092,131.74780912243222L127.54545454545455,140.4253443588395L127.5909090909091,130.65869859344517L127.63636363636363,131.73311761212628L128.0909090909091,140.37740944538123L128.13636363636363,138.0942843255416L128.1818181818182,144.27338230938904L128.27272727272725,148.68136497545743L128.81818181818184,149.39488604287638L128.86363636363637,131.03759059633953L128.9090909090909,122.196693544527L128.95454545454547,110.97838309199753L129.3181818181818,126.29310042652881L129.72727272727272,125.15787734809541L130.5,135.85929934175044L131.13636363636363,139.4032370291049L131.3181818181818,117.48795602886327L131.36363636363637,121.54135598347041L131.45454545454547,129.24101360309822L131.8181818181818,126.83888625701834L131.9090909090909,137.07611800042565L132.0909090909091,144.2122726399075L132.54545454545456,140.70571157701445L132.90909090909093,137.58926998404732L132.95454545454547,138.2997738456357L133.45454545454547,139.02423120576236L133.8181818181818,137.10519869567142L134.0909090909091,121.40566077021386L134.13636363636363,105.2394618796753L134.22727272727272,109.18489842583841L134.3181818181818,118.64881108637795L134.54545454545456,115.48792566781108L135.4090909090909,129.21681854201907L135.6818181818182,137.67098373599418L135.72727272727272,132.21020465804267L136.1818181818182,138.16443855110924L136.27272727272728,136.47822129276855L136.4090909090909,143.2617192753102L136.45454545454547,135.74849862103522L136.5,133.1222790680508L136.95454545454547,124.19360473706958L137,122.02004903231666L137.13636363636363,121.84181925210115L137.4090909090909,124.76173186854854L137.63636363636363,134.45060957863512L137.72727272727272,123.3119513224504L137.8181818181818,114.92463691077239L137.9090909090909,110.00518658485237L138.3181818181818,122.16762334842244L138.5,110.34763389401274L138.6818181818182,122.92666615758458L138.77272727272728,111.1992993062989L138.9090909090909,115.0797051109514L139.3181818181818,118.78481383125215L139.36363636363635,126.04832708909L139.54545454545456,112.36084067552645L139.8181818181818,125.84674435512709L139.9090909090909,136.06787513975448L140.45454545454544,130.36697717427558L140.5,116.27145628923722L140.54545454545456,127.56870981519799L140.5909090909091,137.00004957364158L140.72727272727272,138.2047514841504L140.9090909090909,116.72919294900049L141.1818181818182,127.7916918798949L141.22727272727272,129.41596360637965L141.36363636363635,138.95885412409922L141.72727272727272,142.22482871359074L141.95454545454544,135.90985116067895L142.0909090909091,136.79415204557006L142.22727272727272,136.69465179028674L142.27272727272728,131.241087742255L142.54545454545456,133.93917509429798L142.63636363636365,110.58307463034829L142.9090909090909,120.13403327600875L143.04545454545456,126.96166915190952L143.1818181818182,130.7438930285838L143.22727272727272,133.5310415966124L143.4090909090909,113.48689661082021L144.27272727272728,105.81443441835411L144.45454545454544,122.33237245497807L144.54545454545453,125.38344247900335L144.77272727272728,135.13409183007732L145,142.41707497394867L145.5909090909091,142.30433790583135L145.77272727272728,128.85498742833053L145.9090909090909,137.195496785991L146.59090909090907,143.06436509520375L147.09090909090907,137.71161243940574L147.13636363636365,144.55190890686984L147.27272727272728,146.89937663936772L147.54545454545453,142.92856111309678L147.86363636363637,147.48356824864018L147.9090909090909,150.99071850006828L147.95454545454544,149.68487000530467L148,119.90682990008992L148.04545454545453,124.43735684501357L148.09090909090907,129.46534311334113L148.45454545454544,132.28546916307067L149.5,130.72999334035586L149.54545454545453,102.48789349719284L149.5909090909091,103.5459579883907L149.9090909090909,114.88620677127486L150.4090909090909,122.10226264629432L150.5,133.76535530454316L151.04545454545453,133.2113124533418L151.0909090909091,140.29232981913646L151.22727272727275,144.5165027529979L151.3181818181818,149.28513811407274L151.36363636363637,150.42139708546983L151.45454545454544,153.14216840237617L152.3181818181818,154.73502022073768L152.54545454545453,149.76515877551364L152.68181818181816,129.5057369825721L152.8181818181818,138.99768964928552L153.22727272727275,130.73496831404435L153.27272727272728,126.97312613417941L153.54545454545453,130.06248380504204L153.63636363636363,118.84834811842569L153.68181818181816,125.35422571095597L153.95454545454547,130.32231209734192L154.0909090909091,137.53333466462476L154.13636363636363,144.12437009039576L154.36363636363637,137.61495269890602L154.45454545454547,134.47865742379886L154.54545454545453,128.00601153911276L154.68181818181816,120.3620792646037L155.0909090909091,126.1351642916035L155.31818181818184,125.08881272845409L155.4090909090909,135.90208370554762L155.45454545454547,142.79454295053523L155.5,147.86581318560735L156,151.34717050506438L156.45454545454547,150.95462206985027L156.81818181818184,135.41372985194297L157.5909090909091,131.6249112827158L157.9090909090909,140.2067207833582L157.95454545454547,140.82219743457404L158.0909090909091,126.62293602549725L158.54545454545453,130.64348391120316L158.81818181818184,134.25972625354296L159,142.16282292700637L159.22727272727272,116.82072045056867L159.31818181818184,115.52699153308004L159.4090909090909,90.91246764520154L159.5,103.34364668853685L159.5909090909091,120.46395817444397L159.77272727272725,105.5517827860447L159.81818181818184,122.58111073292585L159.95454545454547,134.08787518230443L160.22727272727272,132.2711724259816L160.31818181818184,133.69623204545383L160.45454545454547,123.5832610275591L160.8181818181818,134.67557725533524L160.9090909090909,140.40071984865273L160.95454545454547,146.39466773777175L161,149.80990306908802L161.36363636363637,137.42112762613937L162.04545454545456,143.94075641844006L162.13636363636363,141.69088905441708L162.22727272727272,146.09113185491827L162.3181818181818,133.48480248065476L162.4090909090909,127.81086484387481L162.8181818181818,135.63682814164534L163,143.1381636074706L163.5909090909091,148.33549406110598L163.77272727272725,151.42078942047783L164.22727272727272,148.04258743181722L164.63636363636363,151.65884120590516L165.3181818181818,154.17063482520297L165.36363636363635,141.99778825341232L165.63636363636363,127.16213430992121L165.6818181818182,131.62063314574377L165.77272727272725,133.9619603298887L165.90909090909093,112.84719014902686L166.13636363636363,123.3581918011889L166.27272727272728,134.19802490067138L166.3181818181818,123.3039740669331L166.4090909090909,119.30995266325036L167.13636363636363,109.95750912192557L167.45454545454547,123.53891265447409L167.63636363636363,115.95349868267121L167.95454545454547,118.33919500563167L168,124.29014624240406L168.3181818181818,127.63996407089408L168.45454545454547,132.1206306703649L169.54545454545456,125.49511176410303L169.6818181818182,127.38742030682367L170,131.23992454888224L170.13636363636365,134.10599271353823L170.1818181818182,135.74408721347106L170.27272727272728,124.7463838688987L170.3181818181818,107.5354377795863L170.63636363636365,103.27429496418738L170.72727272727272,113.58489586029023L171.22727272727272,91.33215869199505L171.45454545454544,112.24290820959753L171.86363636363635,109.06630452711035L171.95454545454544,118.51844880522103L172.04545454545456,118.77741240765563L172.22727272727272,118.11546796340957L172.36363636363635,107.96999816191962L172.95454545454544,106.78956577625598L173,103.84310244547476L173.04545454545456,111.66290548079046L173.3181818181818,113.89149418695676L173.6818181818182,126.32613214743648L173.95454545454544,130.32222293313583L174,134.65717570256925L174.04545454545456,108.01417783225546L174.22727272727272,113.79670421314208L174.45454545454544,117.43325216080697L174.77272727272728,129.9414509115128L175.13636363636365,139.15241486770847L175.3181818181818,142.23216530634903L175.5,134.24802680326647L175.5909090909091,128.39788346711893L175.86363636363637,117.79416315505351L176,116.426707874004L176.0909090909091,130.0297886359557L176.1818181818182,139.0422312696116L176.27272727272728,142.24431022649765L176.4090909090909,120.02166174562292L176.63636363636365,132.07885691899284L177.1818181818182,139.80977455911045L177.4090909090909,141.34109298147837L177.63636363636365,141.1623559617032L178.45454545454544,122.37246350243767L178.63636363636365,129.16226560406454L178.77272727272728,138.26828121645582L179,138.6239498001611L179.27272727272728,137.51626805202886L179.3181818181818,144.45863937134524L179.5,148.70531077447947L179.59090909090907,145.6990865743844L179.86363636363637,149.11716460794068L179.9090909090909,151.92880820159974L180.1818181818182,147.6573255000279L180.5,145.07292401546613L180.77272727272728,143.3816442273581L180.9090909090909,142.18636708442912L181.1818181818182,147.49688527213658L181.6818181818182,143.35131292628947L181.77272727272728,121.298905309071L182.0909090909091,133.37316872987148L182.22727272727275,132.4962300531003L182.36363636363637,134.39201197351386L182.45454545454544,122.92592259001634L182.6818181818182,120.35899424650009L183.4090909090909,126.64196692984294L183.5,134.689975778716L183.54545454545453,122.6704039195647L183.72727272727275,106.17783738492909L183.77272727272728,121.28915464325723L183.95454545454547,129.0757716763738L184.04545454545453,127.80044055302815L184.3181818181818,136.1759165026502L184.36363636363637,143.43705569626448L184.68181818181816,141.87624833403254L185.22727272727275,146.9942206289097L185.45454545454547,150.9056257839097L185.5909090909091,146.33998559217054L186,145.1302429667452L186.04545454545453,132.224898968714L186.3181818181818,113.38580182569906L186.36363636363637,114.8283959867906L187,127.33957086240989L187.18181818181816,131.02106282457356L187.27272727272728,133.6353449591251L187.36363636363637,113.64757825049779L187.5,127.77151477603286L187.63636363636363,137.23814269558008L188.04545454545453,128.5588882398934L188.31818181818184,138.24907040490223L188.4090909090909,136.41152956269036L188.9090909090909,143.7519496751646L188.95454545454547,102.34192666661608L189.22727272727272,117.06749677700398L189.54545454545453,128.89954674410285L190.63636363636363,138.4506464614741L190.77272727272725,143.70301498240661L190.9090909090909,129.4091644602691L191,132.8851115138713L191.95454545454547,130.7489957828349L192.0909090909091,134.10909106586962L192.27272727272725,129.6970859689544L192.3181818181818,132.5340129006235L192.36363636363637,140.33379471715475L192.63636363636363,117.61092289939168L192.77272727272725,107.02784446675335L192.86363636363637,100.50378901206112L193.27272727272725,117.54292521511991L193.45454545454547,130.55185369638642L193.5909090909091,133.44340684533324L193.8181818181818,140.7787122420342L194.1818181818182,146.50455708248023L194.36363636363637,149.68999070238723L194.45454545454547,142.20344254378242L194.54545454545456,147.2105372860671L195.13636363636363,139.3215285458062L195.22727272727272,135.3734221730341L195.36363636363635,142.84948241224996L195.90909090909093,129.2993966204201L196.0909090909091,138.36588143212435L196.3181818181818,118.4783367154856L196.40909090909093,123.14182891183708L196.86363636363635,133.8686312846084L196.95454545454547,130.93324642780107L197.04545454545456,139.5464940911847L197.63636363636363,144.60520330662524L197.9090909090909,148.21739110966746L198.36363636363635,151.87117560396626L198.5909090909091,136.97699330548997L198.9090909090909,137.64542943463084L199.04545454545456,141.37251921931914L199.13636363636363,147.14253724451152L200.04545454545456,128.69888582666013L200.0909090909091,135.9600348058556L200.13636363636363,138.15195348758704L200.36363636363635,139.58545717291162L200.45454545454544,145.74531282367263L200.72727272727272,149.99137870766998L200.9090909090909,143.44379319824677L201.27272727272728,142.2249466132802L201.3181818181818,145.99892343007238L201.54545454545456,148.02632963953354L201.5909090909091,142.7882351984287L201.77272727272728,141.8454692034742L202.27272727272728,125.30986344689522L202.54545454545456,112.9457782804853L202.8181818181818,110.8046983385407L202.95454545454544,125.74180920002688L203.45454545454544,130.0020613295499L203.63636363636365,138.2121895805813L203.8181818181818,143.31520375498525L203.9090909090909,148.11153681240148L204.13636363636365,145.16911863493408L204.3181818181818,144.10985023045373L204.54545454545456,148.25827882059124L204.77272727272728,150.867707030761L204.95454545454544,130.58141433546257L205,127.50336174500902L205.0909090909091,123.98191019341826L205.5,132.97148023678372L205.54545454545456,140.77517704957648L206.04545454545453,145.15241090215903L206.13636363636365,138.91527903827006L206.1818181818182,145.31080993936598L206.5,143.2778060034497L206.5909090909091,142.70454689939328L206.63636363636365,147.90754295751225L206.6818181818182,151.33311105611622L206.72727272727272,153.4376801743116L206.9090909090909,148.82210735167038L207,143.6141981366192L208,138.06485491300145L208.13636363636365,132.66922974661645L208.77272727272728,140.37687407827707L209,146.28782520231024L209.04545454545453,116.84571585489812L209.13636363636365,106.6808839698753L209.5,122.98084179221557L209.72727272727275,134.4552748871496L210.04545454545453,130.93826339750092L211.3181818181818,130.88200701936867L211.63636363636365,135.51665555866023L212.13636363636363,142.73731216413375L212.36363636363637,129.6444059189401L212.77272727272728,118.90109078349559L212.8181818181818,131.6237628690656L213.27272727272728,132.93492413370353L213.3181818181818,119.09419619825692L213.36363636363637,127.86822351597189L213.45454545454544,124.25186464634008L213.54545454545453,135.3007389001097L213.63636363636363,140.6003556993006L213.6818181818182,135.7533188405656L213.72727272727275,124.93387550148348L213.8181818181818,135.83737657950874L214.63636363636363,142.96456865036777L214.86363636363637,121.9824366848331L215.0909090909091,122.81466854438088L215.22727272727275,129.04555592501669L215.36363636363637,138.1106631582975L215.5909090909091,125.91463107963341L216.0909090909091,108.71608352184226L216.5,124.2894576256434L216.63636363636363,135.33048488117743L216.68181818181816,142.78775580405969L217.0909090909091,135.74223083035724L217.36363636363637,124.33237276591973L218.04545454545453,129.13160319523902L218.0909090909091,132.9659187006254L218.36363636363637,122.89591717024453L218.54545454545453,124.67926099310137L218.68181818181816,135.67082035711576L218.95454545454547,136.7386489546438L219.04545454545453,143.75124168630362L219.45454545454547,116.18389733705261L219.63636363636363,122.70680966836319L219.9090909090909,127.84422161455629L220.13636363636363,123.14180935871005L220.4090909090909,133.5424073867185L220.5909090909091,129.0204597373782L220.81818181818184,138.57382752932523L221.13636363636363,133.92980254198093L221.31818181818184,135.32904310092783L221.72727272727272,137.42936493337768L221.86363636363637,139.85955812777925L222.4090909090909,145.93351177416383L222.72727272727272,112.89990443770697L222.86363636363637,108.07033156829041L222.95454545454547,114.3591157081491L223,125.72482044714911L223.1818181818182,136.3464992043252L223.22727272727272,119.54390285532503L223.27272727272725,115.27677090332607L223.8181818181818,123.48426737944172L224.0909090909091,130.64619150572335L224.13636363636363,120.83271778098984L224.22727272727272,112.8555612050972L224.45454545454547,108.81546429403487L224.5,124.83562522724807L224.63636363636363,116.55008907504677L224.9090909090909,117.61567905714224L225.0909090909091,130.77417382322471L225.4090909090909,120.59461019027678L225.86363636363635,113.9962718455522L226.13636363636363,121.79005808802982L226.3181818181818,131.8586136820938L226.45454545454547,133.11525246387393L226.8181818181818,141.467082236674L226.90909090909093,146.76380176222386L227.5,144.30440306887442L227.6818181818182,148.06534152087286L227.72727272727272,140.0815292240275L228.5909090909091,140.39467636980896L228.63636363636363,128.09652566058742L228.77272727272728,115.25419119230915L229.0909090909091,128.21794074316404L229.1818181818182,128.1456916452904L229.54545454545456,131.93717351791588L229.63636363636363,128.44734070893205L229.6818181818182,110.04948858800428L230.27272727272728,121.83212972417506L230.36363636363635,133.15377794948947L230.4090909090909,140.2750302262934L230.77272727272728,140.60412043145658L230.8181818181818,145.87390416131962L230.95454545454547,145.56854343114406L231.04545454545456,149.79090273154384L231.45454545454547,148.65324429476541L231.5909090909091,151.85100246120905L231.6818181818182,135.27323636131072L231.77272727272728,136.50160395663818L232.3181818181818,131.21826446987603L233.0909090909091,121.17536835106988L233.3181818181818,126.85186558190034L233.77272727272728,137.1033457849286L234.04545454545456,138.41593723936228L234.36363636363635,140.59239077962886L234.63636363636365,127.24093831143254L234.72727272727272,103.57746878714636L234.9090909090909,97.72966396291265L235.22727272727272,92.73493050918029L235.27272727272728,103.08698765888752L235.3181818181818,120.47938528867039L235.77272727272728,132.55771249748102L236.5,134.6194754328702L236.72727272727272,136.02607174048967L236.95454545454544,143.10237140433583L237.1818181818182,147.90648288479738L237.22727272727272,150.08540860837113L237.3181818181818,151.95666045566344L237.45454545454544,141.75641630298412L237.9090909090909,135.40959352581137L238.0909090909091,132.21714461190135L238.13636363636365,129.01946238575374L238.4090909090909,138.6345871184323L238.5909090909091,145.08921959109057L238.63636363636365,149.63816723540052L239,144.9150442654072L239.0909090909091,143.93526768261512L239.13636363636365,129.9643265006702L239.1818181818182,135.44366363236153L239.27272727272728,137.49295044557795L239.4090909090909,141.16514846541816L239.45454545454544,146.879045443817L239.5,148.59886949504997L239.54545454545453,151.22070656623822L239.72727272727272,131.27775299754768L239.8181818181818,120.28688915864748L239.95454545454544,113.5034490888785L240,127.84163203862855L240.04545454545453,137.8818939207146L240.09090909090907,139.63506473986413L240.1818181818182,110.28796991186071L240.3181818181818,125.61291323704762L240.36363636363637,135.9126132985555L240.63636363636365,129.3097021741902L240.9090909090909,101.4016708463494L241,114.72121297759068L241.13636363636365,111.65927154110376L241.6818181818182,125.59153987959672L242.04545454545453,120.14798441404398L242.09090909090907,131.78746060218873L242.13636363636365,131.34432475776944L242.4090909090909,133.94152935149168L242.72727272727275,141.60977168499772L242.95454545454544,129.60017782170922L243.27272727272728,128.04490299469086L243.45454545454544,110.57937361479321L243.6818181818182,125.89147278300706L243.72727272727275,124.66778517428794" style="fill: none;" fill="none"></path></g></g></g></g><g opacity="0.2"><g><g><g><path stroke="rgb(255, 112, 67)" stroke-width="2px" d="M22.954545454545453,119.12152727399554L23.545454545454547,91.8147119140625L23.818181818181817,123.85716413225447L24.545454545454543,136.43943359374998L24.636363636363637,76.34770263671875L24.772727272727273,121.04580461774555L24.863636363636363,122.54168875558035L25.136363636363637,99.77035958426339L25.272727272727273,99.30269984654018L25.954545454545457,81.71894513811384L26.09090909090909,122.03381574358258L26.318181818181817,45.49105311802455L26.68181818181818,159.68605852399554L27,125.35734741210938L27.363636363636363,138.6422549874442L27.5,139.94189958844868L27.545454545454547,168.66574009486607L27.863636363636363,165.62845057896206L28.09090909090909,57.86625758579798L28.454545454545453,101.87886369977679L29.045454545454543,157.98533656529017L29.545454545454543,126.38749633789062L29.772727272727273,152.76270159040178L29.90909090909091,117.91132655552454L30.318181818181817,84.7120792061942L30.363636363636363,99.5404563685826L30.818181818181817,165.57634870256697L31.045454545454547,164.95486659458706L31.136363636363637,113.32091378348214L31.181818181818183,69.69078386579241L31.363636363636363,127.37966692243305L31.72727272727273,103.72794485909598L32.09090909090909,127.95815761021206L32.13636363636363,98.85400599888393L32.36363636363637,102.90359601702009L32.86363636363637,94.73856305803571L33.13636363636364,76.14715619768415L33.36363636363637,98.82669015066963L33.5,177.07403930664063L34.04545454545455,169.26575753348214L34.31818181818182,128.25933035714286L34.54545454545455,144.76202933175222L34.68181818181818,116.45466238839285L34.86363636363636,114.12882655552454L35.04545454545455,102.45238786969865L35.13636363636364,115.94466308593749L36,122.83361136300223L36.22727272727273,81.54514805385045L36.27272727272727,86.91693376813616L36.5,105.49998291015625L36.72727272727273,95.13135253906249L36.81818181818182,121.26487461635044L37.18181818181819,119.144404296875L37.22727272727273,119.65775599888391L37.54545454545455,122.82926565987722L37.72727272727273,116.34221732003348L38.13636363636363,121.08407784598214L38.5,112.63098685128348L39.22727272727273,162.55693865094867L39.40909090909091,120.68722202845983L39.68181818181818,118.7580402483259L39.86363636363637,121.0069416155134L39.95454545454546,112.89189976283483L40.54545454545455,138.93798008510043L41.86363636363637,121.15090855189732L41.90909090909091,115.00349243164062L42,136.2030894252232L42.27272727272727,112.10958007812499L42.68181818181818,99.51459943498884L42.77272727272727,157.09918561662946L42.81818181818182,139.82490705217634L42.95454545454545,103.23717529296876L43.22727272727273,138.84833443777902L43.63636363636364,128.13806971958707L43.77272727272727,136.8888103376116L43.81818181818182,137.73345982142857L44.27272727272727,139.5288249860491L45.04545454545455,82.92320155552454L45.13636363636363,111.08346644810268L45.77272727272727,141.65814191545758L46,138.04962524414063L46.09090909090909,105.41204450334821L46.22727272727273,116.29295567103794L46.59090909090909,118.35891845703125L46.86363636363637,118.10041120256696L46.95454545454546,130.64985508510046L47.09090909090909,116.48413556780133L47.36363636363637,134.5760581752232L47.59090909090909,124.22898559570312L48.04545454545455,136.84654837472098L48.31818181818181,97.75891985212053L48.59090909090909,139.27593610491073L48.77272727272727,139.92488926478794L49.04545454545455,115.96750906808035L49.13636363636364,118.11315342494419L49.18181818181818,131.48770664760045L49.27272727272727,111.96101911272322L49.36363636363637,144.90000540597097L49.40909090909091,143.65385951450892L49.63636363636364,139.5983251953125L49.68181818181818,140.83053379603794L50.090909090909086,133.98380092075894L50.36363636363636,139.95082380022322L50.45454545454545,109.74703857421875L50.68181818181818,134.82921090262278L50.909090909090914,111.69054565429688L51,118.04096819196428L51.54545454545455,138.2329518345424L51.86363636363636,87.12493774414062L51.909090909090914,139.48547659737724L52,137.83862583705357L52.09090909090909,124.41397286551339L52.13636363636363,140.03101754324777L52.22727272727273,97.30498011997769L52.772727272727266,124.51311697823661L52.909090909090914,138.54303327287946L53.09090909090909,154.0047811453683L53.22727272727273,136.86793544224332L53.36363636363636,117.56632428850446L53.54545454545455,110.95028616768974L53.59090909090909,124.2602280970982L53.77272727272727,114.64214721679687L54,100.25406738281251L54.04545454545454,155.8165358189174L54.5,139.2671205357143L54.68181818181818,98.62568586077009L54.81818181818182,111.48188982282366L55.18181818181818,112.84249843052456L55.36363636363637,130.1582318987165L55.5,106.25532819475447L55.54545454545455,139.10597255161832L55.59090909090909,126.17676077706473L55.90909090909091,117.93338099888393L56.18181818181818,162.01656598772323L56.27272727272727,86.96773193359375L56.31818181818181,139.7087060546875L56.5,132.9360053362165L56.68181818181818,161.8018572126116L56.81818181818181,120.02780814034598L56.86363636363637,108.11240234374999L56.90909090909091,160.11248064313617L57.090909090909086,153.8344295828683L57.5,118.95530412946428L57.68181818181818,157.68067173549107L57.72727272727273,141.86079136439733L57.77272727272727,138.20661376953126L57.86363636363637,138.66545793805804L57.90909090909091,83.41130161830358L58.18181818181818,162.19438284737723L58.36363636363636,137.12324550083707L58.409090909090914,152.1130344935826L58.5,138.94141008649552L58.590909090909086,118.76744559151786L58.72727272727273,136.5967790876116L58.77272727272727,124.23146885463169L58.81818181818182,115.82396118164063L58.86363636363636,118.44583251953125L59,131.07966064453126L59.18181818181818,138.50216814313615L59.409090909090914,90.51902500697544L59.45454545454545,121.15542497907367L59.5,139.52839041573662L59.77272727272727,122.54916957310269L60.54545454545455,138.7061678641183L60.72727272727273,131.24950003487723L60.81818181818182,137.35735473632812L61.04545454545455,118.4277823311942L62.13636363636363,117.8363166155134L62.22727272727273,103.7901504952567L62.45454545454546,115.67763514927455L62.54545454545454,115.18529802594867L62.72727272727273,126.08534580775671L62.81818181818181,119.26102434430804L63.18181818181819,115.08764386858259L63.45454545454546,104.37042602539063L63.63636363636363,64.07653119768415L63.95454545454546,47.142932477678556L64.04545454545455,114.94713797433036L64.31818181818181,128.7757861328125L64.40909090909092,133.3497007533482L64.54545454545455,130.91382550920758L64.5909090909091,63.33332284109932L64.68181818181819,121.69724103655133L65.04545454545455,109.95071236746652L65.0909090909091,106.17021449497769L65.22727272727273,89.15719029017858L65.54545454545455,87.77300624302455L65.68181818181819,102.15321725027901L66.0909090909091,101.05269897460938L66.27272727272728,75.98004063197546L66.4090909090909,95.84004359654018L66.45454545454547,103.2734774344308L66.86363636363636,78.77104518345423L66.9090909090909,97.28992536272321L67.0909090909091,83.21183384486608L67.13636363636363,93.99209542410713L67.18181818181817,97.39686070033483L67.22727272727273,75.54533063616071L67.4090909090909,68.2635463169643L67.45454545454547,100.99907610212054L67.5909090909091,79.1011168561663L67.63636363636364,75.87471941266742L68,96.83254010881697L68.18181818181817,98.58868530273438L68.27272727272728,84.81646920340401L68.36363636363636,98.07609409877232L68.4090909090909,95.06366821289063L68.81818181818181,79.49206717354912L68.95454545454545,78.5500816999163L69.31818181818183,97.37750680106026L69.4090909090909,77.14118922642298L69.5909090909091,81.51943080357142L69.63636363636364,91.82093558175224L69.86363636363636,92.91018607003349L70.18181818181817,99.01949968610491L70.68181818181817,93.78663678850447L70.77272727272728,76.84885532924108L71.04545454545455,89.86917166573662L71.18181818181817,81.0456405203683L71.27272727272728,62.94044799804688L71.45454545454545,93.05908848353795L71.63636363636364,81.3094402204241L71.72727272727272,92.98870361328126L71.95454545454545,104.4050674874442L72,93.014560546875L72.04545454545455,79.46430123465403L72.4090909090909,80.04932599748884L72.68181818181819,84.68794503348214L72.86363636363636,64.50224714006696L72.9090909090909,78.10051871163503L72.95454545454545,91.92051426478794L73.36363636363637,159.85139700753348L73.5909090909091,121.94715000697545L74.22727272727272,155.11481340680803L74.31818181818183,155.4462353515625L75.22727272727272,112.81586547851563L75.27272727272727,166.9006086077009L75.45454545454545,91.60315377371651L75.5,98.00376918247768L75.54545454545455,85.07312953404018L76.36363636363637,182.08606288364956L76.59090909090908,107.13162370954241L76.9090909090909,143.68705758231027L76.95454545454545,119.52695033482142L77.22727272727273,87.23390625L77.31818181818181,80.35416155133929L77.54545454545455,78.400830078125L77.63636363636364,74.54702174595424L77.72727272727273,62.040313197544634L77.90909090909092,92.98184361049107L78.72727272727273,62.100477905273436L78.81818181818181,76.48078203473773L78.90909090909092,63.0494397844587L79.27272727272727,103.89779976981026L79.40909090909092,87.7335845075335L79.77272727272727,75.3556018938337L79.90909090909092,71.7894713483538L80.04545454545455,45.03425763811384L80.63636363636363,126.85573032924107L80.95454545454545,131.4822279575893L81.22727272727273,28.495582449776776L81.4090909090909,94.90298583984375L81.5,-33.52300611223495L81.54545454545455,17.06504847935267L81.81818181818181,-33.98444024222238L82.27272727272728,10.32949188232422L82.5,30.70260210309712L82.54545454545455,14.360500139508929L82.68181818181817,105.00388985770088L82.95454545454547,123.4892227608817L83.04545454545455,13.762740914481043L83.18181818181817,128.480712890625L83.31818181818181,121.97854771205357L83.45454545454545,123.85731933593749L83.5,122.92844081333705L84.31818181818181,31.127122977120536L84.81818181818183,45.090130964006704L85,29.918404453822546L85.68181818181817,30.578105468749982L85.81818181818183,28.823341587611594L85.86363636363636,39.850772792271215L85.95454545454545,34.79965340750559L86,14.223928658621645L86.95454545454545,-2.180724269321985L87,12.349033246721547L87.22727272727272,-19.477241581508082L87.36363636363636,-4.8232726178850385L87.54545454545455,30.911436418805806L87.63636363636364,14.235782339913527L87.81818181818183,-19.06209306989396L88,-18.70521772112167L88.18181818181819,45.26627938406807L89.31818181818183,-34.20127336774556L90.54545454545455,-34.6423195539202L90.95454545454545,10.48986384800503L91.27272727272727,-36.11565065656387L91.95454545454545,-20.549516666957288L92,9.915303693498885L92.13636363636364,7.595741969517292L92.45454545454545,-18.798504834856317L97.13636363636363,-18.647862200055812L97.27272727272728,131.72799298967635L97.36363636363636,-3.8402047293526778L97.5,-34.63142037527902L97.63636363636363,104.16703159877233L97.81818181818181,159.49787405831472L98.18181818181817,114.70798461914063L98.54545454545455,135.4702952357701L98.72727272727273,148.93432338169643L98.86363636363636,65.03488289969307L98.9090909090909,133.0993106515067L99.18181818181817,159.4107892717634L99.22727272727273,139.1038462611607L99.5909090909091,105.16477399553571L99.77272727272728,106.84145490373884L99.81818181818181,118.78395926339286L99.86363636363636,118.19461983816964L99.95454545454545,148.20685267857144L100.0909090909091,158.78224539620535L100.4090909090909,159.5772297014509L100.45454545454545,157.00837594168527L100.81818181818183,103.15130109514509L100.86363636363636,69.45540196010045L101.27272727272728,105.30926862444197L101.45454545454545,57.11176592145648L101.54545454545455,158.11505580357144L101.5909090909091,77.25643572126117L101.68181818181817,141.46426147460937L101.9090909090909,108.51203630719866L101.95454545454545,91.48991716657366L102.04545454545455,140.9558607700893L102.0909090909091,158.5990740094866L102.13636363636364,133.78184988839286L102.36363636363636,158.9262433733259L103,140.1176832798549L103.4090909090909,126.43235020228795L103.68181818181819,159.43689453125L104,157.73431012834823L104.04545454545455,159.05243948800222L104.45454545454545,125.7246369280134L104.77272727272727,158.99173932756696L105.18181818181819,159.62515659877232L105.31818181818183,146.4211256626674L105.63636363636364,137.76987060546875L105.72727272727272,141.00684517996652L105.9090909090909,131.16913556780133L106.36363636363637,139.54299508231026L106.4090909090909,156.24267857142857L106.54545454545455,112.02060180664063L106.77272727272727,144.78783970424107L106.95454545454545,70.04409729003906L107.54545454545455,159.0922492327009L107.63636363636364,155.3168265206473L107.68181818181819,104.34882167271205L107.95454545454545,141.04524257114957L108,151.82682338169644L108.04545454545455,159.14647739955356L108.13636363636364,156.69759608677455L108.22727272727273,142.73086321149555L108.77272727272727,116.69972900390624L109.59090909090908,132.3041401018415L109.86363636363636,159.61880876813615L110.18181818181819,158.95903791155135L110.45454545454545,150.18548235212054L110.63636363636363,96.64572143554688L110.72727272727273,147.60877528599332L110.81818181818181,159.40926827566963L111.0909090909091,159.11844761439733L111.22727272727273,148.56506277901786L111.31818181818181,92.61931884765626L111.45454545454545,158.26678292410713L111.5909090909091,158.52493321010044L111.72727272727273,109.23991053989955L112.13636363636363,105.70679181780135L112.22727272727273,117.11081699916295L112.77272727272728,143.34141898018973L112.81818181818181,69.54217633928572L112.86363636363636,148.38336582728795L113.5,59.516421944754455L113.68181818181817,133.71050275530135L113.86363636363636,133.57074183872768L114.04545454545455,123.55450142996652L114.0909090909091,141.95976475306918L114.22727272727273,69.60186767578125L114.31818181818181,149.34370413643973L114.4090909090909,140.1919948032924L114.77272727272728,139.36035138811383L114.86363636363636,128.16554077148436L115,159.01900861467635L115.13636363636364,128.09993617466517L115.27272727272728,154.6492023577009L115.36363636363636,128.6410848563058L115.5,155.30448782784597L115.63636363636364,69.06469220842634L116.36363636363636,159.61666695731026L116.68181818181817,159.5425261579241L116.9090909090909,98.84894635881696L116.95454545454545,106.00377406529017L117,159.77412109375L117.0909090909091,147.47474138532365L117.13636363636364,158.99200317382812L117.22727272727272,76.003740234375L117.31818181818183,120.22428048270089L117.5,157.34640956333706L117.68181818181817,139.61949497767858L117.9090909090909,139.2559458705357L118,105.00683872767857L118.31818181818183,98.53990478515625L118.4090909090909,143.52275896344867L118.45454545454545,158.3544419642857L118.68181818181819,100.32221732003349L118.86363636363636,98.95268450055804L119.0909090909091,141.7112991768973L119.18181818181819,159.6215869140625L119.22727272727272,127.93781040736607L119.68181818181819,117.90937098911832L119.72727272727272,79.2758451625279L119.9090909090909,84.18804949079241L120.04545454545453,115.6026407296317L120.18181818181819,102.30381138392858L120.22727272727272,140.62797746930804L120.36363636363637,126.09139875139509L120.4090909090909,71.86995997837612L120.5,138.82733537946427L120.72727272727272,158.79776576450894L120.77272727272727,144.75217389787946L121.0909090909091,96.8170663016183L121.13636363636364,156.87696498325892L121.31818181818183,158.99353969029016L121.4090909090909,139.59674211774552L121.5,105.54651297433035L121.68181818181819,152.6201470075335L122.13636363636364,99.2062717982701L122.22727272727272,159.47215680803572L122.31818181818181,158.3583686174665L122.36363636363637,125.26099696568079L122.54545454545455,69.89101989746094L122.68181818181819,67.98515747070313L123.04545454545455,139.1703044782366L123.22727272727273,152.41217407226563L123.86363636363637,140.23183558872768L124.04545454545455,86.16861921037946L124.13636363636364,157.69139630998885L124.36363636363636,142.7932861328125L124.4090909090909,157.72810198102678L124.5,157.19119035993305L124.59090909090908,104.03762276785714L124.63636363636364,142.05215750558037L124.72727272727273,41.35613987513952L124.81818181818181,115.01412388392856L124.86363636363636,158.28082885742188L125.18181818181817,158.37247663225446L125.31818181818183,139.88945626395088L125.54545454545455,116.9015869140625L126.0909090909091,157.98342755998883L126.27272727272728,121.64091761997769L126.40909090909092,159.73992972237724L126.86363636363637,139.26432686941965L127.13636363636363,124.59116891043527L127.18181818181817,159.4964461844308L127.27272727272727,92.7755313546317L127.40909090909092,141.2040625L127.54545454545455,159.38327165876117L127.5909090909091,109.321376953125L127.63636363636363,134.08041521344865L128.0909090909091,159.26270943777902L128.13636363636363,133.1063103376116L128.1818181818182,157.7729403250558L128.27272727272725,158.31154366629465L128.81818181818184,150.95372506277903L128.86363636363637,90.93216169084822L128.9090909090909,102.88186750139509L128.95454545454547,86.46959019252233L129.3181818181818,159.75136823381695L129.72727272727272,122.67774030412946L130.5,159.23883911132813L131.13636363636363,147.14572509765625L131.3181818181818,69.60934849330357L131.36363636363637,130.39687308175223L131.45454545454547,146.06255859375L131.8181818181818,121.59092651367187L131.9090909090909,159.44153512137277L132.0909090909091,159.80272513253348L132.54545454545456,133.0448807198661L132.90909090909093,130.78073835100446L132.95454545454547,139.85202113560268L133.45454545454547,140.606962890625L133.8181818181818,132.91266270228795L134.0909090909091,87.10667027064733L134.13636363636363,69.92095092773438L134.22727272727272,117.80454642159597L134.3181818181818,139.32474766322545L134.54545454545456,108.58229701450892L135.4090909090909,159.21051443917412L135.6818181818182,156.14091151646204L135.72727272727272,120.27996756417411L136.1818181818182,151.1727329799107L136.27272727272728,132.7943198939732L136.4090909090909,158.08171805245536L136.45454545454547,119.33426496233258L136.5,127.38474208286831L136.95454545454547,104.68701049804687L137,117.27145281110492L137.13636363636363,121.4524382672991L137.4090909090909,131.14090401785714L137.63636363636363,155.61803030831473L137.72727272727272,98.97717564174107L137.8181818181818,96.60075892857142L137.9090909090909,99.25759765625L138.3181818181818,148.7390616280692L138.5,84.5243448311942L138.6818181818182,150.4082461983817L138.77272727272728,85.57836408342634L138.9090909090909,123.55727957589286L139.3181818181818,126.87941441127234L139.36363636363635,141.91702165876114L139.54545454545456,82.45760602678571L139.8181818181818,155.30957850864957L139.9090909090909,158.39811628069197L140.45454545454544,117.91214913504464L140.5,85.47678327287946L140.54545454545456,152.249970703125L140.5909090909091,157.6048236955915L140.72727272727272,140.83667986188615L140.9090909090909,69.81125296456474L141.1818181818182,151.96008126395088L141.22727272727272,132.96453177315848L141.36363636363635,159.80733468191966L141.72727272727272,149.36004708426339L141.95454545454544,122.11343523297991L142.0909090909091,138.7260960170201L142.22727272727272,136.4772722516741L142.27272727272728,119.32661342075893L142.54545454545456,139.83372262137277L142.63636363636365,59.556689540318075L142.9090909090909,141.00014038085936L143.04545454545456,141.8780965750558L143.1818181818182,139.00696812220983L143.22727272727272,139.62016235351564L143.4090909090909,69.69618495396205L144.27272727272728,89.05230364118303L144.45454545454544,158.41933262416296L144.54545454545453,132.04915597098216L144.77272727272728,156.43646589006696L145,158.3283056640625L145.5909090909091,142.05803972516742L145.77272727272728,99.47201154436384L145.9090909090909,155.417119140625L146.59090909090907,155.88616019112723L147.09090909090907,126.01738211495535L147.13636363636365,159.49599609375L147.27272727272728,152.0279207938058L147.54545454545453,134.25346732003348L147.86363636363637,157.43495326450892L147.9090909090909,158.6528365652902L147.95454545454544,146.83196533203125L148,54.850347377232154L148.04545454545453,134.3352596609933L148.09090909090907,140.4500519670759L148.45454545454544,138.44663626534597L149.5,127.3317245047433L149.54545454545453,40.7870002092634L149.5909090909091,105.85752563476562L149.9090909090909,139.66139997209822L150.4090909090909,137.86727643694195L150.5,159.24586983816965L151.04545454545453,132.00088762555805L151.0909090909091,155.76232317243304L151.22727272727275,153.74510986328124L151.3181818181818,159.7032395717076L151.36363636363637,152.90379725864955L151.45454545454544,159.086273890904L152.3181818181818,158.2149448939732L152.54545454545453,138.907436000279L152.68181818181816,85.24470720563616L152.8181818181818,159.73488560267856L153.22727272727275,112.68329049246651L153.27272727272728,118.7545792061942L153.54545454545453,136.8118448311942L153.63636363636363,94.34867588588169L153.68181818181816,139.56770350864957L153.95454545454547,141.17615687779016L154.0909090909091,153.2873521205357L154.13636363636363,158.5238933454241L154.36363636363637,123.39374145507813L154.45454545454547,127.6267511858259L154.54545454545453,113.86513549804688L154.68181818181816,103.66227818080357L155.0909090909091,138.74770036969866L155.31818181818184,122.80283447265626L155.4090909090909,159.5259814453125L155.45454545454547,157.85259085518973L155.5,158.94508510044642L156,158.95293840680804L156.45454545454547,150.09701625279018L156.81818181818184,101.46133475167412L157.5909090909091,123.34742867606028L157.9090909090909,158.9555147879464L157.95454545454547,142.16683750697544L158.0909090909091,95.60161969866071L158.54545454545453,139.42722865513394L158.81818181818184,142.16017926897322L159,159.42882393973215L159.22727272727272,61.45549019949776L159.31818181818184,112.70056466238839L159.4090909090909,37.13678806849887L159.5,130.50220982142855L159.5909090909091,157.86693167550223L159.77272727272725,72.97295375279018L159.81818181818184,159.78531127929688L159.95454545454547,159.22685738699778L160.22727272727272,128.3021976143973L160.31818181818184,136.80957885742188L160.45454545454547,101.48931797572544L160.8181818181818,158.90910888671874L160.9090909090909,152.90851545061383L160.95454545454547,159.48972586495535L161,157.27121337890625L161.36363636363637,110.3552042061942L162.04545454545456,158.18427664620535L162.13636363636363,136.77557373046875L162.22727272727272,155.7044011579241L162.3181818181818,105.94358607700893L162.4090909090909,115.4149373953683L162.8181818181818,152.73431483677456L163,159.5264315359933L163.5909090909091,159.69017142159598L163.77272727272725,158.16127546037947L164.22727272727272,140.6621843610491L164.63636363636363,159.55931919642856L165.3181818181818,159.65818394252233L165.36363636363635,115.40360752650669L165.63636363636363,94.75048270089285L165.6818181818182,141.36117518833706L165.77272727272725,139.07708914620537L165.90909090909093,66.71746930803572L166.13636363636363,146.32171770368305L166.27272727272728,157.8799532645089L166.3181818181818,99.5035954938616L166.4090909090909,110.58416067940848L167.13636363636363,89.52510062081474L167.45454545454547,153.2103866141183L167.63636363636363,99.38154331752231L167.95454545454547,123.55125767299108L168,137.29126900809152L168.3181818181818,134.95835588727678L168.45454545454547,141.90960292271205L169.54545454545456,111.02025198800223L169.6818181818182,131.52157209123885L170,139.65654209681918L170.13636363636365,140.3675301688058L170.1818181818182,139.3228541782924L170.27272727272728,100.71955426897321L170.3181818181818,69.9344536481585L170.63636363636365,93.96491925920759L170.72727272727272,136.11060355050222L171.22727272727272,42.71630615234375L171.45454545454544,157.92690237862723L171.86363636363635,102.12633597237723L171.95454545454544,139.16867483956474L172.04545454545456,119.34317365373883L172.22727272727272,116.66930908203125L172.36363636363635,85.8050545828683L172.95454545454544,104.21065935407366L173,97.4059245954241L173.04545454545456,128.74693376813616L173.3181818181818,118.76032174246652L173.6818181818182,153.49225202287946L173.95454545454544,139.0525359235491L174,144.12780500139507L174.04545454545456,49.806864013671856L174.22727272727272,126.42986694335937L174.45454545454544,125.37806710379465L174.77272727272728,157.26828002929688L175.13636363636365,159.2757310267857L175.3181818181818,148.96053728376117L175.5,116.80497262137277L175.5909090909091,115.6169970703125L175.86363636363637,94.6280735560826L176,113.43921003069197L176.0909090909091,159.74862112862724L176.1818181818182,158.73183523995536L176.27272727272728,149.23993495396206L176.4090909090909,71.47154436383929L176.63636363636365,158.4203724888393L177.1818181818182,156.699613734654L177.4090909090909,144.68658482142857L177.63636363636365,140.77186680385046L178.45454545454544,81.3219341169085L178.63636363636365,143.99603707449776L178.77272727272728,158.1623153250558L179,139.4009837123326L179.27272727272728,135.09630092075892L179.3181818181818,159.62573085239956L179.5,157.98307059151784L179.59090909090907,139.13134835379464L179.86363636363637,156.58468540736607L179.9090909090909,158.0714435686384L180.1818181818182,138.3253601074219L180.5,139.42674752371653L180.77272727272728,139.68668265206475L180.9090909090909,139.57502912248884L181.1818181818182,159.09884538922992L181.6818181818182,134.2944255719866L181.77272727272728,73.12071541922433L182.0909090909091,159.7519735281808L182.22727272727275,130.58037039620535L182.36363636363637,138.53375209263393L182.45454545454544,97.87580374581472L182.6818181818182,114.75099155970982L183.4090909090909,140.36846139090403L183.5,152.272568359375L183.54545454545453,96.41108450753349L183.72727272727275,70.14630667550225L183.77272727272728,154.30305158342634L183.95454545454547,146.0872980608259L184.04545454545453,125.01420758928572L184.3181818181818,154.47393083844867L184.36363636363637,159.30056361607143L184.68181818181816,138.46633161272322L185.22727272727275,158.17552315848215L185.45454545454547,159.45092494419643L185.5909090909091,136.36537039620535L186,142.48730207170757L186.04545454545453,104.03042131696428L186.3181818181818,72.2277743094308L186.36363636363637,117.98005074637277L187,154.67290196010043L187.18181818181816,139.06406755719865L187.27272727272728,139.34680210658482L187.36363636363637,69.98003696986608L187.5,158.62826782226563L187.63636363636363,157.92001133510044L188.04545454545453,109.59720493861607L188.31818181818184,159.41934099469867L188.4090909090909,132.39702950613838L188.9090909090909,159.78866367885044L188.95454545454547,11.872895507812501L189.22727272727272,149.23864676339286L189.54545454545453,154.7491845703125L190.63636363636363,159.31706176757814L190.77272727272725,155.17793474469866L190.9090909090909,98.18119803292412L191,140.47905953543528L191.95454545454547,126.08219517299108L192.0909090909091,141.4499361746652L192.27272727272725,120.05811941964285L192.3181818181818,138.73188511439733L192.36363636363637,157.37408238002232L192.63636363636363,67.96796090262276L192.77272727272725,83.9068514578683L192.86363636363637,86.25059779575892L193.27272727272725,154.76855398995536L193.45454545454547,158.97263375418527L193.5909090909091,139.76062168666294L193.8181818181818,156.80425205775668L194.1818181818182,159.01388689313617L194.36363636363637,156.64925013950892L194.45454545454547,125.84748064313617L194.54545454545456,158.1496041434152L195.13636363636363,122.08630562918526L195.22727272727272,126.74794137137278L195.36363636363635,159.18253121512276L195.90909090909093,99.69634294782367L196.0909090909091,158.17355207170758L196.3181818181818,75.02975176130022L196.40909090909093,133.33022269112723L196.86363636363635,157.30361990792412L196.95454545454547,124.52027186802457L197.04545454545456,158.3639714704241L197.63636363636363,155.6570329938616L197.9090909090909,156.1089861188616L198.36363636363635,159.8536474609375L198.5909090909091,104.43747401646205L198.9090909090909,139.10577078683036L199.04545454545456,149.51514212472097L199.13636363636363,159.74837280273437L200.04545454545456,88.40479387555804L200.0909090909091,151.82356410435267L200.13636363636363,142.94066755022322L200.36363636363635,142.7172518484933L200.45454545454544,159.20283185686384L200.72727272727272,159.26781563895088L200.9090909090909,129.13919555664063L201.27272727272728,139.56211617606027L201.3181818181818,154.24398106166294L201.54545454545456,152.45563110351563L201.5909090909091,131.3445002092634L201.77272727272728,139.78579572405135L202.27272727272728,89.1843043736049L202.54545454545456,85.93379603794642L202.8181818181818,106.12705235072545L202.95454545454544,158.37511509486606L203.45454545454544,139.30949114118303L203.63636363636365,156.1489665876116L203.8181818181818,154.46382707868304L203.9090909090909,158.59014979771206L204.13636363636365,138.74077828543528L204.3181818181818,141.79565237862724L204.54545454545456,157.32140625L204.77272727272728,156.56855974469866L204.95454545454544,86.26167933872767L205,120.77869907924106L205.0909090909091,116.28854788643973L205.5,152.6111141531808L205.54545454545456,157.82401785714285L206.04545454545453,154.71541224888392L206.13636363636365,125.28893362862723L206.1818181818182,159.28321184430803L206.5,138.83627511160714L206.5909090909091,141.4521400669643L206.63636363636365,159.27459803989956L206.6818181818182,158.81699550083704L206.72727272727272,158.03556047712053L206.9090909090909,138.73840366908482L207,132.23640921456473L208,125.94113054547992L208.13636363636365,120.8813352748326L208.77272727272728,157.21586774553572L209,159.20155918666296L209.04545454545453,52.52314575195312L209.13636363636365,84.47363978794642L209.5,158.59157767159599L209.72727272727275,159.52362234933037L210.04545454545453,123.25460135323661L211.3181818181818,130.75910295758928L211.63636363636365,145.64203421456472L212.13636363636363,158.51237723214285L212.36363636363637,101.04015851702009L212.77272727272728,95.43002650669642L212.8181818181818,159.419154750279L213.27272727272728,135.79943568638393L213.3181818181818,88.8561727469308L213.36363636363637,147.03695835658482L213.45454545454544,116.35115705217635L213.54545454545453,159.43936226981026L213.63636363636363,152.17849940708706L213.6818181818182,125.16393258231027L213.72727272727275,101.29649291992187L213.8181818181818,159.65840122767858L214.63636363636363,158.53544049944196L214.86363636363637,76.14249232700892L215.0909090909091,124.63285661969866L215.22727272727275,142.65825892857143L215.36363636363637,157.91532418387277L215.5909090909091,99.2697966657366L216.0909090909091,71.1421866280692L216.5,158.31281633649553L216.63636363636363,159.45196480887276L216.68181818181816,159.07975533621652L217.0909090909091,120.34977818080357L217.36363636363637,99.40510323660715L218.04545454545453,139.61654610770088L218.0909090909091,141.34279907226562L218.36363636363637,100.89585013253348L218.54545454545453,128.5753560965402L218.68181818181816,159.68422712053572L218.95454545454547,139.07154837472098L219.04545454545453,159.07174682617188L219.45454545454547,55.95715140206474L219.63636363636363,136.95750348772322L219.9090909090909,139.06799421037948L220.13636363636363,112.8683864048549L220.4090909090909,156.26473301478794L220.5909090909091,119.14130022321429L220.81818181818184,159.4451979282924L221.13636363636363,123.7839390345982L221.31818181818184,138.38598266601562L221.72727272727272,142.0179661342076L221.86363636363637,145.16883370535714L222.4090909090909,159.20335954938616L222.72727272727272,40.7309406389509L222.86363636363637,97.51909912109376L222.95454545454547,128.09830653599332L223,150.55562761579242L223.1818181818182,159.55182285853795L223.22727272727272,82.83504586356028L223.27272727272725,105.9543106515067L223.8181818181818,141.4152947126116L224.0909090909091,146.2929429408482L224.13636363636363,99.39309047154018L224.22727272727272,95.42776053292411L224.45454545454547,99.98901053292411L224.5,159.83508510044643L224.63636363636363,98.44856741768973L224.9090909090909,119.94368774414062L225.0909090909091,159.52171334402902L225.4090909090909,98.35518136160714L225.86363636363635,99.58079380580357L226.13636363636363,138.81724714006697L226.3181818181818,153.85552176339286L226.45454545454547,135.86064801897322L226.8181818181818,159.71343645368304L226.90909090909093,158.33561575753347L227.5,138.93132184709822L227.6818181818182,156.2819140625L227.72727272727272,122.6391877092634L228.5909090909091,141.07881312779017L228.63636363636363,101.22859130859375L228.77272727272728,87.19737130301338L229.0909090909091,156.5400177873884L229.1818181818182,127.98784807477679L229.54545454545456,140.22047467912947L229.63636363636363,120.82305629185268L229.6818181818182,69.8554549734933L230.27272727272728,147.57382341657367L230.36363636363635,157.88833426339286L230.4090909090909,155.83292532784597L230.77272727272728,141.3230882045201L230.8181818181818,157.38687116350445L230.95454545454547,144.9014177594866L231.04545454545456,159.01554757254465L231.45454545454547,146.16778669084823L231.5909090909091,158.8371875L231.6818181818182,99.0555690220424L231.77272727272728,139.18523507254463L232.3181818181818,119.67568202427455L233.0909090909091,99.2345188685826L233.3181818181818,139.25338500976562L233.77272727272728,159.4998917061942L234.04545454545456,141.2835733468192L234.36363636363635,145.3473179408482L234.63636363636365,98.07184151785714L234.72727272727272,51.879570399693094L234.9090909090909,84.95388654436384L235.22727272727272,81.82286952427455L235.27272727272728,125.70326538085938L235.3181818181818,158.47678902762277L235.77272727272728,158.9453955078125L236.5,139.12383649553573L236.72727272727272,139.0990815080915L236.95454545454544,158.5620579310826L237.1818181818182,158.40208949497767L237.22727272727272,154.845736781529L237.3181818181818,156.04480939592634L237.45454545454544,119.47180646623883L237.9090909090909,121.5436049107143L238.0909090909091,125.24255876813616L238.13636363636365,122.0334432547433L238.4090909090909,159.64087873186384L238.5909090909091,159.19074148995537L238.63636363636365,159.57631399972098L239,134.59637433733258L239.0909090909091,141.79473667689732L239.13636363636365,99.44182442801339L239.1818181818182,147.41444475446428L239.27272727272728,141.97005475725447L239.4090909090909,149.18784859793527L239.45454545454544,159.36227260044643L239.5,152.35619210379465L239.54545454545453,156.94866908482143L239.72727272727272,87.70811558314733L239.8181818181818,96.27500191824777L239.95454545454544,98.68357683454241L240,159.16645211356027L240.04545454545453,159.81698835100445L240.09090909090907,143.46524047851562L240.1818181818182,46.17297930036273L240.3181818181818,159.09352190290178L240.36363636363637,158.41450578962053L240.63636363636365,114.88423392159598L240.9090909090909,40.43062151227679L241,143.8205948311942L241.13636363636365,104.96980712890624L241.6818181818182,156.02955287388392L242.04545454545453,108.25537597656249L242.09090909090907,157.21637991768972L242.13636363636365,130.37619995117188L242.4090909090909,139.6156769670759L242.72727272727275,158.3626832798549L242.95454545454544,103.36265747070313L243.27272727272728,124.64707327706473L243.45454545454544,72.42219796316964L243.6818181818182,159.34402064732143L243.72727272727275,121.99437848772321" style="fill: none;" fill="none"></path></g></g></g></g></g></g><g transform="translate(80, 178)" clip-path="url(#clip_1)"><clipPath id="clip_1"><rect width="250" height="22"></rect></clipPath><g><g><line x1="0" y1="0" x2="0" y2="5" style="visibility: inherit;" fill="rgb(0, 0, 0)" stroke="rgb(204, 204, 204)" stroke-width="1px"></line><line x1="22.727272727272727" y1="0" x2="22.727272727272727" y2="5" style="visibility: inherit;" fill="rgb(0, 0, 0)" stroke="rgb(204, 204, 204)" stroke-width="1px"></line><line x1="45.45454545454545" y1="0" x2="45.45454545454545" y2="5" style="visibility: inherit;" fill="rgb(0, 0, 0)" stroke="rgb(204, 204, 204)" stroke-width="1px"></line><line x1="68.18181818181817" y1="0" x2="68.18181818181817" y2="5" style="visibility: inherit;" fill="rgb(0, 0, 0)" stroke="rgb(204, 204, 204)" stroke-width="1px"></line><line x1="90.9090909090909" y1="0" x2="90.9090909090909" y2="5" style="visibility: inherit;" fill="rgb(0, 0, 0)" stroke="rgb(204, 204, 204)" stroke-width="1px"></line><line x1="113.63636363636363" y1="0" x2="113.63636363636363" y2="5" style="visibility: inherit;" fill="rgb(0, 0, 0)" stroke="rgb(204, 204, 204)" stroke-width="1px"></line><line x1="136.36363636363635" y1="0" x2="136.36363636363635" y2="5" style="visibility: inherit;" fill="rgb(0, 0, 0)" stroke="rgb(204, 204, 204)" stroke-width="1px"></line><line x1="159.0909090909091" y1="0" x2="159.0909090909091" y2="5" style="visibility: inherit;" fill="rgb(0, 0, 0)" stroke="rgb(204, 204, 204)" stroke-width="1px"></line><line x1="181.8181818181818" y1="0" x2="181.8181818181818" y2="5" style="visibility: inherit;" fill="rgb(0, 0, 0)" stroke="rgb(204, 204, 204)" stroke-width="1px"></line><line x1="204.54545454545456" y1="0" x2="204.54545454545456" y2="5" style="visibility: inherit;" fill="rgb(0, 0, 0)" stroke="rgb(204, 204, 204)" stroke-width="1px"></line><line x1="227.27272727272725" y1="0" x2="227.27272727272725" y2="5" style="visibility: inherit;" fill="rgb(0, 0, 0)" stroke="rgb(204, 204, 204)" stroke-width="1px"></line><line x1="250" y1="0" x2="250" y2="5" style="visibility: inherit;" fill="rgb(0, 0, 0)" stroke="rgb(204, 204, 204)" stroke-width="1px"></line></g><g transform="translate(0, 8)"><text x="0" y="0" dx="0em" dy="0.95em" style="text-anchor: middle; visibility: hidden; font-family: &quot;Helvetica Neue&quot;, sans-serif; font-size: 12px; font-weight: 200;" fill="rgb(50, 49, 63)" stroke="none" stroke-width="1px">-500</text><text x="22.727272727272727" y="0" dx="0em" dy="0.95em" style="text-anchor: middle; visibility: inherit; font-family: &quot;Helvetica Neue&quot;, sans-serif; font-size: 12px; font-weight: 200;" fill="rgb(50, 49, 63)" stroke="none" stroke-width="1px">0</text><text x="45.45454545454545" y="0" dx="0em" dy="0.95em" style="text-anchor: middle; visibility: hidden; font-family: &quot;Helvetica Neue&quot;, sans-serif; font-size: 12px; font-weight: 200;" fill="rgb(50, 49, 63)" stroke="none" stroke-width="1px">500</text><text x="68.18181818181817" y="0" dx="0em" dy="0.95em" style="text-anchor: middle; visibility: inherit; font-family: &quot;Helvetica Neue&quot;, sans-serif; font-size: 12px; font-weight: 200;" fill="rgb(50, 49, 63)" stroke="none" stroke-width="1px">1k</text><text x="90.9090909090909" y="0" dx="0em" dy="0.95em" style="text-anchor: middle; visibility: hidden; font-family: &quot;Helvetica Neue&quot;, sans-serif; font-size: 12px; font-weight: 200;" fill="rgb(50, 49, 63)" stroke="none" stroke-width="1px">1.5k</text><text x="113.63636363636363" y="0" dx="0em" dy="0.95em" style="text-anchor: middle; visibility: inherit; font-family: &quot;Helvetica Neue&quot;, sans-serif; font-size: 12px; font-weight: 200;" fill="rgb(50, 49, 63)" stroke="none" stroke-width="1px">2k</text><text x="136.36363636363635" y="0" dx="0em" dy="0.95em" style="text-anchor: middle; visibility: hidden; font-family: &quot;Helvetica Neue&quot;, sans-serif; font-size: 12px; font-weight: 200;" fill="rgb(50, 49, 63)" stroke="none" stroke-width="1px">2.5k</text><text x="159.0909090909091" y="0" dx="0em" dy="0.95em" style="text-anchor: middle; visibility: inherit; font-family: &quot;Helvetica Neue&quot;, sans-serif; font-size: 12px; font-weight: 200;" fill="rgb(50, 49, 63)" stroke="none" stroke-width="1px">3k</text><text x="181.8181818181818" y="0" dx="0em" dy="0.95em" style="text-anchor: middle; visibility: hidden; font-family: &quot;Helvetica Neue&quot;, sans-serif; font-size: 12px; font-weight: 200;" fill="rgb(50, 49, 63)" stroke="none" stroke-width="1px">3.5k</text><text x="204.54545454545456" y="0" dx="0em" dy="0.95em" style="text-anchor: middle; visibility: inherit; font-family: &quot;Helvetica Neue&quot;, sans-serif; font-size: 12px; font-weight: 200;" fill="rgb(50, 49, 63)" stroke="none" stroke-width="1px">4k</text><text x="227.27272727272725" y="0" dx="0em" dy="0.95em" style="text-anchor: middle; visibility: hidden; font-family: &quot;Helvetica Neue&quot;, sans-serif; font-size: 12px; font-weight: 200;" fill="rgb(50, 49, 63)" stroke="none" stroke-width="1px">4.5k</text><text x="250" y="0" dx="0em" dy="0.95em" style="text-anchor: middle; visibility: hidden; font-family: &quot;Helvetica Neue&quot;, sans-serif; font-size: 12px; font-weight: 200;" fill="rgb(50, 49, 63)" stroke="none" stroke-width="1px">5k</text></g><line x1="0" y1="0" x2="250" y2="0" fill="rgb(0, 0, 0)" stroke="rgb(204, 204, 204)" stroke-width="1px"></line></g></g></g></g></svg>