<svg viewBox="0 0 330 200" xmlns="http://www.w3.org/2000/svg"><g><g><g><g><g><line x1="80" y1="178" x2="75" y2="178" style="visibility: inherit;" fill="rgb(0, 0, 0)" stroke="rgb(204, 204, 204)" stroke-width="1px"></line><line x1="80" y1="155.75" x2="75" y2="155.75" style="visibility: inherit;" fill="rgb(0, 0, 0)" stroke="rgb(204, 204, 204)" stroke-width="1px"></line><line x1="80" y1="133.5" x2="75" y2="133.5" style="visibility: inherit;" fill="rgb(0, 0, 0)" stroke="rgb(204, 204, 204)" stroke-width="1px"></line><line x1="80" y1="111.25" x2="75" y2="111.25" style="visibility: inherit;" fill="rgb(0, 0, 0)" stroke="rgb(204, 204, 204)" stroke-width="1px"></line><line x1="80" y1="89" x2="75" y2="89" style="visibility: inherit;" fill="rgb(0, 0, 0)" stroke="rgb(204, 204, 204)" stroke-width="1px"></line><line x1="80" y1="66.75" x2="75" y2="66.75" style="visibility: inherit;" fill="rgb(0, 0, 0)" stroke="rgb(204, 204, 204)" stroke-width="1px"></line><line x1="80" y1="44.50000000000003" x2="75" y2="44.50000000000003" style="visibility: inherit;" fill="rgb(0, 0, 0)" stroke="rgb(204, 204, 204)" stroke-width="1px"></line><line x1="80" y1="22.25" x2="75" y2="22.25" style="visibility: inherit;" fill="rgb(0, 0, 0)" stroke="rgb(204, 204, 204)" stroke-width="1px"></line><line x1="80" y1="0" x2="75" y2="0" style="visibility: inherit;" fill="rgb(0, 0, 0)" stroke="rgb(204, 204, 204)" stroke-width="1px"></line></g><g transform="translate(70, 0)"><text x="0" y="178" dx="0em" dy="0.3em" style="text-anchor: end; visibility: hidden; font-family: &quot;Helvetica Neue&quot;, sans-serif; font-size: 12px; font-weight: 200;" fill="rgb(50, 49, 63)" stroke="none" stroke-width="1px">-2e+35</text><text x="0" y="155.75" dx="0em" dy="0.3em" style="text-anchor: end; visibility: inherit; font-family: &quot;Helvetica Neue&quot;, sans-serif; font-size: 12px; font-weight: 200;" fill="rgb(50, 49, 63)" stroke="none" stroke-width="1px">0</text><text x="0" y="133.5" dx="0em" dy="0.3em" style="text-anchor: end; visibility: hidden; font-family: &quot;Helvetica Neue&quot;, sans-serif; font-size: 12px; font-weight: 200;" fill="rgb(50, 49, 63)" stroke="none" stroke-width="1px">2e+35</text><text x="0" y="111.25" dx="0em" dy="0.3em" style="text-anchor: end; visibility: inherit; font-family: &quot;Helvetica Neue&quot;, sans-serif; font-size: 12px; font-weight: 200;" fill="rgb(50, 49, 63)" stroke="none" stroke-width="1px">4e+35</text><text x="0" y="89" dx="0em" dy="0.3em" style="text-anchor: end; visibility: hidden; font-family: &quot;Helvetica Neue&quot;, sans-serif; font-size: 12px; font-weight: 200;" fill="rgb(50, 49, 63)" stroke="none" stroke-width="1px">6e+35</text><text x="0" y="66.75" dx="0em" dy="0.3em" style="text-anchor: end; visibility: inherit; font-family: &quot;Helvetica Neue&quot;, sans-serif; font-size: 12px; font-weight: 200;" fill="rgb(50, 49, 63)" stroke="none" stroke-width="1px">8e+35</text><text x="0" y="44.50000000000003" dx="0em" dy="0.3em" style="text-anchor: end; visibility: hidden; font-family: &quot;Helvetica Neue&quot;, sans-serif; font-size: 12px; font-weight: 200;" fill="rgb(50, 49, 63)" stroke="none" stroke-width="1px">1e+36</text><text x="0" y="22.25" dx="0em" dy="0.3em" style="text-anchor: end; visibility: inherit; font-family: &quot;Helvetica Neue&quot;, sans-serif; font-size: 12px; font-weight: 200;" fill="rgb(50, 49, 63)" stroke="none" stroke-width="1px">1.2e+36</text><text x="0" y="0" dx="0em" dy="0.3em" style="text-anchor: end; visibility: hidden; font-family: &quot;Helvetica Neue&quot;, sans-serif; font-size: 12px; font-weight: 200;" fill="rgb(50, 49, 63)" stroke="none" stroke-width="1px">1.4e+36</text></g><line x1="80" y1="0" x2="80" y2="178" fill="rgb(0, 0, 0)" stroke="rgb(204, 204, 204)" stroke-width="1px"></line></g></g><g transform="translate(80, 0)" clip-path="url(#clip_0)"><clipPath id="clip_0"><rect width="250" height="178"></rect></clipPath><g><g><g><line x1="0" y1="0" x2="0" y2="178" fill="rgb(0, 0, 0)" stroke="rgb(60, 60, 60)" stroke-width="1px" opacity="0.25"></line><line x1="22.727272727272727" y1="0" x2="22.727272727272727" y2="178" fill="rgb(0, 0, 0)" stroke="rgb(60, 60, 60)" stroke-width="1px" opacity="0.25"></line><line x1="45.45454545454545" y1="0" x2="45.45454545454545" y2="178" fill="rgb(0, 0, 0)" stroke="rgb(60, 60, 60)" stroke-width="1px" opacity="0.25"></line><line x1="68.18181818181817" y1="0" x2="68.18181818181817" y2="178" fill="rgb(0, 0, 0)" stroke="rgb(60, 60, 60)" stroke-width="1px" opacity="0.25"></line><line x1="90.9090909090909" y1="0" x2="90.9090909090909" y2="178" fill="rgb(0, 0, 0)" stroke="rgb(60, 60, 60)" stroke-width="1px" opacity="0.25"></line><line x1="113.63636363636363" y1="0" x2="113.63636363636363" y2="178" fill="rgb(0, 0, 0)" stroke="rgb(60, 60, 60)" stroke-width="1px" opacity="0.25"></line><line x1="136.36363636363635" y1="0" x2="136.36363636363635" y2="178" fill="rgb(0, 0, 0)" stroke="rgb(60, 60, 60)" stroke-width="1px" opacity="0.25"></line><line x1="159.0909090909091" y1="0" x2="159.0909090909091" y2="178" fill="rgb(0, 0, 0)" stroke="rgb(60, 60, 60)" stroke-width="1px" opacity="0.25"></line><line x1="181.8181818181818" y1="0" x2="181.8181818181818" y2="178" fill="rgb(0, 0, 0)" stroke="rgb(60, 60, 60)" stroke-width="1px" opacity="0.25"></line><line x1="204.54545454545456" y1="0" x2="204.54545454545456" y2="178" fill="rgb(0, 0, 0)" stroke="rgb(60, 60, 60)" stroke-width="1px" opacity="0.25"></line><line x1="227.27272727272725" y1="0" x2="227.27272727272725" y2="178" fill="rgb(0, 0, 0)" stroke="rgb(60, 60, 60)" stroke-width="1px" opacity="0.25"></line><line x1="250" y1="0" x2="250" y2="178" fill="rgb(0, 0, 0)" stroke="rgb(60, 60, 60)" stroke-width="1px" opacity="0.25"></line></g><g><line x1="0" y1="178" x2="250" y2="178" fill="rgb(0, 0, 0)" stroke="rgb(60, 60, 60)" stroke-width="1px" opacity="0.25"></line><line x1="0" y1="155.75" x2="250" y2="155.75" fill="rgb(0, 0, 0)" stroke="rgb(60, 60, 60)" stroke-width="1px" opacity="0.25"></line><line x1="0" y1="133.5" x2="250" y2="133.5" fill="rgb(0, 0, 0)" stroke="rgb(60, 60, 60)" stroke-width="1px" opacity="0.25"></line><line x1="0" y1="111.25" x2="250" y2="111.25" fill="rgb(0, 0, 0)" stroke="rgb(60, 60, 60)" stroke-width="1px" opacity="0.25"></line><line x1="0" y1="89" x2="250" y2="89" fill="rgb(0, 0, 0)" stroke="rgb(60, 60, 60)" stroke-width="1px" opacity="0.25"></line><line x1="0" y1="66.75" x2="250" y2="66.75" fill="rgb(0, 0, 0)" stroke="rgb(60, 60, 60)" stroke-width="1px" opacity="0.25"></line><line x1="0" y1="44.50000000000003" x2="250" y2="44.50000000000003" fill="rgb(0, 0, 0)" stroke="rgb(60, 60, 60)" stroke-width="1px" opacity="0.25"></line><line x1="0" y1="22.25" x2="250" y2="22.25" fill="rgb(0, 0, 0)" stroke="rgb(60, 60, 60)" stroke-width="1px" opacity="0.25"></line><line x1="0" y1="0" x2="250" y2="0" fill="rgb(0, 0, 0)" stroke="rgb(60, 60, 60)" stroke-width="1px" opacity="0.25"></line></g></g></g><g><g><line x1="0" y1="155.75" x2="250" y2="155.75" fill="rgb(0, 0, 0)" stroke="rgb(153, 153, 153)" stroke-width="1.5px"></line></g></g><g><g><line x1="22.727272727272727" y1="0" x2="22.727272727272727" y2="178" fill="rgb(0, 0, 0)" stroke="rgb(153, 153, 153)" stroke-width="1.5px"></line></g></g><g><g><g><g><g><path stroke="rgb(255, 112, 67)" stroke-width="2px" d="M22.954545454545453,155.75L23.545454545454547,155.75L23.818181818181817,155.75L24.545454545454543,155.75L24.636363636363637,155.75L24.772727272727273,155.75L24.863636363636363,155.75L25.136363636363637,155.75L25.272727272727273,155.75L25.954545454545457,155.75L26.09090909090909,155.75L26.318181818181817,155.75L26.68181818181818,155.75L27,155.75L27.363636363636363,155.75L27.5,155.75L27.545454545454547,155.75L27.863636363636363,155.75L28.09090909090909,155.75L28.454545454545453,155.75L29.045454545454543,155.75L29.545454545454543,155.75L29.772727272727273,155.75L29.90909090909091,155.75L30.318181818181817,155.75L30.363636363636363,155.75L30.818181818181817,155.75L31.045454545454547,155.75L31.136363636363637,155.75L31.181818181818183,155.75L31.363636363636363,155.75L31.72727272727273,155.75L32.09090909090909,155.75L32.13636363636363,155.75L32.36363636363637,155.75L32.86363636363637,155.75L33.13636363636364,155.75L33.36363636363637,155.75L33.5,155.75L34.04545454545455,155.75L34.31818181818182,155.75L34.54545454545455,155.75L34.68181818181818,155.75L34.86363636363636,155.75L35.04545454545455,155.75L35.13636363636364,155.75L36,155.75L36.22727272727273,155.75L36.27272727272727,155.75L36.5,155.75L36.72727272727273,155.75L36.81818181818182,155.75L37.18181818181819,155.75L37.22727272727273,155.75L37.54545454545455,155.75L37.72727272727273,155.75L38.13636363636363,155.75L38.5,155.75L39.22727272727273,155.75L39.40909090909091,155.75L39.68181818181818,155.75L39.86363636363637,155.75L39.95454545454546,155.75L40.54545454545455,155.75L41.86363636363637,155.75L41.90909090909091,155.75L42,155.75L42.27272727272727,155.75L42.68181818181818,155.75L42.77272727272727,155.75L42.81818181818182,155.75L42.95454545454545,155.75L43.22727272727273,155.75L43.63636363636364,155.75L43.77272727272727,155.75L43.81818181818182,155.75L44.27272727272727,155.75L45.04545454545455,155.75L45.13636363636363,155.75L45.77272727272727,155.75L46,155.75L46.09090909090909,155.75L46.22727272727273,155.75L46.59090909090909,155.75L46.86363636363637,155.75L46.95454545454546,155.75L47.09090909090909,155.75L47.36363636363637,155.75L47.59090909090909,155.75L48.04545454545455,155.75L48.31818181818181,155.75L48.59090909090909,155.75L48.77272727272727,155.75L49.04545454545455,155.75L49.13636363636364,155.75L49.18181818181818,155.75L49.27272727272727,155.75L49.36363636363637,155.75L49.40909090909091,155.75L49.63636363636364,155.75L49.68181818181818,155.75L50.090909090909086,155.75L50.36363636363636,155.75L50.45454545454545,155.75L50.68181818181818,155.75L50.909090909090914,155.75L51,155.75L51.54545454545455,155.75L51.86363636363636,155.75L51.909090909090914,155.75L52,155.75L52.09090909090909,155.75L52.13636363636363,155.75L52.22727272727273,155.75L52.772727272727266,155.75L52.909090909090914,155.75L53.09090909090909,155.75L53.22727272727273,155.75L53.36363636363636,155.75L53.54545454545455,155.75L53.59090909090909,155.75L53.77272727272727,155.75L54,155.75L54.04545454545454,155.75L54.5,155.75L54.68181818181818,155.75L54.81818181818182,155.75L55.18181818181818,155.75L55.36363636363637,155.75L55.5,155.75L55.54545454545455,155.75L55.59090909090909,155.75L55.90909090909091,155.75L56.18181818181818,155.75L56.27272727272727,155.75L56.31818181818181,155.75L56.5,155.75L56.68181818181818,155.75L56.81818181818181,155.75L56.86363636363637,155.75L56.90909090909091,155.75L57.090909090909086,155.75L57.5,155.75L57.68181818181818,155.75L57.72727272727273,155.75L57.77272727272727,155.75L57.86363636363637,155.75L57.90909090909091,155.75L58.18181818181818,155.75L58.36363636363636,155.75L58.409090909090914,155.75L58.5,155.75L58.590909090909086,155.75L58.72727272727273,155.75L58.77272727272727,155.75L58.81818181818182,155.75L58.86363636363636,155.75L59,155.75L59.18181818181818,155.75L59.409090909090914,155.75L59.45454545454545,155.75L59.5,155.75L59.77272727272727,155.75L60.54545454545455,155.75L60.72727272727273,155.75L60.81818181818182,155.75L61.04545454545455,155.75L62.13636363636363,155.75L62.22727272727273,155.75L62.45454545454546,155.75L62.54545454545454,155.75L62.72727272727273,155.75L62.81818181818181,155.75L63.18181818181819,155.75L63.45454545454546,155.75L63.63636363636363,155.75L63.95454545454546,155.75L64.04545454545455,155.75L64.31818181818181,155.75L64.40909090909092,155.75L64.54545454545455,155.75L64.5909090909091,155.75L64.68181818181819,155.75L65.04545454545455,155.75L65.0909090909091,155.75L65.22727272727273,155.75L65.54545454545455,155.75L65.68181818181819,155.75L66.0909090909091,155.75L66.27272727272728,155.75L66.4090909090909,155.75L66.45454545454547,155.75L66.86363636363636,155.75L66.9090909090909,155.75L67.0909090909091,155.75L67.13636363636363,155.75L67.18181818181817,155.75L67.22727272727273,155.75L67.4090909090909,155.75L67.45454545454547,155.75L67.5909090909091,155.75L67.63636363636364,155.75L68,155.75L68.18181818181817,155.75L68.27272727272728,155.75L68.36363636363636,155.75L68.4090909090909,155.75L68.81818181818181,155.75L68.95454545454545,155.75L69.31818181818183,155.75L69.4090909090909,155.75L69.5909090909091,155.75L69.63636363636364,155.75L69.86363636363636,155.75L70.18181818181817,155.75L70.68181818181817,155.75L70.77272727272728,155.75L71.04545454545455,155.75L71.18181818181817,155.75L71.27272727272728,155.75L71.45454545454545,155.75L71.63636363636364,155.75L71.72727272727272,155.75L71.95454545454545,155.75L72,155.75L72.04545454545455,155.75L72.4090909090909,155.75L72.68181818181819,155.75L72.86363636363636,155.75L72.9090909090909,155.75L72.95454545454545,155.75L73.36363636363637,155.75L73.5909090909091,155.75L74.22727272727272,155.75L74.31818181818183,155.75L75.22727272727272,155.75L75.27272727272727,155.75L75.45454545454545,155.75L75.5,155.75L75.54545454545455,155.75L76.36363636363637,155.75L76.59090909090908,155.75L76.9090909090909,155.75L76.95454545454545,155.75L77.22727272727273,155.75L77.31818181818181,155.75L77.54545454545455,155.75L77.63636363636364,155.75L77.72727272727273,155.75L77.90909090909092,155.75L78.72727272727273,155.75L78.81818181818181,155.75L78.90909090909092,155.75L79.27272727272727,155.75L79.40909090909092,155.75L79.77272727272727,155.75L79.90909090909092,155.75L80.04545454545455,155.75L80.63636363636363,155.75L80.95454545454545,155.75L81.22727272727273,155.75L81.4090909090909,155.75L81.5,155.75L81.54545454545455,155.75L81.81818181818181,155.75L82.27272727272728,155.75L82.5,155.75L82.54545454545455,155.75L82.68181818181817,155.75L82.95454545454547,155.75L83.04545454545455,155.75L83.18181818181817,155.75L83.31818181818181,155.75L83.45454545454545,155.75L83.5,155.75L84.31818181818181,155.75L84.81818181818183,155.75L85,155.75L85.68181818181817,155.75L85.81818181818183,155.75L85.86363636363636,155.75L85.95454545454545,155.75L86,155.75L86.95454545454545,155.75L87,155.75L87.22727272727272,155.75L87.36363636363636,155.75L87.54545454545455,155.75L87.63636363636364,155.75L87.81818181818183,155.75L88,155.75L88.18181818181819,155.75L89.31818181818183,155.75L89.36363636363637,155.75L89.86363636363637,155.75L90.22727272727272,155.75L90.27272727272727,155.75L90.4090909090909,155.75L90.5,155.75L90.54545454545455,155.75L90.95454545454545,155.75L91.27272727272727,155.75L91.95454545454545,155.75L92,155.75L92.13636363636364,155.75L92.45454545454545,155.75L93,155.75L93.22727272727273,155.75L93.27272727272727,155.75L93.36363636363636,155.75L93.68181818181819,155.75L94,155.75L94.04545454545455,155.75L94.45454545454545,155.75L94.63636363636363,155.75L94.72727272727273,155.75L94.90909090909092,155.75L95.31818181818181,155.75L95.63636363636363,155.75L95.68181818181819,155.75L95.9090909090909,155.75L96.27272727272728,155.75L96.68181818181819,155.75L96.72727272727273,155.75L96.9090909090909,155.75L97.13636363636363,155.75L97.27272727272728,155.75L97.36363636363636,155.75L97.5,155.75L97.63636363636363,155.75L97.81818181818181,155.75L98.18181818181817,155.75L98.54545454545455,155.75L98.72727272727273,155.75L98.86363636363636,155.75L98.9090909090909,155.75L99.18181818181817,155.75L99.22727272727273,155.75L99.5909090909091,155.75L99.77272727272728,155.75L99.81818181818181,155.75L99.86363636363636,155.75L99.95454545454545,155.75L100.0909090909091,155.75L100.4090909090909,155.75L100.45454545454545,155.75L100.81818181818183,155.75L100.86363636363636,155.75L101.27272727272728,155.75L101.45454545454545,155.75L101.54545454545455,155.75L101.5909090909091,155.75L101.68181818181817,155.75L101.9090909090909,155.75L101.95454545454545,155.75L102.04545454545455,155.75L102.0909090909091,155.75L102.13636363636364,155.75L102.36363636363636,155.74999999999994L103,155.74999999996277L103.4090909090909,155.749999999585L103.68181818181819,155.74999999820525L104,155.74999999054424L104.04545454545455,155.74999998288382L104.45454545454545,155.7499999326896L104.77272727272727,155.74999980979078L105.18181818181819,155.7499994849331L105.31818181818183,155.749999126241L105.63636363636364,155.74999843141003L105.72727272727272,155.74999774589153L105.9090909090909,155.74999684565674L106.36363636363637,155.74999440291276L106.4090909090909,155.74999250090195L106.54545454545455,155.74999038532906L106.77272727272727,155.74998704381093L106.95454545454545,155.74998281817304L107.54545454545455,155.74997002346822L107.63636363636364,155.74995908965417L107.68181818181819,155.74995104744113L107.95454545454545,155.74994143089364L108,155.74993395262484L108.04545454545455,155.7499276175557L108.13636363636364,155.74992140466665L108.22727272727273,155.74991491668936L108.77272727272727,155.74989819522338L109.59090909090908,155.74985810286842L109.86363636363636,155.74981803095608L110.18181818181819,155.749773985841L110.45454545454545,155.74972532385516L110.63636363636363,155.74967670951577L110.72727272727273,155.7496368991042L110.81818181818181,155.74960390306953L111.0909090909091,155.7495587923251L111.22727272727273,155.74951222455815L111.31818181818181,155.74947298551504L111.45454545454545,155.74943283461548L111.5909090909091,155.74938861493627L111.72727272727273,155.7493398242782L112.13636363636363,155.74925308602346L112.22727272727273,155.74918238373996L112.77272727272728,155.74904533409764L112.81818181818181,155.74894235738495L112.86363636363636,155.74886276745562L113.5,155.74868566240426L113.68181818181817,155.74853229802028L113.86363636363636,155.74838602752453L114.04545454545455,155.74825415746184L114.0909090909091,155.74814868197132L114.22727272727273,155.74804827080783L114.31818181818181,155.74796363881458L114.4090909090909,155.74788187526036L114.77272727272728,155.74772081075486L114.86363636363636,155.74759674093656L115,155.74749876055594L115.13636363636364,155.74736010678677L115.27272727272728,155.74724298315493L115.36363636363636,155.7471292307662L115.5,155.74699477467237L115.63636363636364,155.74684825871213L116.36363636363636,155.74651085947613L116.68181818181817,155.74615062769786L116.9090909090909,155.74577621881298L116.95454545454545,155.7454989651853L117,155.74530329591593L117.0909090909091,155.74514393575413L117.13636363636364,155.74499728299276L117.22727272727272,155.74485716552698L117.31818181818183,155.74467330809105L117.5,155.74452200489986L117.68181818181817,155.74432193583294L117.9090909090909,155.74400804832948L118,155.74380845602295L118.31818181818183,155.7434116443095L118.4090909090909,155.74308920030097L118.45454545454545,155.7428679983056L118.68181818181819,155.74256004487484L118.86363636363636,155.7421949399855L119.0909090909091,155.74178897425497L119.18181818181819,155.74146382010696L119.22727272727272,155.741181466911L119.68181818181819,155.7405848786127L119.72727272727272,155.74023861928717L119.9090909090909,155.73973347961376L120.04545454545453,155.73929275377265L120.18181818181819,155.7388914298883L120.22727272727272,155.73855918343466L120.36363636363637,155.73821637735807L120.4090909090909,155.7378514651787L120.5,155.737632079452L120.72727272727272,155.7372524334756L120.77272727272727,155.73692306587068L121.0909090909091,155.73634892741356L121.13636363636364,155.73575197780627L121.31818181818183,155.735131040687L121.4090909090909,155.73459470576614L121.5,155.7342939641474L121.68181818181819,155.73371407666193L122.13636363636364,155.7326822891806L122.22727272727272,155.73192743988292L122.31818181818181,155.7312692718662L122.36363636363637,155.7307653713314L122.54545454545455,155.73008143563095L122.68181818181819,155.72949045873133L123.04545454545455,155.72843431450045L123.22727272727273,155.72727105396692L123.86363636363637,155.72553539966725L124.04545454545455,155.72399233390354L124.13636363636364,155.72254442280266L124.36363636363636,155.72093636181074L124.4090909090909,155.72009387912388L124.5,155.71894760874346L124.59090909090908,155.71800553087877L124.63636363636364,155.71751293760576L124.72727272727273,155.7167109250889L124.81818181818181,155.71588340233058L124.86363636363636,155.71527126248228L125.18181818181817,155.71420117007762L125.31818181818183,155.7129783445581L125.54545454545455,155.7117448708343L126.0909090909091,155.70912128438528L126.27272727272728,155.70657709600522L126.40909090909092,155.70455329733247L126.86363636363637,155.70212708700205L127.13636363636363,155.69939431879786L127.18181818181817,155.69703161256285L127.27272727272727,155.69506794549508L127.40909090909092,155.6934408857559L127.54545454545455,155.69227473366868L127.5909090909091,155.69082458684107L127.63636363636363,155.69005615402284L128.0909090909091,155.68696647922908L128.13636363636363,155.68503579143584L128.1818181818182,155.68362367792605L128.27272727272725,155.6823737771403L128.81818181818184,155.67843616975495L128.86363636363637,155.67608370155804L128.9090909090909,155.67463543419626L128.95454545454547,155.67334890183815L129.3181818181818,155.66991905979563L129.72727272727272,155.66573395518122L130.5,155.6593564979643L131.13636363636363,155.6501944003149L131.3181818181818,155.64259957620817L131.36363636363637,155.63774501156587L131.45454545454547,155.63310064687957L131.8181818181818,155.62836720317418L131.9090909090909,155.62403004935317L132.0909090909091,155.6191990715068L132.54545454545456,155.61319507137475L132.90909090909093,155.60558354677477L132.95454545454547,155.60005539528123L133.45454545454547,155.59200497532157L133.8181818181818,155.5822618260927L134.0909090909091,155.57385909562316L134.13636363636363,155.5668209469575L134.22727272727272,155.5610117412716L134.3181818181818,155.55695946771039L134.54545454545456,155.55182547264351L135.4090909090909,155.53877786169673L135.6818181818182,155.5270089993552L135.72727272727272,155.5184247414232L136.1818181818182,155.5042610548589L136.27272727272728,155.4948007993988L136.4090909090909,155.4886930143844L136.45454545454547,155.4814519640205L136.5,155.47800995568502L136.95454545454547,155.4668210058849L137,155.46092425307637L137.13636363636363,155.45345328562362L137.4090909090909,155.44488860116928L137.63636363636363,155.43443187896492L137.72727272727272,155.4292338933256L137.8181818181818,155.42227365391994L137.9090909090909,155.41384313963704L138.3181818181818,155.4040417589486L138.5,155.39368860079338L138.6818181818182,155.38403684258714L138.77272727272728,155.37784789877367L138.9090909090909,155.3667672666589L139.3181818181818,155.35356868669214L139.36363636363635,155.34528350737392L139.54545454545456,155.33457339007478L139.8181818181818,155.32086960184265L139.9090909090909,155.30869231104964L140.45454545454544,155.28869194001467L140.5,155.2770479435681L140.54545454545456,155.26814973890686L140.5909090909091,155.2585244541458L140.72727272727272,155.24678691366182L140.9090909090909,155.2385226636116L141.1818181818182,155.2256885684562L141.22727272727272,155.21651648876454L141.36363636363635,155.2074740263676L141.72727272727272,155.18874242794436L141.95454545454544,155.17315105484278L142.0909090909091,155.15741370984477L142.22727272727272,155.13835649238186L142.27272727272728,155.1312585711845L142.54545454545456,155.11548996395004L142.63636363636365,155.10493041403396L142.9090909090909,155.08558374761535L143.04545454545456,155.07192840039698L143.1818181818182,155.05926760270467L143.22727272727272,155.04941074143917L143.4090909090909,155.03407059804582L144.27272727272728,155.00333310356876L144.45454545454544,154.96853509391906L144.54545454545453,154.94245876011422L144.77272727272728,154.92051876800343L145,154.89141629041598L145.5909090909091,154.8515582103778L145.77272727272728,154.8123979054762L145.9090909090909,154.79161112833975L146.59090909090907,154.73980796019967L147.09090909090907,154.6859870851255L147.13636363636365,154.65014599222667L147.27272727272728,154.61678896377174L147.54545454545453,154.57997565638271L147.86363636363637,154.54412076665838L147.9090909090909,154.51217986650752L147.95454545454544,154.48938657041413L148,154.468034072911L148.04545454545453,154.45388862912654L148.09090909090907,154.4520449892499L148.45454545454544,154.41484178372053L149.5,154.33750454034555L149.54545454545453,154.27553844634062L149.5909090909091,154.24026141365772L149.9090909090909,154.20405578896052L150.4090909090909,154.14744447560517L150.5,154.11025460504084L151.04545454545453,154.03216964700582L151.0909090909091,153.98726801806254L151.22727272727275,153.93727915435923L151.3181818181818,153.89772015212742L151.36363636363637,153.89136837153077L151.45454545454544,153.85695796322156L152.3181818181818,153.76962310890804L152.54545454545453,153.70538661885197L152.68181818181816,153.6461248443812L152.8181818181818,153.59124245203208L153.22727272727275,153.53980160258874L153.27272727272728,153.48001128254205L153.54545454545453,153.42270048254153L153.63636363636363,153.36248606241315L153.68181818181816,153.3344308523728L153.95454545454547,153.27200982880748L154.0909090909091,153.22992260363256L154.13636363636363,153.20610205207865L154.36363636363637,153.16849713312885L154.45454545454547,153.1212027916846L154.54545454545453,153.09048977142356L154.68181818181816,153.0462008504008L155.0909090909091,152.9849281803513L155.31818181818184,152.9296953992042L155.4090909090909,152.88710894352403L155.45454545454547,152.84755629695135L155.5,152.81283379965836L156,152.74213539874657L156.45454545454547,152.66164093259545L156.81818181818184,152.55023885471647L157.5909090909091,152.37911374002886L157.9090909090909,152.23049785428327L157.95454545454547,152.12575506960076L158.0909090909091,152.03330251019176L158.54545454545453,151.91062112391492L158.81818181818184,151.79671538146007L159,151.6767598893005L159.22727272727272,151.58346335322264L159.31818181818184,151.48358841389853L159.4090909090909,151.4102407855932L159.5,151.37688102387608L159.5909090909091,151.33017041202774L159.77272727272725,151.25168129984465L159.81818181818184,151.21507703870773L159.95454545454547,151.1761950958943L160.22727272727272,151.08886636040634L160.31818181818184,151.0310210839677L160.45454545454547,150.98557146718258L160.8181818181818,150.85857879369996L160.9090909090909,150.7579266870934L160.95454545454547,150.71920434919377L161,150.67899965767447L161.36363636363637,150.5780358423012L162.04545454545456,150.41384105633543L162.13636363636363,150.30295292619905L162.22727272727272,150.17835158353367L162.3181818181818,150.046162525941L162.4090909090909,149.99183392774245L162.8181818181818,149.86415616151766L163,149.71980254119242L163.5909090909091,149.53737596057496L163.77272727272725,149.33545065389683L164.22727272727272,149.10654714630456L164.63636363636363,148.94936210367453L165.3181818181818,148.62431701546626L165.36363636363635,148.4256518586428L165.63636363636363,148.2330928359835L165.6818181818182,148.05480927727567L165.77272727272725,147.9128971773942L165.90909090909093,147.79265226901063L166.13636363636363,147.69015389470454L166.27272727272728,147.575016386196L166.3181818181818,147.48303816892644L166.4090909090909,147.37472465655654L167.13636363636363,147.08796075875694L167.45454545454547,146.92691990037528L167.63636363636363,146.66714444026263L167.95454545454547,146.44709940228938L168,146.285076225318L168.3181818181818,146.05748134984523L168.45454545454547,145.89945197383958L169.54545454545456,145.4844912657855L169.6818181818182,145.14808031253742L170,144.86868434346866L170.13636363636365,144.58608347178324L170.1818181818182,144.39737330727593L170.27272727272728,144.24915493404674L170.3181818181818,144.08851952605332L170.63636363636365,143.8581095591166L170.72727272727272,143.70303979229107L171.22727272727272,143.38134836128592L171.45454545454544,143.1540907484155L171.86363636363635,142.844010730373L171.95454545454544,142.5728118460539L172.04545454545456,142.46086253451702L172.22727272727272,142.2309132264913L172.36363636363635,142.11126557318832L172.95454545454544,141.7317181141253L173,141.41639953062963L173.04545454545456,141.1897943319197L173.3181818181818,141.00450837621526L173.6818181818182,140.7344225829768L173.95454545454544,140.46271559004714L174,140.27317605895993L174.04545454545456,140.10540447481154L174.22727272727272,139.92512249787643L174.45454545454544,139.63230695407296L174.77272727272728,139.46437660787444L175.13636363636365,139.1874242216024L175.3181818181818,138.80724869712543L175.5,138.4783823874189L175.5909090909091,138.2881352878706L175.86363636363637,137.87338626326004L176,137.61239335356697L176.0909090909091,137.44504963862437L176.1818181818182,137.18772749896456L176.27272727272728,136.9757074808109L176.4090909090909,136.71416557037668L176.63636363636365,136.4221042699772L177.1818181818182,135.96264673591926L177.4090909090909,135.62226160123296L177.63636363636365,135.25907350314185L178.45454545454544,134.51839814833158L178.63636363636365,133.96653642579048L178.77272727272728,133.5905580960093L179,133.08522674944567L179.27272727272728,132.541351728456L179.3181818181818,132.26846270923096L179.5,131.88402305942157L179.59090909090907,131.66410432245488L179.86363636363637,131.46311399711595L179.9090909090909,131.08994459937855L180.1818181818182,130.72546314273586L180.5,130.39078273749098L180.77272727272728,130.0013027768985L180.9090909090909,129.6038447375683L181.1818181818182,129.0998901136312L181.6818181818182,128.47328829878586L181.77272727272728,128.16426760048918L182.0909090909091,127.6272715446701L182.22727272727275,127.04130610283752L182.36363636363637,126.77267929022892L182.45454545454544,126.53433203306255L182.6818181818182,126.14689208984117L183.4090909090909,125.35161143838074L183.5,124.76476544242865L183.54545454545453,124.2599428626204L183.72727272727275,123.87137481959235L183.77272727272728,123.45612511005749L183.95454545454547,122.9485153253936L184.04545454545453,122.57996048638346L184.3181818181818,122.13718335022307L184.36363636363637,121.80176677180117L184.68181818181816,121.39779899839976L185.22727272727275,120.55681172939647L185.45454545454547,119.71687200576986L185.5909090909091,119.41724201560098L186,118.69106996295143L186.04545454545453,117.98262112904308L186.3181818181818,117.58418775328799L186.36363636363637,117.1848823530922L187,116.20648571006627L187.18181818181816,115.35824460170639L187.27272727272728,114.75443427773601L187.36363636363637,114.20421037172437L187.5,113.77441520637205L187.63636363636363,113.2842413832074L188.04545454545453,112.715643099752L188.31818181818184,112.03605240166817L188.4090909090909,111.15542848437177L188.9090909090909,110.40520165632131L188.95454545454547,109.81699746190728L189.22727272727272,109.15004624650527L189.54545454545453,108.14710902078184L190.63636363636363,106.69616290010633L190.77272727272725,105.24184541654867L190.9090909090909,104.23226894215495L191,103.2996608716329L191.95454545454547,101.62383344877472L192.0909090909091,100.39773631790614L192.27272727272725,99.26473369637006L192.3181818181818,98.43338657925989L192.36363636363637,98.03123582594887L192.63636363636363,97.32652877226623L192.77272727272725,96.55096726210559L192.86363636363637,95.866215196866L193.27272727272725,94.91063445624424L193.45454545454547,94.3438047077953L193.5909090909091,93.40962138316524L193.8181818181818,92.77050277990483L194.1818181818182,91.87653084414983L194.36363636363637,90.910933351563L194.45454545454547,90.34257226837614L194.54545454545456,89.47633842578426L195.13636363636363,88.0351937763841L195.22727272727272,86.80684129705865L195.36363636363635,85.85141025641992L195.90909090909093,84.73262249278059L196.0909090909091,83.4136310565593L196.3181818181818,82.38048140531589L196.40909090909093,81.64863373667899L196.86363636363635,80.16766998308395L196.95454545454547,79.20991012967666L197.04545454545456,78.52122786159349L197.63636363636363,76.69518446625683L197.9090909090909,75.5309225832492L198.36363636363635,74.11402060846602L198.5909090909091,72.31229911576447L198.9090909090909,70.79585406134697L199.04545454545456,69.14620256898175L199.13636363636363,68.3958584766028L200.04545454545456,65.98978518888174L200.0909090909091,63.79836160188823L200.13636363636363,62.34839400719342L200.36363636363635,61.26707533630987L200.45454545454544,60.50315792870086L200.72727272727272,59.25562516081145L200.9090909090909,58.12554200970692L201.27272727272728,56.74087389498308L201.3181818181818,55.15799959473543L201.54545454545456,54.03768243140368L201.5909090909091,52.967726961248275L201.77272727272728,51.70155120629154L202.27272727272728,50.0850807879423L202.54545454545456,48.234554788991176L202.8181818181818,46.385594883311285L202.95454545454544,45.004656862129735L203.45454545454544,43.60385039291887L203.63636363636365,41.67670096539925L203.8181818181818,40.75923867927759L203.9090909090909,39.761365185481935L204.13636363636365,37.9637187977238L204.3181818181818,36.54152032069433L204.54545454545456,35.646906458754046L204.77272727272728,33.635029486384724L204.95454545454544,31.80805506553682L205,30.99153644074633L205.0909090909091,30.025959566529167L205.5,28.286813279221235L205.54545454545456,26.54432747264687L206.04545454545453,25.223314847978997L206.13636363636365,24.353159740184054L206.1818181818182,23.19666956081727L206.5,21.443445160474113L206.5909090909091,20.03778787819138L206.63636363636365,19.200123643664227L206.6818181818182,18.168864490847795L206.72727272727272,17.348791692272528L206.9090909090909,16.060751929887005L207,15.32672256653936L208,12.819729711456802L208.13636363636365,9.937585630349076L208.77272727272728,6.532151028508025L209,4.16617668574969L209.04545454545453,2.523872133446474L209.13636363636365,-0.27551460318971976" style="fill: none;" fill="none"></path></g></g></g></g><g opacity="0.2"><g><g><g><path stroke="rgb(255, 112, 67)" stroke-width="2px" d="M22.954545454545453,155.75L23.545454545454547,155.75L23.818181818181817,155.75L24.545454545454543,155.75L24.636363636363637,155.75L24.772727272727273,155.75L24.863636363636363,155.75L25.136363636363637,155.75L25.272727272727273,155.75L25.954545454545457,155.75L26.09090909090909,155.75L26.318181818181817,155.75L26.68181818181818,155.75L27,155.75L27.363636363636363,155.75L27.5,155.75L27.545454545454547,155.75L27.863636363636363,155.75L28.09090909090909,155.75L28.454545454545453,155.75L29.045454545454543,155.75L29.545454545454543,155.75L29.772727272727273,155.75L29.90909090909091,155.75L30.318181818181817,155.75L30.363636363636363,155.75L30.818181818181817,155.75L31.045454545454547,155.75L31.136363636363637,155.75L31.181818181818183,155.75L31.363636363636363,155.75L31.72727272727273,155.75L32.09090909090909,155.75L32.13636363636363,155.75L32.36363636363637,155.75L32.86363636363637,155.75L33.13636363636364,155.75L33.36363636363637,155.75L33.5,155.75L34.04545454545455,155.75L34.31818181818182,155.75L34.54545454545455,155.75L34.68181818181818,155.75L34.86363636363636,155.75L35.04545454545455,155.75L35.13636363636364,155.75L36,155.75L36.22727272727273,155.75L36.27272727272727,155.75L36.5,155.75L36.72727272727273,155.75L36.81818181818182,155.75L37.18181818181819,155.75L37.22727272727273,155.75L37.54545454545455,155.75L37.72727272727273,155.75L38.13636363636363,155.75L38.5,155.75L39.22727272727273,155.75L39.40909090909091,155.75L39.68181818181818,155.75L39.86363636363637,155.75L39.95454545454546,155.75L40.54545454545455,155.75L41.86363636363637,155.75L41.90909090909091,155.75L42,155.75L42.27272727272727,155.75L42.68181818181818,155.75L42.77272727272727,155.75L42.81818181818182,155.75L42.95454545454545,155.75L43.22727272727273,155.75L43.63636363636364,155.75L43.77272727272727,155.75L43.81818181818182,155.75L44.27272727272727,155.75L45.04545454545455,155.75L45.13636363636363,155.75L45.77272727272727,155.75L46,155.75L46.09090909090909,155.75L46.22727272727273,155.75L46.59090909090909,155.75L46.86363636363637,155.75L46.95454545454546,155.75L47.09090909090909,155.75L47.36363636363637,155.75L47.59090909090909,155.75L48.04545454545455,155.75L48.31818181818181,155.75L48.59090909090909,155.75L48.77272727272727,155.75L49.04545454545455,155.75L49.13636363636364,155.75L49.18181818181818,155.75L49.27272727272727,155.75L49.36363636363637,155.75L49.40909090909091,155.75L49.63636363636364,155.75L49.68181818181818,155.75L50.090909090909086,155.75L50.36363636363636,155.75L50.45454545454545,155.75L50.68181818181818,155.75L50.909090909090914,155.75L51,155.75L51.54545454545455,155.75L51.86363636363636,155.75L51.909090909090914,155.75L52,155.75L52.09090909090909,155.75L52.13636363636363,155.75L52.22727272727273,155.75L52.772727272727266,155.75L52.909090909090914,155.75L53.09090909090909,155.75L53.22727272727273,155.75L53.36363636363636,155.75L53.54545454545455,155.75L53.59090909090909,155.75L53.77272727272727,155.75L54,155.75L54.04545454545454,155.75L54.5,155.75L54.68181818181818,155.75L54.81818181818182,155.75L55.18181818181818,155.75L55.36363636363637,155.75L55.5,155.75L55.54545454545455,155.75L55.59090909090909,155.75L55.90909090909091,155.75L56.18181818181818,155.75L56.27272727272727,155.75L56.31818181818181,155.75L56.5,155.75L56.68181818181818,155.75L56.81818181818181,155.75L56.86363636363637,155.75L56.90909090909091,155.75L57.090909090909086,155.75L57.5,155.75L57.68181818181818,155.75L57.72727272727273,155.75L57.77272727272727,155.75L57.86363636363637,155.75L57.90909090909091,155.75L58.18181818181818,155.75L58.36363636363636,155.75L58.409090909090914,155.75L58.5,155.75L58.590909090909086,155.75L58.72727272727273,155.75L58.77272727272727,155.75L58.81818181818182,155.75L58.86363636363636,155.75L59,155.75L59.18181818181818,155.75L59.409090909090914,155.75L59.45454545454545,155.75L59.5,155.75L59.77272727272727,155.75L60.54545454545455,155.75L60.72727272727273,155.75L60.81818181818182,155.75L61.04545454545455,155.75L62.13636363636363,155.75L62.22727272727273,155.75L62.45454545454546,155.75L62.54545454545454,155.75L62.72727272727273,155.75L62.81818181818181,155.75L63.18181818181819,155.75L63.45454545454546,155.75L63.63636363636363,155.75L63.95454545454546,155.75L64.04545454545455,155.75L64.31818181818181,155.75L64.40909090909092,155.75L64.54545454545455,155.75L64.5909090909091,155.75L64.68181818181819,155.75L65.04545454545455,155.75L65.0909090909091,155.75L65.22727272727273,155.75L65.54545454545455,155.75L65.68181818181819,155.75L66.0909090909091,155.75L66.27272727272728,155.75L66.4090909090909,155.75L66.45454545454547,155.75L66.86363636363636,155.75L66.9090909090909,155.75L67.0909090909091,155.75L67.13636363636363,155.75L67.18181818181817,155.75L67.22727272727273,155.75L67.4090909090909,155.75L67.45454545454547,155.75L67.5909090909091,155.75L67.63636363636364,155.75L68,155.75L68.18181818181817,155.75L68.27272727272728,155.75L68.36363636363636,155.75L68.4090909090909,155.75L68.81818181818181,155.75L68.95454545454545,155.75L69.31818181818183,155.75L69.4090909090909,155.75L69.5909090909091,155.75L69.63636363636364,155.75L69.86363636363636,155.75L70.18181818181817,155.75L70.68181818181817,155.75L70.77272727272728,155.75L71.04545454545455,155.75L71.18181818181817,155.75L71.27272727272728,155.75L71.45454545454545,155.75L71.63636363636364,155.75L71.72727272727272,155.75L71.95454545454545,155.75L72,155.75L72.04545454545455,155.75L72.4090909090909,155.75L72.68181818181819,155.75L72.86363636363636,155.75L72.9090909090909,155.75L72.95454545454545,155.75L73.36363636363637,155.75L73.5909090909091,155.75L74.22727272727272,155.75L74.31818181818183,155.75L75.22727272727272,155.75L75.27272727272727,155.75L75.45454545454545,155.75L75.5,155.75L75.54545454545455,155.75L76.36363636363637,155.75L76.59090909090908,155.75L76.9090909090909,155.75L76.95454545454545,155.75L77.22727272727273,155.75L77.31818181818181,155.75L77.54545454545455,155.75L77.63636363636364,155.75L77.72727272727273,155.75L77.90909090909092,155.75L78.72727272727273,155.75L78.81818181818181,155.75L78.90909090909092,155.75L79.27272727272727,155.75L79.40909090909092,155.75L79.77272727272727,155.75L79.90909090909092,155.75L80.04545454545455,155.75L80.63636363636363,155.75L80.95454545454545,155.75L81.22727272727273,155.75L81.4090909090909,155.75L81.5,155.75L81.54545454545455,155.75L81.81818181818181,155.75L82.27272727272728,155.75L82.5,155.75L82.54545454545455,155.75L82.68181818181817,155.75L82.95454545454547,155.75L83.04545454545455,155.75L83.18181818181817,155.75L83.31818181818181,155.75L83.45454545454545,155.75L83.5,155.75L84.31818181818181,155.75L84.81818181818183,155.75L85,155.75L85.68181818181817,155.75L85.81818181818183,155.75L85.86363636363636,155.75L85.95454545454545,155.75L86,155.75L86.95454545454545,155.75L87,155.75L87.22727272727272,155.75L87.36363636363636,155.75L87.54545454545455,155.75L87.63636363636364,155.75L87.81818181818183,155.75L88,155.75L88.18181818181819,155.75L89.31818181818183,155.75L89.36363636363637,155.75L89.86363636363637,155.75L90.22727272727272,155.75L90.27272727272727,155.75L90.4090909090909,155.75L90.5,155.75L90.54545454545455,155.75L90.95454545454545,155.75L91.27272727272727,155.75L91.95454545454545,155.75L92,155.75L92.13636363636364,155.75L92.45454545454545,155.75L93,155.75L93.22727272727273,155.75L93.27272727272727,155.75L93.36363636363636,155.75L93.68181818181819,155.75L94,155.75L94.04545454545455,155.75L94.45454545454545,155.75L94.63636363636363,155.75L94.72727272727273,155.75L94.90909090909092,155.75L95.31818181818181,155.75L95.63636363636363,155.75L95.68181818181819,155.75L95.9090909090909,155.75L96.27272727272728,155.75L96.68181818181819,155.75L96.72727272727273,155.75L96.9090909090909,155.75L97.13636363636363,155.75L97.27272727272728,155.75L97.36363636363636,155.75L97.5,155.75L97.63636363636363,155.75L97.81818181818181,155.75L98.18181818181817,155.75L98.54545454545455,155.75L98.72727272727273,155.75L98.86363636363636,155.75L98.9090909090909,155.75L99.18181818181817,155.75L99.22727272727273,155.75L99.5909090909091,155.75L99.77272727272728,155.75L99.81818181818181,155.75L99.86363636363636,155.75L99.95454545454545,155.75L100.0909090909091,155.75L100.4090909090909,155.75L100.45454545454545,155.75L100.81818181818183,155.75L100.86363636363636,155.75L101.27272727272728,155.75L101.45454545454545,155.75L101.54545454545455,155.75L101.5909090909091,155.75L101.68181818181817,155.75L101.9090909090909,155.75L101.95454545454545,155.75L102.04545454545455,155.75L102.0909090909091,155.75L102.13636363636364,155.75L102.36363636363636,155.7499999999998L103,155.74999999988154L103.4090909090909,155.74999999875968L103.68181818181819,155.74999999519093L104,155.74999997380712L104.04545454545455,155.74999996614798L104.45454545454545,155.74999982302964L104.77272727272727,155.74999954129206L105.18181818181819,155.7499987752122L105.31818181818183,155.74999834260154L105.63636363636364,155.74999691340358L105.72727272727272,155.7499962482301L105.9090909090909,155.74999487890173L106.36363636363637,155.74998906621735L106.4090909090909,155.74998834555345L106.54545454545455,155.74998576340872L106.77272727272727,155.74997974355153L106.95454545454545,155.74997358636546L107.54545454545455,155.74994207070543L107.63636363636364,155.74993520240443L107.68181818181819,155.74993347751072L107.95454545454545,155.7499204214937L108,155.74991761475093L108.04545454545455,155.74991377724544L108.13636363636364,155.7499078312848L108.22727272727273,155.74990074231863L108.77272727272727,155.749861663613L109.59090909090908,155.74977051256428L109.86363636363636,155.74973048531317L110.18181818181819,155.7496777598889L110.45454545454545,155.74961901136385L110.63636363636363,155.74957050111823L110.72727272727273,155.74954992476555L110.81818181818181,155.74953181619128L111.0909090909091,155.74946023827835L111.22727272727273,155.7494104873348L111.31818181818181,155.7493872594527L111.45454545454545,155.7493451164082L111.5909090909091,155.74929200761161L111.72727272727273,155.74923323067492L112.13636363636363,155.74906358779813L112.22727272727273,155.7490279195155L112.77272727272728,155.74874591991096L112.81818181818181,155.74871738278327L112.86363636363636,155.74868888627248L113.5,155.7482987386296L113.68181818181817,155.74819724079921L113.86363636363636,155.74806646841606L114.04545454545455,155.747966059172L114.0909090909091,155.74791824825635L114.22727272727273,155.74782890119582L114.31818181818181,155.74777874216693L114.4090909090909,155.74770324532977L114.77272727272728,155.7473689309753L114.86363636363636,155.74732568394504L115,155.74728470150785L115.13636363636364,155.74705718804267L115.27272727272728,155.7469871015898L115.36363636363636,155.74688071440102L115.5,155.7467010266457L115.63636363636364,155.74652816333406L116.36363636363636,155.74577373885225L116.68181818181817,155.74536362451343L116.9090909090909,155.7449582427142L116.95454545454545,155.7448932454764L117,155.74487581464595L117.0909090909091,155.7447957794771L117.13636363636364,155.7446768887433L117.22727272727272,155.74455104902532L117.31818181818183,155.74427163229154L117.5,155.74419145079432L117.68181818181817,155.7438848422663L117.9090909090909,155.7433222941022L118,155.74337240404114L118.31818181818183,155.74254472445145L118.4090909090909,155.7423847525626L118.45454545454545,155.7423847353475L118.68181818181819,155.74188725489554L118.86363636363636,155.7413972904502L119.0909090909091,155.74090205549334L119.18181818181819,155.7407534514906L119.22727272727272,155.7405646061071L119.68181818181819,155.73928150417763L119.72727272727272,155.73948214190713L119.9090909090909,155.7386298942126L120.04545454545453,155.73832989413253L120.18181818181819,155.73801465223005L120.22727272727272,155.73783332016336L120.36363636363637,155.7374674443372L120.4090909090909,155.73705423665945L120.5,155.73715278452042L120.72727272727272,155.73642301583286L120.77272727272727,155.73620349205868L121.0909090909091,155.73509459944674L121.13636363636364,155.73444781401452L121.31818181818183,155.73377447105707L121.4090909090909,155.73342296769061L121.5,155.73363692991035L121.68181818181819,155.73244718871592L122.13636363636364,155.7304281292691L122.22727272727272,155.73027831052562L122.31818181818181,155.72983136339656L122.36363636363637,155.72966449309288L122.54545454545455,155.728587232158L122.68181818181819,155.72819934359396L123.04545454545455,155.72612694207248L123.22727272727273,155.72472966311977L123.86363636363637,155.72174349250298L124.04545454545455,155.72062117748987L124.13636363636364,155.71938115205356L124.36363636363636,155.71742320945262L124.4090909090909,155.71825329592897L124.5,155.71644333651108L124.59090909090908,155.71594736076676L124.63636363636364,155.71643676249337L124.72727272727273,155.71495875761576L124.81818181818181,155.7140755022917L124.86363636363636,155.7139339123678L125.18181818181817,155.71186332488787L125.31818181818183,155.7103068212894L125.54545454545455,155.7090500842912L126.0909090909091,155.7033894999775L126.27272727272728,155.70101877362075L126.40909090909092,155.70013187730225L126.86363636363637,155.69682651284072L127.13636363636363,155.69342400354915L127.18181818181817,155.6918697766482L127.27272727272727,155.6907778957865L127.40909090909092,155.6898862265805L127.54545454545455,155.68972702560555L127.5909090909091,155.68765643166995L127.63636363636363,155.68837734856638L128.0909090909091,155.68021642538037L128.13636363636363,155.68081779198937L128.1818181818182,155.68053861465313L128.27272727272725,155.67964310217525L128.81818181818184,155.66983362623148L128.86363636363637,155.67094423282217L128.9090909090909,155.67147138511925L128.95454545454547,155.67053819738697L129.3181818181818,155.66242583800843L129.72727272727272,155.6565907011511L130.5,155.6454235818789L131.13636363636363,155.63017784302986L131.3181818181818,155.62600706239544L131.36363636363637,155.62713917925817L131.45454545454547,155.62295404122727L131.8181818181818,155.61802598539748L131.9090909090909,155.61455461138746L132.0909090909091,155.60864476958773L132.54545454545456,155.600078051978L132.90909090909093,155.58895454717097L132.95454545454547,155.5879779687699L133.45454545454547,155.5744171151549L133.8181818181818,155.56097583765L134.0909090909091,155.55550153797316L134.13636363636363,155.55144460942685L134.22727272727272,155.54832029190686L134.3181818181818,155.54810641145883L134.54545454545456,155.54060916494956L135.4090909090909,155.51027257153916L135.6818181818182,155.5012974083797L135.72727272727272,155.49967059829788L136.1818181818182,155.4733174593713L136.27272727272728,155.47413285275667L136.4090909090909,155.47534925476697L136.45454545454547,155.46563234443565L136.5,155.4704901540349L136.95454545454547,155.44237635759544L137,155.44804153834178L137.13636363636363,155.43713136309947L137.4090909090909,155.4261772204824L137.63636363636363,155.41158693809805L137.72727272727272,155.41787778457225L137.8181818181818,155.40706752579163L137.9090909090909,155.3954248823183L138.3181818181818,155.38262855145734L138.5,155.37106991768994L138.6818181818182,155.36295051733399L138.77272727272728,155.3643268304423L138.9090909090909,155.34255926146554L139.3181818181818,155.3247335724972L139.36363636363635,155.32718276529653L139.54545454545456,155.31117485355506L139.8181818181818,155.29093075239277L139.9090909090909,155.28208842097325L140.45454545454544,155.24499686189367L140.5,155.25160914878361L140.54545454545456,155.24870971216288L140.5909090909091,155.23749596578241L140.72727272727272,155.22114375196753L140.9090909090909,155.22046764598593L141.1818181818182,155.19764974910396L141.22727272727272,155.1964781235783L141.36363636363635,155.1877188378189L141.72727272727272,155.14781925431907L141.95454545454544,155.1390883734807L142.0909090909091,155.12303212172813L142.22727272727272,155.09672193448517L142.27272727272728,155.11575164780427L142.54545454545456,155.08104007680726L142.63636363636365,155.0818608240899L142.9090909090909,155.04331682671355L143.04545454545456,155.04209538067786L143.1818181818182,155.03160738863798L143.22727272727272,155.0278763247891L143.4090909090909,155.0005567815877L144.27272727272728,154.93618048824635L144.45454545454544,154.89251141678622L144.54545454545453,154.8854894448591L144.77272727272728,154.87258617377415L145,154.82783571836183L145.5909090909091,154.76447972978485L145.77272727272728,154.72684386355738L145.9090909090909,154.74619797829007L146.59090909090907,154.62663288585546L147.09090909090907,154.5684038994539L147.13636363636365,154.57184347716742L147.27272727272728,154.5439134175294L147.54545454545453,154.49954913132265L147.86363636363637,154.46578810948992L147.9090909090909,154.44239815471298L147.95454545454544,154.43958975156045L148,154.4213849860093L148.04545454545453,154.42298488888406L148.09090909090907,154.4480171645513L148.45454545454544,154.33356344297795L149.5,154.1685448302971L149.54545454545453,154.14016029192217L149.5909090909091,154.16319120849698L149.9090909090909,154.1249568764055L150.4090909090909,154.0237649820964L150.5,154.02900539737476L151.04545454545453,153.86157639473828L151.0909090909091,153.8891708287151L151.22727272727275,153.8280678151858L151.3181818181818,153.8112950708184L151.36363636363637,153.87749155150115L151.45454545454544,153.78178108392183L152.3181818181818,153.57882148451603L152.54545454545453,153.56504829981236L152.68181818181816,153.51665485302152L152.8181818181818,153.47134015537125L153.22727272727275,153.42741809074758L153.27272727272728,153.34938657059288L153.54545454545453,153.29749281120277L153.63636363636363,153.23093481334294L153.68181818181816,153.2731382597369L153.95454545454547,153.13563778369337L154.0909090909091,153.13797407984282L154.13636363636363,153.15406097447993L154.36363636363637,153.08634116370354L154.45454545454547,153.01787821133183L154.54545454545453,153.02339062524823L154.68181818181816,152.9494422522427L155.0909090909091,152.85106495852347L155.31818181818184,152.80902760344972L155.4090909090909,152.7940697441718L155.45454545454547,152.76114510093586L155.5,152.73697509538133L156,152.58767965662722L156.45454545454547,152.48578359571755L156.81818181818184,152.3068572450827L157.5909090909091,152.00525441303614L157.9090909090909,151.90581474083913L157.95454545454547,151.89692210688668L158.0909090909091,151.83132016702433L158.54545454545453,151.64259745835471L158.81818181818184,151.54786398233895L159,151.41469152107925L159.22727272727272,151.3796371629379L159.31818181818184,151.2653902980503L159.4090909090909,151.24999724095156L159.5,151.30399950623934L159.5909090909091,151.22812111353105L159.77272727272725,151.0802050866039L159.81818181818184,151.1351072197908L159.95454545454547,151.0912491953528L160.22727272727272,150.8980781038945L160.31818181818184,150.9046457348055L160.45454545454547,150.8862770814674L160.8181818181818,150.5811362013143L160.9090909090909,150.538030683488L160.95454545454547,150.63460713964238L161,150.59116393034242L161.36363636363637,150.3574588443838L162.04545454545456,150.05512251120004L162.13636363636363,150.06069414507306L162.22727272727272,149.90613336357046L162.3181818181818,149.75736732368443L162.4090909090909,149.87314151256976L162.8181818181818,149.58521683785463L163,149.4044312560233L163.5909090909091,149.13882616979924L163.77272727272725,148.8943017354853L164.22727272727272,148.60645859150114L164.63636363636363,148.60595783856556L165.3181818181818,147.91418666352087L165.36363636363635,147.99162543322595L165.63636363636363,147.81240656354953L165.6818181818182,147.66531080188213L165.77272727272725,147.60285991459577L165.90909090909093,147.52995160929365L166.13636363636363,147.4662243253607L166.27272727272728,147.3234739313016L166.3181818181818,147.28209212737568L166.4090909090909,147.13809067730256L167.13636363636363,146.46146383553875L167.45454545454547,146.5750917830192L167.63636363636363,146.0996095178509L167.95454545454547,145.9663640645516L168,145.9311020233996L168.3181818181818,145.56025178113725L168.45454545454547,145.55420308231132L169.54545454545456,144.5779210564699L169.6818181818182,144.413118803212L170,144.2582842327006L170.13636363636365,143.9686815674004L170.1818181818182,143.9850956867281L170.27272727272728,143.9253402715142L170.3181818181818,143.73757720158363L170.63636363636365,143.35472982243317L170.72727272727272,143.3642567985257L171.22727272727272,142.67854478908998L171.45454545454544,142.65759800182605L171.86363636363635,142.16657476738828L171.95454545454544,141.980320015981L172.04545454545456,142.21628537619125L172.22727272727272,141.72853989749248L172.36363636363635,141.84986974463465L172.95454545454544,140.90251570356085L173,140.7275188036296L173.04545454545456,140.69472692327318L173.3181818181818,140.5997116704405L173.6818181818182,140.14436253787625L173.95454545454544,139.86911368829638L174,139.85908651015157L174.04545454545456,139.738871650844L174.22727272727272,139.5312580514513L174.45454545454544,138.9925889188845L174.77272727272728,139.09749693433253L175.13636363636365,138.58236263885522L175.3181818181818,137.9766741436502L175.5,137.7599037617543L175.5909090909091,137.87249990478108L175.86363636363637,136.96727852159495L176,137.0421986527725L176.0909090909091,137.07945158623392L176.1818181818182,136.62555237856125L176.27272727272728,136.51250451121413L176.4090909090909,136.14277146031964L176.63636363636365,135.7840340404421L177.1818181818182,134.95886371565257L177.4090909090909,134.8786176445616L177.63636363636365,134.46561160731227L178.45454545454544,132.90023479355503L178.63636363636365,132.76087673896498L178.77272727272728,132.76915320992686L179,131.98122259739907L179.27272727272728,131.35314069533842L179.3181818181818,131.6722784188221L179.5,131.0441326142966L179.59090909090907,131.18364491621554L179.86363636363637,131.02400774494237L179.9090909090909,130.2746764247039L180.1818181818182,129.92917562917881L180.5,129.65960197953564L180.77272727272728,129.15040069738762L180.9090909090909,128.73551284272577L181.1818181818182,127.99889370592155L181.6818181818182,127.10434293259505L181.77272727272728,127.48914594752256L182.0909090909091,126.45408907877237L182.22727272727275,125.76113956431158L182.36363636363637,126.18580669962537L182.45454545454544,126.01361159224685L182.6818181818182,125.30044686356774L183.4090909090909,123.61415116162323L183.5,123.4826751455397L183.54545454545453,123.15705022010937L183.72727272727275,123.02246501858198L183.77272727272728,122.54892351534119L183.95454545454547,121.83953343915346L184.04545454545453,121.77477379988355L184.3181818181818,121.16984221835676L184.36363636363637,121.06897768645908L184.68181818181816,120.51524520045908L185.22727272727275,118.7194955939307L185.45454545454547,117.88184445670026L185.5909090909091,118.76263636828935L186,117.10459216639858L186.04545454545453,116.43486348553628L186.3181818181818,116.71372502791222L186.36363636363637,116.3125145042568L187,114.06896947721347L187.18181818181816,113.50508090637237L187.27272727272728,113.43528178651412L187.36363636363637,113.00212884457784L187.5,112.83543595977433L187.63636363636363,112.21335207527443L188.04545454545453,111.47341882443223L188.31818181818184,110.55134151349779L188.4090909090909,109.23151763320827L188.9090909090909,108.76617107019834L188.95454545454547,108.53193989067154L189.22727272727272,107.692949005213L189.54545454545453,105.95597864865995L190.63636363636363,103.52626150270696L190.77272727272725,102.06457855756601L190.9090909090909,102.02663371465785L191,101.2621795455879L191.95454545454547,97.96263086253045L192.0909090909091,97.71906551607222L192.27272727272725,96.78944771428809L192.3181818181818,96.61713141257972L192.36363636363637,97.15265169610377L192.63636363636363,95.78694584606782L192.77272727272725,94.85658765710498L192.86363636363637,94.37022820083303L193.27272727272725,92.8229644305546L193.45454545454547,93.10544417455976L193.5909090909091,91.36869857840024L193.8181818181818,91.37421181864161L194.1818181818182,89.9234583985195L194.36363636363637,88.80137959387332L194.45454545454547,89.10086620765577L194.54545454545456,87.58386576330656L195.13636363636363,84.88670578438239L195.22727272727272,84.12324320528391L195.36363636363635,83.76406728228564L195.90909090909093,82.28839190088065L196.0909090909091,80.53201282328608L196.3181818181818,80.12334554304525L196.40909090909093,80.04975634596272L196.86363636363635,76.93218866153555L196.95454545454547,77.11747936713725L197.04545454545456,77.01665449883842L197.63636363636363,72.7058030356806L197.9090909090909,72.98734407451276L198.36363636363635,71.0184959119652L198.5909090909091,68.37605407119989L198.9090909090909,67.48285626730112L199.04545454545456,65.5421868882094L199.13636363636363,66.75657170153286L200.04545454545456,60.73320469405165L200.0909090909091,59.01072917934819L200.13636363636363,59.18063040859272L200.36363636363635,58.904703972532346L200.45454545454544,58.83421735029388L200.72727272727272,56.53012363605947L200.9090909090909,55.65663423372693L201.27272727272728,53.715770943707454L201.3181818181818,51.6998729387804L201.54545454545456,51.59011053953874L201.5909090909091,50.630180934093474L201.77272727272728,48.93532009832876L202.27272727272728,46.55355624339592L202.54545454545456,44.19168588682399L202.8181818181818,42.34614744606159L202.95454545454544,41.98770309610896L203.45454545454544,40.54348976273201L203.63636363636365,37.46643183393917L203.8181818181818,38.75484655099913L203.9090909090909,37.58129761623397L204.13636363636365,34.03637668943696L204.3181818181818,33.43442428489112L204.54545454545456,33.69243158840044L204.77272727272728,29.239654954393103L204.95454545454544,27.816639611072873L205,29.20767727957991L205.0909090909091,27.916450854067534L205.5,24.48727712287328L205.54545454545456,22.737495423888873L206.04545454545453,22.337280897271484L206.13636363636365,22.452120237167037L206.1818181818182,20.670069996977816L206.5,17.61315236227213L206.5909090909091,16.966829611803007L206.63636363636365,17.37006738606675L206.6818181818182,15.915858825777406L206.72727272727272,15.55716768009853L206.9090909090909,13.246754232445966L207,13.723078798206672L208,7.342668887932518L208.13636363636365,3.6409269053812636L208.77272727272728,-0.9077474965333749" style="fill: none;" fill="none"></path></g></g></g></g></g></g><g transform="translate(80, 178)" clip-path="url(#clip_1)"><clipPath id="clip_1"><rect width="250" height="22"></rect></clipPath><g><g><line x1="0" y1="0" x2="0" y2="5" style="visibility: inherit;" fill="rgb(0, 0, 0)" stroke="rgb(204, 204, 204)" stroke-width="1px"></line><line x1="22.727272727272727" y1="0" x2="22.727272727272727" y2="5" style="visibility: inherit;" fill="rgb(0, 0, 0)" stroke="rgb(204, 204, 204)" stroke-width="1px"></line><line x1="45.45454545454545" y1="0" x2="45.45454545454545" y2="5" style="visibility: inherit;" fill="rgb(0, 0, 0)" stroke="rgb(204, 204, 204)" stroke-width="1px"></line><line x1="68.18181818181817" y1="0" x2="68.18181818181817" y2="5" style="visibility: inherit;" fill="rgb(0, 0, 0)" stroke="rgb(204, 204, 204)" stroke-width="1px"></line><line x1="90.9090909090909" y1="0" x2="90.9090909090909" y2="5" style="visibility: inherit;" fill="rgb(0, 0, 0)" stroke="rgb(204, 204, 204)" stroke-width="1px"></line><line x1="113.63636363636363" y1="0" x2="113.63636363636363" y2="5" style="visibility: inherit;" fill="rgb(0, 0, 0)" stroke="rgb(204, 204, 204)" stroke-width="1px"></line><line x1="136.36363636363635" y1="0" x2="136.36363636363635" y2="5" style="visibility: inherit;" fill="rgb(0, 0, 0)" stroke="rgb(204, 204, 204)" stroke-width="1px"></line><line x1="159.0909090909091" y1="0" x2="159.0909090909091" y2="5" style="visibility: inherit;" fill="rgb(0, 0, 0)" stroke="rgb(204, 204, 204)" stroke-width="1px"></line><line x1="181.8181818181818" y1="0" x2="181.8181818181818" y2="5" style="visibility: inherit;" fill="rgb(0, 0, 0)" stroke="rgb(204, 204, 204)" stroke-width="1px"></line><line x1="204.54545454545456" y1="0" x2="204.54545454545456" y2="5" style="visibility: inherit;" fill="rgb(0, 0, 0)" stroke="rgb(204, 204, 204)" stroke-width="1px"></line><line x1="227.27272727272725" y1="0" x2="227.27272727272725" y2="5" style="visibility: inherit;" fill="rgb(0, 0, 0)" stroke="rgb(204, 204, 204)" stroke-width="1px"></line><line x1="250" y1="0" x2="250" y2="5" style="visibility: inherit;" fill="rgb(0, 0, 0)" stroke="rgb(204, 204, 204)" stroke-width="1px"></line></g><g transform="translate(0, 8)"><text x="0" y="0" dx="0em" dy="0.95em" style="text-anchor: middle; visibility: hidden; font-family: &quot;Helvetica Neue&quot;, sans-serif; font-size: 12px; font-weight: 200;" fill="rgb(50, 49, 63)" stroke="none" stroke-width="1px">-500</text><text x="22.727272727272727" y="0" dx="0em" dy="0.95em" style="text-anchor: middle; visibility: inherit; font-family: &quot;Helvetica Neue&quot;, sans-serif; font-size: 12px; font-weight: 200;" fill="rgb(50, 49, 63)" stroke="none" stroke-width="1px">0</text><text x="45.45454545454545" y="0" dx="0em" dy="0.95em" style="text-anchor: middle; visibility: hidden; font-family: &quot;Helvetica Neue&quot;, sans-serif; font-size: 12px; font-weight: 200;" fill="rgb(50, 49, 63)" stroke="none" stroke-width="1px">500</text><text x="68.18181818181817" y="0" dx="0em" dy="0.95em" style="text-anchor: middle; visibility: inherit; font-family: &quot;Helvetica Neue&quot;, sans-serif; font-size: 12px; font-weight: 200;" fill="rgb(50, 49, 63)" stroke="none" stroke-width="1px">1k</text><text x="90.9090909090909" y="0" dx="0em" dy="0.95em" style="text-anchor: middle; visibility: hidden; font-family: &quot;Helvetica Neue&quot;, sans-serif; font-size: 12px; font-weight: 200;" fill="rgb(50, 49, 63)" stroke="none" stroke-width="1px">1.5k</text><text x="113.63636363636363" y="0" dx="0em" dy="0.95em" style="text-anchor: middle; visibility: inherit; font-family: &quot;Helvetica Neue&quot;, sans-serif; font-size: 12px; font-weight: 200;" fill="rgb(50, 49, 63)" stroke="none" stroke-width="1px">2k</text><text x="136.36363636363635" y="0" dx="0em" dy="0.95em" style="text-anchor: middle; visibility: hidden; font-family: &quot;Helvetica Neue&quot;, sans-serif; font-size: 12px; font-weight: 200;" fill="rgb(50, 49, 63)" stroke="none" stroke-width="1px">2.5k</text><text x="159.0909090909091" y="0" dx="0em" dy="0.95em" style="text-anchor: middle; visibility: inherit; font-family: &quot;Helvetica Neue&quot;, sans-serif; font-size: 12px; font-weight: 200;" fill="rgb(50, 49, 63)" stroke="none" stroke-width="1px">3k</text><text x="181.8181818181818" y="0" dx="0em" dy="0.95em" style="text-anchor: middle; visibility: hidden; font-family: &quot;Helvetica Neue&quot;, sans-serif; font-size: 12px; font-weight: 200;" fill="rgb(50, 49, 63)" stroke="none" stroke-width="1px">3.5k</text><text x="204.54545454545456" y="0" dx="0em" dy="0.95em" style="text-anchor: middle; visibility: inherit; font-family: &quot;Helvetica Neue&quot;, sans-serif; font-size: 12px; font-weight: 200;" fill="rgb(50, 49, 63)" stroke="none" stroke-width="1px">4k</text><text x="227.27272727272725" y="0" dx="0em" dy="0.95em" style="text-anchor: middle; visibility: hidden; font-family: &quot;Helvetica Neue&quot;, sans-serif; font-size: 12px; font-weight: 200;" fill="rgb(50, 49, 63)" stroke="none" stroke-width="1px">4.5k</text><text x="250" y="0" dx="0em" dy="0.95em" style="text-anchor: middle; visibility: hidden; font-family: &quot;Helvetica Neue&quot;, sans-serif; font-size: 12px; font-weight: 200;" fill="rgb(50, 49, 63)" stroke="none" stroke-width="1px">5k</text></g><line x1="0" y1="0" x2="250" y2="0" fill="rgb(0, 0, 0)" stroke="rgb(204, 204, 204)" stroke-width="1px"></line></g></g></g></g></svg>