<svg viewBox="0 0 330 200" xmlns="http://www.w3.org/2000/svg"><g><g><g><g><g><line x1="60" y1="175.76209339728146" x2="55" y2="175.76209339728146" style="visibility: inherit;" fill="rgb(0, 0, 0)" stroke="rgb(204, 204, 204)" stroke-width="1px"></line><line x1="60" y1="160.48310083762107" x2="55" y2="160.48310083762107" style="visibility: inherit;" fill="rgb(0, 0, 0)" stroke="rgb(204, 204, 204)" stroke-width="1px"></line><line x1="60" y1="145.20410827796064" x2="55" y2="145.20410827796064" style="visibility: inherit;" fill="rgb(0, 0, 0)" stroke="rgb(204, 204, 204)" stroke-width="1px"></line><line x1="60" y1="129.92511571830025" x2="55" y2="129.92511571830025" style="visibility: inherit;" fill="rgb(0, 0, 0)" stroke="rgb(204, 204, 204)" stroke-width="1px"></line><line x1="60" y1="114.64612315863982" x2="55" y2="114.64612315863982" style="visibility: inherit;" fill="rgb(0, 0, 0)" stroke="rgb(204, 204, 204)" stroke-width="1px"></line><line x1="60" y1="99.36713059897943" x2="55" y2="99.36713059897943" style="visibility: inherit;" fill="rgb(0, 0, 0)" stroke="rgb(204, 204, 204)" stroke-width="1px"></line><line x1="60" y1="84.08813803931902" x2="55" y2="84.08813803931902" style="visibility: inherit;" fill="rgb(0, 0, 0)" stroke="rgb(204, 204, 204)" stroke-width="1px"></line><line x1="60" y1="68.80914547965862" x2="55" y2="68.80914547965862" style="visibility: inherit;" fill="rgb(0, 0, 0)" stroke="rgb(204, 204, 204)" stroke-width="1px"></line><line x1="60" y1="53.530152919998216" x2="55" y2="53.530152919998216" style="visibility: inherit;" fill="rgb(0, 0, 0)" stroke="rgb(204, 204, 204)" stroke-width="1px"></line><line x1="60" y1="38.25116036033779" x2="55" y2="38.25116036033779" style="visibility: inherit;" fill="rgb(0, 0, 0)" stroke="rgb(204, 204, 204)" stroke-width="1px"></line><line x1="60" y1="22.972167800677397" x2="55" y2="22.972167800677397" style="visibility: inherit;" fill="rgb(0, 0, 0)" stroke="rgb(204, 204, 204)" stroke-width="1px"></line><line x1="60" y1="7.693175241017002" x2="55" y2="7.693175241017002" style="visibility: inherit;" fill="rgb(0, 0, 0)" stroke="rgb(204, 204, 204)" stroke-width="1px"></line></g><g transform="translate(50, 0)"><text x="0" y="175.76209339728146" dx="0em" dy="0.3em" style="text-anchor: end; visibility: hidden; font-family: &quot;Helvetica Neue&quot;, sans-serif; font-size: 12px; font-weight: 200;" fill="rgb(50, 49, 63)" stroke="none" stroke-width="1px">-1e+3</text><text x="0" y="160.48310083762107" dx="0em" dy="0.3em" style="text-anchor: end; visibility: inherit; font-family: &quot;Helvetica Neue&quot;, sans-serif; font-size: 12px; font-weight: 200;" fill="rgb(50, 49, 63)" stroke="none" stroke-width="1px">0</text><text x="0" y="145.20410827796064" dx="0em" dy="0.3em" style="text-anchor: end; visibility: hidden; font-family: &quot;Helvetica Neue&quot;, sans-serif; font-size: 12px; font-weight: 200;" fill="rgb(50, 49, 63)" stroke="none" stroke-width="1px">1e+3</text><text x="0" y="129.92511571830025" dx="0em" dy="0.3em" style="text-anchor: end; visibility: inherit; font-family: &quot;Helvetica Neue&quot;, sans-serif; font-size: 12px; font-weight: 200;" fill="rgb(50, 49, 63)" stroke="none" stroke-width="1px">2e+3</text><text x="0" y="114.64612315863982" dx="0em" dy="0.3em" style="text-anchor: end; visibility: hidden; font-family: &quot;Helvetica Neue&quot;, sans-serif; font-size: 12px; font-weight: 200;" fill="rgb(50, 49, 63)" stroke="none" stroke-width="1px">3e+3</text><text x="0" y="99.36713059897943" dx="0em" dy="0.3em" style="text-anchor: end; visibility: inherit; font-family: &quot;Helvetica Neue&quot;, sans-serif; font-size: 12px; font-weight: 200;" fill="rgb(50, 49, 63)" stroke="none" stroke-width="1px">4e+3</text><text x="0" y="84.08813803931902" dx="0em" dy="0.3em" style="text-anchor: end; visibility: hidden; font-family: &quot;Helvetica Neue&quot;, sans-serif; font-size: 12px; font-weight: 200;" fill="rgb(50, 49, 63)" stroke="none" stroke-width="1px">5e+3</text><text x="0" y="68.80914547965862" dx="0em" dy="0.3em" style="text-anchor: end; visibility: inherit; font-family: &quot;Helvetica Neue&quot;, sans-serif; font-size: 12px; font-weight: 200;" fill="rgb(50, 49, 63)" stroke="none" stroke-width="1px">6e+3</text><text x="0" y="53.530152919998216" dx="0em" dy="0.3em" style="text-anchor: end; visibility: hidden; font-family: &quot;Helvetica Neue&quot;, sans-serif; font-size: 12px; font-weight: 200;" fill="rgb(50, 49, 63)" stroke="none" stroke-width="1px">7e+3</text><text x="0" y="38.25116036033779" dx="0em" dy="0.3em" style="text-anchor: end; visibility: inherit; font-family: &quot;Helvetica Neue&quot;, sans-serif; font-size: 12px; font-weight: 200;" fill="rgb(50, 49, 63)" stroke="none" stroke-width="1px">8e+3</text><text x="0" y="22.972167800677397" dx="0em" dy="0.3em" style="text-anchor: end; visibility: hidden; font-family: &quot;Helvetica Neue&quot;, sans-serif; font-size: 12px; font-weight: 200;" fill="rgb(50, 49, 63)" stroke="none" stroke-width="1px">9e+3</text><text x="0" y="7.693175241017002" dx="0em" dy="0.3em" style="text-anchor: end; visibility: inherit; font-family: &quot;Helvetica Neue&quot;, sans-serif; font-size: 12px; font-weight: 200;" fill="rgb(50, 49, 63)" stroke="none" stroke-width="1px">1e+4</text></g><line x1="60" y1="0" x2="60" y2="178" fill="rgb(0, 0, 0)" stroke="rgb(204, 204, 204)" stroke-width="1px"></line></g></g><g transform="translate(60, 0)" clip-path="url(#clip_0)"><clipPath id="clip_0"><rect width="270" height="178"></rect></clipPath><g><g><g><line x1="20.2508609746369" y1="0" x2="20.2508609746369" y2="178" fill="rgb(0, 0, 0)" stroke="rgb(60, 60, 60)" stroke-width="1px" opacity="0.25"></line><line x1="51.96600560627116" y1="0" x2="51.96600560627116" y2="178" fill="rgb(0, 0, 0)" stroke="rgb(60, 60, 60)" stroke-width="1px" opacity="0.25"></line><line x1="83.68115023790541" y1="0" x2="83.68115023790541" y2="178" fill="rgb(0, 0, 0)" stroke="rgb(60, 60, 60)" stroke-width="1px" opacity="0.25"></line><line x1="115.39629486953967" y1="0" x2="115.39629486953967" y2="178" fill="rgb(0, 0, 0)" stroke="rgb(60, 60, 60)" stroke-width="1px" opacity="0.25"></line><line x1="147.11143950117392" y1="0" x2="147.11143950117392" y2="178" fill="rgb(0, 0, 0)" stroke="rgb(60, 60, 60)" stroke-width="1px" opacity="0.25"></line><line x1="178.8265841328082" y1="0" x2="178.8265841328082" y2="178" fill="rgb(0, 0, 0)" stroke="rgb(60, 60, 60)" stroke-width="1px" opacity="0.25"></line><line x1="210.54172876444244" y1="0" x2="210.54172876444244" y2="178" fill="rgb(0, 0, 0)" stroke="rgb(60, 60, 60)" stroke-width="1px" opacity="0.25"></line><line x1="242.25687339607668" y1="0" x2="242.25687339607668" y2="178" fill="rgb(0, 0, 0)" stroke="rgb(60, 60, 60)" stroke-width="1px" opacity="0.25"></line></g><g><line x1="0" y1="175.76209339728146" x2="270" y2="175.76209339728146" fill="rgb(0, 0, 0)" stroke="rgb(60, 60, 60)" stroke-width="1px" opacity="0.25"></line><line x1="0" y1="160.48310083762107" x2="270" y2="160.48310083762107" fill="rgb(0, 0, 0)" stroke="rgb(60, 60, 60)" stroke-width="1px" opacity="0.25"></line><line x1="0" y1="145.20410827796064" x2="270" y2="145.20410827796064" fill="rgb(0, 0, 0)" stroke="rgb(60, 60, 60)" stroke-width="1px" opacity="0.25"></line><line x1="0" y1="129.92511571830025" x2="270" y2="129.92511571830025" fill="rgb(0, 0, 0)" stroke="rgb(60, 60, 60)" stroke-width="1px" opacity="0.25"></line><line x1="0" y1="114.64612315863982" x2="270" y2="114.64612315863982" fill="rgb(0, 0, 0)" stroke="rgb(60, 60, 60)" stroke-width="1px" opacity="0.25"></line><line x1="0" y1="99.36713059897943" x2="270" y2="99.36713059897943" fill="rgb(0, 0, 0)" stroke="rgb(60, 60, 60)" stroke-width="1px" opacity="0.25"></line><line x1="0" y1="84.08813803931902" x2="270" y2="84.08813803931902" fill="rgb(0, 0, 0)" stroke="rgb(60, 60, 60)" stroke-width="1px" opacity="0.25"></line><line x1="0" y1="68.80914547965862" x2="270" y2="68.80914547965862" fill="rgb(0, 0, 0)" stroke="rgb(60, 60, 60)" stroke-width="1px" opacity="0.25"></line><line x1="0" y1="53.530152919998216" x2="270" y2="53.530152919998216" fill="rgb(0, 0, 0)" stroke="rgb(60, 60, 60)" stroke-width="1px" opacity="0.25"></line><line x1="0" y1="38.25116036033779" x2="270" y2="38.25116036033779" fill="rgb(0, 0, 0)" stroke="rgb(60, 60, 60)" stroke-width="1px" opacity="0.25"></line><line x1="0" y1="22.972167800677397" x2="270" y2="22.972167800677397" fill="rgb(0, 0, 0)" stroke="rgb(60, 60, 60)" stroke-width="1px" opacity="0.25"></line><line x1="0" y1="7.693175241017002" x2="270" y2="7.693175241017002" fill="rgb(0, 0, 0)" stroke="rgb(60, 60, 60)" stroke-width="1px" opacity="0.25"></line></g></g></g><g><g><line x1="0" y1="160.48310083762107" x2="270" y2="160.48310083762107" fill="rgb(0, 0, 0)" stroke="rgb(153, 153, 153)" stroke-width="1.5px"></line></g></g><g><g><line x1="20.2508609746369" y1="0" x2="20.2508609746369" y2="178" fill="rgb(0, 0, 0)" stroke="rgb(153, 153, 153)" stroke-width="1.5px"></line></g></g><g><g><g><g><g><path style="fill: none;" stroke="rgb(255, 112, 67)" stroke-width="2px" d="M20.40943669779507,160.20528203301163L20.821733578006317,159.45751368421145L21.012024445796122,158.81131676045035L21.51946675990227,157.61207644876816L21.582897049165535,156.76914683544243L21.67804248306044,156.087118279229L21.931763640113513,155.24364192096243L22.026909074008415,154.60266502561225L22.502636243482932,154.2504254194688L22.59778167737783,153.78812293326322L23.232084570010517,153.54127631639068L23.485805727063592,153.48053646362712L23.612666305590132,153.1588310060925L24.246969198222814,152.76981831626858L24.65926607843406,152.75312742103648L25.008132669382036,152.73812627922018L25.166708392540208,152.8105442294385L25.26185382643511,152.83502534679596L25.54729012811982,153.11302987656768L25.896156719067797,153.07151652270218L26.054732442225966,152.82816333742733L26.118162731489235,152.6007496125051L26.14987787612087,152.48045158517886L26.276738454647408,152.35141438690002L26.530459611700483,152.51039913160417L26.81589591338519,152.7395478230047L26.974471636543363,152.57637153295L27.323338227491337,152.55365466174413L27.513629095281143,152.7721695862198L27.672204818439315,152.87760143319116L28.14793198791383,152.41974309553103L28.338222855703634,152.67702953069548L28.496798578861803,152.6040528835632L28.71880459128324,152.79083690252838L28.84566516980978,152.98047321197507L28.90909545907305,152.91175606130872L29.5116832070741,153.0826814633487L29.670258930232272,153.06374081506542L29.860549798022078,153.18570287276697L30.019125521180246,153.32228072612003L30.08255581044352,153.4156396256949L30.33627696749659,153.58213625076954L30.716858703076202,153.52919994071937L31.00229500476091,153.76483518948882L31.256016161813985,154.01514156605793L31.76345847592013,154.3458764409258L31.89031905444667,154.42076550394586L32.207470500763016,154.7304715897476L33.60293686455492,155.48097642529933L33.63465200918655,156.0432200090149L34.173809467924336,156.43954334493577L34.2372397571876,156.82673202198734L34.268954901819235,157.10068606204186L34.36410033571415,157.36022494676112L34.83982750518866,157.32364189111036L34.93497293908356,157.30493295209297L34.96668808371519,157.26076654520318L35.283839530031536,157.036937833144L35.82299698876932,157.18641757793358L35.88642727803259,157.37558863935402L36.55244531529691,157.69139972904517L36.64759074919181,157.93782696401374L36.901311906244885,158.22681170696455L37.09160277403469,158.46447718105344L37.15503306329796,158.66854080605336L37.25017849719286,158.84930839940748L37.44046936498267,158.98197163574363L37.59904508814084,159.12691220833432L37.91619653445718,159.2241123074346L38.106487402246984,159.28886291874886L38.42363884856333,159.32469282282156L38.613929716353134,159.39018663817112L38.67736000561641,159.39757728767256L38.83593572877457,159.45193767579843L38.867650873406205,159.52059495061977L39.34337804288072,159.58000263934198L39.91425064625013,159.62538658569326L39.977680935513405,159.65388981698186L40.358262671093016,159.69155546857957L40.58026868351446,159.7542866142269L40.61198382814609,159.7576837500443L40.67541411740936,159.7340057699306L40.77055955130426,159.7846307908432L40.83398984056753,159.80443790497677L41.214571576147144,159.82148546739174L41.30971701004204,159.8473847783456L41.43657758856858,159.88188056245852L41.53172302246348,159.88396055068972L41.62686845635838,159.8981452815486L41.75372903488493,159.8767736444465L41.9123047580431,159.87339000211156L42.070880481201264,159.89590041186943L42.89547424162376,159.89119781326343L43.02233482015029,159.88328192132732L43.14919539867683,159.91495943128638L43.180910543308464,159.90688683906427L43.4029165557299,159.89813815295514L43.68835285741461,159.855217387094L43.81521343594115,159.89347050478344L43.942074014467686,159.90569100272063L44.10064973762586,159.91828702677884L44.22751031615239,159.91273730642828L44.51294661783711,159.94412178433006L44.63980719636364,159.95994876450726L44.671522340995274,159.88316156166573L44.703237485626914,159.88634822420855L44.76666777489017,159.88237923590998L44.98867378731162,159.878148741088L45.14724951046979,159.90922301984605L45.21067979973306,159.90190011423448L45.36925552289123,159.9092739315139L45.432685812154496,159.8859731564097L45.559546390681035,159.9034622114269L45.686406969207574,159.9032979262828L45.87669783699738,159.9039109536522L45.90841298162901,159.90988385870358L46.637861308156594,159.87321370752952L46.76472188668314,159.8307470272513L47.81132165952707,159.86232268876398L47.96989738268524,159.89355913881832L48.033327671948506,159.93244995435035L48.22361853973831,159.96632644399452L48.47733969679139,159.96160313405122L48.667630564581195,159.98167347583146L48.79449114310773,160.01183838236773L49.01649715552917,160.0341569593765L49.07992744479243,160.02205406593546L49.270218312582244,160.02160412905238L49.33364860184551,160.01172190847043L49.77766062668839,159.98416252759228L49.80937577132003,159.9795223042119L50.126527217636365,159.99131896144362L50.22167265153127,159.9729870746347L50.507108953215976,159.94122171661482L50.633969531742515,159.97202085029753L50.76083011026905,159.9838741589003L51.04626641195376,159.99301442135186L51.0779815565854,160.03934032972558L51.268272424375205,160.0249514011709L51.29998756900683,160.01006748853757L51.458563292165,160.03284801849568L51.839145027744614,160.04940888469142L52.02943589553442,160.08549785389275L52.124581329429326,160.10766240353945L52.41001763111403,160.0976095423497L52.50516306500894,160.09867305062073L52.75888422206201,160.1106118600511L53.139465957641626,160.1307565280331L53.36147197006306,160.14304786196837L53.77376885027431,160.1167924614469L53.964059718064114,160.11436904539255L54.05920515195901,160.12817283104334L54.122635441222286,160.13068047601448L54.24949601974882,160.15346031151665L54.37635659827536,160.13979106921641L54.439786887538624,160.1330527850215L54.598362610696796,160.15602486143032L54.63007775532843,160.1737223457437L54.915514057013134,160.19471082342773L55.105804924802946,160.18312783108325L55.232665503329486,160.18929555061916L55.26438064796111,160.18783426556598L55.58153209427746,160.18620729160023L55.740107817435636,160.16906085352863L56.18411984227851,160.19183398054122L56.9135681688061,160.1807784007283L57.04042874733263,160.20282529293038L57.07214389196427,160.20976378590936L57.10385903659591,160.20660189089267L57.674731639965316,160.21607375738552L58.05531337554493,160.22589959038137L58.08702852017657,160.22992016194794L58.27731938796637,160.189954270292L58.49932540038781,160.21392833124338L59.3239191608103,160.2314756438053L59.387349450073565,160.23437682487707L59.704500896389916,160.25206407422377L60.053367487337894,160.2192033463042L60.14851292123279,160.21338346721757L60.2436583551277,160.23329188702334L60.87796124776038,160.2381124759436L61.06825211555019,160.2516298113369L61.29025812797162,160.22974399386268L61.480548995761424,160.2062146653146L61.797700442077776,160.22207407499843L61.987991309867574,160.20500934876034L62.08313674376248,160.176839019638L62.43200333471046,160.17334322924185L62.52714876860536,160.18493695193206L62.622294202500264,160.20464431138126L62.654009347131904,160.17932657783706L63.22488195050131,160.1872850993448L64.17633628945035,160.1856165265255L64.27148172334525,160.20135053715913L64.36662715724015,160.20785174098802L64.39834230187178,160.21100488108027L65.09607548376775,160.1990010853489L65.47665721934736,160.16462606820707L65.54008750861063,160.1532373498205L65.66694808713716,160.144926880591L65.79380866566369,160.17204092324826L65.92066924419024,160.17064247707387L66.71354785998109,160.20604993517185L66.74526300461272,160.20612730613175L67.0941295955607,160.2296081304781L67.34785075261378,160.212959347279L67.47471133114031,160.18763112917608L67.53814162040358,160.20363840312586L67.85529306671992,160.2243765631922L68.07729907914135,160.24443285518444L68.55302624861588,160.25891149235468L68.67988682714241,160.27599303661725L69.44105029830163,160.28969129130934L69.47276544293327,160.29840685558935L69.98020775703942,160.3019803168808L70.01192290167104,160.29089729721142L70.29735920335577,160.2861446538397L70.48765007114557,160.28048101873196L70.61451064967211,160.27821727325386L70.89994695135681,160.2713015626183L71.12195296377824,160.2520556525379L71.15366810840989,160.25007601752827L71.56596498862113,160.22558902146784L71.85140129030583,160.23877132014013L72.00997701346401,160.25143236416193L72.16855273662217,160.23684808144102L72.26369817051709,160.23126270000077L72.42227389367527,160.25292579318827L72.51741932757015,160.2261157566745L72.6442799060967,160.24462855071764L72.89800106314976,160.26426697807742L73.15172222020284,160.28005496809024L73.37372823262429,160.26934265583316L73.59573424504572,160.2430333443356L73.88117054673043,160.26536769182485L74.00803112525696,160.28281139343062L74.03974626988861,160.28762594249844L74.07146141452024,160.27835575770757L74.13489170378351,160.2636741199741L74.23003713767841,160.27944531764624L74.45204315009985,160.2754771030522L74.73747945178457,160.27948768761996L75.0546308981009,160.2634184081487L75.18149147662743,160.2709760941673L75.2449217658907,160.26072818525182L75.34006719978561,160.25774139206422L75.49864292294379,160.24086879968866L75.59378835683867,160.25985681133483L75.6255035014703,160.24977339934242L75.65721864610195,160.2548237943427L76.259806394103,160.26967037522627L76.54524269578772,160.2619571666102L76.73553356357752,160.20366081551612L76.95753957599895,160.21147181889216L76.98925472063058,160.2275005658659L77.2746910223153,160.2136208194658L77.49669703473674,160.23864038668023L77.87727877031635,160.24651752614832L78.16271507200106,160.2634757150797L78.28957565052758,160.2636799211629L78.60672709684394,160.25614502586777L78.73358767537047,160.24802556111405L78.89216339852865,160.25850877237468L79.01902397705517,160.27296569004676L79.43132085726643,160.28594561727397L79.52646629116133,160.2627374834581L79.71675715895113,160.2620834569599L79.74847230358276,160.27196139393052L79.7801874482144,160.28927629771917L80.85850236568997,160.27809463880396L81.04879323347978,160.29329651572812L81.58795069221756,160.2860374305547L81.65138098148083,160.28268948462124L81.7148112707441,160.28948943511293L81.90510213853389,160.29839883291126L82.0002475724288,160.30454923279524L82.06367786169207,160.31048269445287L82.15882329558697,160.29262716183382L82.63455046506148,160.27617780447497L82.69798075432476,160.277110993841L83.07856248990437,160.24660855844246L83.110277634536,160.2735993095263L83.14199277916762,160.27357003750063L83.71286538253706,160.28354581414231L83.83972596106358,160.29786441946837L84.09344711811667,160.29159418043884L84.22030769664319,160.30145023826168L84.53745914295953,160.2900312513105L84.63260457685445,160.27552129373635L84.72775001074935,160.29792261155472L84.82289544464426,160.28472027877498L85.58405891580347,160.2943685087164L85.96464065138308,160.29086581424517L85.99635579601471,160.28344415401705L86.09150122990962,160.28183701698273L86.12321637454126,160.26795681848657L86.18664666380452,160.28047172154774L86.25007695306779,160.27846746146935L86.37693753159432,160.25696011545617L86.50379811012087,160.27472679645493L86.66237383327903,160.25954739804757L86.7258041225423,160.27481662632027L87.20153129201682,160.24736436511887L88.15298563096584,160.2494279722641L88.24813106486076,160.27179900304947L88.27984620949239,160.29159772992045L88.40670678801892,160.27625283805742L88.47013707728219,160.28556736650586L88.62871280044037,160.30302062426267L88.91414910212507,160.31891535070585L89.16787025917814,160.31895448146082L89.29473083770469,160.31774586056028L89.61188228402102,160.32354408109782L89.6753125732843,160.31183742696902L89.73874286254755,160.29542482180267L89.77045800717919,160.29395652061103L89.89731858570573,160.30270727019672L89.99246401960063,160.3184236506675L90.24618517665371,160.28213034680562L90.37304575518024,160.25041164423814L90.81705778002312,160.25734895085077L91.00734864781293,160.2726329810259L91.1659243709711,160.2870779363983L91.19763951560273,160.30193464096942L91.26106980486601,160.30919752159815L91.35621523876091,160.3061386083825L91.41964552802416,160.31284220456118L91.48307581728744,160.3222713725667L91.51479096191908,160.32932218228598L91.73679697434052,160.3253174166035L91.83194240823542,160.31950561596568L91.9905181313936,160.32918184570767L92.59310587939464,160.33477488719512L92.91025732571099,160.34091205999482L93.1005481935008,160.31237903123622L93.2908390612906,160.28964793779207L93.41769963981714,160.30658620966332L93.44941478444878,160.30704998795275L93.79828137539675,160.30836518419989L93.82999652002837,160.3191591883196L94.30572368950288,160.30730941540622L94.62287513581923,160.3011726557153L94.90831143750394,160.3147096629008L95.44746889624173,160.3077635343675L96.01834149961114,160.30070760354434L96.05005664424277,160.2874535399251L96.11348693350605,160.28373689335396L96.43063837982238,160.29930831822114L96.55749895834893,160.31591995307744L96.87465040466527,160.31046755624462L97.12837156171834,160.3274369079271L97.16008670634997,160.32142129521307L97.50895329729795,160.3314891843099L97.76267445435103,160.31652034661408L97.95296532214084,160.31740808542472L97.98468046677246,160.31028107825935L98.04811075603573,160.31697738509558L98.111541045299,160.3196235446356L98.27011676845719,160.3266882505477L99.06299538424803,160.3267032985682L99.09471052887966,160.33161616577326L99.411861975196,160.33991528969509L99.47529226445927,160.34666257178716L99.60215284298582,160.34873105295395L99.63386798761745,160.33758288264374L100.07788001246033,160.33412544180038L100.26817088025014,160.33045194958012L100.4267466034083,160.29976745599902L100.49017689267157,160.28513648297456L100.55360718193484,160.2973326110412L100.61703747119812,160.30924378773432L101.02933435140936,160.30242735089624L101.1561949299359,160.30024824071805L101.21962521919916,160.31725706527135L101.31477065309406,160.3043029844808L101.6319220994104,160.30117079901092L101.94907354572675,160.3119448704125L102.01250383499001,160.31692490560013L102.39308557056964,160.30915630757926L102.42480071520127,160.31853633649263L102.45651585983289,160.3225220905374L102.71023701688597,160.331442533033L102.90052788467577,160.3301806130563L103.43968534341356,160.3413285425608L103.62997621120336,160.34664835831438L103.661691355835,160.33369459105668L103.91541251288807,160.3419105694224L104.10570338067788,160.3557331343879L104.29599424846768,160.3562708292666L104.45456997162586,160.3503539879924L105.18401829815345,160.35286371583663L105.2474485874167,160.34392760526774L105.40602431057488,160.34405647208493L105.56460003373304,160.353615519007L105.97689691394429,160.34027198271787L106.19890292636575,160.34879096214553L106.67463009584024,160.3560791187105L107.05521183141985,160.35110280281086L107.15035726531477,160.35141379794737L107.34064813310457,160.35511252653856L107.59436929015764,160.34066587783295L107.62608443478928,160.34814613421904L107.68951472405254,160.33609126439381L107.97495102573725,160.33947929540906L108.70439935226484,160.33664820292157L108.73611449689648,160.33349222225584L108.76782964152811,160.33338903822892L108.98983565394956,160.330371483863L109.33870224489753,160.33580533378364L109.4021325341608,160.3312223100521L109.78271426974041,160.3104870648354L109.81442941437204,160.3161534198628L109.90957484826694,160.33129104953565L109.97300513753022,160.33625832096914L110.00472028216186,160.33261491667386L110.92445947647924,160.34970401284045L111.30504121205885,160.3463621347599L111.33675635669049,160.33307473298586L111.6221926583752,160.3423562557495L111.812483526165,160.3455761882928L111.9076289600599,160.3524628197685L112.09791982784972,160.35648647223275L112.22478040637624,160.35280114477072L112.76393786511403,160.35991748383935L112.8273681543773,160.35805383043837L112.85908329900893,160.34499365548282L112.89079844364056,160.33301887212906L113.23966503458854,160.33652588823418L113.81053763795796,160.33096595788226L114.34969509669574,160.33702327636828L114.57170110911717,160.34582784105467L114.6034162537488,160.34881708043204L114.69856168764372,160.33752393667598L115.20600400174987,160.32989548863176L115.33286458027641,160.3310014346256L115.49144030343457,160.31784931307794L115.55487059269785,160.32733158978914L115.6183008819611,160.32522961989739L115.68173117122437,160.340580807766L115.74516146048765,160.32465360956627L115.8720220390142,160.3124165934936L115.90373718364583,160.32527563421215L116.25260377459381,160.33267913311957L116.3477492084887,160.3430692235727L116.60147036554177,160.35624464281454L116.69661579943667,160.34987700916147L116.98205210112138,160.3599775337404L117.45777927059589,160.3443933847923L117.58463984912244,160.34727916930558L117.64807013838569,160.33898138046007L118.12379730786022,160.3242806488636L118.53609418807146,160.31659669659268L119.26554251459905,160.32452426513166L119.74126968407356,160.31748638784836L119.77298482870519,160.3272602582619L119.963275696495,160.33614875446884L119.99499084112664,160.3338466816158L120.1535665642848,160.33289053321863L120.31214228744298,160.34622062307372L120.43900286596951,160.3458044250614L120.50243315523278,160.35889938844497L121.00987546933894,160.36605283387712L121.35874206028691,160.35881896504551L121.58074807270835,160.34141015995814L121.61246321734,160.34740831037033L121.83446922976142,160.35473046806015L121.92961466365632,160.3452394911895L122.69077813481556,160.34611995986543L122.78592356871046,160.3316811768536L123.00792958113189,160.3392458391625L123.1030750150268,160.34117131098338L123.13479015965844,160.3471077249565L123.19822044892169,160.34871153498585L123.22993559355334,160.3266184240285L123.86423848618601,160.3205478960424L124.02281420934419,160.3275320067205L124.3082505110289,160.32075512376252L124.37168080029217,160.3292977382364L124.43511108955543,160.336731437731L125.06941398218812,160.33357927497218L125.32313513924119,160.34015141293918L125.76714716408408,160.33491749178182L125.79886230871571,160.348510039544L125.95743803187388,160.3560446784124L126.11601375503206,160.3612670367285L126.33801976745349,160.35507397047377L126.7186015030331,160.34937611749018L127.25775896177089,160.32894924305302L127.32118925103414,160.32035382396873L127.38461954029742,160.329203385268L127.47976497419232,160.34176969651267L127.63834069735049,160.347226188868L128.17749815608826,160.342769507113L128.33607387924644,160.3424031392506L129.0338070611424,160.33983713039913L129.1289524950373,160.3388664518664L129.28752821819546,160.341347637046L129.5095342306169,160.34012258502952L129.63639480914344,160.34332241246096L129.69982509840673,160.3564926227642L129.89011596619653,160.36196876760476L129.92183111082815,160.3556645925119L130.11212197861798,160.36201772887665L130.3341279910394,160.36907024350532L130.52441885882922,160.3673479746669L130.6195642927241,160.37191081436706L131.1587217514619,160.37158068204295L131.22215204072518,160.35250557399635L131.5393034870415,160.34892220225575L131.6344489209364,160.34463350205993L131.6978792101997,160.32656140371043L131.85645493335787,160.336559513906L132.363897247464,160.34960165758477L132.42732753672726,160.35462943498152L132.6176184045171,160.36381349954286L132.7444789830436,160.36676890421532L132.8079092723069,160.3608000961L133.25192129714975,160.34452524665116L133.63250303272937,160.3419244030515L133.79107875588753,160.3508288373876L134.17166049146715,160.34263860551064L134.3936665038886,160.34970537937036L134.42538164852022,160.353787938959L134.99625425188964,160.34771833686852L135.05968454115293,160.35555973712408L135.12311483041617,160.3564075219037L135.21826026431108,160.34565260805854L135.31340569820597,160.355642160997L135.85256315694375,160.35170505664263L136.20142974789175,160.36256518769352L136.23314489252337,160.3681556286565L136.4234357603132,160.376055275307L136.6454417727346,160.37188033056563L137.40660524389384,160.38339861815228L137.59689611168366,160.38440833968593L137.66032640094693,160.38884308281715L138.32634443821124,160.39342887480555L138.42148987210615,160.39842807377067L138.54835045063265,160.399559093438L138.5800655952643,160.39877953551624L138.61178073989595,160.38589791494607L138.80207160768575,160.39275443651124L138.89721704158066,160.39206734681594L138.96064733084393,160.38547565269252L139.2460836325286,160.38363517839335L139.46808964495006,160.3823163583505L139.88038652516133,160.38809330780535L140.00724710368783,160.3839531191955L140.1341076822144,160.3878483386386L140.54640456242564,160.37963085850467L140.6098348516889,160.369739613631L140.7049802855838,160.37840443227515L141.0855620211634,160.36533417231632L141.21242259968997,160.36548531466448L141.37099832284812,160.3741624649632L141.4344286121114,160.37891438919618L141.75158005842775,160.38280246303958L141.81501034769101,160.387973493472L141.87844063695428,160.39165842780943L142.29073751716552,160.40022289611414L142.79817983127165,160.40224375987356L142.95675555442983,160.38986955537945L143.17876156685128,160.3922902754657L143.97164018264215,160.3924151584997L144.0033553272738,160.38231557340558L144.03507047190539,160.37795856781153L144.25707648432683,160.3655133884968L144.5742279306432,160.3731599689931L144.82794908769625,160.36561609852046L145.0499551001177,160.35898001644767L145.17681567864423,160.37065340884516L145.5256822695922,160.36639581578476L145.715973137382,160.34461402581206L145.90626400517183,160.34492049750747L146.47713660854123,160.35850586297988L146.6039971870678,160.36051975484256L146.95286377801574,160.36841823148973L147.11143950117392,160.3703930349448L147.2700152243321,160.37075904704037L147.39687580285866,160.37724601343302L147.42859094749028,160.38433200610757L147.77745753843826,160.384183252108L147.80917268306987,160.38038359387895L148.15803927401788,160.37820305104032L148.22146956328112,160.37391436478694L148.25318470791274,160.37863112293817L148.4751907203342,160.37750645898495L148.5703361542291,160.38115863171433L148.60205129886074,160.37950128277845L148.63376644349236,160.39013329567018L149.52179049317814,160.37995529047157L150.06094795191592,160.3659686516667L150.2195236750741,160.35291760387264L150.2512388197057,160.35411382693616L150.31466910896899,160.3567186250036L150.56839026602205,160.3552347876L152.40786865465682,160.33835185657034L152.88359582413136,160.32844830493008L153.23246241507934,160.33147090966176L153.26417755971096,160.34644826762758L153.32760784897425,160.3440621936491L153.39103813823752,160.35252167532872L153.4861835721324,160.35396332246626L153.51789871676405,160.3351078358394L153.58132900602732,160.35586023798473L154.31077733255492,160.34969529991275L154.46935305571307,160.35494226339364L154.56449848960796,160.3618706781149L154.65964392350287,160.36085741938427L154.81821964666105,160.3470020197855L155.16708623760903,160.34872361613083L155.45252253929374,160.36263983944016L155.54766797318865,160.37058386391837L155.57938311782027,160.3711918447625L155.86481941950498,160.36956143003835L156.05511028729478,160.3799290809256L156.56255260140094,160.38673465346798L156.75284346919074,160.39380262672367L156.87970404771727,160.3913397712123L157.16514034940198,160.3835351018667L157.22857063866525,160.3835787440845L157.51400694034996,160.37837803708578L157.64086751887652,160.38512181869672L157.8311583866663,160.37081677149925L157.98973410982447,160.37323474685434L158.1800249776143,160.36755325671146L158.465461279299,160.38107585054456L158.68746729172042,160.37805637018127L158.81432787024696,160.38082031560106L159.0997641719317,160.38156666556347L159.57549134140618,160.3775996644755L159.79749735382765,160.3852481808839L159.98778822161742,160.3835200789906L160.11464880014395,160.38144079712225L160.1463639447756,160.36005646924443L160.74895169277664,160.36800459348774L160.7806668374083,160.37427756156205L160.84409712667156,160.3791997468478L161.03438799446135,160.38380410836885L161.12953342835627,160.37943389324468L161.98584233341037,160.3719796315529L162.1761332012002,160.37585406537585L162.30299377972673,160.3778574558383L162.39813921362165,160.3705820174817L162.65186037067468,160.3776812653968L162.71529065993798,160.368037720578L163.25444811867578,160.36330010019404L163.2861632633074,160.35618800863983L163.88875101130844,160.36914783995383L163.9204661559401,160.37325319252582L164.015611589835,160.38081161290052L164.23761760225642,160.38846286992055L164.3010478915197,160.39890469021688L164.55476904857278,160.38102256220037L164.61819933783605,160.3819307660969L164.6499144824677,160.37251057594185L165.0622113626789,160.38254858727956L165.12564165194217,160.39170638506715L165.4427930982585,160.39353602296217L165.53793853215342,160.3969197439668L165.8868051231014,160.4016256386503L165.9819505569963,160.40555378911162L166.04538084625958,160.4033231923422L166.10881113552287,160.39879276971655L166.48939287110247,160.4031044874095L167.02855032984024,160.39602411184822L167.50427749931472,160.40226785740117L167.69456836710455,160.4056909812764L167.916574379526,160.40707876534438L168.1702955365791,160.38567446439384L168.2971561151056,160.3882645214753L168.51916212752704,160.38497798698853L168.5508772721587,160.37979196282294L168.58259241679033,160.38427618610513L168.89974386310664,160.3888991768978L169.565761900371,160.3783654077122L169.72433762352915,160.3749805003716L169.88291334668733,160.38006888477312L170.07320421447713,160.38533132065047L170.39035566079346,160.38333458323504L170.54893138395164,160.37968298578448L170.73922225174147,160.38696479356014L170.866082830268,160.3934590101808L170.89779797489962,160.39828883409626L171.15151913195268,160.39736027193925L171.2466645658476,160.40310441631146L171.27837971047924,160.39396263464576L171.3418099997425,160.39917621303098L171.4369554336374,160.40046385892177L171.46867057826904,160.39937381448232L171.7223917353221,160.3986226021468L171.81753716921702,160.37856389324858L171.84925231384864,160.37925490529423L171.9126826031119,160.38943603993886L171.97611289237517,160.40008040453972L172.07125832627008,160.39616779075004L172.10297347090173,160.39395250988872L172.29326433869153,160.39478282679207L172.48355520648133,160.3966557499007L172.5469854957446,160.4003820018544L172.6421309296395,160.38349158273422L173.2764338222722,160.370617185717L173.33986411153546,160.3815669579774L173.75216099174668,160.39320446139934L174.1327427273263,160.38504190245075L174.73533047532737,160.38679021676427L174.79876076459064,160.38449623030988L175.30620307869677,160.37965106828764L175.40134851259168,160.38073958577948L175.46477880185495,160.38571952072252L175.4964939464866,160.39017863879542L176.09908169448764,160.39064037186236L176.86024516564686,160.39441893376022L176.95539059954177,160.380066873089L177.367687479753,160.38179656465053L177.62140863680608,160.38469938349132L177.87512979385914,160.39516132273513L177.90684493849076,160.40029563217252L178.00199037238568,160.40690739047113L178.06542066164894,160.41204155051602L178.0971358062806,160.40093448913976L178.54114783112345,160.39594812885565L178.79486898817655,160.3981257943931L179.4926021700725,160.4038865483505L179.6828930378623,160.4070658466292L179.7780384717572,160.40644099936281L180.00004448417863,160.38849266208925L180.4123413643899,160.39219319770282L180.47577165365317,160.39781237245234L180.50748679828482,160.40680039198242L180.72949281070623,160.40776891683103L181.30036541407563,160.41473586515158L181.8078077281818,160.42047297469247L182.02981374060323,160.4257213678865L182.1883894637614,160.4238101382572L182.22010460839303,160.42722722381882L182.41039547618286,160.42807344059543L182.8226923563941,160.4311937188514L182.88612264565737,160.42963680208092L183.07641351344716,160.4286353369469L183.90100727386968,160.4324892733967L184.05958299702786,160.4300887820284L184.47187987723908,160.4316719809831L184.59874045576564,160.43054637937777L185.16961305913503,160.43234737287423L185.42333421618812,160.43502662488157L186.15278254271567,160.4366075651212L186.24792797661058,160.43364853661535L186.27964312124223,160.4350462704695L186.3430734105055,160.43774387815577L186.40650369976876,160.44102396773496L186.4382188444004,160.44151644577136L186.56507942292694,160.43862379072303L187.13595202629637,160.4378303432572L187.2628126048229,160.43863450891544L187.9922609313505,160.44142498252174L188.40455781156172,160.44148432767176L188.91200012566787,160.43844082776786L189.26086671661585,160.43999856408692L189.2925818612475,160.43964670839168L189.76830903072198,160.4424021597706L189.8634544646169,160.4289243632924L190.2123210555649,160.42923333563058L190.24403620019652,160.4324370733276L190.3391816340914,160.43510888444024L190.8783390928292,160.43544490521754L191.0051996713557,160.43733330963153L191.6395025639884,160.44010354775273L191.70293285325167,160.44122390631466L192.1469448780946,160.44223306882859L192.30552060125277,160.44528628848693L192.74953262609563,160.44832954955388L192.78124777072725,160.45077667507198L192.84467805999054,160.45253531553976L193.0032537831487,160.45409365189434L193.89127783283445,160.45475450712635L194.17671413451916,160.45543436113917L194.39872014694058,160.45672644777034L194.52558072546714,160.45807262971735L194.71587159325694,160.459430170256L194.90616246104676,160.45982963340413L195.06473818420494,160.46068874751762L195.1598836180998,160.46145486355493L195.2233139073631,160.46188369148786L195.6990410768376,160.46225374120738L195.9844773785223,160.46256595229974L196.23819853557538,160.46302469812434L196.5553499818917,160.46291998939594L196.77735599431315,160.46310871615472L196.93593171747133,160.46323487732457L196.99936200673463,160.46352724842222L197.0945074406295,160.46354412936415L197.37994374231423,160.46369872894516L197.4433740315775,160.4637982804208L197.6336648993673,160.46245341117395L198.0142466349469,160.46253118504163L198.17282235810507,160.46313750078752L198.42654351515816,160.4632908744358L198.48997380442142,160.46361736966665L198.80712525073776,160.4636886683828L198.87055554000102,160.4639619482483L199.34628270947553,160.46430207844801L199.69514930042354,160.4647777792089L199.7585795896868,160.46418480463745L199.88544016821334,160.4643798141419L200.26602190379293,160.46469522126552L200.36116733768785,160.46411438684717L201.4394822551634,145.3564140930969L201.66148826758484,97.51358502006603L201.75663370147976,25.210325465398284L201.8834942800063,-66.90767749768241L205.08672388780136,-13.157682787241384L205.3087299002228,15.724178252336742L205.6893116358024,40.52306092609584L206.1650388052769,61.79180346274531L206.22846909454017,79.06556720711319L206.45047510696162,93.53192888326656L206.76762655327798,105.46989344997534L207.02134771033104,115.3453825315119L207.0847779995943,123.29277788515108L207.14820828885757,129.84237959620765L207.2433537227525,135.08974475287397L207.30678401201575,139.54962421583974L207.59222031370044,143.16815317943605L207.9093717600168,146.1766354316693L207.94108690464844,148.6259663326975L208.25823835096475,150.64522760450558L208.3850989294913,152.325011455311L208.41681407412293,153.6928142138361L209.019401822124,154.84367419358819L209.17797754528218,155.77022136313403L209.24140783454544,156.50344761541322L209.27312297917706,157.121881842745L209.36826841307197,157.61365750354696L209.65370471475666,158.05470861464244L210.2245773181261,158.4383657531901L210.8588802107588,158.76692044123843L211.01745593391695,159.03651924031595L211.14431651244348,159.23810883859414L211.30289223560166,159.41002355793472L211.49318310339146,159.52223782719614L211.5248982480231,159.6334133030427L211.55661339265475,159.70635197521975L211.6517588265496,159.78254810837183L211.74690426044452,159.83770556966198L212.19091628528741,159.86921461738459L212.34949200844557,159.88154924839583L212.44463744234048,159.88141580914328L212.98379490107828,159.91887558726927L213.01551004570993,159.93429595920782L213.14237062423643,159.94284980991475L213.3009463473946,159.9593760115013L213.52295235981606,159.947873043898L213.80838866150074,159.96110685973292L213.87181895076404,159.96762888096086L214.18897039708037,159.93978967526004L214.3792612648702,159.94979986357004L214.44269155413343,159.95930102177937L214.63298242192326,159.97696825890486L214.69641271118653,159.9686006364253L214.7598430004498,159.98624759222238L215.1404247360294,159.98016115278278L215.20385502529265,159.98322555402723L215.26728531455592,160.00323492647732L215.521006471609,160.0034324956389L215.99673364108352,160.02474701315828L216.12359421961006,160.0471443381784L216.28216994276823,160.01461568464586L216.37731537666315,160.0320770726723L216.88475769076928,160.05519096591917L217.2019091370856,160.07749079051922L217.23362428171725,160.09004872512097L217.29705457098052,160.09356933984242L217.48734543877035,160.1202682005091L217.51906058340197,160.14273866380972L217.67763630656015,160.13005294679147L217.89964231898156,160.11359812757175L218.05821804213974,160.1451142994165L218.2802240545612,160.15269885979666L218.47051492235101,160.17781009585224L218.88281180256226,160.1903454953645L219.1048178149837,160.2078314627811L219.70740556298475,160.21784791353537L220.34170845561744,160.20998363192518L220.43685388951232,160.2176356303379L220.56371446803888,160.21719809565107L220.5954296126705,160.22591538889267L220.81743562509192,160.22160746219924L221.3565930838297,160.22266135330113L221.7054596747777,160.21306653352198L222.05432626572565,160.22021975547483L222.2763322781471,160.227900073851L222.46662314593692,160.2272065918866L223.22778661709614,160.23978844367548L223.95723494362375,160.24480568835304L224.24267124530843,160.21919337965306L224.71839841478297,160.23687703690052L224.7501135594146,160.23094636405787L224.972119571836,160.2433278728693L225.09898015036256,160.23651540956288L225.41613159667892,160.2219952389044L225.51127703057378,160.24116031386L225.54299217520543,160.2453367118547L225.8601436215218,160.2526368429448L225.98700420004832,160.26668205157253L226.24072535710138,160.2609919494101L226.27244050173303,160.26264975226385L226.39930108025956,160.27462325631518L226.68473738194427,160.2797868614755L226.71645252657592,160.28335601176792L227.03360397289225,160.2848368793338L227.06531911752387,160.27837526692292L227.09703426215552,160.28796840880239L227.3507554192086,160.27949405845678L227.47761599773514,160.28155852536224L227.98505831184127,160.28343097665473L228.23877946889434,160.2865078447211L228.6510763491056,160.29559932214266L228.7462217830005,160.2871721440578L228.87308236152705,160.28334012239048L228.9365126507903,160.2759441185619L228.96822779542194,160.26532588733286L229.06337322931682,160.2775598315162L229.34880953100156,160.27631847836227L229.38052467563318,160.265616658189L229.6659609773179,160.24330305372993L229.76110641121278,160.22497048854038L230.07825785752914,160.22818954960843L230.23683358068732,160.24575687452779L231.12485763037307,160.2298448431897L231.37857878742614,160.2605730512956L231.66401508911088,160.27297018466138L231.7274453783741,160.2670482928804L231.85430595690065,160.27971541752498L232.04459682469047,160.2816180018217L232.10802711395374,160.29912423211948L232.13974225858536,160.29185128000847L232.36174827100683,160.30269939040068L232.4568937049017,160.28810075146103L232.61546942805987,160.3104746749615L232.71061486195478,160.2695161786702L232.74233000658643,160.27914216821003L232.96433601900787,160.25940897719954L233.09119659753438,160.27329220025553L233.2180571760609,160.2680671375424L233.53520862237727,160.27080746673505L233.56692376700892,160.27542046242183L233.9475055025885,160.2974529454509L234.07436608111504,160.30695332490612L234.2963720935365,160.31156570710135L234.42323267206305,160.28459869932232L234.772099263011,160.28954984956414L235.1526809985906,160.2773283663515L235.66012331269678,160.27702154837425L236.3261413499611,160.26118736736814L236.45300192848762,160.28291715825975L236.92872909796213,160.29701266767933L237.0873048211203,160.310740135055L237.18245025501523,160.32144144786434L237.372741122805,160.2955581552331L237.49960170133156,160.30600857938236L237.6264622798581,160.31938924532517L237.88018343691118,160.31791240262436L238.07047430470095,160.3272503926483L238.1021894493326,160.33639983163516L238.13390459396425,160.35012847897644L238.64134690807037,160.3532595709782L238.86335292049182,160.3538785576177L238.9267832097551,160.3307453426959L239.1170740775449,160.32191602468265L239.37079523459798,160.330918358155L239.46594066849286,160.33817119296958L239.59280124701942,160.33612230988663L239.6562315362827,160.3433303202794L239.90995269333578,160.3489737373005L240.16367385038882,160.36301867331764L240.25881928428373,160.32748479649993L240.7028313091266,160.3170857322618L240.82969188765315,160.3149816090673L241.08341304470622,160.29272965196532L241.17855847860113,160.2943382462906L241.36884934639093,160.31198637884438L241.90800680512874,160.32094459532436L241.93972194976035,160.32293177967733L242.00315223902362,160.32935318939482L242.57402484239304,160.33195715633974L242.70088542091958,160.31941593116304" fill="none"></path></g></g></g></g><g opacity="0.2"><g><g><g><path stroke="rgb(255, 112, 67)" stroke-width="2px" d="M20.40943669779507,160.20528203301163L20.821733578006317,158.85032578498573L21.012024445796122,157.86053879385602L21.51946675990227,155.20552334551502L21.582897049165535,154.7111629803859L21.67804248306044,154.18120976192276L21.931763640113513,152.64479860382122L22.026909074008415,152.47855656227776L22.502636243482932,153.01658105030901L22.59778167737783,152.09779780091674L23.232084570010517,152.60796638396425L23.485805727063592,153.24473732976878L23.612666305590132,151.8835011642439L24.246969198222814,151.20171062582992L24.65926607843406,152.68494232896253L25.008132669382036,152.6761842321227L25.166708392540208,153.11215588615264L25.26185382643511,152.93769616379646L25.54729012811982,154.28549420170992L25.896156719067797,152.895643030863L26.054732442225966,151.79340602568305L26.118162731489235,151.63090073482238L26.14987787612087,151.96618621522674L26.276738454647408,151.79871693038442L26.530459611700483,153.1924424038796L26.81589591338519,153.72384994295413L26.974471636543363,151.87472581512367L27.323338227491337,152.45589172858817L27.513629095281143,153.71319829176903L27.672204818439315,153.33189212021315L28.14793198791383,150.44601131810907L28.338222855703634,153.78654193232276L28.496798578861803,152.28925801365148L28.71880459128324,153.59674912917643L28.84566516980978,153.79885166753928L28.90909545907305,152.61515918606463L29.5116832070741,153.82052426196594L29.670258930232272,152.9819701781252L29.860549798022078,153.7122825220734L30.019125521180246,153.91200564457222L30.08255581044352,153.81877338864254L30.33627696749659,154.30111917243363L30.716858703076202,153.30059648353654L31.00229500476091,154.78244753795795L31.256016161813985,155.0961387586143L31.76345847592013,155.77424803340958L31.89031905444667,154.74420016482895L32.207470500763016,156.06806322819187L33.60293686455492,158.7223708667579L33.63465200918655,158.47154392513545L34.173809467924336,158.15127142577785L34.2372397571876,158.49901678286614L34.268954901819235,158.28391092098622L34.36410033571415,158.48119401150063L34.83982750518866,157.1656362891861L34.93497293908356,157.22412711513422L34.96668808371519,157.07000689883412L35.283839530031536,156.070195050518L35.82299698876932,157.83203919230158L35.88642727803259,158.19264286049588L36.55244531529691,159.05542975386328L36.64759074919181,159.00217965780024L36.901311906244885,159.4749767706583L37.09160277403469,159.4909877028716L37.15503306329796,159.5499205602207L37.25017849719286,159.6300695259822L37.44046936498267,159.55496329687412L37.59904508814084,159.75293158268784L37.91619653445718,159.6439337149782L38.106487402246984,159.56853029202603L38.42363884856333,159.47944744267556L38.613929716353134,159.673064073893L38.67736000561641,159.42949859378422L38.83593572877457,159.68672822969174L38.867650873406205,159.81713588597532L39.34337804288072,159.8365932526256L39.91425064625013,159.82140658308006L39.977680935513405,159.7769995047101L40.358262671093016,159.8542390132626L40.58026868351446,160.02523175581408L40.61198382814609,159.77235648474286L40.67541411740936,159.63173705214007L40.77055955130426,160.00328778767923L40.83398984056753,159.88998777825242L41.214571576147144,159.89511642659951L41.30971701004204,159.95924775740363L41.43657758856858,160.03087298922918L41.53172302246348,159.89294432952417L41.62686845635838,159.95941124607447L41.75372903488493,159.7844663616163L41.9123047580431,159.85877554702608L42.070880481201264,159.99312622365593L42.89547424162376,159.87088658959414L43.02233482015029,159.8490920052252L43.14919539867683,160.05177931429557L43.180910543308464,159.87202011104532L43.4029165557299,159.8603512747324L43.68835285741461,159.6698362071978L43.81521343594115,160.05869141713077L43.942074014467686,159.9584731533268L44.10064973762586,159.9726911306408L44.22751031615239,159.88876723769764L44.51294661783711,160.0796760185911L44.63980719636364,160.0283078490694L44.671522340995274,159.55150619633133L44.703237485626914,159.90011189433596L44.76666777489017,159.865236584327L44.98867378731162,159.85987660388201L45.14724951046979,160.04343745786315L45.21067979973306,159.87027139425697L45.36925552289123,159.94112254656827L45.432685812154496,159.78533363841564L45.559546390681035,159.97900004479348L45.686406969207574,159.90258835427733L45.87669783699738,159.9065587101625L45.90841298162901,159.9356817252012L46.637861308156594,159.71482986310193L46.76472188668314,159.64732711030982L47.81132165952707,159.99870267359236L47.96989738268524,160.02847401883787L48.033327671948506,160.10042517887996L48.22361853973831,160.11264404820065L48.47733969679139,159.94120245493465L48.667630564581195,160.06836027117942L48.79449114310773,160.14212510634272L49.01649715552917,160.13055421752046L49.07992744479243,159.96977986660517L49.270218312582244,160.01966078464238L49.33364860184551,159.96903912595712L49.77766062668839,159.86512945699116L49.80937577132003,159.95948048833506L50.126527217636365,160.0422704809763L50.22167265153127,159.8938089252259L50.507108953215976,159.80402240431638L50.633969531742515,160.10504689577797L50.76083011026905,160.03507036414214L51.04626641195376,160.0324925761957L51.0779815565854,160.2394288275949L51.268272424375205,159.9628034757115L51.29998756900683,159.94578165312132L51.458563292165,160.13124052022962L51.839145027744614,160.12093773230276L52.02943589553442,160.24137148682615L52.124581329429326,160.2033943945666L52.41001763111403,160.05418973763653L52.50516306500894,160.10326650123824L52.75888422206201,160.16217735610135L53.139465957641626,160.21776434931706L53.36147197006306,160.19613596385898L53.77376885027431,160.00339147621594L53.964059718064114,160.1039019505195L54.05920515195901,160.18779343715215L54.122635441222286,160.14151136812382L54.24949601974882,160.251849813792L54.37635659827536,160.08075157587717L54.439786887538624,160.10394913200935L54.598362610696796,160.2552446808131L54.63007775532843,160.25016041628876L54.915514057013134,160.28536318448846L55.105804924802946,160.13309916202093L55.232665503329486,160.21593484989134L55.26438064796111,160.1815227577831L55.58153209427746,160.1791801487268L55.740107817435636,160.09500283377264L56.18411984227851,160.29019450785083L56.9135681688061,160.13302770494053L57.04042874733263,160.29804910393094L57.07214389196427,160.23973217047813L57.10385903659591,160.19294519539514L57.674731639965316,160.25698415947159L58.05531337554493,160.26833882651246L58.08702852017657,160.24728560935245L58.27731938796637,160.01733563186306L58.49932540038781,160.31747587109734L59.3239191608103,160.3072651001898L59.387349450073565,160.2469074580168L59.704500896389916,160.32845793842327L60.053367487337894,160.0772729682686L60.14851292123279,160.18824654265202L60.2436583551277,160.31927931724826L60.87796124776038,160.25893331745033L61.06825211555019,160.31001319612062L61.29025812797162,160.1352158886017L61.480548995761424,160.10458799094735L61.797700442077776,160.29057322746257L61.987991309867574,160.13130425458314L62.08313674376248,160.05516717257774L62.43200333471046,160.1582443898712L62.52714876860536,160.23501196695568L62.622294202500264,160.28976333198105L62.654009347131904,160.06997551593346L63.22488195050131,160.2216591390483L64.17633628945035,160.17840971200826L64.27148172334525,160.26930807244895L64.36662715724015,160.23593140858938L64.39834230187178,160.22462376275533L65.09607548376775,160.1471549037858L65.47665721934736,160.01615524948804L65.54008750861063,160.1040477789168L65.66694808713716,160.10903272625927L65.79380866566369,160.28915051174667L65.92066924419024,160.16460237976747L66.71354785998109,160.3589800201482L66.74526300461272,160.20646148283097L67.0941295955607,160.33102530797402L67.34785075261378,160.141050773036L67.47471133114031,160.07823478290186L67.53814162040358,160.27277620337708L67.85529306671992,160.31394776518087L68.07729907914135,160.33105896740625L68.55302624861588,160.32144688268576L68.67988682714241,160.34977077034696L69.44105029830163,160.34885609349004L69.47276544293327,160.33605067577753L69.98020775703942,160.31741462841612L70.01192290167104,160.24302808459694L70.29735920335577,160.26561727927668L70.48765007114557,160.25601893518154L70.61451064967211,160.26843981938035L70.89994695135681,160.24143157838395L71.12195296377824,160.16892970048852L71.15366810840989,160.24152567908237L71.56596498862113,160.11982603848338L71.85140129030583,160.2957076314269L72.00997701346401,160.30611729897947L72.16855273662217,160.17385639224221L72.26369817051709,160.20713860569498L72.42227389367527,160.3464919190832L72.51741932757015,160.11031921598735L72.6442799060967,160.32458806541456L72.89800106314976,160.34908827071652L73.15172222020284,160.34824564835844L73.37372823262429,160.22307458374402L73.59573424504572,160.1293995095695L73.88117054673043,160.36183306502303L74.00803112525696,160.3581533386641L74.03974626988861,160.3084206969829L74.07146141452024,160.23831644892996L74.13489170378351,160.2002619399763L74.23003713767841,160.34756346929402L74.45204315009985,160.2583377932099L74.73747945178457,160.2968099996893L75.0546308981009,160.1940127968154L75.18149147662743,160.30361886569446L75.2449217658907,160.21646594036147L75.34006719978561,160.24484098744546L75.49864292294379,160.16799356027934L75.59378835683867,160.34186886163639L75.6255035014703,160.20622164116233L75.65721864610195,160.27663720253545L76.259806394103,160.33379496925537L76.54524269578772,160.22864266982154L76.73553356357752,159.95187019270554L76.95753957599895,160.2452087058142L76.98925472063058,160.2967311113057L77.2746910223153,160.15367212756755L77.49669703473674,160.3467036237979L77.87727877031635,160.280540064702L78.16271507200106,160.33672065876198L78.28957565052758,160.26456191764993L78.60672709684394,160.22360069086966L78.73358767537047,160.21295638356068L78.89216339852865,160.30378732313864L79.01902397705517,160.3354072706305L79.43132085726643,160.34200785614897L79.52646629116133,160.1624980969768L79.71675715895113,160.259258619106L79.74847230358276,160.31462567488876L79.7801874482144,160.36406194599772L80.85850236568997,160.22979938859572L81.04879323347978,160.35895568627296L81.58795069221756,160.2546843605503L81.65138098148083,160.2682292075044L81.7148112707441,160.31885943404512L81.90510213853389,160.3368798489339L82.0002475724288,160.33111372591117L82.06367786169207,160.33611019905922L82.15882329558697,160.21550645711747L82.63455046506148,160.20513058013776L82.69798075432476,160.28114157769852L83.07856248990437,160.11486399704026L83.110277634536,160.3901763833565L83.14199277916762,160.27344360726218L83.71286538253706,160.32663267921174L83.83972596106358,160.3597086084298L84.09344711811667,160.26451208420482L84.22030769664319,160.34402001992206L84.53745914295953,160.24071094596815L84.63260457685445,160.21285062591605L84.72775001074935,160.39467723957893L84.82289544464426,160.2276974371943L85.58405891580347,160.3360406508038L85.96464065138308,160.27573715514603L85.99635579601471,160.25138889813815L86.09150122990962,160.27489555277074L86.12321637454126,160.20800617391797L86.18664666380452,160.33452545179074L86.25007695306779,160.26981076368384L86.37693753159432,160.16406668480357L86.50379811012087,160.35146373779L86.66237383327903,160.19398531556467L86.7258041225423,160.34076669737055L87.20153129201682,160.12879396035535L88.15298563096584,160.25834099887012L88.24813106486076,160.3684228168671L88.27984620949239,160.3771113800227L88.40670678801892,160.20997596469152L88.47013707728219,160.32579820214482L88.62871280044037,160.3784038439357L88.91414910212507,160.38756704151373L89.16787025917814,160.31912349301956L89.29473083770469,160.31252564688344L89.61188228402102,160.3485874591642L89.6753125732843,160.26127464424252L89.73874286254755,160.22453633565863L89.77045800717919,160.28761470908117L89.89731858570573,160.34050306096043L89.99246401960063,160.38630503865835L90.24618517665371,160.1253741620405L90.37304575518024,160.11341384378716L90.81705778002312,160.28731221132654L91.00734864781293,160.3386469836973L91.1659243709711,160.34946785002808L91.19763951560273,160.36610296071274L91.26106980486601,160.3405669847393L91.35621523876091,160.29292670662124L91.41964552802416,160.3417960348648L91.48307581728744,160.36299735352668L91.51479096191908,160.35977567958417L91.73679697434052,160.30802023716643L91.83194240823542,160.29440358342356L91.9905181313936,160.3709749231039L92.59310587939464,160.35893206638565L92.91025732571099,160.36741942336377L93.1005481935008,160.1891406304277L93.2908390612906,160.19146895972486L93.41769963981714,160.37974512859662L93.44941478444878,160.3090531154581L93.79828137539675,160.31404571267154L93.82999652002837,160.36578009973016L94.30572368950288,160.25612848133372L94.62287513581923,160.2746670766247L94.90831143750394,160.373178013085L95.44746889624173,160.27776217070235L96.01834149961114,160.27023198743578L96.05005664424277,160.23020726514423L96.11348693350605,160.26768414326995L96.43063837982238,160.36656362137086L96.55749895834893,160.38766807809517L96.87465040466527,160.28691784226447L97.12837156171834,160.40073006519413L97.16008670634997,160.29543896795872L97.50895329729795,160.37497389679206L97.76267445435103,160.25186770720447L97.95296532214084,160.3212423615642L97.98468046677246,160.279498472843L98.04811075603573,160.34589973164367L98.111541045299,160.33105270179766L98.27011676845719,160.35720176757235L99.06299538424803,160.3267682932099L99.09471052887966,160.35283557093564L99.411861975196,160.3757604419532L99.47529226445927,160.37580508805723L99.60215284298582,160.3576651311849L99.63386798761745,160.2894322747082L100.07788001246033,160.31919223985994L100.26817088025014,160.3145855895649L100.4267466034083,160.1672365581913L100.49017689267157,160.2219431314008L100.55360718193484,160.35000950460574L100.61703747119812,160.3606899338768L101.02933435140936,160.27298614497863L101.1561949299359,160.29083633931012L101.21962521919916,160.3907207117462L101.31477065309406,160.2483523802153L101.6319220994104,160.28764242347083L101.94907354572675,160.35847968944492L102.01250383499001,160.33843441928283L102.39308557056964,160.27560257570184L102.42480071520127,160.35905007839503L102.45651585983289,160.3397371558797L102.71023701688597,160.3699712527481L102.90052788467577,160.32473019273147L103.43968534341356,160.3894781104207L103.62997621120336,160.36962543486706L103.661691355835,160.27774534098623L103.91541251288807,160.37739660364014L104.10570338067788,160.4154348511538L104.29599424846768,160.35859321353L104.45456997162586,160.32479826929742L105.18401829815345,160.36370360418508L105.2474485874167,160.3053312128106L105.40602431057488,160.3446130670614L105.56460003373304,160.39490246635123L105.97689691394429,160.28263926214987L106.19890292636575,160.38558570307782L106.67463009584024,160.3875577523847L107.05521183141985,160.3296093532869L107.15035726531477,160.35275703226043L107.34064813310457,160.37108788619844L107.59436929015764,160.27826865044477L107.62608443478928,160.38045447563135L107.68951472405254,160.28402448621247L107.97495102573725,160.35411270596435L108.70439935226484,160.324420292816L108.73611449689648,160.31986107172094L108.76782964152811,160.3329433710487L108.98983565394956,160.3173382171336L109.33870224489753,160.35927494088776L109.4021325341608,160.31142754797762L109.78271426974041,160.2209284525164L109.81442941437204,160.3406272511513L109.90957484826694,160.3966727266333L109.97300513753022,160.3577127060967L110.00472028216186,160.3168785108879L110.92445947647924,160.42351436436857L111.30504121205885,160.33192806560345L111.33675635669049,160.2756844657491L111.6221926583752,160.38244453492018L111.812483526165,160.3594835565117L111.9076289600599,160.38220720678058L112.09791982784972,160.3738652264931L112.22478040637624,160.3368836665838L112.76393786511403,160.390654012157L112.8273681543773,160.3500044338341L112.85908329900893,160.2885848147174L112.89079844364056,160.28129799934572L113.23966503458854,160.3516732131137L113.81053763795796,160.30695179061755L114.34969509669574,160.3631857370633L114.57170110911717,160.3838560672533L114.6034162537488,160.3617280505087L114.69856168764372,160.288747166836L115.20600400174987,160.29694708537693L115.33286458027641,160.33577818008828L115.49144030343457,160.261043341287L115.55487059269785,160.36828695515882L115.6183008819611,160.31615089887555L115.68173117122437,160.40688487451766L115.74516146048765,160.25586166840574L115.8720220390142,160.25956309854146L115.90373718364583,160.38081574625173L116.25260377459381,160.36465594754952L116.3477492084887,160.38794557170013L116.60147036554177,160.4131512408166L116.69661579943667,160.3223742510429L116.98205210112138,160.40360320373003L117.45777927059589,160.2770831244422L117.58463984912244,160.359743302416L117.64807013838569,160.30314199459548L118.12379730786022,160.26078599962784L118.53609418807146,160.28340856231617L119.26554251459905,160.3587646143531L119.74126968407356,160.28708874766735L119.77298482870519,160.36947506026073L119.963275696495,160.37453949340528L119.99499084112664,160.32390368610154L120.1535665642848,160.32876078588626L120.31214228744298,160.4037952664903L120.43900286596951,160.3440068038593L120.50243315523278,160.41545848561228L121.00987546933894,160.39694963010538L121.35874206028691,160.32757480817705L121.58074807270835,160.26621893798503L121.61246321734,160.37331521534213L121.83446922976142,160.38635595765658L121.92961466365632,160.30424654853527L122.69077813481556,160.34992283521052L122.78592356871046,160.26931792256852L123.00792958113189,160.37191874232641L123.1030750150268,160.3494877105502L123.13479015965844,160.3727479810531L123.19822044892169,160.35563862936792L123.22993559355334,160.23119498734047L123.86423848618601,160.2943283815492L124.02281420934419,160.35769742092594L124.3082505110289,160.29148475694404L124.37168080029217,160.3661945624533L124.43511108955543,160.36883869299496L125.06941398218812,160.3199646145458L125.32313513924119,160.36853745564767L125.76714716408408,160.31231140678295L125.79886230871571,160.40721827775096L125.95743803187388,160.38858790586522L126.11601375503206,160.38382318009377L126.33801976745349,160.3283251949481L126.7186015030331,160.32476624183766L127.25775896177089,160.24072253005846L127.32118925103414,160.2832289287748L127.38461954029742,160.36742595853926L127.47976497419232,160.3960454663568L127.63834069735049,160.3707935920197L128.17749815608826,160.32352043485193L128.33607387924644,160.34082074188748L129.0338070611424,160.3287541559981L129.1289524950373,160.3346739467145L129.28752821819546,160.35206424537492L129.5095342306169,160.33483140291565L129.63639480914344,160.35714294370743L129.69982509840673,160.4133767225846L129.89011596619653,160.38562105276725L129.92183111082815,160.32843592136607L130.11212197861798,160.3894578710478L130.3341279910394,160.39953110456105L130.52441885882922,160.35990923904558L130.6195642927241,160.391618398604L131.1587217514619,160.37015479136645L131.22215204072518,160.27011734136963L131.5393034870415,160.33344508601434L131.6344489209364,160.3261099671717L131.6978792101997,160.2485053193498L131.85645493335787,160.37974284092093L132.363897247464,160.40593261858032L132.42732753672726,160.37634515437597L132.6176184045171,160.4034808422226L132.7444789830436,160.37953373716238L132.8079092723069,160.33501992487854L133.25192129714975,160.2742317479678L133.63250303272937,160.330690972185L133.79107875588753,160.3892884154776L134.17166049146715,160.30726377421215L134.3936665038886,160.38022782816873L134.42538164852022,160.37142112186314L134.99625425188964,160.32150282145648L135.05968454115293,160.389427912696L135.12311483041617,160.36006923063255L135.21826026431108,160.29920053336576L135.31340569820597,160.398788527944L135.85256315694375,160.33470011655876L136.20142974789175,160.40947171116864L136.23314489252337,160.39230157579448L136.4234357603132,160.41017502573368L136.6454417727346,160.35384812242734L137.40660524389384,160.4331478177286L137.59689611168366,160.3887694773739L137.66032640094693,160.40799739889445L138.32634443821124,160.41323559339375L138.42148987210615,160.4200203586626L138.54835045063265,160.40444413583091L138.5800655952643,160.39541250874782L138.61178073989595,160.33026027716426L138.80207160768575,160.42236877433524L138.89721704158066,160.38909970408935L138.96064733084393,160.35700514403186L139.2460836325286,160.37568589578206L139.46808964495006,160.37662017816544L139.88038652516133,160.41304481289754L140.00724710368783,160.36607102796566L140.1341076822144,160.40467237155246L140.54640456242564,160.34413833792627L140.6098348516889,160.32701785385746L140.7049802855838,160.41582907450405L141.0855620211634,160.30888177291973L141.21242259968997,160.36613812097679L141.37099832284812,160.41164036944483L141.4344286121114,160.3994386576919L141.75158005842775,160.39959563304402L141.81501034769101,160.41030794406305L141.87844063695428,160.40757420803286L142.29073751716552,160.43721411028125L142.79817983127165,160.41097217143027L142.95675555442983,160.33642352320263L143.17876156685128,160.4027457260511L143.97164018264215,160.39295454692302L144.0033553272738,160.3386939611906L144.03507047190539,160.35914001173518L144.25707648432683,160.3117608054991L144.5742279306432,160.40618668900896L144.82794908769625,160.333032998394L145.0499551001177,160.3303177896227L145.17681567864423,160.4210725292003L145.5256822695922,160.34800663724724L145.715973137382,160.25053523082354L145.90626400517183,160.34624419440468L146.47713660854123,160.41718307980753L146.6039971870678,160.36921805373876L146.95286377801574,160.40253292849772L147.11143950117392,160.37892250518692L147.2700152243321,160.37233990779362L147.39687580285866,160.40526418742684L147.42859094749028,160.41493746382946L147.77745753843826,160.38354076142903L147.80917268306987,160.36397230408122L148.15803927401788,160.36878496175845L148.22146956328112,160.35539089011823L148.25318470791274,160.39900350388922L148.4751907203342,160.37264886786778L148.5703361542291,160.39693290967313L148.60205129886074,160.37234294588524L148.63376644349236,160.43605454284082L149.52179049317814,160.33599497014575L150.06094795191592,160.30555827555193L150.2195236750741,160.296548184677L150.2512388197057,160.35928049250842L150.31466910896899,160.3679691358055L150.56839026602205,160.34882587285693L152.40786865465682,160.26543196297402L152.88359582413136,160.28567339039876L153.23246241507934,160.3445259896731L153.26417755971096,160.4111377073523L153.32760784897425,160.33375638476335L153.39103813823752,160.38905943662573L153.4861835721324,160.36019001116665L153.51789871676405,160.25366818083407L153.58132900602732,160.4454929536337L154.31077733255492,160.32306801419764L154.46935305571307,160.37760468013028L154.56449848960796,160.39179553318755L154.65964392350287,160.3564810040159L154.81821964666105,160.2871584853482L155.16708623760903,160.3561594471542L155.45252253929374,160.42274608054225L155.54766797318865,160.4048952887923L155.57938311782027,160.37381780457872L155.86481941950498,160.36251942601695L156.05511028729478,160.42470850922572L156.56255260140094,160.41612893487456L156.75284346919074,160.42433025589182L156.87970404771727,160.38070233145052L157.16514034940198,160.34982557256544L157.22857063866525,160.38376724132306L157.51400694034996,160.3559154089849L157.64086751887652,160.4142492158674L157.8311583866663,160.30903114211446L157.98973410982447,160.38367834253688L158.1800249776143,160.34301405460496L158.465461279299,160.43948194731308L158.68746729172042,160.36501478478237L158.81432787024696,160.3927582075206L159.0997641719317,160.3847902622096L159.57549134140618,160.36046559594666L159.79749735382765,160.41828326239252L159.98778822161742,160.37605614953662L160.11464880014395,160.37246006905244L160.1463639447756,160.26769437224027L160.74895169277664,160.4023337258579L160.7806668374083,160.40137144494676L160.84409712667156,160.40045939818833L161.03438799446135,160.40369103153427L161.12953342835627,160.36055828324035L161.98584233341037,160.33978356509687L162.1761332012002,160.3925883221005L162.30299377972673,160.3865103976229L162.39813921362165,160.33915831564357L162.65186037067468,160.408343974477L162.71529065993798,160.326385814233L163.25444811867578,160.34283761215264L163.2861632633074,160.3254698259696L163.88875101130844,160.42512328158648L163.9204661559401,160.39098482171977L164.015611589835,160.4134575562211L164.23761760225642,160.42150978853888L164.3010478915197,160.4440044672415L164.55476904857278,160.30378698800143L164.61819933783605,160.3858534339903L164.6499144824677,160.33182337165513L165.0622113626789,160.4259042532702L165.12564165194217,160.43126027763907L165.4427930982585,160.40143850152995L165.53793853215342,160.41153453894427L165.8868051231014,160.4219510986663L165.9819505569963,160.4225200559977L166.04538084625958,160.39368891267858L166.10881113552287,160.3792251996525L166.48939287110247,160.42172743829616L167.02855032984024,160.36544291527494L167.50427749931472,160.42923552436403L167.69456836710455,160.4204759631203L167.916574379526,160.41307281142525L168.1702955365791,160.29322610071392L168.2971561151056,160.39945136376326L168.51916212752704,160.37078295505628L168.5508772721587,160.3573927520651L168.58259241679033,160.40364421432398L168.89974386310664,160.40886656266198L169.565761900371,160.33286848974038L169.72433762352915,160.36036058143233L169.88291334668733,160.40204637484777L170.07320421447713,160.40806056497183L170.39035566079346,160.37471037695138L170.54893138395164,160.36391119254063L170.73922225174147,160.41841600586767L170.866082830268,160.42150849898923L170.89779797489962,160.4191495629226L171.15151913195268,160.3933496736866L171.2466645658476,160.4279142313659L171.27837971047924,160.35447791808966L171.3418099997425,160.42169443456714L171.4369554336374,160.40602539330112L171.46867057826904,160.39466575020128L171.7223917353221,160.395378004187L171.81753716921702,160.29192734204995L171.84925231384864,160.38223948923604L171.9126826031119,160.4334098768082L171.97611289237517,160.44605500058168L172.07125832627008,160.3792686290628L172.10297347090173,160.38438438191312L172.29326433869153,160.39836908916195L172.48355520648133,160.40474518375282L172.5469854957446,160.41647623901625L172.6421309296395,160.31053934695979L173.2764338222722,160.3150107475362L173.33986411153546,160.42886065518732L173.75216099174668,160.44346857192386L174.1327427273263,160.34978659465148L174.73533047532737,160.39434144667163L174.79876076459064,160.3745881611558L175.30620307869677,160.35872409189378L175.40134851259168,160.3854410549463L175.46477880185495,160.40722860143396L175.4964939464866,160.4094382338762L176.09908169448764,160.39263466574735L176.86024516564686,160.41073910536164L176.95539059954177,160.31807818550894L177.367687479753,160.38926736011848L177.62140863680608,160.39723709039936L177.87512979385914,160.4403479964903L177.90684493849076,160.4224714793171L178.00199037238568,160.43546455929268L178.06542066164894,160.4342167524121L178.0971358062806,160.35296143681254L178.54114783112345,160.37441129613916L178.79486898817655,160.40753145618257L179.4926021700725,160.42876810267708L179.6828930378623,160.4207977094074L179.7780384717572,160.40374219095702L180.00004448417863,160.31097112024807L180.4123413643899,160.40817636216144L180.47577165365317,160.42208242509395L180.50748679828482,160.44562098697406L180.72949281070623,160.41195211990052L181.30036541407563,160.44482715257874L181.8078077281818,160.44525240526272L182.02981374060323,160.448389959767L182.1883894637614,160.41555525283715L182.22010460839303,160.4419861252869L182.41039547618286,160.43172837688604L182.8226923563941,160.44467066536123L182.88612264565737,160.42291224666795L183.07641351344716,160.42430985987872L183.90100727386968,160.44913499891396L184.05958299702786,160.41972070228863L184.47187987723908,160.43851005306414L184.59874045576564,160.42568473840157L185.16961305913503,160.4401261320184L185.42333421618812,160.44659871333891L186.15278254271567,160.44343588147527L186.24792797661058,160.4208680517923L186.27964312124223,160.44108329115875L186.3430734105055,160.4493952475241L186.40650369976876,160.45519116315145L186.4382188444004,160.44364353175834L186.56507942292694,160.4261299827483L187.13595202629637,160.43440332547928L187.2628126048229,160.44210782016273L187.9922609313505,160.45347745362974L188.40455781156172,160.4417406482133L188.91200012566787,160.42529549839583L189.26086671661585,160.44672665925214L189.2925818612475,160.43812699123993L189.76830903072198,160.45430336466256L189.8634544646169,160.3707117529716L190.2123210555649,160.43056783317638L190.24403620019652,160.44627449359356L190.3391816340914,160.44664883456488L190.8783390928292,160.4368962290004L191.0051996713557,160.44548960954725L191.6395025639884,160.45206861878683L191.70293285325167,160.44606290180553L192.1469448780946,160.44659179202708L192.30552060125277,160.4584735989262L192.74953262609563,160.46147384735372L192.78124777072725,160.46134617465015L192.84467805999054,160.46013114564525L193.0032537831487,160.46082433870248L193.89127783283445,160.45760883929867L194.17671413451916,160.4583707518753L194.39872014694058,160.46230716236877L194.52558072546714,160.46388699004166L194.71587159325694,160.46529359002943L194.90616246104676,160.46155497423527L195.06473818420494,160.4643993893271L195.1598836180998,160.4647638328225L195.2233139073631,160.46373586319802L195.6990410768376,160.46385204105977L195.9844773785223,160.46391443850723L196.23819853557538,160.4650060896647L196.5553499818917,160.46246773680306L196.77735599431315,160.4639238551341L196.93593171747133,160.4637797862071L196.99936200673463,160.46479004273755L197.0945074406295,160.4636170406666L197.37994374231423,160.46436646756098L197.4433740315775,160.46422825807088L197.6336648993673,160.45664472059713L198.0142466349469,160.46286710195943L198.17282235810507,160.46575626879638L198.42654351515816,160.4639533180657L198.48997380442142,160.46502755119553L198.80712525073776,160.46399661815676L198.87055554000102,160.4651422846888L199.34628270947553,160.46577115143822L199.69514930042354,160.46683240164418L199.7585795896868,160.4616236591481L199.88544016821334,160.4652220892355L200.26602190379293,160.4660575116079L200.36116733768785,160.46160567648715L201.4394822551634,80.10400644136703L201.66148826758484,-109.12671927408877L204.04012411495742,-4.491403540359357L204.10355440422066,29.884718262630003L204.42070585053702,80.79366495220694L204.45242099516867,83.2286126429367L204.99157845390644,124.93719235745105L205.08672388780136,122.67671837741295L205.3087299002228,140.46923763604664L205.6893116358024,147.6331286446725L206.1650388052769,153.65467016359295L206.22846909454017,153.6735255072553L206.45047510696162,156.014299527078L206.76762655327798,157.0317404083133L207.02134771033104,157.9990906921911L207.0847779995943,157.61876207214587L207.14820828885757,158.1310848588563L207.2433537227525,157.7538963869859L207.30678401201575,158.81250785375573L207.59222031370044,158.79711870305422L207.9093717600168,159.17071835088947L207.94108690464844,159.2049912882021L208.25823835096475,159.3667177784853L208.3850989294913,159.5802480875131L208.41681407412293,159.60055804321047L209.019401822124,159.81440985081522L209.17797754528218,159.7721165847895L209.24140783454544,159.670361002917L209.27312297917706,159.79299137781632L209.36826841307197,159.73770982573416L209.65370471475666,159.95967405192718L210.2245773181261,160.09543807500245L210.8588802107588,160.18599707259608L211.01745593391695,160.20095660654437L211.14431651244348,160.1088043375403L211.30289223560166,160.1525488350867L211.49318310339146,160.00690796889972L211.5248982480231,160.11359674127345L211.55661339265475,160.02138496355892L211.6517588265496,160.11165055581603L211.74690426044452,160.0759388599152L212.19091628528741,160.00530688733534L212.34949200844557,159.93482435680613L212.44463744234048,159.8808394651376L212.98379490107828,160.0806699481112L213.01551004570993,160.00089884226168L213.14237062423643,159.97979516509565L213.3009463473946,160.03075513750284L213.52295235981606,159.89819001361138L213.80838866150074,160.01826568131784L213.87181895076404,159.9957984620092L214.18897039708037,159.8195479995735L214.3792612648702,159.99303535776008L214.44269155413343,160.00033793915156L214.63298242192326,160.05327568734046L214.69641271118653,159.93245962869437L214.7598430004498,160.06246742257997L215.1404247360294,159.9538729143522L215.20385502529265,159.99646115940223L215.26728531455592,160.0896583862085L215.521006471609,160.0042858262729L215.99673364108352,160.11680758882719L216.12359421961006,160.14388172071213L216.28216994276823,159.87411958534568L216.37731537666315,160.10749540819077L216.88475769076928,160.1550233133472L217.2019091370856,160.17380705421732L217.23362428171725,160.14428831499657L217.29705457098052,160.1087753991713L217.48734543877035,160.23558455615438L217.51906058340197,160.23979194146992L217.67763630656015,160.07526144562755L217.89964231898156,160.04252731264404L218.05821804213974,160.2812373395118L218.2802240545612,160.18545770569412L218.47051492235101,160.28626926434754L218.88281180256226,160.24448775283238L219.1048178149837,160.2833559603463L219.70740556298475,160.2611104561549L220.34170845561744,160.17601662837478L220.43685388951232,160.2506857511417L220.56371446803888,160.21530831817398L220.5954296126705,160.26356667672337L220.81743562509192,160.20300088520432L221.3565930838297,160.22721326593273L221.7054596747777,160.17162507788004L222.05432626572565,160.25111558646267L222.2763322781471,160.26107251279495L222.46662314593692,160.2242113399978L223.22778661709614,160.29413133544443L223.95723494362375,160.26647591536462L224.24267124530843,160.10857000377877L224.71839841478297,160.3132553862885L224.7501135594146,160.2053309047587L224.972119571836,160.29680545348026L225.09898015036256,160.20709136592038L225.41613159667892,160.15928045925193L225.51127703057378,160.32393712696603L225.54299217520543,160.26337519681041L225.8601436215218,160.28416719637667L225.98700420004832,160.3273453994753L226.24072535710138,160.23641555070859L226.27244050173303,160.26981004969588L226.39930108025956,160.3263386036008L226.68473738194427,160.30208924121047L226.71645252657592,160.2987717034564L227.03360397289225,160.29123296690554L227.06531911752387,160.2504666005526L227.09703426215552,160.32940261734555L227.3507554192086,160.24289207717683L227.47761599773514,160.29047526540072L227.98505831184127,160.29151837266272L228.23877946889434,160.2997972961567L228.6510763491056,160.33486676717627L228.7462217830005,160.25077390679755L228.87308236152705,160.26678905008268L228.9365126507903,160.24399967649384L228.96822779542194,160.21946416521598L229.06337322931682,160.33040005852072L229.34880953100156,160.27095688920812L229.38052467563318,160.21939390297263L229.6659609773179,160.14692727276832L229.76110641121278,160.14578940910468L230.07825785752914,160.2420931537959L230.23683358068732,160.32163276726453L231.12485763037307,160.16111840996365L231.37857878742614,160.39329275864662L231.66401508911088,160.32651525004968L231.7274453783741,160.24147076029445L231.85430595690065,160.33442661545791L232.04459682469047,160.28983554676293L232.10802711395374,160.37473624808644L232.13974225858536,160.26043831663543L232.36174827100683,160.34955399486068L232.4568937049017,160.22504705561522L232.61546942805987,160.40711098284652L232.71061486195478,160.0926103329865L232.74233000658643,160.32071825069062L232.96433601900787,160.1741783862394L233.09119659753438,160.33325590834824L233.2180571760609,160.24549931348366L233.53520862237727,160.28264335665222L233.56692376700892,160.2953446778349L233.9475055025885,160.39261452108713L234.07436608111504,160.34798687872336L234.2963720935365,160.331487272753L234.42323267206305,160.1681241763618L234.772099263011,160.310934604864L235.1526809985906,160.22454196013518L235.66012331269678,160.27569635583424L236.3261413499611,160.1927971813204L236.45300192848762,160.37677136147244L236.92872909796213,160.35789327219376L237.0873048211203,160.37003111116695L237.18245025501523,160.36766201170036L237.372741122805,160.18376435940033L237.49960170133156,160.35114551772915L237.6264622798581,160.37718233439728L237.88018343691118,160.3115336990442L238.07047430470095,160.36758256232622L238.1021894493326,160.37591762130188L238.13390459396425,160.40942455153555L238.64134690807037,160.36678322366663L238.86335292049182,160.35655205310314L238.9267832097551,160.23082954207624L239.1170740775449,160.2837808851787L239.37079523459798,160.3698007771951L239.46594066849286,160.36949726674328L239.59280124701942,160.32727287869858L239.6562315362827,160.3744627906991L239.90995269333578,160.3733484959236L240.16367385038882,160.4236808437747L240.25881928428373,160.17400869024468L240.7028313091266,160.27217062502055L240.82969188765315,160.30589358761017L241.08341304470622,160.19662013512053L241.17855847860113,160.30128600475945L241.36884934639093,160.3882112917894L241.90800680512874,160.35963646650384L241.93972194976035,160.3315147248614L242.00315223902362,160.3570882143449L242.57402484239304,160.34320407739966L242.70088542091958,160.26524851178277" style="fill: none;" fill="none"></path></g></g></g></g></g></g><g transform="translate(60, 178)" clip-path="url(#clip_1)"><clipPath id="clip_1"><rect width="270" height="22"></rect></clipPath><g><g><line x1="20.2508609746369" y1="0" x2="20.2508609746369" y2="5" style="visibility: inherit;" fill="rgb(0, 0, 0)" stroke="rgb(204, 204, 204)" stroke-width="1px"></line><line x1="51.96600560627116" y1="0" x2="51.96600560627116" y2="5" style="visibility: inherit;" fill="rgb(0, 0, 0)" stroke="rgb(204, 204, 204)" stroke-width="1px"></line><line x1="83.68115023790541" y1="0" x2="83.68115023790541" y2="5" style="visibility: inherit;" fill="rgb(0, 0, 0)" stroke="rgb(204, 204, 204)" stroke-width="1px"></line><line x1="115.39629486953967" y1="0" x2="115.39629486953967" y2="5" style="visibility: inherit;" fill="rgb(0, 0, 0)" stroke="rgb(204, 204, 204)" stroke-width="1px"></line><line x1="147.11143950117392" y1="0" x2="147.11143950117392" y2="5" style="visibility: inherit;" fill="rgb(0, 0, 0)" stroke="rgb(204, 204, 204)" stroke-width="1px"></line><line x1="178.8265841328082" y1="0" x2="178.8265841328082" y2="5" style="visibility: inherit;" fill="rgb(0, 0, 0)" stroke="rgb(204, 204, 204)" stroke-width="1px"></line><line x1="210.54172876444244" y1="0" x2="210.54172876444244" y2="5" style="visibility: inherit;" fill="rgb(0, 0, 0)" stroke="rgb(204, 204, 204)" stroke-width="1px"></line><line x1="242.25687339607668" y1="0" x2="242.25687339607668" y2="5" style="visibility: inherit;" fill="rgb(0, 0, 0)" stroke="rgb(204, 204, 204)" stroke-width="1px"></line></g><g transform="translate(0, 8)"><text x="20.2508609746369" y="0" dx="0em" dy="0.95em" style="text-anchor: middle; visibility: inherit; font-family: &quot;Helvetica Neue&quot;, sans-serif; font-size: 12px; font-weight: 200;" fill="rgb(50, 49, 63)" stroke="none" stroke-width="1px">0</text><text x="51.96600560627116" y="0" dx="0em" dy="0.95em" style="text-anchor: middle; visibility: inherit; font-family: &quot;Helvetica Neue&quot;, sans-serif; font-size: 12px; font-weight: 200;" fill="rgb(50, 49, 63)" stroke="none" stroke-width="1px">1k</text><text x="83.68115023790541" y="0" dx="0em" dy="0.95em" style="text-anchor: middle; visibility: inherit; font-family: &quot;Helvetica Neue&quot;, sans-serif; font-size: 12px; font-weight: 200;" fill="rgb(50, 49, 63)" stroke="none" stroke-width="1px">2k</text><text x="115.39629486953967" y="0" dx="0em" dy="0.95em" style="text-anchor: middle; visibility: inherit; font-family: &quot;Helvetica Neue&quot;, sans-serif; font-size: 12px; font-weight: 200;" fill="rgb(50, 49, 63)" stroke="none" stroke-width="1px">3k</text><text x="147.11143950117392" y="0" dx="0em" dy="0.95em" style="text-anchor: middle; visibility: inherit; font-family: &quot;Helvetica Neue&quot;, sans-serif; font-size: 12px; font-weight: 200;" fill="rgb(50, 49, 63)" stroke="none" stroke-width="1px">4k</text><text x="178.8265841328082" y="0" dx="0em" dy="0.95em" style="text-anchor: middle; visibility: inherit; font-family: &quot;Helvetica Neue&quot;, sans-serif; font-size: 12px; font-weight: 200;" fill="rgb(50, 49, 63)" stroke="none" stroke-width="1px">5k</text><text x="210.54172876444244" y="0" dx="0em" dy="0.95em" style="text-anchor: middle; visibility: inherit; font-family: &quot;Helvetica Neue&quot;, sans-serif; font-size: 12px; font-weight: 200;" fill="rgb(50, 49, 63)" stroke="none" stroke-width="1px">6k</text><text x="242.25687339607668" y="0" dx="0em" dy="0.95em" style="text-anchor: middle; visibility: inherit; font-family: &quot;Helvetica Neue&quot;, sans-serif; font-size: 12px; font-weight: 200;" fill="rgb(50, 49, 63)" stroke="none" stroke-width="1px">7k</text></g><line x1="0" y1="0" x2="270" y2="0" fill="rgb(0, 0, 0)" stroke="rgb(204, 204, 204)" stroke-width="1px"></line></g></g></g></g></svg>